<svg xmlns="http://www.w3.org/2000/svg" width="661.297" height="248.316" viewBox="0 0 661.297 248.316">
  <g id="amazon-web-services-logo-svg-vector" transform="translate(-11.074 -14.471)">
    <path id="Path_690" data-name="Path 690" d="M268.147,127.416c-12.944,0-27.393,4.986-30.42,21.4a2.309,2.309,0,0,0,1.947,2.83l13.266,1.59c1.228-.062,2.06-1.4,2.3-2.654,1.132-5.648,5.778-8.314,10.968-8.314,2.8,0,5.948.962,7.607,3.537,1.9,2.869,1.766,6.769,1.766,10.08v1.947c-7.884.906-18.264,1.455-25.644,4.777-8.518,3.786-14.5,11.489-14.5,22.814,0,14.511,8.891,21.756,20.341,21.756,9.667,0,15.009-2.27,22.463-10.08,2.473,3.679,3.266,5.348,7.782,9.2a2.722,2.722,0,0,0,3.181-.351v.175c2.717-2.479,7.657-6.984,10.436-9.372,1.109-.928.866-2.456,0-3.713-2.485-3.52-5.128-6.361-5.128-12.91V158.368c0-9.214.781-17.709-5.835-24.053-5.224-5.133-13.917-6.9-20.527-6.9Zm178.278,0c-12.949,0-27.387,4.986-30.42,21.4a2.306,2.306,0,0,0,1.947,2.83l13.266,1.59c1.228-.062,2.066-1.4,2.3-2.654,1.138-5.648,5.779-8.314,10.968-8.314,2.807,0,5.948.962,7.607,3.537,1.9,2.869,1.59,6.769,1.59,10.08v1.947c-7.884.906-18.082,1.455-25.468,4.777-8.523,3.786-14.5,11.489-14.5,22.814,0,14.511,8.9,21.756,20.341,21.756,9.655,0,15-2.27,22.463-10.08,2.468,3.679,3.266,5.348,7.782,9.2a2.723,2.723,0,0,0,3.181-.351v.175c2.717-2.479,7.657-6.984,10.436-9.372,1.1-.928.849-2.456,0-3.713-2.485-3.52-5.128-6.361-5.128-12.91V158.368c0-9.214.594-17.709-6.01-24.053-5.229-5.133-13.742-6.9-20.352-6.9Zm-100.283.707c-8.365,0-14.568,4.222-17.862,13.266h-.175v-9.372a2.671,2.671,0,0,0-2.479-2.479H312.892a2.694,2.694,0,0,0-2.654,2.654v71.628a2.751,2.751,0,0,0,2.479,2.479h13.617a2.683,2.683,0,0,0,2.654-2.654V165.618c0-8.291-.4-19.633,9.372-19.633,9.65,0,8.314,11.653,8.314,19.633v38.027a2.706,2.706,0,0,0,2.479,2.654H362.77a2.683,2.683,0,0,0,2.654-2.654V165.618c0-4.069-.164-9.995,1.239-13.617a9.176,9.176,0,0,1,8.139-6.01c3.939,0,6.944,1.375,7.957,6.192.634,2.864.351,10.431.351,13.442v38.027a2.706,2.706,0,0,0,2.479,2.654h13.617a2.683,2.683,0,0,0,2.654-2.654V158.374c0-7.691.775-16.424-3.537-22.463a19.081,19.081,0,0,0-15.739-7.782c-8,0-15.445,4.222-18.745,13.266-3.815-9.044-9.191-13.272-17.7-13.272Zm231.518,0c-19.678,0-30.6,17.3-30.6,39.617,0,22.163,10.8,39.968,30.6,39.968,19.045,0,31.128-17.4,31.128-39.266,0-22.6-10.946-40.319-31.128-40.319Zm77.639,0c-9.4,0-14.772,4.7-18.569,14.5h-.175V131.655a2.623,2.623,0,0,0-2.479-1.947H621.516a2.615,2.615,0,0,0-2.654,2.3v71.628a2.717,2.717,0,0,0,2.479,2.654h13.442a2.694,2.694,0,0,0,2.654-2.654V165.081c0-4.833.407-9.242,2.3-13.617,1.528-3.469,4.477-5.66,7.782-5.66,9.384,0,8.49,11.438,8.49,19.277v38.91a2.682,2.682,0,0,0,2.479,2.3H672.1a2.69,2.69,0,0,0,2.654-2.3v-45.1c0-6.933.017-16.566-3.537-22.288-3.809-6.175-9.836-8.478-15.921-8.478Zm-163.421,1.239a2.512,2.512,0,0,0-2.479,2.654v10.255a2.512,2.512,0,0,0,2.479,2.654h23.346l-26.708,39.442a13.019,13.019,0,0,0-1.766,7.075V201.88c0,1.505,1.636,3.141,3.181,2.3A50.268,50.268,0,0,1,537.154,204c1.67.911,3.362-.8,3.362-2.3V190.736a4.652,4.652,0,0,0-2.479-3.894c-7.81-4.494-16.877-5.869-25.468-5.66l23.17-33.958c2.145-3.051,3.345-4.89,3.362-6.367v-8.84a2.5,2.5,0,0,0-2.479-2.654ZM577.66,142.8c4.313,0,7.493,1.924,9.021,6.9,1.766,5.733,1.947,12.893,1.947,18.926,0,9.191-.43,24.4-10.968,24.4-10.657,0-10.612-18.835-10.612-27.591C567.048,156.71,567.631,142.8,577.66,142.8ZM275.4,168.98v3.005c0,5.439.2,10.018-2.479,14.856-2.162,3.933-5.558,6.367-9.372,6.367-5.207,0-8.314-4.222-8.314-10.255C255.238,171.057,265.572,168.98,275.4,168.98Zm178.278,0v3.005c0,5.439.2,10.018-2.479,14.856-2.162,3.933-5.541,6.367-9.372,6.367-5.213,0-8.314-4.222-8.314-10.255C433.515,171.057,443.839,168.98,453.675,168.98Z" transform="translate(-43.423 -21.859)" fill="#201c1d"/>
    <path id="Path_691" data-name="Path 691" d="M542.439,228.08v10.255h6.9V228.08Zm-200.033,1.766v73.043h6.367v-6.543a15.749,15.749,0,0,0,4.777,5.835,10.912,10.912,0,0,0,6.367,1.947c4.675,0,8.71-2.388,12.2-7.25s5.309-11.908,5.309-20.873a42.115,42.115,0,0,0-2.3-14.857,20.459,20.459,0,0,0-6.192-9.2,13.954,13.954,0,0,0-8.665-3.181,11.319,11.319,0,0,0-6.192,1.766,16.308,16.308,0,0,0-4.777,5.484V229.846h-6.9Zm65.442,17.16c-4.8,0-8.608,1.421-11.319,4.245a15.138,15.138,0,0,0-4.069,10.968,15.37,15.37,0,0,0,1.59,6.9,12.533,12.533,0,0,0,4.245,4.952c1.811,1.228,5.422,2.841,10.787,4.6,3.713,1.194,5.931,2.213,6.9,3.005a5.784,5.784,0,0,1,2.122,4.777,7.988,7.988,0,0,1-2.479,6.01c-1.636,1.579-3.911,2.3-6.9,2.3a9.773,9.773,0,0,1-7.25-2.654c-1.8-1.817-2.773-4.579-3.181-8.314l-6.9,1.415c1.556,11.348,7.216,16.984,16.979,16.979,5.207,0,9.191-1.477,12.2-4.6a17.26,17.26,0,0,0,4.6-12.383,16.481,16.481,0,0,0-1.415-7.075,11.162,11.162,0,0,0-3.894-4.6c-1.681-1.143-5.428-2.671-11.144-4.6-4.154-1.455-6.588-2.519-7.425-3.181a5.556,5.556,0,0,1-2.122-4.6,6.239,6.239,0,0,1,2.122-4.952c1.466-1.273,3.724-1.947,6.724-1.947q7.912,0,8.84,8.665l6.724-1.064a21.7,21.7,0,0,0-2.479-8.489,13.23,13.23,0,0,0-5.309-4.777,17.265,17.265,0,0,0-7.946-1.59Zm42.272,0a16.524,16.524,0,0,0-13.8,7.075c-3.605,4.8-5.309,11.749-5.309,20.873,0,8.789,1.738,15.677,5.309,20.341a16.681,16.681,0,0,0,13.974,6.9,16.2,16.2,0,0,0,11.495-4.245c3.107-2.869,5.36-7.091,6.543-12.734l-7.075-1.239c-2.032,7.227-5.778,10.776-10.968,10.787-3.305,0-6-1.4-8.314-4.42s-3.616-7.5-3.894-13.442H468.5v-2.479c0-8.925-1.777-15.626-5.309-20.341s-7.8-7.075-13.074-7.075Zm41.915,0a6.314,6.314,0,0,0-4.42,1.766c-1.324,1.206-2.83,3.707-4.42,7.425v-8.139H477v52.883h6.9V273.357a44.3,44.3,0,0,1,1.239-10.968,9.067,9.067,0,0,1,2.654-4.6,5.946,5.946,0,0,1,4.069-1.59,8.218,8.218,0,0,1,4.952,1.947l2.3-8.314a11.342,11.342,0,0,0-7.08-2.83Zm84.538,0a16.158,16.158,0,0,0-13.442,6.9c-3.469,4.6-5.309,11.5-5.309,20.692,0,9.118,1.856,16.028,5.309,20.692s7.759,6.9,13.085,6.9a15.028,15.028,0,0,0,11.319-4.952c3.141-3.317,5.054-8.2,5.835-14.5l-6.724-1.064c-.5,4.511-1.675,7.754-3.537,9.9a8.586,8.586,0,0,1-6.724,3.181,9.654,9.654,0,0,1-8.314-4.777c-2.134-3.22-3.181-8.371-3.181-15.564,0-6.973,1.126-12,3.362-15.213s5.082-4.952,8.489-4.952a7.621,7.621,0,0,1,5.835,2.654c1.63,1.766,2.711,4.573,3.362,8.139l6.724-1.415c-.809-5.569-2.6-9.774-5.484-12.559a14.53,14.53,0,0,0-10.606-4.064Zm39.442,0a16.525,16.525,0,0,0-13.8,7.075c-3.605,4.8-5.309,11.749-5.309,20.873,0,8.789,1.737,15.677,5.309,20.341a16.688,16.688,0,0,0,13.974,6.9,16.225,16.225,0,0,0,11.495-4.245c3.1-2.869,5.354-7.091,6.542-12.734l-7.075-1.239c-2.032,7.227-5.614,10.776-10.787,10.787a10.313,10.313,0,0,1-8.489-4.42q-3.464-4.533-3.894-13.442H634.4v-2.479c0-8.925-1.777-15.626-5.309-20.341-3.509-4.714-7.8-7.075-13.079-7.075Zm40.857,0c-4.811,0-8.608,1.421-11.319,4.245a15.115,15.115,0,0,0-4.069,10.968,15.316,15.316,0,0,0,1.415,6.9,12.438,12.438,0,0,0,4.245,4.952c1.8,1.228,5.428,2.841,10.787,4.6,3.7,1.194,6.107,2.213,7.075,3.005a5.784,5.784,0,0,1,2.122,4.777,7.988,7.988,0,0,1-2.479,6.01c-1.63,1.579-3.911,2.3-6.9,2.3a9.764,9.764,0,0,1-7.25-2.654c-1.8-1.817-2.96-4.579-3.362-8.314l-6.9,1.415c1.556,11.348,7.2,16.984,16.979,16.979,5.212,0,9.367-1.477,12.383-4.6a17.236,17.236,0,0,0,4.6-12.383,16.482,16.482,0,0,0-1.415-7.075,11.512,11.512,0,0,0-4.069-4.6c-1.675-1.143-5.252-2.671-10.968-4.6-4.154-1.455-6.763-2.519-7.607-3.181a5.556,5.556,0,0,1-2.122-4.6,6.392,6.392,0,0,1,2.3-4.952c1.466-1.273,3.735-1.947,6.724-1.947q7.912,0,8.84,8.665l6.724-1.064c-.47-3.65-1.256-6.531-2.479-8.489a13.232,13.232,0,0,0-5.309-4.777,17.21,17.21,0,0,0-7.94-1.59Zm-157.762,1.058L514.5,300.947h6.542l15.388-52.883h-7.074l-9.021,32.367c-1.092,3.911-2.054,7.29-2.654,10.08-.753-3.515-1.472-7.2-2.479-10.787l-8.84-31.66h-7.25Zm43.33,0v52.883h6.9V248.064h-6.9Zm-226.735.707c-5.473,0-9.876,2.456-13.442,7.25s-5.484,11.749-5.484,20.873q0,13.184,5.309,20.16a16.879,16.879,0,0,0,13.974,7.075,15.948,15.948,0,0,0,11.319-4.42c3.068-2.869,5.19-7.092,6.367-12.734l-6.9-1.064c-2.009,7.227-5.66,10.776-10.787,10.787a10.018,10.018,0,0,1-8.314-4.42c-2.286-3.022-3.616-7.5-3.894-13.442h30.064l.175-2.479c0-8.925-1.811-15.8-5.309-20.516S320.916,248.771,315.7,248.771Zm-77.644,1.239,12.383,52.883h7.25l8.139-40.681,1.415,9.021,6.543,31.66h7.074l12.559-52.883h-6.542l-6.9,30.6-2.3,10.255-2.122-10.255-6.01-30.6h-7.075l-6.367,30.952-2.122,10.968-2.479-11.319-6.367-30.6h-7.08Zm440.21.532v2.479h6.724v17.686h2.654V253.022h6.724v-2.479Zm18.75,0V270.7H699.5V253.548l5.835,17.154h2.479l5.835-16.8v16.8H716.3v-20.16H712.59l-4.777,14.149c-.481,1.415-.826,2.439-1.064,3.181l-1.064-3.005-4.777-14.324H697.02Zm-247.082,3.713c3.435,0,6.265,1.664,8.489,4.952,1.528,2.253,2.518,5.682,2.83,10.255H438.444a18.436,18.436,0,0,1,3.713-10.968C444.341,255.75,446.854,254.256,449.938,254.256Zm165.9,0c3.424,0,6.265,1.664,8.489,4.952,1.528,2.253,2.518,5.682,2.83,10.255H604.344a18.437,18.437,0,0,1,3.713-10.968C610.235,255.761,612.748,254.256,615.838,254.256ZM315.7,256.2c3.4,0,6.124,1.664,8.314,4.952,1.511,2.253,2.518,5.682,2.83,10.255H304.384c.215-4.641,1.364-8.4,3.537-11.144A9.544,9.544,0,0,1,315.7,256.2Zm43.862,0c3.068,0,5.677,1.7,7.782,4.952s3.005,8.269,3.005,15.213c0,6.763-1,11.806-3.181,15.213s-4.788,5.128-7.607,5.128a8.587,8.587,0,0,1-5.66-2.122,13.436,13.436,0,0,1-3.894-6.192c-.934-2.722-1.415-6.91-1.415-12.383,0-6.446,1.149-11.274,3.362-14.681S356.747,256.2,359.566,256.2Z" transform="translate(-43.931 -41.342)"/>
    <path id="Path_692" data-name="Path 692" d="M94.995,158.791,68.644,170.11l24.4,10.436,28.3-10.436ZM55.378,172.94l-.883,50.937,38.553,16.979V187.972L55.378,172.94Zm79.235,0L99.772,186.206v49.872l34.841-14.149V172.94ZM176.176,14.471,149.644,25.79l24.585,10.436,28.3-10.436L176.176,14.471ZM139.389,29.508V80.445L172.283,90l1.064-46.341Zm73.575,2.83L181.836,45.6V95.658l31.128-14.149ZM51.574,86.161,25.223,97.48l24.4,10.436,28.3-10.436L51.574,86.161ZM11.957,100.31l-.883,50.937,38.553,16.979V115.342Zm79.235,0L56.351,113.576v49.873L91.192,149.3Zm45.277-16.028L110.117,95.6l24.4,10.436L162.82,95.6,136.469,84.282ZM96.851,98.431l-.883,50.937,38.553,16.979V113.469Zm79.235,0L141.245,111.7V161.57l34.841-14.149Zm83.01-83.96L232.744,25.79l24.4,10.436,28.3-10.436L259.1,14.471ZM219.478,28.62,218.6,79.556l38.553,16.979V43.657L219.478,28.62Zm79.235,0L263.872,41.886V91.758l34.841-14.149V28.62Z" transform="translate(0 0)" fill="#f7a80d"/>
  </g>
</svg>
