<svg id="salesforce" xmlns="http://www.w3.org/2000/svg" width="635.637" height="444.221" viewBox="0 0 635.637 444.221">
  <path id="Path_448" data-name="Path 448" d="M265.065,49a111.465,111.465,0,0,1,80.6-34.554c41.96,0,78.567,23.361,98.062,58.041a135.694,135.694,0,0,1,55.423-11.762c75.678,0,137.033,61.793,137.033,138.015S574.833,336.764,499.155,336.764a136.2,136.2,0,0,1-26.992-2.685,100.266,100.266,0,0,1-131.256,41.162,114.353,114.353,0,0,1-212.459-5.162,105,105,0,0,1-21.8,2.269C48.052,372.348.551,324.433.551,265.316A107.169,107.169,0,0,1,53.6,172.6a122.365,122.365,0,0,1-10.159-48.956C43.442,55.662,98.721.551,166.9.551A123.369,123.369,0,0,1,265.065,49" transform="translate(-0.551 -0.551)" fill="#00a1e0"/>
  <path id="Path_449" data-name="Path 449" d="M159.771,361.837c-.4,1.04.145,1.257.272,1.438a37.1,37.1,0,0,0,3.631,2.188A38.754,38.754,0,0,0,182.68,369.9c13.039,0,21.133-6.925,21.133-18.072v-.217c0-10.307-9.136-14.049-17.711-16.753l-1.113-.361c-6.465-2.1-12.043-3.905-12.043-8.155v-.225c0-3.635,3.26-6.311,8.312-6.311a37.64,37.64,0,0,1,16.57,4.231s1.259.814,1.72-.407c.253-.651,2.427-6.491,2.653-7.124a1.213,1.213,0,0,0-.634-1.465,37.018,37.018,0,0,0-18.68-5.009l-1.3.009c-11.934,0-20.264,7.2-20.264,17.512v.217c0,10.876,9.19,14.4,17.8,16.861l1.385.425c6.275,1.926,11.681,3.58,11.681,7.992v.217c0,4.032-3.513,7.033-9.181,7.033a30.866,30.866,0,0,1-16.8-4.828c-.915-.534-1.449-.922-2.155-1.347a1.034,1.034,0,0,0-1.711.588Zm190.881,0c-.4,1.04.145,1.257.272,1.438a37.168,37.168,0,0,0,3.631,2.188A38.756,38.756,0,0,0,373.56,369.9c13.039,0,21.134-6.925,21.134-18.072v-.217c0-10.307-9.136-14.049-17.711-16.753l-1.113-.361c-6.465-2.1-12.043-3.905-12.043-8.155v-.225c0-3.635,3.26-6.311,8.312-6.311a37.645,37.645,0,0,1,16.57,4.231s1.259.814,1.72-.407c.253-.651,2.427-6.491,2.653-7.124a1.213,1.213,0,0,0-.634-1.465,37.018,37.018,0,0,0-18.68-5.009l-1.3.009c-11.934,0-20.264,7.2-20.264,17.512v.217c0,10.876,9.19,14.4,17.8,16.861l1.385.425c6.275,1.926,11.69,3.58,11.69,7.992v.217c0,4.032-3.522,7.033-9.191,7.033a30.865,30.865,0,0,1-16.8-4.828c-.915-.534-1.458-.9-2.146-1.347a1.113,1.113,0,0,0-1.721.588l-2.572,7.125ZM480.961,340c0,6.3-1.177,11.264-3.5,14.772-2.291,3.472-5.759,5.162-10.593,5.162s-8.294-1.682-10.549-5.162c-2.282-3.5-3.44-8.471-3.44-14.772s1.158-11.247,3.44-14.718c2.255-3.435,5.7-5.108,10.549-5.108s8.3,1.673,10.6,5.108c2.309,3.471,3.486,8.426,3.486,14.718m10.884-11.68a26.145,26.145,0,0,0-4.953-9.438,23.939,23.939,0,0,0-8.358-6.347,30.348,30.348,0,0,0-23.333,0,24.066,24.066,0,0,0-8.366,6.347,26.574,26.574,0,0,0-4.953,9.438,43.6,43.6,0,0,0,0,23.361,26.293,26.293,0,0,0,4.962,9.439,23.345,23.345,0,0,0,8.357,6.292,31.013,31.013,0,0,0,23.333,0,23.367,23.367,0,0,0,8.358-6.292,26.154,26.154,0,0,0,4.953-9.439,43.355,43.355,0,0,0,0-23.361m89.375,29.932a1.031,1.031,0,0,0-1.385-.66,25,25,0,0,1-5.062,1.447,39.513,39.513,0,0,1-5.968.425c-5.269,0-9.452-1.564-12.449-4.656s-4.691-8.091-4.673-14.854c.018-6.157,1.5-10.786,4.175-14.311,2.653-3.507,6.692-5.307,12.079-5.307a36.215,36.215,0,0,1,11.5,1.645s.86.37,1.268-.75c.951-2.64,1.657-4.53,2.671-7.432a.975.975,0,0,0-.67-1.275,42.52,42.52,0,0,0-7.262-1.826,54.569,54.569,0,0,0-8.167-.551,29.629,29.629,0,0,0-12.133,2.333,25.11,25.11,0,0,0-8.765,6.338,26.947,26.947,0,0,0-5.3,9.438,37.527,37.527,0,0,0-1.775,11.7c0,9.014,2.436,16.3,7.244,21.634,4.817,5.352,12.052,8.073,21.487,8.073a44.343,44.343,0,0,0,15.411-2.748.988.988,0,0,0,.444-1.292l-2.672-7.369Zm19.043-24.288a21.341,21.341,0,0,1,2.979-8.679c2.255-3.445,5.7-5.334,10.531-5.334s8.032,1.9,10.322,5.334c1.521,2.269,2.182,5.307,2.445,8.679H600.263Zm36.644-7.694a22.831,22.831,0,0,0-4.717-8.607,21.652,21.652,0,0,0-6.99-5.325,26.979,26.979,0,0,0-10.558-2.133,28.785,28.785,0,0,0-12.16,2.359A24.2,24.2,0,0,0,594,319.031a26.482,26.482,0,0,0-4.99,9.546,41.244,41.244,0,0,0-1.621,11.743,39.293,39.293,0,0,0,1.675,11.744,23.632,23.632,0,0,0,14.605,15.477,37.138,37.138,0,0,0,13.374,2.161c10.64-.036,16.244-2.4,18.553-3.68.408-.226.8-.623.307-1.762l-2.408-6.736a1.058,1.058,0,0,0-1.385-.633c-2.635.976-6.383,2.73-15.122,2.713-5.713-.009-9.951-1.69-12.6-4.322-2.725-2.694-4.056-6.654-4.292-12.241l36.843.036a1.09,1.09,0,0,0,1.069-.959,39.381,39.381,0,0,0-1.1-15.847M305.2,333.966a21.475,21.475,0,0,1,2.979-8.679c2.254-3.445,5.7-5.334,10.53-5.334s8.032,1.9,10.331,5.334c1.512,2.269,2.173,5.307,2.436,8.679Zm36.635-7.694a22.827,22.827,0,0,0-4.708-8.607,21.658,21.658,0,0,0-6.99-5.325,26.976,26.976,0,0,0-10.558-2.133,28.814,28.814,0,0,0-12.16,2.359,24.194,24.194,0,0,0-8.484,6.465,26.48,26.48,0,0,0-4.989,9.546,41.56,41.56,0,0,0-1.621,11.743A39.271,39.271,0,0,0,294,352.065a23.632,23.632,0,0,0,14.605,15.477A37.135,37.135,0,0,0,321.98,369.7c10.639-.036,16.244-2.4,18.553-3.68.408-.226.8-.623.308-1.762l-2.4-6.736a1.069,1.069,0,0,0-1.394-.633c-2.635.976-6.375,2.73-15.131,2.713-5.7-.009-9.942-1.69-12.6-4.322-2.726-2.694-4.056-6.654-4.292-12.241l36.843.036a1.089,1.089,0,0,0,1.068-.959,39.342,39.342,0,0,0-1.106-15.847M225.564,358.053a7.457,7.457,0,0,1-2.128-2.179,8.881,8.881,0,0,1-1.1-4.783c0-3.237,1.068-5.56,3.287-7.124-.027.01,3.169-2.757,10.684-2.658a75.672,75.672,0,0,1,10,.85v16.725h.009a74.981,74.981,0,0,1-9.951,1.319c-7.5.452-10.829-2.16-10.8-2.151m14.659-25.847c-1.494-.109-3.432-.172-5.75-.172A34.985,34.985,0,0,0,225.4,333.2a23.691,23.691,0,0,0-7.7,3.561,17.156,17.156,0,0,0-7.307,14.547,19.2,19.2,0,0,0,1.684,8.4,15.157,15.157,0,0,0,4.808,5.75A20.157,20.157,0,0,0,224.4,368.7a44.073,44.073,0,0,0,9.752.994,66.543,66.543,0,0,0,11.191-.931c3.613-.615,8.049-1.51,9.281-1.79q1.3-.312,2.581-.66a1.154,1.154,0,0,0,.842-1.2l-.018-33.64c0-7.378-1.974-12.847-5.858-16.237-3.867-3.381-9.562-5.091-16.923-5.091a60.752,60.752,0,0,0-9.87.914s-8.049,1.555-11.364,4.141a1.148,1.148,0,0,0-.326,1.465l2.608,7a.931.931,0,0,0,1.2.6,4.777,4.777,0,0,0,.607-.3c7.09-3.851,16.054-3.734,16.054-3.734,3.984,0,7.045.8,9.109,2.377,2.01,1.537,3.033,3.86,3.033,8.76v1.555c-3.169-.452-6.076-.713-6.076-.713m297.158-18.955a.99.99,0,0,0-.553-1.32,32,32,0,0,0-6.175-1.058,18.386,18.386,0,0,0-9.5,1.528,16.741,16.741,0,0,0-6.23,4.584v-4.475a1.069,1.069,0,0,0-1.059-1.121h-9.444a1.069,1.069,0,0,0-1.059,1.121v54.868a1.128,1.128,0,0,0,1.122,1.121h9.68a1.119,1.119,0,0,0,1.113-1.121V339.966a32.059,32.059,0,0,1,1.223-9.655,13.889,13.889,0,0,1,3.223-5.416,11.311,11.311,0,0,1,4.554-2.73,17.767,17.767,0,0,1,4.944-.7,20.72,20.72,0,0,1,4.047.5c.706.081,1.1-.353,1.339-.994.634-1.682,2.427-6.718,2.772-7.721" transform="translate(-67.704 -131.474)" fill="#fff"/>
  <path id="Path_450" data-name="Path 450" d="M527.2,270.62a31.63,31.63,0,0,0-3.64-.868,28.922,28.922,0,0,0-5.007-.38c-6.665,0-11.917,1.88-15.6,5.587-3.668,3.689-6.158,9.3-7.408,16.69l-.453,2.486h-8.366a1.242,1.242,0,0,0-1.232,1.067l-1.367,7.657c-.1.724.218,1.184,1.195,1.184h8.141L485.2,350.078a56.9,56.9,0,0,1-2.21,9.068,18.518,18.518,0,0,1-2.571,5.235,6.847,6.847,0,0,1-3.369,2.595,13.718,13.718,0,0,1-4.337.624,16.337,16.337,0,0,1-2.952-.326,8.739,8.739,0,0,1-1.992-.642,1.019,1.019,0,0,0-1.331.588c-.3.787-2.472,6.744-2.735,7.477a1.11,1.11,0,0,0,.57,1.473,30.139,30.139,0,0,0,3.368.985,22.36,22.36,0,0,0,5.4.506,27.048,27.048,0,0,0,9.046-1.4,17.086,17.086,0,0,0,6.809-4.737,24.277,24.277,0,0,0,4.781-8.236,69.8,69.8,0,0,0,3.241-12.349l8.3-46.894h12.133a1.239,1.239,0,0,0,1.232-1.076l1.376-7.648c.091-.732-.217-1.184-1.2-1.184h-11.78a50.982,50.982,0,0,1,1.947-8.3,10.855,10.855,0,0,1,2.581-3.924A7.738,7.738,0,0,1,514.592,280a12.826,12.826,0,0,1,3.957-.56,15.5,15.5,0,0,1,3.024.3c1.141.245,1.584.371,1.884.462,1.2.362,1.367.009,1.6-.569l2.816-7.721a.986.986,0,0,0-.679-1.285M362.606,350.178a1.067,1.067,0,0,1-1.059,1.112h-9.77a1.06,1.06,0,0,1-1.051-1.112V271.669a1.06,1.06,0,0,1,1.051-1.112h9.77a1.067,1.067,0,0,1,1.059,1.112Z" transform="translate(-148.377 -114.273)" fill="#fff"/>
</svg>
