<svg xmlns="http://www.w3.org/2000/svg" width="93.391" height="103.511" viewBox="0 0 93.391 103.511">
  <g id="_2400550_bulb_energy_saving_lightbulb_turned_on_creativity_icon" data-name="2400550_bulb_energy saving_lightbulb_turned on_creativity_icon" transform="translate(-34.935 -20.689)">
    <line id="Line_11" data-name="Line 11" y1="14.936" x2="0.094" transform="translate(81.897 22.45)" fill="none" stroke="#111b6b" stroke-linecap="round" stroke-width="3.5"/>
    <line id="Line_12" data-name="Line 12" y1="10.482" x2="9.262" transform="translate(113.787 35.969)" fill="none" stroke="#111b6b" stroke-linecap="round" stroke-width="3.5"/>
    <line id="Line_13" data-name="Line 13" x2="13.007" y2="0.108" transform="translate(113.555 76.417)" fill="none" stroke="#111b6b" stroke-linecap="round" stroke-width="3.5"/>
    <line id="Line_14" data-name="Line 14" x2="13.007" y2="0.108" transform="translate(36.7 75.782)" fill="none" stroke="#111b6b" stroke-linecap="round" stroke-width="3.5"/>
    <line id="Line_15" data-name="Line 15" x2="9.198" y2="9.198" transform="translate(113.619 104.861)" fill="none" stroke="#111b6b" stroke-linecap="round" stroke-width="3.5"/>
    <line id="Line_16" data-name="Line 16" x2="9.134" y2="10.635" transform="translate(40.735 39.251)" fill="none" stroke="#111b6b" stroke-linecap="round" stroke-width="3.5"/>
    <path id="Path_68" data-name="Path 68" d="M126.716,178.63,84.934,184.4a2.7,2.7,0,0,1-2.869-2.589l-.084-.842a2.918,2.918,0,0,1,2.254-3.3l41.777-5.773a2.7,2.7,0,0,1,2.869,2.589l.089.842A2.912,2.912,0,0,1,126.716,178.63Z" transform="translate(-22.988 -75.89)" fill="none" stroke="#111b6b" stroke-linecap="round" stroke-width="3.5"/>
    <path id="Path_69" data-name="Path 69" d="M125.841,152.805l-41.752,5.773a2.7,2.7,0,0,1-2.869-2.589l-.089-.842a2.918,2.918,0,0,1,2.254-3.3l41.777-5.773a2.7,2.7,0,0,1,2.869,2.589l.089.842A2.9,2.9,0,0,1,125.841,152.805Z" transform="translate(-22.556 -62.776)" fill="none" stroke="#111b6b" stroke-linecap="round" stroke-width="3.5"/>
    <path id="Path_70" data-name="Path 70" d="M125.006,126.98l-41.777,5.768a2.7,2.7,0,0,1-2.869-2.589l-.089-.842a2.918,2.918,0,0,1,2.254-3.3l41.777-5.773a2.7,2.7,0,0,1,2.869,2.589l.089.842A2.912,2.912,0,0,1,125.006,126.98Z" transform="translate(-22.12 -49.658)" fill="none" stroke="#111b6b" stroke-linecap="round" stroke-width="3.5"/>
    <path id="Path_71" data-name="Path 71" d="M124.156,101.155l-41.777,5.773a2.7,2.7,0,0,1-2.869-2.589l-.089-.842a2.918,2.918,0,0,1,2.254-3.3l41.772-5.773a2.7,2.7,0,0,1,2.869,2.589l.089.842A2.908,2.908,0,0,1,124.156,101.155Z" transform="translate(-21.688 -36.545)" fill="none" stroke="#111b6b" stroke-linecap="round" stroke-width="3.5"/>
    <path id="Path_72" data-name="Path 72" d="M123.3,75.335,81.519,81.093A2.7,2.7,0,0,1,78.65,78.5l-.089-.842a2.918,2.918,0,0,1,2.254-3.3l41.752-5.758a2.7,2.7,0,0,1,2.869,2.589l.089.842A2.874,2.874,0,0,1,123.3,75.335Z" transform="translate(-21.251 -23.431)" fill="none" stroke="#111b6b" stroke-linecap="round" stroke-width="3.5"/>
    <path id="Path_73" data-name="Path 73" d="M107.6,203.557a13.361,13.361,0,0,1,.886,4.882c0,2.49,1.732,4.523,3.9,4.542l8.366.069a4.214,4.214,0,0,0,3.937-4.478,12.83,12.83,0,0,1,2.579-7.731Z" transform="translate(-36.008 -90.6)" fill="none" stroke="#111b6b" stroke-linecap="round" stroke-width="3.5"/>
    <line id="Line_17" data-name="Line 17" y1="9.198" x2="9.198" transform="translate(40.529 104.778)" fill="none" stroke="#111b6b" stroke-linecap="round" stroke-width="3.5"/>
  </g>
</svg>
