<svg xmlns="http://www.w3.org/2000/svg" width="101.011" height="82.32" viewBox="0 0 101.011 82.32">
  <g id="_7397442_artificial_intelligence_ai_robot_innovation_technology_icon" data-name="7397442_artificial intelligence_ai_robot_innovation_technology_icon" transform="translate(-11.179 -56.81)">
    <path id="Path_64" data-name="Path 64" d="M103.158,98.569V95.126A12.426,12.426,0,0,0,90.742,82.715H86.984c-1.588-15.152-11.53-25.4-25.3-25.4s-23.712,10.253-25.3,25.4H32.623A12.426,12.426,0,0,0,20.207,95.126v3.442a9.823,9.823,0,0,0-2.38,18.844,1.369,1.369,0,0,0,1.891-1.265V110.09a1.858,1.858,0,0,1,3.714,0v6.06a1.371,1.371,0,0,0,.614,1.138,1.385,1.385,0,0,0,.761.231,1.341,1.341,0,0,0,.52-.1,9.823,9.823,0,0,0-2.384-18.846V95.126a9.686,9.686,0,0,1,9.68-9.676H36.2c-.02.524-.059,1.033-.059,1.566V128.95a1.367,1.367,0,0,0,1.367,1.367h4.819a9.641,9.641,0,0,0-2.967,6.946,1.367,1.367,0,0,0,1.369,1.367H56.361a1.367,1.367,0,0,0,1.369-1.367v-6.946h7.91v6.946a1.367,1.367,0,0,0,1.369,1.367H82.638a1.367,1.367,0,0,0,1.369-1.367,9.641,9.641,0,0,0-2.963-6.948h4.819a1.367,1.367,0,0,0,1.369-1.367V87.016c0-.532-.039-1.042-.059-1.566h3.569a9.686,9.686,0,0,1,9.68,9.676v3.442a9.823,9.823,0,0,0-2.376,18.844,1.34,1.34,0,0,0,.52.1,1.386,1.386,0,0,0,.761-.231,1.371,1.371,0,0,0,.614-1.138V110.09a1.858,1.858,0,0,1,3.714,0v6.06a1.369,1.369,0,0,0,1.883,1.263,9.823,9.823,0,0,0-2.38-18.846ZM28.7,108.3a7.1,7.1,0,0,1-2.534,5.448V110.09a4.594,4.594,0,1,0-9.189,0v3.651A7.126,7.126,0,1,1,28.7,108.3ZM61.682,60.046c13.431,0,22.812,11.092,22.812,26.97v24.629H38.87V87.016C38.87,71.138,48.251,60.046,61.682,60.046ZM54.99,135.9H42.229a6.958,6.958,0,0,1,6.813-5.579H54.99Zm26.145,0H68.374v-5.579h5.949a6.958,6.958,0,0,1,6.813,5.579Zm-6.813-8.315H38.87v-13.2H84.494v13.2Zm32.062-13.838V110.09a4.594,4.594,0,1,0-9.189,0v3.653a7.128,7.128,0,1,1,9.189,0Z" transform="translate(0 0)" fill="#111b6b" stroke="#111b6b" stroke-width="1"/>
    <path id="Path_65" data-name="Path 65" d="M199.776,122.333a14.466,14.466,0,1,0-14.466-14.466A14.466,14.466,0,0,0,199.776,122.333Zm0-26.195a11.73,11.73,0,1,1-11.728,11.73,11.731,11.731,0,0,1,11.728-11.73Z" transform="translate(-138.094 -28.704)" fill="#111b6b" stroke="#111b6b" stroke-width="1"/>
    <path id="Path_66" data-name="Path 66" d="M224.9,140.993a8,8,0,1,0-8-8A8,8,0,0,0,224.9,140.993Zm0-13.267a5.266,5.266,0,1,1-5.266,5.266A5.266,5.266,0,0,1,224.9,127.726Z" transform="translate(-163.219 -53.83)" fill="#111b6b" stroke="#111b6b" stroke-width="1"/>
    <path id="Path_67" data-name="Path 67" d="M287.917,346.32h-8.738a1.369,1.369,0,0,0,0,2.738h8.738a1.369,1.369,0,0,0,0-2.738Z" transform="translate(-211.665 -229.865)" fill="#111b6b" stroke="#111b6b" stroke-width="1"/>
  </g>
</svg>
