<svg xmlns="http://www.w3.org/2000/svg" width="100.241" height="101" viewBox="0 0 100.241 101">
  <g id="noun-excellence-4440952" transform="translate(-82.317 -10.257)">
    <path id="Path_74" data-name="Path 74" d="M241.8,286.075a5.347,5.347,0,0,0-2.757-4.663,5.253,5.253,0,0,0,1.4-3.592,5.312,5.312,0,0,0-5.309-5.309H225.4a32.628,32.628,0,0,0,.992-15.235,4.257,4.257,0,0,0-8.461.661,20.874,20.874,0,0,1-4.648,10.178l-6.475,6.917a2.919,2.919,0,0,0-2.269-1.087h-9.69a2.925,2.925,0,0,0-2.93,2.93V305.66a2.925,2.925,0,0,0,2.93,2.93h9.69a2.944,2.944,0,0,0,2.8-2.111,6.021,6.021,0,0,0,3.875,1.434h22.5a5.309,5.309,0,0,0,3.923-8.886,4.756,4.756,0,0,0,1.245-.93,5.314,5.314,0,0,0,.142-7.342,5.228,5.228,0,0,0,1.213-.914,5.322,5.322,0,0,0,1.559-3.764Zm-37.261,20.133h-9.69a.565.565,0,0,1-.567-.567V276.857a.565.565,0,0,1,.567-.567h9.69a.565.565,0,0,1,.567.567v28.8A.563.563,0,0,1,204.543,306.209Zm34.047-18.055a2.933,2.933,0,0,1-2.079.867h-6.759a1.182,1.182,0,0,0,0,2.363h5.388a2.946,2.946,0,0,1,0,5.892h-3.8a1.182,1.182,0,0,0,0,2.363h2.379a2.946,2.946,0,0,1,0,5.892h-22.5a3.745,3.745,0,0,1-3.75-3.734V277.772l7.531-8.035a23.04,23.04,0,0,0,5.278-11.5,1.788,1.788,0,0,0,.016-.3,1.935,1.935,0,0,1,.551-1.339,1.888,1.888,0,0,1,3.2,1.04c.536,3.246,1.055,9.579-1.449,15.581a1.146,1.146,0,0,0,.11,1.1,1.164,1.164,0,0,0,.977.52H235.14a2.946,2.946,0,0,1,0,5.892h-6.964a1.182,1.182,0,1,0,0,2.363H236.5a2.975,2.975,0,0,1,2.1,5.058Z" transform="translate(-88.847 -197.833)" fill="#111b6b" stroke="#111b6b" stroke-width="1"/>
    <path id="Path_75" data-name="Path 75" d="M225.561,42.318l-2.82,16.4a1.164,1.164,0,0,0,.473,1.15,1.249,1.249,0,0,0,.693.22,1.151,1.151,0,0,0,.551-.141l14.73-7.751,14.73,7.751a1.187,1.187,0,0,0,1.718-1.245l-2.8-16.386,11.926-11.627a1.2,1.2,0,0,0,.3-1.213,1.18,1.18,0,0,0-.961-.8L247.618,26.3l-7.374-14.936a1.239,1.239,0,0,0-2.127,0L230.744,26.3,214.265,28.69a1.181,1.181,0,0,0-.661,2.017Zm6.16-13.785a1.2,1.2,0,0,0,.9-.646L239.2,14.541l6.585,13.344a1.2,1.2,0,0,0,.9.646L261.4,30.675,250.752,41.057a1.169,1.169,0,0,0-.347,1.04l2.52,14.667-13.171-6.917a1.145,1.145,0,0,0-1.1,0l-13.171,6.917L228,42.1a1.17,1.17,0,0,0-.347-1.04L217,30.675Z" transform="translate(-106.211)" fill="#111b6b" stroke="#111b6b" stroke-width="1"/>
    <path id="Path_76" data-name="Path 76" d="M494.313,134.282a1.18,1.18,0,0,0-.945-.8l-8.256-1.2-3.687-7.484a1.182,1.182,0,0,0-1.055-.661,1.166,1.166,0,0,0-1.055.661l-3.687,7.484-8.256,1.2a1.181,1.181,0,0,0-.661,2.017l5.971,5.829-1.418,8.224a1.164,1.164,0,0,0,.473,1.15,1.248,1.248,0,0,0,.693.22,1.151,1.151,0,0,0,.551-.141l7.389-3.891,7.389,3.891a1.187,1.187,0,0,0,1.718-1.245l-1.418-8.224,5.971-5.829a1.224,1.224,0,0,0,.284-1.2Zm-8.382,5.766a1.169,1.169,0,0,0-.347,1.04l1.118,6.475-5.814-3.057a1.234,1.234,0,0,0-1.1,0l-5.814,3.057,1.118-6.475a1.17,1.17,0,0,0-.347-1.04l-4.711-4.585,6.507-.945a1.177,1.177,0,0,0,.882-.646l2.914-5.892,2.914,5.892a1.205,1.205,0,0,0,.882.646l6.507.945Z" transform="translate(-312.322 -92.326)" fill="#111b6b" stroke="#111b6b" stroke-width="1"/>
    <path id="Path_77" data-name="Path 77" d="M95.128,141.492l-1.418,8.224a1.164,1.164,0,0,0,.473,1.15,1.185,1.185,0,0,0,1.245.094l7.389-3.891,7.389,3.891a1.153,1.153,0,0,0,.551.141,1.212,1.212,0,0,0,.693-.221,1.177,1.177,0,0,0,.473-1.15l-1.418-8.239,5.971-5.829a1.2,1.2,0,0,0,.3-1.213,1.18,1.18,0,0,0-.945-.8l-8.256-1.2-3.687-7.484a1.239,1.239,0,0,0-2.127,0l-3.7,7.485-8.256,1.2a1.181,1.181,0,0,0-.661,2.017Zm3.891-6.79a1.177,1.177,0,0,0,.882-.646l2.914-5.892,2.914,5.892a1.205,1.205,0,0,0,.882.646l6.507.945-4.711,4.585a1.169,1.169,0,0,0-.347,1.04l1.118,6.475-5.814-3.057a1.145,1.145,0,0,0-1.1,0l-5.814,3.057,1.118-6.475a1.17,1.17,0,0,0-.347-1.04l-4.711-4.585Z" transform="translate(-4.86 -92.511)" fill="#111b6b" stroke="#111b6b" stroke-width="1"/>
    <path id="Path_78" data-name="Path 78" d="M218.295,488.39a3.545,3.545,0,1,0,3.545,3.545A3.55,3.55,0,0,0,218.295,488.39Zm0,4.727a1.182,1.182,0,1,1,1.182-1.182A1.19,1.19,0,0,1,218.295,493.117Z" transform="translate(-107.436 -388.946)" fill="#111b6b" stroke="#111b6b" stroke-width="1"/>
    <path id="Path_79" data-name="Path 79" d="M99.532,388.676a1.182,1.182,0,0,0,0-2.363H84a1.19,1.19,0,0,0-1.182,1.182v23.491A1.19,1.19,0,0,0,84,412.167h15.55a1.182,1.182,0,1,0,0-2.363H85.18V388.677Z" transform="translate(0 -305.823)" fill="#111b6b" stroke="#111b6b" stroke-width="1"/>
  </g>
</svg>
