<svg xmlns="http://www.w3.org/2000/svg" width="100.905" height="101" viewBox="0 0 100.905 101">
  <path id="noun-leadership-4200280" d="M162.352,26.237a1.724,1.724,0,0,0-1.7,1.6c0,.007,0,.013,0,.02v0c0,.041,0,.081,0,.122V88.458H107.932A11.458,11.458,0,0,0,96.48,99.9v24.574A1.724,1.724,0,0,0,98.2,126.2h40.765a1.724,1.724,0,0,0,1.731-1.73v-20.59h19.954v20.59a1.725,1.725,0,1,0,3.448,0V53.32h30.572a1.724,1.724,0,0,0,1.717-1.718V27.979h0a1.724,1.724,0,0,0-1.717-1.718H162.661a1.737,1.737,0,0,0-.309-.025Zm1.744,3.475h28.842V49.873H164.1ZM120.088,55.869a14.821,14.821,0,1,0,14.826,14.816A14.839,14.839,0,0,0,120.088,55.869Zm0,3.451a11.372,11.372,0,1,1-11.365,11.365A11.344,11.344,0,0,1,120.088,59.32ZM107.931,91.91h52.715v8.54H138.961a1.724,1.724,0,0,0-1.721,1.717v20.59H99.927V99.9a7.939,7.939,0,0,1,8-7.991Z" transform="translate(-95.98 -25.737)" fill="#111b6b" stroke="#111b6b" stroke-width="1"/>
</svg>
