<svg xmlns="http://www.w3.org/2000/svg" width="40.403" height="36.547" viewBox="0 0 40.403 36.547">
  <g id="Group_112" data-name="Group 112" transform="translate(0.074 0.074)">
    <path id="Path_98" data-name="Path 98" d="M33.511,82.748q8.339,0,16.679,0a3.262,3.262,0,0,1,3.4,2.7,3.787,3.787,0,0,1,.047.725q0,14.772,0,29.543a3.253,3.253,0,0,1-3.285,3.425c-.094,0-.189,0-.284,0q-16.557,0-33.113,0a3.261,3.261,0,0,1-3.16-1.724,3.385,3.385,0,0,1-.392-1.5q-.034-14.974-.014-29.948a3.249,3.249,0,0,1,3.4-3.22q6.331-.008,12.661,0Zm-18.83,9v.473c0,7.79.012,15.58-.012,23.371a2.1,2.1,0,0,0,2.24,2.229q16.615-.042,33.23,0a2.094,2.094,0,0,0,2.215-2.212c-.023-7.8-.012-15.607-.012-23.411v-.449Zm0-1.342H52.338c0-1.516.013-3-.007-4.488a1.828,1.828,0,0,0-.642-1.355,2.158,2.158,0,0,0-1.541-.49q-16.637.009-33.274,0c-.094,0-.189,0-.284,0a1.887,1.887,0,0,0-1.895,1.84C14.657,87.409,14.685,88.9,14.685,90.41Z" transform="translate(-13.384 -82.747)" fill="#333" stroke="#333" stroke-width="0.15"/>
    <path id="Path_99" data-name="Path 99" d="M25.546,112.1H18.557c-.618,0-.8-.181-.8-.807q0-5.2,0-10.408c0-.628.175-.805.8-.805H32.61c.594,0,.778.187.778.788q0,5.222,0,10.445c0,.6-.185.788-.778.788Zm-6.562-10.808V110c.135-.128.234-.218.329-.312l3.268-3.267c.46-.46.716-.463,1.17-.01.4.4.805.81,1.224,1.231,1.038-1.04,2.036-2.042,3.036-3.042.439-.439.7-.439,1.143,0q1.37,1.366,2.737,2.736c.08.08.164.156.275.261v-6.3Zm6.882,7.236c.755.754,1.5,1.509,2.264,2.251a.58.58,0,0,0,.368.117c.763.01,1.527,0,2.29,0h1.4c0-.432-.013-.818,0-1.2a.71.71,0,0,0-.242-.588c-1.043-1.027-2.074-2.067-3.111-3.1-.084-.084-.173-.163-.233-.22Zm-2.67-.855-3.234,3.2H26.4Z" transform="translate(-15.355 -89.368)" fill="#333" stroke="#333" stroke-width="0.15"/>
    <path id="Path_100" data-name="Path 100" d="M56.18,129.6H49.154c-.575,0-.768-.19-.768-.76q0-5.261,0-10.521c0-.544.2-.739.75-.74H63.263c.55,0,.75.2.75.74q0,5.26,0,10.521c0,.568-.194.759-.769.759ZM62.8,118.807H49.615v9.575H62.8Z" transform="translate(-26.165 -95.738)" fill="#333" stroke="#333" stroke-width="0.15"/>
    <path id="Path_101" data-name="Path 101" d="M56.181,101.279H49.267c-.1,0-.2,0-.3,0a.6.6,0,0,1-.018-1.195c.075-.007.151,0,.225,0H63.227c.051,0,.1,0,.151,0a.6.6,0,1,1,.017,1.2c-.087,0-.175,0-.263,0Z" transform="translate(-26.165 -89.762)" fill="#333" stroke="#333" stroke-width="0.15"/>
    <path id="Path_102" data-name="Path 102" d="M56.207,105.655c-2.367,0-4.734.008-7.1-.014a.847.847,0,0,1-.6-.323.644.644,0,0,1,.045-.607.888.888,0,0,1,.616-.246c3.344-.014,6.688-.01,10.032-.01h3.983c.594,0,.856.18.862.59s-.262.609-.881.609Z" transform="translate(-26.192 -91.533)" fill="#333" stroke="#333" stroke-width="0.15"/>
    <path id="Path_103" data-name="Path 103" d="M56.207,110.03c-2.367,0-4.734.008-7.1-.014a.847.847,0,0,1-.6-.323.644.644,0,0,1,.045-.607.888.888,0,0,1,.616-.246c3.344-.014,6.688-.01,10.032-.01h3.983c.594,0,.856.18.862.59s-.262.609-.881.609Z" transform="translate(-26.192 -93.304)" fill="#333" stroke="#333" stroke-width="0.15"/>
    <path id="Path_104" data-name="Path 104" d="M56.163,114.4H49.212a2.09,2.09,0,0,1-.337-.009.583.583,0,0,1-.485-.618.565.565,0,0,1,.5-.564,1.557,1.557,0,0,1,.3-.008H63.207a1.6,1.6,0,0,1,.3.007.567.567,0,0,1,.5.564.584.584,0,0,1-.485.619,2.09,2.09,0,0,1-.337.009Z" transform="translate(-26.166 -95.072)" fill="#333" stroke="#333" stroke-width="0.15"/>
    <path id="Path_105" data-name="Path 105" d="M25.582,125.342c-2.367,0-4.734.008-7.1-.014a.847.847,0,0,1-.6-.323.643.643,0,0,1,.045-.606.885.885,0,0,1,.616-.246c3.344-.015,6.688-.01,10.032-.01h3.983c.594,0,.856.18.862.59s-.262.609-.881.61Z" transform="translate(-15.382 -99.501)" fill="#333" stroke="#333" stroke-width="0.15"/>
    <path id="Path_106" data-name="Path 106" d="M25.582,129.717c-2.367,0-4.734.008-7.1-.014a.847.847,0,0,1-.6-.323.643.643,0,0,1,.045-.606.885.885,0,0,1,.616-.246c3.344-.015,6.688-.01,10.032-.01h3.983c.594,0,.856.18.862.59s-.262.609-.881.61Z" transform="translate(-15.382 -101.272)" fill="#333" stroke="#333" stroke-width="0.15"/>
    <path id="Path_107" data-name="Path 107" d="M25.549,134.091H18.6a2.736,2.736,0,0,1-.3,0,.6.6,0,0,1-.005-1.192,2.328,2.328,0,0,1,.263,0H32.608c.075,0,.151,0,.225,0a.585.585,0,0,1,.555.594.576.576,0,0,1-.55.6c-.275.017-.551,0-.827,0Z" transform="translate(-15.355 -102.632)" fill="#333" stroke="#333" stroke-width="0.15"/>
    <path id="Path_108" data-name="Path 108" d="M25.593,137.267c2.367,0,4.734-.008,7.1.014a.846.846,0,0,1,.6.322.641.641,0,0,1-.044.606.884.884,0,0,1-.616.247c-3.056.015-6.112.01-9.168.01H18.624c-.594,0-.856-.18-.862-.591s.261-.609.88-.609Z" transform="translate(-15.356 -104.603)" fill="#333" stroke="#333" stroke-width="0.15"/>
    <path id="Path_109" data-name="Path 109" d="M52.761,88.96a1.8,1.8,0,1,1,1.786,1.8A1.815,1.815,0,0,1,52.761,88.96Zm1.82.566a.581.581,0,1,0-.617-.571A.588.588,0,0,0,54.581,89.526Z" transform="translate(-29.2 -84.721)" fill="#333" stroke="#333" stroke-width="0.15"/>
    <path id="Path_110" data-name="Path 110" d="M65.114,88.95a1.8,1.8,0,1,1-1.806-1.819A1.809,1.809,0,0,1,65.114,88.95Zm-1.2-.015a.6.6,0,1,0-.6.591A.593.593,0,0,0,63.911,88.935Z" transform="translate(-32.715 -84.721)" fill="#333" stroke="#333" stroke-width="0.15"/>
    <path id="Path_111" data-name="Path 111" d="M73.864,88.947a1.8,1.8,0,1,1-1.809-1.816A1.809,1.809,0,0,1,73.864,88.947Zm-1.2,0a.6.6,0,0,0-1.2-.023.6.6,0,0,0,1.2.023Z" transform="translate(-36.016 -84.721)" fill="#333" stroke="#333" stroke-width="0.15"/>
    <path id="Path_112" data-name="Path 112" d="M24.645,105.169a1.8,1.8,0,1,1-1.807-1.8A1.792,1.792,0,0,1,24.645,105.169Zm-1.2.014a.6.6,0,1,0-.617.58A.627.627,0,0,0,23.442,105.183Z" transform="translate(-16.833 -91.017)" fill="#333" stroke="#333" stroke-width="0.15"/>
    <path id="Path_113" data-name="Path 113" d="M62.429,125.557a2.135,2.135,0,0,1,.538,2.03,2.076,2.076,0,0,1-2.034,1.576q-1.015.006-2.029,0a.59.59,0,0,1-.674-.663q0-2.949,0-5.9a.58.58,0,0,1,.652-.646q1.014-.009,2.028,0a2.008,2.008,0,0,1,1.9,1.171,2.033,2.033,0,0,1-.22,2.226C62.55,125.413,62.5,125.469,62.429,125.557Zm-2.985,2.4c.536,0,1.046.025,1.552-.007a.89.89,0,0,0,.021-1.774c-.517-.035-1.038-.008-1.574-.008Zm0-4.795v1.784c.54,0,1.062.029,1.579-.008a.888.888,0,0,0,0-1.768C60.506,123.136,59.984,123.164,59.448,123.164Z" transform="translate(-31.314 -97.706)" fill="#333" stroke="#333" stroke-width="0.15"/>
  </g>
</svg>
