<svg xmlns="http://www.w3.org/2000/svg" width="25.531" height="25.535" viewBox="0 0 25.531 25.535">
  <g id="Group_108" data-name="Group 108" transform="translate(0.253 0.25)">
    <path id="Path_34" data-name="Path 34" d="M133.89,55.214c.461.456.906.892,1.347,1.332q2.072,2.07,4.142,4.142a2.116,2.116,0,0,1,.27.3.724.724,0,0,1-1.017,1,2.421,2.421,0,0,1-.3-.273q-2.6-2.6-5.2-5.2a1.975,1.975,0,0,1-.214-.317,10.8,10.8,0,0,1-8.562,2.655,10.461,10.461,0,0,1-7.174-4.006,10.9,10.9,0,1,1,16.71.369Zm-8.2,2.253a9.44,9.44,0,1,0-9.45-9.455A9.417,9.417,0,0,0,125.69,57.467Z" transform="translate(-114.776 -37.119)" fill="#333" stroke="#333" stroke-width="0.5"/>
  </g>
</svg>
