<svg xmlns="http://www.w3.org/2000/svg" width="33.831" height="33.84" viewBox="0 0 33.831 33.84">
  <g id="Group_125" data-name="Group 125" transform="translate(0.2 0.203)">
    <path id="Path_187" data-name="Path 187" d="M44.2,105.582c-.206-.054-.416-.1-.62-.163a4.981,4.981,0,0,1-3.684-4.137c-.007-.041-.015-.081-.027-.147-.529,0-1.049,0-1.57,0a1.694,1.694,0,0,1-1.8-1.8q0-4.733,0-9.466v-.409H34.852v.379c0,2.242,0,4.483,0,6.724a2.235,2.235,0,0,1-1.861,2.295,2.181,2.181,0,0,1-2.6-2.148,1,1,0,0,0-.789-1.125c-1.509-.578-2.992-1.226-4.485-1.845l-.311-.128V95.04c0,.555,0,1.11,0,1.665a2.239,2.239,0,0,1-2.179,2.2,2.209,2.209,0,0,1-2.259-2.077c-.039-1.065-.022-2.132-.013-3.2,0-.25-.059-.353-.324-.4a4.446,4.446,0,0,1,.027-8.722,8.753,8.753,0,0,1,2.047-.085,7.645,7.645,0,0,0,3.9-.773c1.332-.632,2.716-1.156,4.081-1.716a.393.393,0,0,0,.291-.427,4.164,4.164,0,0,1,.1-1.064A2.212,2.212,0,0,1,32.8,78.837a2.241,2.241,0,0,1,2.047,2.27c.012,2.253,0,4.5,0,6.757v.409H36.5v-.38q0-4.717,0-9.433A1.7,1.7,0,0,1,38.369,76.6h1.49a5.046,5.046,0,1,1,.009,1.155c-.6,0-1.205-.024-1.806.017-.142.009-.292.22-.394.369a.671.671,0,0,0-.041.35q0,4.733,0,9.466v.314h2.249a5,5,0,0,1,1.986-3.416,4.868,4.868,0,0,1,3.848-.936,5.023,5.023,0,1,1-5.833,5.543h-2.25v.351q0,4.7,0,9.4c0,.63.162.79.793.792.478,0,.955,0,1.452,0a4.927,4.927,0,0,1,1.159-2.664,4.807,4.807,0,0,1,5.209-1.589,4.74,4.74,0,0,1,3.573,4.03,4.966,4.966,0,0,1-4.159,5.738.745.745,0,0,0-.145.061ZM30.347,94.694V83.053c-.065.022-.106.034-.144.05-1.722.716-3.443,1.435-5.168,2.144a.326.326,0,0,0-.231.362q.008,3.246,0,6.491a.366.366,0,0,0,.269.405c.986.4,1.965.81,2.946,1.218Zm3.363-5.809q0-2.073,0-4.145c0-1.24.006-2.481-.007-3.721a1.093,1.093,0,0,0-2.122-.334,2.1,2.1,0,0,0-.072.642q-.006,7.539,0,15.079a3.652,3.652,0,0,0,.017.423,1.069,1.069,0,0,0,.979.932,1.089,1.089,0,0,0,1.207-1.206Q33.714,92.719,33.71,88.884ZM23.679,92.2V85.533c-.537,0-1.057-.007-1.576,0a13.244,13.244,0,0,0-1.755.064,3.312,3.312,0,0,0-.279,6.481,3.844,3.844,0,0,0,.866.117C21.845,92.211,22.755,92.2,23.679,92.2Zm23.6,11.389a3.894,3.894,0,1,0-4.807-.008A2.815,2.815,0,0,1,47.274,103.591Zm.008-23.416a3.8,3.8,0,0,0,1.307-4.128,3.883,3.883,0,0,0-7.475.1,3.8,3.8,0,0,0,1.345,4.033A2.831,2.831,0,0,1,47.282,80.176Zm-.013,11.711A3.81,3.81,0,0,0,48.6,87.768a3.889,3.889,0,0,0-7.465,0,3.814,3.814,0,0,0,1.321,4.1A2.828,2.828,0,0,1,47.269,91.886ZM23.7,93.353H21.475c0,1.1,0,2.174,0,3.248a1.109,1.109,0,1,0,2.217.032C23.706,95.558,23.7,94.484,23.7,93.353Zm22.6,10.828a1.624,1.624,0,0,0-1.5-.815,1.6,1.6,0,0,0-1.351.818A3.812,3.812,0,0,0,46.295,104.181Zm0-11.7a1.629,1.629,0,0,0-1.536-.813,1.6,1.6,0,0,0-1.32.809A3.887,3.887,0,0,0,46.3,92.485Zm0-11.7a1.649,1.649,0,0,0-1.573-.808,1.624,1.624,0,0,0-1.292.806A3.968,3.968,0,0,0,46.3,80.785Z" transform="translate(-16.466 -72.145)" fill="#333" stroke="#333" stroke-width="0.4"/>
    <path id="Path_188" data-name="Path 188" d="M73.719,125.494a1.678,1.678,0,1,1-1.7-1.664A1.7,1.7,0,0,1,73.719,125.494Zm-1.132.017a.539.539,0,0,0-.531-.54.526.526,0,0,0-.558.539.533.533,0,0,0,.558.544A.54.54,0,0,0,72.587,125.51Z" transform="translate(-43.639 -98.203)" fill="#333" stroke="#333" stroke-width="0.4"/>
    <path id="Path_189" data-name="Path 189" d="M72.054,76.646a1.674,1.674,0,1,1-1.691,1.669A1.685,1.685,0,0,1,72.054,76.646Zm.532,1.68a.555.555,0,0,0-.526-.555.549.549,0,0,0-.563.546.531.531,0,0,0,.52.549A.545.545,0,0,0,72.586,78.326Z" transform="translate(-43.639 -74.414)" fill="#333" stroke="#333" stroke-width="0.4"/>
    <path id="Path_190" data-name="Path 190" d="M73.719,101.921a1.678,1.678,0,1,1-1.669-1.692A1.7,1.7,0,0,1,73.719,101.921Zm-1.662.53a.539.539,0,1,0-.034-1.078.539.539,0,1,0,.034,1.078Z" transform="translate(-43.639 -86.304)" fill="#333" stroke="#333" stroke-width="0.4"/>
  </g>
</svg>
