<svg xmlns="http://www.w3.org/2000/svg" width="29.296" height="34.026" viewBox="0 0 29.296 34.026">
  <g id="Group_203" data-name="Group 203" transform="translate(0.3 0.295)">
    <path id="Path_394" data-name="Path 394" d="M35.615,213.663q0,6.57,0,13.135,0,3.549-3.505,3.55-8.175.009-16.347,0a3.094,3.094,0,0,1-3.45-3.411c-.01-2.335,0-4.67,0-7,0-.586.024-1.2.792-1.174.694.022.719.6.718,1.155q-.012,3.5,0,7c.006,1.392.553,1.925,1.96,1.927q8.172.006,16.345,0c1.457,0,1.984-.533,1.984-2q.006-13.183,0-26.367c0-1.527-.52-2.047-2.039-2.049q-8.075-.006-16.152,0c-1.606,0-2.1.492-2.1,2.08q-.012,2.676,0,5.352c0,.565-.074,1.114-.772,1.1s-.743-.58-.739-1.135c.008-1.88-.01-3.762.008-5.642a3.051,3.051,0,0,1,3.311-3.254q8.316-.018,16.637,0a3.082,3.082,0,0,1,3.352,3.411Q35.625,207,35.615,213.663Z" transform="translate(-6.92 -196.917)" fill="#333" stroke="#333" stroke-width="0.6"/>
    <path id="Path_395" data-name="Path 395" d="M24.636,206a10.9,10.9,0,0,1-1.486-1.39c-.235-.306-.192-.823-.274-1.247.423.059.974-.029,1.247.206,1.029.888,1.97,1.878,2.935,2.837a.834.834,0,0,1-.045,1.345q-1.529,1.5-3.045,3.007c-.4.4-.9.741-1.3.186-.171-.237.01-.912.247-1.217a21.048,21.048,0,0,1,1.874-1.862c-.612-.027-.949-.055-1.288-.055q-6.276,0-12.551,0c-.259,0-.569.078-.765-.033-.271-.157-.623-.459-.629-.7s.337-.563.6-.727c.19-.118.5-.037.763-.037l12.649,0H24.5Z" transform="translate(-9.558 -190.726)" fill="#333" stroke="#333" stroke-width="0.6"/>
  </g>
</svg>
