<svg xmlns="http://www.w3.org/2000/svg" width="31.835" height="25.3" viewBox="0 0 31.835 25.3">
  <g id="Group_97" data-name="Group 97" transform="translate(0.15 0.15)">
    <path id="Path_57" data-name="Path 57" d="M69.062,85.092c.047-.186.094-.371.142-.557A4.633,4.633,0,0,1,73.61,81.1c1.283-.013,2.566,0,3.85,0,.489,0,.649-.117.809-.585.136-.4.261-.8.406-1.191a3.259,3.259,0,0,1,3.04-2.161q3.11-.023,6.221,0a3.263,3.263,0,0,1,3.049,2.15c.157.422.287.854.434,1.279a.644.644,0,0,0,.71.507c1.253,0,2.5,0,3.758,0a4.621,4.621,0,0,1,4.691,4.092,3.8,3.8,0,0,1,.02.523q0,5.912,0,11.825a4.588,4.588,0,0,1-4.566,4.6q-11.194.018-22.388,0a4.6,4.6,0,0,1-4.522-3.856.639.639,0,0,0-.058-.135ZM84.83,100.808q5.5,0,10.995,0a4.014,4.014,0,0,0,1-.107,3.263,3.263,0,0,0,2.45-3.345q.006-5.729,0-11.456a4.012,4.012,0,0,0-.061-.8,3.246,3.246,0,0,0-3.234-2.661c-1.283-.009-2.566,0-3.85,0a1.983,1.983,0,0,1-1.96-1.4c-.142-.406-.268-.817-.413-1.221a1.92,1.92,0,0,0-1.849-1.322q-3.08-.006-6.159,0A1.916,1.916,0,0,0,79.9,79.815c-.134.376-.252.758-.379,1.136a2.015,2.015,0,0,1-2.056,1.483c-1.222,0-2.443,0-3.665,0a3.643,3.643,0,0,0-.614.031,3.269,3.269,0,0,0-2.806,3.427q-.006,5.728,0,11.456a4.007,4.007,0,0,0,.07.826,3.239,3.239,0,0,0,3.258,2.63Q79.272,100.815,84.83,100.808Z" transform="translate(-69.062 -77.149)" fill="#333" stroke="#333" stroke-width="0.3"/>
    <path id="Path_58" data-name="Path 58" d="M94.684,93.273a7.883,7.883,0,1,1-7.847-7.887A7.876,7.876,0,0,1,94.684,93.273Zm-7.877,6.559a6.563,6.563,0,1,0-6.568-6.55A6.569,6.569,0,0,0,86.807,99.832Z" transform="translate(-71.033 -78.796)" fill="#333" stroke="#333" stroke-width="0.3"/>
    <path id="Path_59" data-name="Path 59" d="M82.212,93.63a5.256,5.256,0,0,1,4.529-4.918,4.156,4.156,0,0,1,.706-.038.667.667,0,0,1,.678.653.674.674,0,0,1-.7.658,3.949,3.949,0,0,0-3.746,2.882,5.051,5.051,0,0,0-.152.968c-.036.465-.284.764-.671.758s-.659-.332-.646-.808C82.205,93.732,82.209,93.681,82.212,93.63Z" transform="translate(-71.69 -79.453)" fill="#333" stroke="#333" stroke-width="0.3"/>
  </g>
</svg>
