<svg xmlns="http://www.w3.org/2000/svg" width="33.917" height="33.972" viewBox="0 0 33.917 33.972">
  <g id="Group_162" data-name="Group 162" transform="translate(0.251 0.25)">
    <path id="Path_324" data-name="Path 324" d="M31.938,221.052h2.35c.46.065.922.12,1.381.194a16.573,16.573,0,0,1,10.6,6.2.521.521,0,0,1,0,.779c-.244.2-.51.143-.759-.152-.326-.386-.655-.769-.968-1.137l-2.116,1.677c.019.058.045.128.068.2.385,1.229.777,2.457,1.148,3.691a.85.85,0,0,0,.346.508,3.182,3.182,0,0,1,.628.608,3.353,3.353,0,0,1,.57,1.84c.067.591.11,1.183.165,1.772h3.513c-.083-.717-.137-1.407-.248-2.09a15.379,15.379,0,0,0-1.939-5.355.5.5,0,0,1,.148-.759c.263-.142.521-.051.7.262a16.4,16.4,0,0,1,2.1,5.913c.069.459.132.918.2,1.378v2.35c-.02.083-.048.166-.061.25-.132.825-.212,1.66-.4,2.471A16.721,16.721,0,0,1,29.282,254.03a16.743,16.743,0,0,1-12.719-18.592,15.964,15.964,0,0,1,3.814-8.5,16.4,16.4,0,0,1,9.762-5.626C30.735,221.208,31.338,221.139,31.938,221.052Zm.652,22.112c-.125,0-.231,0-.336,0q-2.528-.034-5.055-.07a1,1,0,0,1-.477-.057.805.805,0,0,1-.336-.42.392.392,0,0,1,.291-.48,1.3,1.3,0,0,1,.416-.049c2.761.018,5.522.067,8.283.053,2.336-.01,4.674-.087,7.01-.143a1.62,1.62,0,0,0,1.693-1.283,16.7,16.7,0,0,0,.025-5.739,1.6,1.6,0,0,0-1.646-1.449c-.673-.031-1.347-.064-2.02-.07-3.239-.033-6.478-.083-9.717-.075-2.3,0-4.609.086-6.912.145a1.586,1.586,0,0,0-1.683,1.442,16.437,16.437,0,0,0,0,5.609,1.585,1.585,0,0,0,1.575,1.413c.292.02.587.014.88.022a2.8,2.8,0,0,1,.325.016.52.52,0,0,1,.492.513.513.513,0,0,1-.554.482c-.41-.006-.82-.034-1.316-.057l1.107,3.45a16.769,16.769,0,0,1,7.952-2.292Zm-.01-12.764v-8.311c-3.157.135-6.082,3.06-7.45,6.151A15.582,15.582,0,0,0,32.579,230.4Zm1.057-.042c1.683.233,6.216-1.085,7.489-2.186-.29-.5-.564-1.016-.88-1.508a10.509,10.509,0,0,0-4.047-3.871,6.3,6.3,0,0,0-2.562-.717Zm-8.592,16.97c.5.788.942,1.564,1.459,2.283a9.383,9.383,0,0,0,4.152,3.4,5.385,5.385,0,0,0,1.931.429v-8.317A15.7,15.7,0,0,0,25.045,247.327Zm8.6-2.174v8.276c3.145-.135,6.067-3.037,7.441-6.128A14.974,14.974,0,0,0,33.645,245.153Zm-12.762-7.918c.055-.605.111-1.187.16-1.77A2.986,2.986,0,0,1,22.4,232.9a.465.465,0,0,0,.15-.265c.158-.586.282-1.182.463-1.76.24-.764.52-1.515.783-2.268L21.7,226.942a15.646,15.646,0,0,0-4.3,10.293ZM17.4,238.287a15.647,15.647,0,0,0,4.3,10.289l2.111-1.676c-.022-.059-.049-.129-.072-.2-.385-1.229-.776-2.455-1.147-3.689a.9.9,0,0,0-.345-.509,3.531,3.531,0,0,1-.684-.687,3.372,3.372,0,0,1-.514-1.757c-.068-.589-.111-1.182-.165-1.769Zm27.956,0c-.083.771-.158,1.515-.243,2.257a2.672,2.672,0,0,1-1.235,2.047.554.554,0,0,0-.2.3c-.142.511-.241,1.036-.4,1.541-.263.835-.561,1.659-.843,2.482l2.091,1.66a15.644,15.644,0,0,0,4.3-10.289Zm-21.817-5.763,9.056-.2V231.4a16.685,16.685,0,0,1-7.959-2.292Zm19.151,10.471-9.072.2c0,.166,0,.315,0,.465.01.488-.1.47.463.5a15.2,15.2,0,0,1,4.7.959c.938.357,1.842.8,2.83,1.235Zm0-10.471-1.107-3.42a15.564,15.564,0,0,1-4.8,1.881c-.944.186-1.91.26-2.865.4-.106.015-.279.092-.287.158a6.358,6.358,0,0,0-.014.792ZM42,247.829c-.368.616-.68,1.2-1.049,1.742s-.8,1.086-1.224,1.6c-.416.5-.869.963-1.235,1.364a15.456,15.456,0,0,0,5.316-3.266ZM27.873,252.55a14.836,14.836,0,0,1-3.628-4.741l-1.832,1.466A15.074,15.074,0,0,0,27.873,252.55Zm-3.624-24.842a14.8,14.8,0,0,1,3.623-4.744,15.044,15.044,0,0,0-5.461,3.281Zm14.1-4.739a14.8,14.8,0,0,1,3.628,4.739l1.83-1.463A15.071,15.071,0,0,0,38.352,222.969Z" transform="translate(-16.403 -221.052)" fill="#333" stroke="#333" stroke-width="0.5"/>
    <path id="Path_326" data-name="Path 326" d="M34.72,235.213v.35c0,1.032,0,2.066,0,3.1,0,.408-.184.63-.5.631s-.5-.226-.5-.627q0-2.528,0-5.057c0-.27.068-.507.355-.592a.534.534,0,0,1,.628.283c.815,1.194,1.64,2.38,2.462,3.57a.943.943,0,0,0,.275.284c0-.109,0-.219,0-.329,0-1.077-.011-2.153-.015-3.229,0-.392.166-.6.472-.612s.5.215.5.617q.029,2.414.058,4.828c0,.119.027.267-.031.351-.115.166-.259.375-.43.42a.7.7,0,0,1-.535-.19,3.235,3.235,0,0,1-.44-.6q-1.111-1.607-2.22-3.213Z" transform="translate(-14.053 -219.432)" fill="#333" stroke="#333" stroke-width="0.5"/>
    <path id="Path_327" data-name="Path 327" d="M30.482,236.983c0,.592,0,1.144,0,1.7,0,.4-.193.626-.508.618s-.476-.215-.476-.61q0-2.543,0-5.087c0-.45.159-.619.6-.624.521-.006,1.046-.019,1.564.026a1.963,1.963,0,0,1,1.824,2.1,2.017,2.017,0,0,1-1.978,1.876C31.185,236.991,30.859,236.983,30.482,236.983ZM30.5,236c.337,0,.641,0,.943,0a1.4,1.4,0,0,0,.29-.043,1.038,1.038,0,0,0,.78-1,1.022,1.022,0,0,0-.836-.952,11.572,11.572,0,0,0-1.177-.008Z" transform="translate(-14.625 -219.434)" fill="#333" stroke="#333" stroke-width="0.5"/>
    <path id="Path_328" data-name="Path 328" d="M26.774,237.5c.333-1,.643-1.928.952-2.858.137-.412.267-.826.408-1.236a.5.5,0,0,1,.646-.392.5.5,0,0,1,.3.689q-.843,2.566-1.7,5.126a.623.623,0,0,1-1.2.006q-.9-2.583-1.785-5.165a.491.491,0,1,1,.926-.315c.437,1.237.865,2.478,1.3,3.717C26.655,237.193,26.7,237.313,26.774,237.5Z" transform="translate(-15.324 -219.433)" fill="#333" stroke="#333" stroke-width="0.5"/>
  </g>
</svg>
