<svg id="Group_211" data-name="Group 211" xmlns="http://www.w3.org/2000/svg" width="27.521" height="33.436" viewBox="0 0 27.521 33.436">
  <path id="Path_427" data-name="Path 427" d="M28.474,8.059a33.393,33.393,0,0,0,8.264,3.361,25.9,25.9,0,0,0,4.4.7.835.835,0,0,1,.895.966c0,4.612.012,9.225,0,13.837A11.976,11.976,0,0,1,38.3,35.474a24.609,24.609,0,0,1-8.486,5.476c-1.789.729-1.283.724-3.062,0a25.546,25.546,0,0,1-7.739-4.744,13.747,13.747,0,0,1-3.878-5.633,11.208,11.208,0,0,1-.611-3.712q-.013-6.869,0-13.74c0-.667.253-.963.885-1.007a26.672,26.672,0,0,0,8.686-2.127c1.314-.564,2.581-1.239,3.869-1.865.024-.012.038-.044.056-.067ZM40.507,20.851h.025c0-2.306,0-4.613,0-6.92,0-.273-.071-.355-.352-.4-1.475-.251-2.96-.469-4.41-.827a30.846,30.846,0,0,1-7.2-2.894.571.571,0,0,0-.6,0c-1.121.548-2.237,1.109-3.384,1.6A28.142,28.142,0,0,1,16.4,13.531c-.286.03-.384.1-.383.406.01,4.3,0,8.6.017,12.892a11.219,11.219,0,0,0,.212,2.136,10.991,10.991,0,0,0,3.416,5.807,24.463,24.463,0,0,0,8.42,5.093.761.761,0,0,0,.491-.031A27.346,27.346,0,0,0,33.3,37.519a17.959,17.959,0,0,0,5.205-4.587,9.5,9.5,0,0,0,1.99-5.52C40.532,25.225,40.507,23.039,40.507,20.851Z" transform="translate(-14.518 -8.059)" fill="#333"/>
  <path id="Path_428" data-name="Path 428" d="M37.578,16.289c-1.505-.417-3-.751-4.441-1.252-1.555-.541-3.057-1.233-4.576-1.871a.51.51,0,0,0-.48-.008,35.134,35.134,0,0,1-9.045,3.059v.374c0,3.416.015,6.833,0,10.249a7.4,7.4,0,0,0,1.981,5.033A18.2,18.2,0,0,0,26.5,35.955c.5.26,1.023.477,1.528.729a.6.6,0,0,0,.584-.007q.8-.4,1.619-.763a.737.737,0,0,1,1.1.473.7.7,0,0,1-.379.818c-.779.384-1.567.749-2.365,1.088a.852.852,0,0,1-.6-.016,22.148,22.148,0,0,1-7.742-5.009,9.251,9.251,0,0,1-2.531-4.589,8.454,8.454,0,0,1-.169-1.616c-.014-3.775-.008-7.55-.007-11.325a.781.781,0,0,1,.757-.914,33.406,33.406,0,0,0,9.436-3.169,1.178,1.178,0,0,1,1.169.007,33.215,33.215,0,0,0,8.225,2.927c.414.086.831.157,1.246.239a.772.772,0,0,1,.708.861c0,3.808.008,7.616,0,11.424a8.382,8.382,0,0,1-1.82,5.094c-.366.484-.784.932-1.194,1.381a.748.748,0,0,1-1.322-.346.827.827,0,0,1,.3-.751A9.948,9.948,0,0,0,36.8,30.148a6.511,6.511,0,0,0,.787-3.029q.012-5.336,0-10.673C37.588,16.372,37.578,16.3,37.578,16.289Z" transform="translate(-14.553 -8.099)" fill="#333"/>
  <path id="Path_429" data-name="Path 429" d="M28.389,32.415q-1.174,0-2.349,0c-.77,0-1.069-.309-.969-1.063.187-1.388.4-2.773.606-4.157.064-.43.153-.856.2-1.286a.414.414,0,0,0-.149-.312,4.461,4.461,0,0,1,1.795-7.959A4.416,4.416,0,0,1,32.79,21.38,4.24,4.24,0,0,1,31.143,25.5a.507.507,0,0,0-.235.56c.281,1.725.528,3.456.785,5.184a2.536,2.536,0,0,1,.022.26.757.757,0,0,1-.845.9C30.043,32.424,29.216,32.415,28.389,32.415ZM30.155,30.9c-.136-.894-.265-1.752-.4-2.61s-.269-1.738-.413-2.605a.843.843,0,0,1,.481-1.082,2.959,2.959,0,1,0-3.041-5.074,3.014,3.014,0,0,0-1.313,3.021,2.919,2.919,0,0,0,1.471,2.048.846.846,0,0,1,.517.922c-.158,1.008-.325,2.014-.483,3.023-.123.779-.236,1.558-.357,2.358Z" transform="translate(-14.627 -8.169)" fill="#333"/>
  <path id="Path_430" data-name="Path 430" d="M33.316,36.057a.749.749,0,0,1-.756-.734.894.894,0,0,1,.822-.818.752.752,0,0,1,.731.727A.835.835,0,0,1,33.316,36.057Z" transform="translate(-14.727 -8.365)" fill="#333"/>
</svg>
