<svg xmlns="http://www.w3.org/2000/svg" width="26.412" height="29.51" viewBox="0 0 26.412 29.51">
  <g id="Group_183" data-name="Group 183" transform="translate(0.25 0.25)">
    <path id="Path_364" data-name="Path 364" d="M22.034,92.041c.4.09.813.15,1.2.275A7.01,7.01,0,0,1,24.855,105.1c-.078.045-.153.1-.256.161a10.041,10.041,0,0,1,4.28,2.666,15.245,15.245,0,0,1,1.029,1.275.344.344,0,0,0,.374.162,5.861,5.861,0,0,1,1.773,11.585,5.7,5.7,0,0,1-5.578-2.084.578.578,0,0,0-.5-.234q-7.036.009-14.073,0c-.717,0-.913-.19-.907-.9.009-1.208-.026-2.419.05-3.623a9.7,9.7,0,0,1,2.986-6.441,9.965,9.965,0,0,1,4.012-2.4c-.113-.072-.193-.126-.274-.176a6.945,6.945,0,0,1-3.367-4.927,7.042,7.042,0,0,1,5.36-7.947c.282-.061.567-.115.851-.173Zm3.6,25.322a5.922,5.922,0,0,1,3.187-7.616c-.069-.094-.127-.179-.191-.26a8.722,8.722,0,0,0-6.327-3.412,9.152,9.152,0,0,0-6.374,1.634,8.363,8.363,0,0,0-3.576,5.983c-.135,1.184-.073,2.391-.1,3.588,0,.025.02.05.034.083ZM15.575,99.092a5.747,5.747,0,1,0,5.759-5.75A5.767,5.767,0,0,0,15.575,99.092ZM35.662,115.2a4.666,4.666,0,0,0-4.623-4.643,4.568,4.568,0,0,0-4.595,4.605,4.609,4.609,0,1,0,9.218.038Z" transform="translate(-11 -92.041)" fill="#333" stroke="#333" stroke-width="0.5"/>
    <path id="Path_365" data-name="Path 365" d="M31.713,114.528c.581,0,1.127,0,1.672,0,.443,0,.71.233.717.618a.629.629,0,0,1-.687.66c-.554.014-1.109,0-1.7,0,0,.481,0,.939,0,1.4,0,.122.007.245,0,.367a.641.641,0,0,1-.663.63.633.633,0,0,1-.621-.642c-.011-.471,0-.943,0-1.415v-.338c-.514,0-1,0-1.488,0a2.158,2.158,0,0,1-.394-.028.631.631,0,0,1,.1-1.251c.582-.007,1.164,0,1.778,0,0-.589-.006-1.151,0-1.714a.645.645,0,0,1,.547-.658.63.63,0,0,1,.681.391,1.2,1.2,0,0,1,.058.387C31.716,113.453,31.713,113.971,31.713,114.528Z" transform="translate(-11 -92.041)" fill="#333" stroke="#333" stroke-width="0.5"/>
  </g>
</svg>
