<svg xmlns="http://www.w3.org/2000/svg" width="34.145" height="34.136" viewBox="0 0 34.145 34.136">
  <g id="Group_163" data-name="Group 163" transform="translate(0.355 0.35)">
    <path id="Path_329" data-name="Path 329" d="M56.116,249.092c-.533,1.046-1.268,1.479-2.142,1.271a1.8,1.8,0,0,1,0-3.519c.877-.208,1.613.224,2.14,1.271.263,0,.534.006.805,0a.419.419,0,0,0,.461-.411c.017-.834.007-1.669.007-2.536-.735,0-1.439,0-2.143,0a5.6,5.6,0,0,1-3.426-1.066,5.91,5.91,0,0,1,1.806-10.469c.284-.089.394-.2.415-.491a10.716,10.716,0,0,1,1.208-4.2c.123-.237.274-.431.57-.4.364.043.514.4.351.775a12.527,12.527,0,0,0-.721,1.775,25.783,25.783,0,0,0-.46,2.624c-.07.467-.2.652-.665.747a4.931,4.931,0,0,0-3.985,4.955,4.854,4.854,0,0,0,4.11,4.7,6.322,6.322,0,0,0,.945.05q9.842.017,19.685.037a6.9,6.9,0,0,0,3.148-.7.6.6,0,0,1,.46-.056.569.569,0,0,1,.307.4.659.659,0,0,1-.268.494,6.554,6.554,0,0,1-2.918.827c-.357.013-.714,0-1.105,0,0,.868-.013,1.712.007,2.557a.408.408,0,0,0,.453.383c.271.007.543,0,.807,0,.551-1.064,1.282-1.486,2.17-1.262a1.8,1.8,0,0,1-.053,3.519c-.864.191-1.6-.253-2.114-1.279-.281,0-.574,0-.867,0a1.381,1.381,0,0,1-1.385-1.391c-.006-.825,0-1.652,0-2.5H70.661c-.006.1-.014.207-.014.311q0,2.808,0,5.615c0,.518.133.647.661.648h.611c.561-1.068,1.283-1.486,2.17-1.264a1.784,1.784,0,0,1,1.391,1.81,1.8,1.8,0,0,1-1.441,1.709c-.864.193-1.608-.253-2.116-1.279-.28,0-.573,0-.864,0a1.38,1.38,0,0,1-1.388-1.389c0-1.926,0-3.852,0-5.779V245.2H66.53v.338q0,1.942,0,3.886c0,.4-.19.632-.5.622s-.475-.233-.475-.618c0-1.4,0-2.805,0-4.233H62.417c0,.375,0,.752,0,1.129s-.2.6-.5.587-.47-.228-.471-.587,0-.738,0-1.131H58.368c0,.66-.041,1.323.007,1.979.1,1.376-.59,2.047-1.913,1.922C56.345,249.082,56.226,249.092,56.116,249.092Zm-.949-.5a.814.814,0,1,0-.8.828A.839.839,0,0,0,55.166,248.59Zm23.38,0a.814.814,0,1,0-.8.831A.841.841,0,0,0,78.546,248.587ZM74.5,252.273a.814.814,0,1,0-.827.8A.841.841,0,0,0,74.5,252.273Z" transform="translate(-49.35 -222.97)" fill="#333" stroke="#333" stroke-width="0.7"/>
    <path id="Path_330" data-name="Path 330" d="M62.97,224.639a11.08,11.08,0,0,1,10.206,6.81.452.452,0,0,0,.47.327,7.561,7.561,0,0,1,6.93,6.594,7.4,7.4,0,0,1-1.923,6.042.743.743,0,0,1-.525.236c-.405-.036-.531-.513-.236-.845a7,7,0,0,0,1.285-2.027,6.592,6.592,0,0,0-5.151-8.967,4.13,4.13,0,0,0-.748-.06.824.824,0,0,1-.9-.628,9.627,9.627,0,0,0-2.363-3.593,10.1,10.1,0,0,0-14.508.364c-.06.064-.117.13-.177.193-.271.28-.537.313-.768.094a.465.465,0,0,1,.033-.744,21.415,21.415,0,0,1,2.2-1.923A10.62,10.62,0,0,1,62.97,224.639Z" transform="translate(-47.194 -224.639)" fill="#333" stroke="#333" stroke-width="0.7"/>
    <path id="Path_331" data-name="Path 331" d="M57.991,246.858c-.537,1.049-1.268,1.479-2.14,1.272a1.8,1.8,0,0,1,0-3.519c.878-.21,1.619.226,2.143,1.271.24,0,.488,0,.738,0,.374-.007.535-.164.537-.54,0-.805,0-1.61,0-2.416,0-.381.181-.607.481-.611s.494.226.494.6c0,.849,0,1.7,0,2.547a1.384,1.384,0,0,1-1.412,1.4C58.548,246.861,58.265,246.858,57.991,246.858Zm-1.75.326a.814.814,0,1,0-.827-.8A.84.84,0,0,0,56.24,247.184Z" transform="translate(-47.177 -217.08)" fill="#333" stroke="#333" stroke-width="0.7"/>
    <path id="Path_332" data-name="Path 332" d="M61.093,246.028c0-.333,0-.658,0-.984a.489.489,0,1,1,.974.007c.006.325,0,.651,0,.968,1.058.54,1.486,1.279,1.263,2.166a1.8,1.8,0,0,1-3.513-.039A1.825,1.825,0,0,1,61.093,246.028Zm.5,2.568a.814.814,0,1,0-.825-.8A.841.841,0,0,0,61.593,248.6Z" transform="translate(-44.89 -216.141)" fill="#333" stroke="#333" stroke-width="0.7"/>
  </g>
</svg>
