<svg xmlns="http://www.w3.org/2000/svg" width="33.64" height="33.641" viewBox="0 0 33.64 33.641">
  <g id="Group_139" data-name="Group 139" transform="translate(0.1 0.1)">
    <path id="Path_228" data-name="Path 228" d="M120.1,11.044c.512.086,1.027.156,1.535.259A12.311,12.311,0,0,1,129,15.78a26.734,26.734,0,0,1,1.612,2.518c.05.081.093.167.158.285.434-.438.853-.849,1.25-1.279a.418.418,0,0,0,.014-.339,2.861,2.861,0,0,1,.583-2.979,2.8,2.8,0,0,1,2.805-.911,2.929,2.929,0,0,1-.484,5.787,4.24,4.24,0,0,1-1.179-.185.364.364,0,0,0-.419.1c-.556.567-1.115,1.132-1.686,1.683a.42.42,0,0,0-.126.458,12.008,12.008,0,0,1,.322,3.2,12.426,12.426,0,0,1-1.711,6.01c-.143.243-.109.357.1.529q4.095,3.421,8.172,6.863a3.748,3.748,0,0,1,1.321,3.835,3.691,3.691,0,0,1-2.652,2.915,3.8,3.8,0,0,1-4.274-1.3q-3.4-4-6.758-8.047c-.2-.233-.324-.279-.605-.116a12.255,12.255,0,0,1-7.708,1.617,12.778,12.778,0,0,1-11.1-10.2c-.1-.488-.162-.983-.242-1.475V22.8a2.384,2.384,0,0,0,.063-.284,12.13,12.13,0,0,1,1.492-4.818,12.577,12.577,0,0,1,9.11-6.467c.362-.064.724-.122,1.087-.182Zm9.708,11.3c-.128.112-.195.164-.254.222-.57.569-1.133,1.144-1.712,1.7a.354.354,0,0,0-.092.448,2.784,2.784,0,0,1-.377,2.721,2.9,2.9,0,0,1-3.745.881,2.944,2.944,0,0,1-1.38-3.654.414.414,0,0,0-.073-.353q-.8-.836-1.638-1.639a.413.413,0,0,0-.353-.072,2.884,2.884,0,0,1-2.1-.008.325.325,0,0,0-.417.1c-.51.52-1.023,1.039-1.548,1.545a.391.391,0,0,0-.113.5,2.892,2.892,0,0,1-.74,3.112,2.837,2.837,0,0,1-3.177.568,2.931,2.931,0,0,1,2.162-5.447.374.374,0,0,0,.473-.112q.761-.786,1.547-1.545a.35.35,0,0,0,.1-.447,2.746,2.746,0,0,1,.058-2.188,2.94,2.94,0,0,1,5.442,2.223.415.415,0,0,0,.064.355q.813.847,1.662,1.661a.383.383,0,0,0,.327.061,3.072,3.072,0,0,1,2.136,0,.41.41,0,0,0,.353-.074c.894-.875,1.772-1.766,2.663-2.645a.3.3,0,0,0,.078-.391,10.767,10.767,0,0,0-20.732,2.681,10.281,10.281,0,0,0,2.737,8.439,10.745,10.745,0,0,0,17.13-1.6,10.723,10.723,0,0,0,1.6-5.6C129.9,23.337,129.839,22.875,129.809,22.349Zm.167,14.207c.749.892,1.55,1.85,2.355,2.805.721.855,1.425,1.727,2.176,2.555a1.893,1.893,0,0,0,2.277.371,1.965,1.965,0,0,0,1.025-2.1,2.234,2.234,0,0,0-.891-1.35c-1.7-1.419-3.394-2.849-5.016-4.214Zm.379-3.228-1.488-1.247-1.44,1.438L128.67,35ZM134.8,14.964a.976.976,0,1,0,.968.985A1,1,0,0,0,134.8,14.964Zm-15.665,3.917a.976.976,0,1,0,.964.988A1,1,0,0,0,119.133,18.881Zm-4.912,6.851a.976.976,0,1,0-.975.978A1,1,0,0,0,114.222,25.732Zm10.772-.975a.976.976,0,1,0,.98.973A1,1,0,0,0,124.994,24.757Z" transform="translate(-106.39 -11.044)" fill="#333" stroke="#fff" stroke-width="0.2"/>
  </g>
</svg>
