<svg xmlns="http://www.w3.org/2000/svg" width="25.398" height="33.732" viewBox="0 0 25.398 33.732">
  <g id="Group_179" data-name="Group 179" transform="translate(0.152 0.146)">
    <path id="Path_351" data-name="Path 351" d="M108.305,44.5a5.676,5.676,0,0,1-.555-.49q-1.029-1.181-2.03-2.386a.5.5,0,0,0-.507-.188q-1.633.2-3.268.393c-.726.085-1.061-.357-.792-1.046q.852-2.184,1.709-4.365c.269-.687.542-1.373.8-2.064a.621.621,0,0,0,.033-.367c-.21-.684-.452-1.357-.657-2.043a2.909,2.909,0,0,0-1.182-1.624c-.51-.351-1.022-.7-1.518-1.071a1.933,1.933,0,0,1-.737-2.308c.184-.578.385-1.151.585-1.725a3.077,3.077,0,0,0,0-2.074c-.2-.585-.419-1.164-.594-1.757a1.912,1.912,0,0,1,.759-2.3c.457-.35.93-.681,1.412-.995a3.109,3.109,0,0,0,1.313-1.8c.2-.674.412-1.348.676-2a1.713,1.713,0,0,1,1.652-1.071c.629-.025,1.261-.014,1.891.009a3.1,3.1,0,0,0,2.141-.721c.438-.356.89-.7,1.357-1.017a1.975,1.975,0,0,1,2.455,0c.52.356,1.015.747,1.516,1.132a2.852,2.852,0,0,0,1.819.6c.673-.008,1.348-.031,2.021-.014a1.881,1.881,0,0,1,1.84,1.395c.206.594.393,1.2.567,1.8a2.864,2.864,0,0,0,1.185,1.621c.494.336.991.67,1.468,1.03a1.934,1.934,0,0,1,.777,2.351c-.174.581-.386,1.151-.585,1.726a3.068,3.068,0,0,0,0,2.073c.2.573.405,1.145.588,1.725a1.936,1.936,0,0,1-.734,2.309c-.469.352-.948.692-1.439,1.014a3.06,3.06,0,0,0-1.3,1.772c-.192.655-.426,1.3-.619,1.951a.722.722,0,0,0,.05.428q1.229,3.173,2.473,6.338c.288.738-.014,1.155-.808,1.073-1.048-.108-2.094-.236-3.138-.376a.644.644,0,0,0-.67.252c-.661.809-1.344,1.6-2.029,2.387a4.124,4.124,0,0,1-.491.418h-.326a1.034,1.034,0,0,1-.555-.642q-1.221-3.155-2.457-6.305c-.06-.152-.082-.311-.344-.3a.388.388,0,0,0-.421.285c-.8,2.073-1.618,4.14-2.419,6.215a1.414,1.414,0,0,1-.528.744Zm8.971-10.7h1.274a.6.6,0,0,0,.617-.435c.149-.442.318-.879.425-1.331a4.727,4.727,0,0,1,2.257-3.1,11.1,11.1,0,0,0,.941-.645c.486-.365.539-.539.351-1.117-.113-.351-.227-.7-.37-1.043a4.885,4.885,0,0,1,0-3.926c.169-.409.289-.839.427-1.262a.623.623,0,0,0-.245-.749c-.394-.289-.783-.588-1.2-.845a4.689,4.689,0,0,1-2.146-2.952c-.112-.441-.262-.872-.394-1.307a.739.739,0,0,0-.807-.565c-.424.009-.85-.005-1.273.026a4.638,4.638,0,0,1-3.479-1.094c-.381-.32-.8-.6-1.2-.9a.676.676,0,0,0-.849,0c-.423.3-.851.6-1.252.936a4.6,4.6,0,0,1-3.394,1.06c-.455-.032-.913-.023-1.371-.026a.683.683,0,0,0-.721.494c-.142.433-.3.861-.407,1.3a4.682,4.682,0,0,1-2.211,3.052,12.106,12.106,0,0,0-1.02.7c-.441.334-.492.512-.325,1.042.117.373.24.744.388,1.1a4.908,4.908,0,0,1,0,3.9c-.172.42-.293.861-.435,1.293a.6.6,0,0,0,.24.719c.394.289.782.589,1.2.846a4.7,4.7,0,0,1,2.159,2.98c.115.461.277.912.425,1.365a.632.632,0,0,0,.662.471c.565-.006,1.132.007,1.7-.014a4.327,4.327,0,0,1,2.972.954c.263.211.533.412.8.618.991.762,1.042.755,2.045.005a17.436,17.436,0,0,1,1.684-1.169A4.538,4.538,0,0,1,117.276,33.8Zm-14.54,6.6.343-.037c.852-.1,1.7-.2,2.557-.3a.8.8,0,0,1,.768.323c.514.619,1.041,1.228,1.564,1.84.089.1.182.2.3.329.75-1.922,1.481-3.791,2.2-5.663a.353.353,0,0,0-.086-.312c-.288-.248-.612-.455-.9-.706A3.33,3.33,0,0,0,107,35.116c-.712.033-1.427.007-2.2.007Zm18.584,0-2.068-5.277c-.894,0-1.717.008-2.539,0a2.939,2.939,0,0,0-1.922.589c-.36.28-.72.563-1.09.831a.287.287,0,0,0-.112.405c.461,1.148.909,2.3,1.36,3.452.276.7.549,1.407.843,2.16.116-.13.2-.224.284-.32.523-.612,1.052-1.219,1.564-1.84a.812.812,0,0,1,.8-.333c.3.043.6.071.906.105Z" transform="translate(-99.481 -11.065)" fill="#333" stroke="#333" stroke-width="0.3"/>
    <path id="Path_352" data-name="Path 352" d="M111.844,32.577a8.594,8.594,0,1,1,8.623-8.6A8.576,8.576,0,0,1,111.844,32.577Zm.008-15.864a7.27,7.27,0,1,0,7.267,7.254A7.264,7.264,0,0,0,111.852,16.714Z" transform="translate(-99.315 -10.875)" fill="#333" stroke="#333" stroke-width="0.3"/>
    <path id="Path_353" data-name="Path 353" d="M108.375,27.665c.114-.663.227-1.4.372-2.138a.729.729,0,0,0-.238-.793c-.523-.459-1.005-.964-1.5-1.449a.712.712,0,0,1-.26-.782.744.744,0,0,1,.7-.481c.764-.1,1.528-.209,2.287-.336a.5.5,0,0,0,.293-.251c.343-.665.672-1.338,1-2.012.141-.288.318-.527.674-.528a.741.741,0,0,1,.683.516c.326.674.668,1.34.991,2.017a.438.438,0,0,0,.389.279c.765.1,1.527.212,2.289.326a.7.7,0,0,1,.628.492.681.681,0,0,1-.236.73c-.553.54-1.114,1.071-1.654,1.622a.565.565,0,0,0-.144.414c.1.709.233,1.413.352,2.119a2.106,2.106,0,0,1,.038.29.654.654,0,0,1-1.009.666c-.661-.329-1.316-.669-1.961-1.029a.646.646,0,0,0-.714-.006c-.651.369-1.317.713-1.988,1.048C108.851,28.638,108.357,28.313,108.375,27.665Zm.514-4.5c.348.372.673.736,1.017,1.082a.857.857,0,0,1,.264.853c-.1.469-.16.946-.249,1.493.486-.256.905-.458,1.307-.69a.9.9,0,0,1,.98,0c.4.231.819.432,1.3.682-.092-.552-.157-1.035-.256-1.508a.812.812,0,0,1,.258-.824c.308-.291.611-.589.912-.886a2.049,2.049,0,0,0,.159-.207c-.262-.038-.478-.065-.692-.1-1.41-.222-1.182,0-1.8-1.245-.116-.235-.239-.468-.382-.747-.258.519-.486.974-.711,1.432a.735.735,0,0,1-.6.436C109.889,23.006,109.388,23.087,108.889,23.163Z" transform="translate(-99.163 -10.721)" fill="#333" stroke="#333" stroke-width="0.3"/>
  </g>
</svg>
