<svg xmlns="http://www.w3.org/2000/svg" width="34.739" height="33.586" viewBox="0 0 34.739 33.586">
  <g id="Group_114" data-name="Group 114" transform="translate(0.075 0.075)">
    <path id="Path_118" data-name="Path 118" d="M35.009,192.208H19.624a1.726,1.726,0,0,1-1.9-1.892V160.663a1.726,1.726,0,0,1,1.9-1.891H50.431a1.721,1.721,0,0,1,1.882,1.874q0,14.845,0,29.689a1.722,1.722,0,0,1-1.883,1.874ZM18.875,164.542v.348q0,12.683,0,25.366c0,.615.194.8.83.8H50.332c.647,0,.831-.185.831-.839q0-12.647,0-25.294v-.383Zm0-1.183H51.163V160.85c0-.776-.15-.928-.921-.928H19.795c-.108,0-.217-.006-.324,0a.58.58,0,0,0-.59.6C18.868,161.462,18.876,162.4,18.876,163.359Z" transform="translate(-17.724 -158.772)" fill="#333" stroke="#333" stroke-width="0.15"/>
    <path id="Path_119" data-name="Path 119" d="M38.733,175.469H51.741c.651,0,.81.157.81.8v8.792c0,.618-.167.783-.791.783H25.671c-.626,0-.791-.164-.791-.783v-8.828c0-.6.171-.764.773-.764Zm-12.684,9.224h.368c1,0,1.994-.01,2.99.007a.58.58,0,0,0,.555-.286q1.782-2.576,3.588-5.134a.6.6,0,0,1,1.1-.011c.182.253.356.512.535.768l1.856,2.644c.586-.78,1.145-1.528,1.709-2.272a.6.6,0,0,1,1.086,0c.586.776,1.167,1.555,1.751,2.332.076.1.158.2.255.321.527-.534,1.023-1.04,1.524-1.542.405-.406.666-.407,1.07-.005.69.686,1.375,1.377,2.065,2.062.374.371.7.874,1.15,1.063a4.24,4.24,0,0,0,1.532.048c.729,0,1.457,0,2.193,0v-8.047H26.048Zm5.134,0c1.183,0,2.29-.057,3.387.02a1.479,1.479,0,0,0,1.573-.81.383.383,0,0,0-.015-.5c-.615-.859-1.214-1.728-1.821-2.593-.059-.085-.128-.162-.217-.274Zm5.838-.034h4.546l-2.274-3.031Zm8.8.034-1.96-1.973-1.3,1.3a3.551,3.551,0,0,0,.269.36c.108.115.237.292.361.3C44.078,184.7,44.974,184.693,45.818,184.693Z" transform="translate(-21.421 -167.398)" fill="#333" stroke="#333" stroke-width="0.15"/>
    <path id="Path_120" data-name="Path 120" d="M28.9,209.854H25.622c-.555,0-.742-.182-.742-.723q0-2.162,0-4.324c0-.525.189-.714.713-.715h6.63c.543,0,.725.186.725.74q0,2.144,0,4.288c0,.549-.184.733-.732.734Q30.559,209.856,28.9,209.854Zm2.87-1.344v-3.238H26.049V208.5c.127-.093.221-.159.311-.23q1-.8,2-1.595c.495-.393.621-.393,1.127.008C30.235,207.279,30.981,207.879,31.771,208.51Zm-1.642.181c-.411-.329-.743-.6-1.081-.861-.048-.038-.154-.074-.186-.049-.369.279-.729.571-1.156.91Z" transform="translate(-21.42 -182.184)" fill="#333" stroke="#333" stroke-width="0.15"/>
    <path id="Path_121" data-name="Path 121" d="M49.152,209.854q-1.639,0-3.279,0c-.527,0-.718-.189-.719-.71q0-2.18,0-4.36c0-.5.2-.691.7-.692h6.666c.5,0,.7.194.7.691q0,2.2,0,4.4c0,.474-.2.673-.683.674Q50.846,209.857,49.152,209.854Zm2.893-1.344v-3.25H46.324v3.24c.127-.094.222-.159.312-.232q.943-.753,1.884-1.507c.636-.508.711-.505,1.355.013C50.584,207.343,51.295,207.91,52.045,208.51Zm-1.654.174c-.393-.316-.713-.584-1.047-.833a.3.3,0,0,0-.271-.024c-.35.257-.685.535-1.09.857Z" transform="translate(-31.894 -182.184)" fill="#333" stroke="#333" stroke-width="0.15"/>
    <path id="Path_122" data-name="Path 122" d="M69.489,204.092q1.658,0,3.315,0c.5,0,.692.2.693.7q0,2.18,0,4.36c0,.5-.2.7-.691.7q-3.351,0-6.7,0c-.475,0-.673-.2-.674-.682q0-2.2,0-4.4c0-.493.2-.683.708-.684Q67.813,204.09,69.489,204.092Zm-2.9,4.43c.829-.662,1.6-1.282,2.381-1.9.4-.316.58-.317.985,0,.686.544,1.369,1.094,2.054,1.64.095.075.195.144.315.232v-3.234H66.593Zm4.071.16c-.4-.321-.737-.6-1.083-.862a.229.229,0,0,0-.215-.01c-.354.266-.7.547-1.106.872Z" transform="translate(-42.367 -182.183)" fill="#333" stroke="#333" stroke-width="0.15"/>
    <path id="Path_123" data-name="Path 123" d="M30.167,218.4c.732,0,1.465,0,2.2,0,.424,0,.669.222.663.585-.006.347-.246.562-.649.563q-2.234,0-4.468,0a.567.567,0,0,1-.644-.568c0-.362.24-.579.666-.581C28.678,218.4,29.422,218.4,30.167,218.4Z" transform="translate(-22.654 -189.576)" fill="#333" stroke="#333" stroke-width="0.15"/>
    <path id="Path_124" data-name="Path 124" d="M50.439,218.4c.721,0,1.442,0,2.162,0,.457,0,.706.21.7.583s-.248.566-.682.566q-2.2,0-4.4,0c-.434,0-.677-.206-.683-.566s.242-.583.7-.583C48.974,218.4,49.707,218.4,50.439,218.4Z" transform="translate(-33.128 -189.577)" fill="#333" stroke="#333" stroke-width="0.15"/>
    <path id="Path_125" data-name="Path 125" d="M70.719,219.553c-.745,0-1.489,0-2.234,0-.426,0-.671-.218-.668-.579s.246-.568.678-.569q2.2,0,4.4,0c.437,0,.68.2.687.561.008.374-.242.587-.7.588C72.16,219.555,71.44,219.553,70.719,219.553Z" transform="translate(-43.602 -189.576)" fill="#333" stroke="#333" stroke-width="0.15"/>
    <path id="Path_126" data-name="Path 126" d="M48.112,199.323a.574.574,0,1,1-.57.568A.563.563,0,0,1,48.112,199.323Z" transform="translate(-33.128 -179.72)" fill="#333" stroke="#333" stroke-width="0.15"/>
    <path id="Path_127" data-name="Path 127" d="M53.461,199.9a.574.574,0,1,1-.561-.579A.565.565,0,0,1,53.461,199.9Z" transform="translate(-35.592 -179.72)" fill="#333" stroke="#333" stroke-width="0.15"/>
    <path id="Path_128" data-name="Path 128" d="M58.23,199.886a.574.574,0,1,1-.576-.563A.564.564,0,0,1,58.23,199.886Z" transform="translate(-38.056 -179.72)" fill="#333" stroke="#333" stroke-width="0.15"/>
    <path id="Path_129" data-name="Path 129" d="M23.078,163.544a.575.575,0,1,1-.581.558A.563.563,0,0,1,23.078,163.544Z" transform="translate(-20.189 -161.237)" fill="#333" stroke="#333" stroke-width="0.15"/>
    <path id="Path_130" data-name="Path 130" d="M27.832,163.544a.574.574,0,1,1-.565.574A.563.563,0,0,1,27.832,163.544Z" transform="translate(-22.654 -161.237)" fill="#333" stroke="#333" stroke-width="0.15"/>
    <path id="Path_131" data-name="Path 131" d="M32.6,164.692a.575.575,0,1,1,.584-.555A.563.563,0,0,1,32.6,164.692Z" transform="translate(-25.118 -161.237)" fill="#333" stroke="#333" stroke-width="0.15"/>
    <path id="Path_132" data-name="Path 132" d="M60.616,183.217a.575.575,0,1,1-.548-.592A.564.564,0,0,1,60.616,183.217Z" transform="translate(-39.288 -171.094)" fill="#333" stroke="#333" stroke-width="0.15"/>
  </g>
</svg>
