<svg xmlns="http://www.w3.org/2000/svg" width="26.845" height="33.939" viewBox="0 0 26.845 33.939">
  <g id="Group_213" data-name="Group 213" transform="translate(0.25 0.25)">
    <path id="Path_436" data-name="Path 436" d="M118.51,11.047c.247,2.433-.122,4.694-1.932,6.505a8.059,8.059,0,0,1-4.262,2.168c-.478.094-.965.141-1.516.218.029-.46.038-.876.085-1.288a8.716,8.716,0,0,1,1.5-4.183,8.172,8.172,0,0,1,4.824-3.218c.3-.076.608-.136.912-.2Zm-1.255,1.521a6.579,6.579,0,0,0-4.981,5.848A5.811,5.811,0,0,0,117.255,12.568Z" transform="translate(-98.554 -11.047)" fill="#333" stroke="#333" stroke-width="0.5"/>
    <path id="Path_437" data-name="Path 437" d="M126.253,22.252c-.4.22-.8.412-1.175.647a5.648,5.648,0,0,0-2.74,4.2,5.852,5.852,0,0,0,4.026,6.434.635.635,0,0,1,.435.954c-.462,1.017-.9,2.05-1.458,3.016a19.456,19.456,0,0,1-3.791,4.667,3.408,3.408,0,0,1-3.268.823,6.4,6.4,0,0,1-1.792-.738,4.287,4.287,0,0,0-3.047-.5,6.762,6.762,0,0,0-2.168.752,3.787,3.787,0,0,1-4.459-.441,12.547,12.547,0,0,1-2.925-3.477,37.223,37.223,0,0,1-2.217-4.2,16.938,16.938,0,0,1-.875-3.258,12.421,12.421,0,0,1-.208-3.635c.32-3.725,1.888-6.7,5.246-8.554a5.912,5.912,0,0,1,4.029-.484,11.235,11.235,0,0,1,3.542,1.348.467.467,0,0,0,.532.007,13.511,13.511,0,0,1,3.842-1.482,7.591,7.591,0,0,1,8.379,3.74C126.194,22.126,126.219,22.183,126.253,22.252Zm-1.837-.489c-.2-.216-.39-.443-.6-.639a6.336,6.336,0,0,0-5.912-1.494,12.909,12.909,0,0,0-4.026,1.71.378.378,0,0,1-.436.01c-.885-.457-1.768-.923-2.684-1.31a6.1,6.1,0,0,0-2.49-.413,5.16,5.16,0,0,0-3.139,1.282,8.616,8.616,0,0,0-3.11,5.344,12.558,12.558,0,0,0,.042,4.669,11.736,11.736,0,0,0,.936,3.307c.621,1.218,1.246,2.437,1.948,3.609a11.474,11.474,0,0,0,2.678,3.216,2.5,2.5,0,0,0,3.1.284,7.14,7.14,0,0,1,2.283-.823,5.434,5.434,0,0,1,4.2.672,4.287,4.287,0,0,0,1.128.492,2.34,2.34,0,0,0,2.438-.549,19.317,19.317,0,0,0,3.194-3.86c.536-.861.984-1.778,1.476-2.675A7.248,7.248,0,0,1,124.416,21.763Z" transform="translate(-100.543 -9.67)" fill="#333" stroke="#333" stroke-width="0.5"/>
  </g>
</svg>
