<svg xmlns="http://www.w3.org/2000/svg" width="34.124" height="34.138" viewBox="0 0 34.124 34.138">
  <g id="Group_206" data-name="Group 206" transform="translate(0.35 0.35)">
    <path id="Path_403" data-name="Path 403" d="M109.317,194.035c.59.086,1.184.147,1.768.261a16.445,16.445,0,0,1,12.044,9.052,15.94,15.94,0,0,1,1.663,8.783,16.653,16.653,0,0,1-13.522,15.032,16.355,16.355,0,0,1-10.727-1.541.43.43,0,0,0-.54.05,8.2,8.2,0,0,1-8.06,1.251,2.719,2.719,0,0,1-.51-.318v-.392a3.859,3.859,0,0,1,.548-.379,7.429,7.429,0,0,0,3.644-3.571.411.411,0,0,0-.069-.535,16.341,16.341,0,0,1-3.871-8.108c-.1-.587-.168-1.176-.253-1.766v-2.284c.073-.537.131-1.075.222-1.608A16.741,16.741,0,0,1,105.168,194.3c.6-.108,1.2-.176,1.8-.264Zm-16.03,32.232a1.377,1.377,0,0,0,.184.07,7.3,7.3,0,0,0,6.127-1.605c.534-.438.524-.44,1.139-.119a15.47,15.47,0,0,0,10.326,1.577,15.76,15.76,0,0,0,12.66-17.534,14.5,14.5,0,0,0-3.231-7.606c-4.192-5.047-9.549-6.967-15.969-5.584a14.889,14.889,0,0,0-9.361,6.434,15.684,15.684,0,0,0,1.421,19.492.623.623,0,0,1,.145.793c-.349.637-.661,1.3-1.066,1.9A7.727,7.727,0,0,1,93.286,226.267Z" transform="translate(-91.433 -194.035)" fill="#333" stroke="#333" stroke-width="0.7"/>
    <path id="Path_404" data-name="Path 404" d="M119.527,209.358a12.791,12.791,0,1,1-12.737-12.812A12.794,12.794,0,0,1,119.527,209.358Zm-13.32,3.568v-7.187h-4.1c-.8,0-.8,0-.86.811-.047.6-.087,1.19-.142,1.785a.5.5,0,1,1-.994-.072c0-.053.009-.108.014-.162.064-.775.126-1.552.19-2.339a.583.583,0,0,0-.12-.02c-1.5,0-3,0-4.5-.008-.215,0-.245.123-.289.273a11.829,11.829,0,0,0-.008,6.649.328.328,0,0,0,.379.287c1.424-.012,2.849-.006,4.273-.008.094,0,.186-.011.264-.016-.067-.828-.134-1.629-.2-2.429-.031-.392.144-.644.452-.668s.512.215.543.6c.064.746.144,1.49.2,2.237.017.234.115.281.326.279,1.446-.006,2.892,0,4.337,0C106.046,212.937,106.121,212.929,106.206,212.926Zm6.913-.006c.1.008.164.016.228.016,1.457,0,2.914-.006,4.371.009.256,0,.307-.126.36-.315a11.953,11.953,0,0,0,0-6.591c-.072-.253-.192-.307-.434-.3-1.393.011-2.785,0-4.176,0h-.353A24.51,24.51,0,0,1,113.119,212.919Zm-5.864-.037c.031.028.039.042.048.042,1.543,0,3.086.011,4.63,0a.3.3,0,0,0,.211-.2c.081-.657.165-1.315.2-1.977a24.458,24.458,0,0,0-.179-4.716c-.034-.242-.112-.3-.342-.3-1.435.009-2.871,0-4.306.006-.083,0-.167.013-.264.02Zm0-8.158h4.671c-.058-.267-.1-.507-.162-.744a12.723,12.723,0,0,0-2.112-4.715,4.6,4.6,0,0,0-1.7-1.443c-.215-.1-.451-.164-.7-.253Zm.006,9.227v7.136a3.79,3.79,0,0,0,2.055-1.281,11.2,11.2,0,0,0,2.253-4.392c.14-.473.247-.955.378-1.463Zm-1.05-9.227v-7.13c-.066.011-.108.016-.148.027a4.235,4.235,0,0,0-2.22,1.621,12.263,12.263,0,0,0-2.069,4.488c-.086.318-.153.643-.234.994Zm0,16.359v-7.128h-4.648a1.958,1.958,0,0,0,.041.3c.229.789.423,1.594.708,2.364a8.723,8.723,0,0,0,2.314,3.644A3.344,3.344,0,0,0,106.213,221.083Zm6.741-16.366h4.609a11.6,11.6,0,0,0-7.7-6.732A13.958,13.958,0,0,1,112.954,204.718Zm0,9.237a13.964,13.964,0,0,1-3.087,6.733c2.878-.452,7.113-4.169,7.688-6.733ZM103.6,198c-2.6.211-7.12,4.17-7.682,6.723h4.6A13.79,13.79,0,0,1,103.6,198Zm-7.744,15.952a11.859,11.859,0,0,0,7.713,6.738,14.109,14.109,0,0,1-3.053-6.738Z" transform="translate(-90.027 -192.629)" fill="#333" stroke="#333" stroke-width="0.7"/>
  </g>
</svg>
