<svg xmlns="http://www.w3.org/2000/svg" width="33.636" height="33.641" viewBox="0 0 33.636 33.641">
  <g id="Group_149" data-name="Group 149" transform="translate(0.103 0.1)">
    <path id="Path_253" data-name="Path 253" d="M119.954,75.06H122.3c.536.073,1.075.128,1.607.222a16.784,16.784,0,0,1,13.666,13.548c.1.585.175,1.177.261,1.765v2.349c-.071.514-.124,1.032-.214,1.543a16.386,16.386,0,0,1-6.2,10.422,16.7,16.7,0,0,1-21.534-25.492,16.291,16.291,0,0,1,8.3-4.094C118.773,75.219,119.365,75.147,119.954,75.06Zm1.165,31.461a14.751,14.751,0,1,0-14.742-14.769A14.8,14.8,0,0,0,121.119,106.521Z" transform="translate(-104.404 -75.06)" fill="#333" stroke="#333" stroke-width="0.2"/>
    <path id="Path_254" data-name="Path 254" d="M129.21,85.14a4.112,4.112,0,0,1-.15.492q-3.4,7.712-6.812,15.42a1.019,1.019,0,0,1-.984.671,1,1,0,0,1-.921-.793q-.889-2.856-1.764-5.717a.586.586,0,0,0-.44-.449c-1.9-.576-3.793-1.166-5.688-1.753a1.012,1.012,0,0,1-.828-.925,1.031,1.031,0,0,1,.725-1.012q7.665-3.388,15.327-6.785A1.036,1.036,0,0,1,129.21,85.14Zm-7.726,12.768,4.79-10.837-10.84,4.792c.138.049.208.076.28.1,1.231.381,2.462.768,3.7,1.141a1.139,1.139,0,0,1,.828.829c.357,1.194.733,2.383,1.1,3.574C121.376,97.616,121.418,97.722,121.484,97.908Z" transform="translate(-104.812 -75.575)" fill="#333" stroke="#333" stroke-width="0.2"/>
  </g>
</svg>
