<svg xmlns="http://www.w3.org/2000/svg" width="33.944" height="33.963" viewBox="0 0 33.944 33.963">
  <g id="Group_141" data-name="Group 141" transform="translate(0.251 0.277)">
    <path id="Path_248" data-name="Path 248" d="M62.441,79.113c.958-1.136,1.9-2.259,2.849-3.381.546-.649,1.086-1.3,1.642-1.944a.3.3,0,0,0,.018-.445,3.338,3.338,0,0,1,2.331-5.26,3.382,3.382,0,0,1,3.667,2.757,3.629,3.629,0,0,1-.212,1.882.537.537,0,0,0,.054.327c.019.052.1.082.15.122l3.329,2.5a3.346,3.346,0,0,1,2.445-.911,3.287,3.287,0,0,1,2.337,1.1c.086-.044.164-.077.234-.12.95-.592,1.9-1.191,2.851-1.774a.31.31,0,0,0,.169-.435A3.318,3.318,0,0,1,86.6,69.307a3.337,3.337,0,1,1,.612,6.539,3.207,3.207,0,0,1-2.031-.92.278.278,0,0,0-.415-.038c-.954.607-1.91,1.209-2.876,1.8-.193.117-.2.226-.14.42a3.332,3.332,0,1,1-6.28-.2.387.387,0,0,0-.156-.557Q73.747,75.2,72.207,74.02a.338.338,0,0,0-.5.014,3.206,3.206,0,0,1-3.461.4c-.192-.085-.308-.116-.466.074q-2.141,2.571-4.3,5.122a.3.3,0,0,0-.026.441,3.322,3.322,0,0,1-1.911,5.18,3.339,3.339,0,1,1-1.562-6.493,3.272,3.272,0,0,1,2.042.166C62.161,78.977,62.3,79.045,62.441,79.113Zm7.223-5.485a2.232,2.232,0,0,0,2.22-2.218,2.257,2.257,0,0,0-2.229-2.22,2.228,2.228,0,0,0-2.206,2.229A2.2,2.2,0,0,0,69.664,73.627Zm8.9,2.263a2.224,2.224,0,0,0-2.22,2.212,2.251,2.251,0,0,0,2.227,2.217A2.224,2.224,0,0,0,80.783,78.1,2.2,2.2,0,0,0,78.567,75.891Zm8.921-1.151a2.23,2.23,0,0,0,2.221-2.214,2.253,2.253,0,0,0-2.228-2.219,2.226,2.226,0,0,0-2.209,2.225A2.2,2.2,0,0,0,87.488,74.74ZM60.732,84.207a2.214,2.214,0,0,0,.03-4.428,2.214,2.214,0,1,0-.03,4.428Z" transform="translate(-57.404 -68.057)" fill="#333" stroke="#333" stroke-width="0.5"/>
    <path id="Path_249" data-name="Path 249" d="M89.831,92.252q0,3.948,0,7.9c0,.621-.166.784-.795.784q-2.579,0-5.155,0c-.546,0-.747-.193-.747-.745q0-7.9,0-15.791a1.717,1.717,0,0,1,1.881-1.857q1.485-.006,2.969,0a1.7,1.7,0,0,1,1.846,1.85Q89.833,88.32,89.831,92.252ZM88.7,99.813c.007-.082.017-.134.017-.187q0-7.634,0-15.269c0-.474-.208-.674-.678-.676q-1.518-.006-3.034,0c-.567,0-.729.168-.729.744q0,7.521,0,15.041c0,.114.009.227.016.348Z" transform="translate(-56.409 -67.497)" fill="#333" stroke="#333" stroke-width="0.5"/>
    <path id="Path_250" data-name="Path 250" d="M72.672,92.731q0,3.686,0,7.371c0,.623-.166.788-.792.788q-2.577,0-5.154,0c-.549,0-.749-.19-.75-.742q0-7.355,0-14.711a1.631,1.631,0,0,1,1.616-1.8,31.485,31.485,0,0,1,3.487,0,1.618,1.618,0,0,1,1.591,1.783Q72.676,89.079,72.672,92.731Zm-5.558,7.021h4.444v-.415q0-6.849,0-13.7c0-.747-.14-.886-.9-.886h-2.74c-.664,0-.808.142-.808.8v14.2Z" transform="translate(-57.073 -67.456)" fill="#333" stroke="#333" stroke-width="0.5"/>
    <path id="Path_251" data-name="Path 251" d="M74.564,94.261q0-2.822,0-5.643a1.636,1.636,0,0,1,1.646-1.765q1.7-.058,3.392,0a1.653,1.653,0,0,1,1.657,1.829c.008,1.37,0,2.74,0,4.11V99.9c0,.706-.158.863-.858.863q-2.544,0-5.088,0c-.575,0-.752-.18-.752-.763Zm5.541,5.384c.007-.1.016-.179.016-.252q0-5.381,0-10.765c0-.472-.2-.661-.682-.662q-1.485,0-2.969,0c-.613,0-.791.179-.791.8q0,5.269,0,10.536c0,.114.009.227.015.345Z" transform="translate(-56.741 -67.331)" fill="#333" stroke="#333" stroke-width="0.5"/>
    <path id="Path_252" data-name="Path 252" d="M57.405,96.346c0-1.14,0-2.282,0-3.423A1.669,1.669,0,0,1,59.2,91.134q1.532-.006,3.065,0A1.674,1.674,0,0,1,64.1,92.922c.016,2.327.008,4.652,0,6.979,0,.509-.211.7-.724.7q-2.625,0-5.25,0c-.531,0-.717-.191-.718-.731Q57.4,98.108,57.405,96.346Zm5.542,3.125c.005-.122.015-.229.015-.334q0-3.065,0-6.131c0-.574-.185-.759-.758-.76q-1.435,0-2.87,0c-.629,0-.815.186-.815.816q0,3.033,0,6.067v.343Z" transform="translate(-57.404 -67.164)" fill="#333" stroke="#333" stroke-width="0.5"/>
  </g>
</svg>
