<svg xmlns="http://www.w3.org/2000/svg" width="27.151" height="27.5" viewBox="0 0 27.151 27.5">
  <g id="Group_95" data-name="Group 95" transform="translate(0.292 0.25)">
    <path id="Path_71" data-name="Path 71" d="M70.285,157.693a2,2,0,0,1,.272-.336q.99-.8,2-1.57a.3.3,0,0,0,.125-.364,11.128,11.128,0,0,1,0-5.771.3.3,0,0,0-.128-.363c-.665-.51-1.319-1.032-1.978-1.551-.285-.224-.319-.37-.144-.674q.925-1.608,1.855-3.213c.17-.293.316-.343.633-.217.794.315,1.587.63,2.377.955a.274.274,0,0,0,.352-.072,10.954,10.954,0,0,1,5.1-2.914c.219-.056.221-.206.245-.361.094-.6.186-1.2.271-1.806a.4.4,0,0,1,.456-.4c1.266,0,2.532,0,3.8,0,.291,0,.406.1.453.394.094.592.189,1.185.267,1.78a.416.416,0,0,0,.36.41A10.981,10.981,0,0,1,91.57,144.5a.309.309,0,0,0,.4.082c.763-.318,1.532-.621,2.3-.928.376-.151.509-.106.713.246q.908,1.571,1.812,3.144c.189.329.161.47-.131.7-.665.524-1.328,1.05-2,1.566a.262.262,0,0,0-.111.321,11.16,11.16,0,0,1,0,5.824.262.262,0,0,0,.113.32c.665.51,1.32,1.031,1.979,1.549.313.246.343.382.151.717q-.912,1.585-1.827,3.167c-.185.32-.329.369-.674.231-.776-.31-1.554-.616-2.325-.939a.306.306,0,0,0-.4.083,10.993,10.993,0,0,1-5,2.879.384.384,0,0,0-.331.377c-.079.6-.181,1.2-.266,1.807a.405.405,0,0,1-.456.4q-1.9-.006-3.8,0a.405.405,0,0,1-.456-.4c-.083-.585-.185-1.167-.262-1.753a.447.447,0,0,0-.387-.446,10.917,10.917,0,0,1-4.928-2.845.343.343,0,0,0-.444-.089c-.753.316-1.515.615-2.274.919-.375.15-.509.1-.712-.248q-.9-1.559-1.8-3.12C70.4,157.959,70.358,157.849,70.285,157.693ZM94.4,144.438c-.817.326-1.6.639-2.385.95-.453.18-.479.173-.807-.167a10.485,10.485,0,0,0-5.165-2.948c-.4-.1-.451-.162-.507-.559-.09-.635-.19-1.268-.286-1.9H81.987c-.1.647-.2,1.283-.284,1.922a.55.55,0,0,1-.475.537,10.281,10.281,0,0,0-5.246,3.008.556.556,0,0,1-.706.136c-.8-.333-1.613-.652-2.436-.983l-1.627,2.819c.705.555,1.379,1.1,2.068,1.62a.549.549,0,0,1,.228.678,10.376,10.376,0,0,0,0,5.971.551.551,0,0,1-.228.679c-.694.527-1.374,1.074-2.07,1.621l1.631,2.819c.842-.339,1.653-.66,2.458-.993a.541.541,0,0,1,.681.145A10.411,10.411,0,0,0,81.2,162.8c.4.1.448.166.5.564.089.634.191,1.268.286,1.9h3.26c.1-.648.2-1.285.284-1.923a.522.522,0,0,1,.422-.524,10.362,10.362,0,0,0,5.266-2.977c.3-.311.36-.323.764-.162l2.412.967,1.626-2.819c-.712-.56-1.393-1.107-2.088-1.636a.533.533,0,0,1-.209-.66,10.405,10.405,0,0,0,0-5.971.549.549,0,0,1,.227-.678c.695-.527,1.374-1.074,2.071-1.622Z" transform="translate(-70.285 -139.038)" fill="#333" stroke="#333" stroke-width="0.5"/>
    <path id="Path_72" data-name="Path 72" d="M78.916,157.019a9.031,9.031,0,1,1,8.983,9.05A9.026,9.026,0,0,1,78.916,157.019Zm9.059-8.246a8.251,8.251,0,1,0,8.21,8.249A8.266,8.266,0,0,0,87.975,148.773Z" transform="translate(-74.615 -143.524)" fill="#333" stroke="#333" stroke-width="0.5"/>
    <path id="Path_73" data-name="Path 73" d="M95.1,156.255c-.056.145-.082.224-.116.3q-1.607,3.62-3.215,7.238c-.072.164-.173.317-.365.292a.522.522,0,0,1-.316-.2.367.367,0,0,1,0-.306q1.632-3.691,3.277-7.375c.082-.185.227-.3.419-.224A1.232,1.232,0,0,1,95.1,156.255Z" transform="translate(-79.715 -145.528)" fill="#333" stroke="#333" stroke-width="0.5"/>
    <path id="Path_74" data-name="Path 74" d="M102.965,160.445l-1.909-1.471c-.194-.149-.391-.294-.58-.449a.364.364,0,0,1-.091-.53.348.348,0,0,1,.517-.039q1.427,1.088,2.845,2.188a.354.354,0,0,1-.006.616q-1.408,1.093-2.825,2.173a.353.353,0,0,1-.537-.027.363.363,0,0,1,.111-.546q1.149-.891,2.3-1.775C102.845,160.545,102.9,160.5,102.965,160.445Z" transform="translate(-83.94 -146.535)" fill="#333" stroke="#333" stroke-width="0.5"/>
    <path id="Path_75" data-name="Path 75" d="M83.513,160.455l2.129,1.64c.107.082.216.161.32.247.209.17.253.375.121.546a.373.373,0,0,1-.559.019q-1.084-.829-2.164-1.663c-.207-.159-.418-.314-.621-.478a.36.36,0,0,1,0-.632q1.4-1.083,2.806-2.157a.357.357,0,0,1,.553.038.365.365,0,0,1-.117.528c-.765.594-1.535,1.183-2.3,1.774C83.629,160.356,83.579,160.4,83.513,160.455Z" transform="translate(-75.867 -146.538)" fill="#333" stroke="#333" stroke-width="0.5"/>
  </g>
</svg>
