<svg xmlns="http://www.w3.org/2000/svg" width="23.269" height="25.095" viewBox="0 0 23.269 25.095">
  <g id="Group_187" data-name="Group 187" transform="translate(0.347 0.237)">
    <path id="Path_375" data-name="Path 375" d="M30.769,165.764c-.268-.074-.541-.134-.8-.226a3.874,3.874,0,0,1-2.379-4.83l-8.327-4.749a3.843,3.843,0,0,1-3.3,1.3,3.7,3.7,0,0,1-2.54-1.327,3.868,3.868,0,0,1,5.847-5.065l8.323-4.745a3.879,3.879,0,0,1,2.378-4.834,3.863,3.863,0,0,1,3.747,6.627,3.9,3.9,0,0,1-5.365-.44l-8.322,4.744a4.009,4.009,0,0,1-.007,2.39l8.329,4.747c.05-.046.1-.093.153-.141a3.868,3.868,0,0,1,6.59,2.162,3.859,3.859,0,0,1-3.2,4.341,1.091,1.091,0,0,0-.157.048ZM16.337,151.1a2.315,2.315,0,1,0,2.322,2.313A2.335,2.335,0,0,0,16.337,151.1ZM28.96,144.92a2.307,2.307,0,1,0,2.317-2.313A2.323,2.323,0,0,0,28.96,144.92Zm0,16.951a2.307,2.307,0,1,0,2.345-2.281A2.318,2.318,0,0,0,28.961,161.871Z" transform="translate(-12.483 -141.057)" fill="#333" stroke="#333" stroke-width="0.3"/>
  </g>
</svg>
