<svg xmlns="http://www.w3.org/2000/svg" width="33.029" height="33.934" viewBox="0 0 33.029 33.934">
  <g id="Group_126" data-name="Group 126" transform="translate(0.248 0.25)">
    <path id="Path_191" data-name="Path 191" d="M114.453,79.053c.159.13.331.247.476.391q4.552,4.545,9.1,9.093c.238.237.492.46.745.682a3.222,3.222,0,0,1,1.173,2.516q0,1.763,0,3.526v.381c.628,0,1.223,0,1.819,0,.561,0,.792.232.792.791q0,4.048,0,8.1c0,.547-.225.774-.768.777-.6,0-1.2,0-1.844,0v.359c0,1.175,0,2.35,0,3.526a3.244,3.244,0,0,1-3.283,3.294q-11.673,0-23.345,0a3.245,3.245,0,0,1-3.279-3.265c0-1.893,0-3.787,0-5.681,0-.484.239-.772.64-.779s.663.285.663.788q0,2.742,0,5.485a1.992,1.992,0,0,0,2.162,2.149q11.493,0,22.986,0a1.991,1.991,0,0,0,2.152-2.159q0-1.682,0-3.363v-.353h-.413c-3.124,0-6.248-.039-9.37.013a4.839,4.839,0,0,1-.942-9.61,7.332,7.332,0,0,1,.974-.066q4.653-.007,9.306,0h.445v-.319q0-1.714,0-3.428a1.979,1.979,0,0,0-2.122-2.12q-11.526,0-23.051,0a1.979,1.979,0,0,0-2.127,2.116c0,1.861,0,3.723,0,5.583a.636.636,0,0,1-.635.712.618.618,0,0,1-.664-.614c-.005-2.046-.041-4.093.014-6.138a3.207,3.207,0,0,1,3.135-2.963,1.1,1.1,0,0,0,.843-.366q4.316-4.341,8.654-8.661c.145-.145.316-.263.475-.393h.392c.158.13.327.248.472.391.593.586,1.18,1.178,1.789,1.788.355-.36.69-.713,1.04-1.051.4-.383.8-.752,1.206-1.128Zm12.785,17.9h-12.31c-.109,0-.218,0-.326.007a3.524,3.524,0,0,0,.217,7.045q6.038,0,12.076,0h.344ZM114.288,80.736l-7.7,7.7h15.4ZM101.6,88.462c.907,0,1.788-.006,2.666,0a.65.65,0,0,0,.513-.21q2.946-2.962,5.9-5.913c.06-.06.114-.124.114-.124l-1.471-1.484Z" transform="translate(-96.026 -79.053)" fill="#333" stroke="#333" stroke-width="0.5"/>
    <path id="Path_192" data-name="Path 192" d="M96.707,111.055a.635.635,0,0,1-.662-.644.651.651,0,0,1,1.3-.024A.635.635,0,0,1,96.707,111.055Z" transform="translate(-96.032 -88.982)" fill="#333" stroke="#333" stroke-width="0.5"/>
    <path id="Path_193" data-name="Path 193" d="M122.724,111.738a1.959,1.959,0,1,1,1.946-1.978A1.942,1.942,0,0,1,122.724,111.738Zm.638-1.956a.65.65,0,1,0-.641.648A.673.673,0,0,0,123.362,109.782Z" transform="translate(-104.023 -88.357)" fill="#333" stroke="#333" stroke-width="0.5"/>
  </g>
</svg>
