<svg xmlns="http://www.w3.org/2000/svg" width="35.43" height="35.072" viewBox="0 0 35.43 35.072">
  <g id="Group_208" data-name="Group 208" transform="translate(0.15 0.15)">
    <path id="Path_407" data-name="Path 407" d="M48.62,235.6v1.441a2.021,2.021,0,0,0-.067.227,6.259,6.259,0,0,1-4.542,5.184,14.525,14.525,0,0,1-1.775.339v1c.149.013.282.027.416.037a6.357,6.357,0,0,1,5.653,4.382c.133.407.212.834.315,1.251V250.9a1.228,1.228,0,0,0-.064.192,6.221,6.221,0,0,1-4.035,5.041,16.5,16.5,0,0,1-2.3.558c0,.065.007.211,0,.355a8.9,8.9,0,0,1-.1,1.431,3.206,3.206,0,0,1-3.362,2.535q-7.51,0-15.021,0a4.208,4.208,0,0,1-.885-.071,3.192,3.192,0,0,1-2.569-3.127c-.01-.405,0-.811,0-1.217a6.456,6.456,0,0,1-6.776-5.959A6.163,6.163,0,0,1,14.9,246.2a6.327,6.327,0,0,1,5.362-2.394v-1.01a18.413,18.413,0,0,1-1.9-.364,6.385,6.385,0,0,1-4.441-7.047,6.265,6.265,0,0,1,.989-2.565c.14-.212.346-.354.575-.237a.839.839,0,0,1,.378.46c.037.125-.088.318-.174.461a5.36,5.36,0,1,0,7.452-1.656,5.243,5.243,0,0,0-5.707-.076c-.357.2-.645.173-.815-.091-.181-.283-.093-.594.29-.782a11.693,11.693,0,0,1,1.694-.714,13.612,13.612,0,0,1,1.679-.294c0-.175,0-.367,0-.559A3,3,0,0,1,21,227.443a3.3,3.3,0,0,1,2.716-1.206q7.528.012,15.055.005c.149,0,.3.008.445.018a3.165,3.165,0,0,1,2.888,2.426,12.391,12.391,0,0,1,.168,1.254c.107.009.208.019.309.025a6.371,6.371,0,0,1,5.8,4.611C48.474,234.912,48.539,235.258,48.62,235.6Zm-22.912-6.293c-.632,0-1.247-.014-1.862.005a.486.486,0,0,0-.5.537c0,.206.011.412-.006.617a.425.425,0,0,0,.242.438,6.367,6.367,0,0,1,0,10.863.445.445,0,0,0-.239.44c.01.766.011,1.531,0,2.3a.548.548,0,0,0,.257.507,6.159,6.159,0,0,1,2.642,4.746,6.269,6.269,0,0,1-2.685,5.655.532.532,0,0,0-.2.35c-.021.536-.016,1.074-.006,1.611.008.388.183.575.571.576q7.32.006,14.641,0c.4,0,.583-.2.591-.6s-.014-.8.007-1.2a.555.555,0,0,0-.311-.57,6.366,6.366,0,0,1-2.832-6.819c.1-.426.316-.614.64-.552.339.064.468.324.367.778a5.235,5.235,0,0,0-.031,2.243,5.351,5.351,0,0,0,10.5-2.075,5.362,5.362,0,0,0-9.422-2.317c-.264.311-.544.371-.8.168a.513.513,0,0,1,0-.81c.532-.512,1.109-.976,1.656-1.473a.62.62,0,0,0,.214-.369q.03-1.1,0-2.195a.528.528,0,0,0-.217-.363,6.378,6.378,0,0,1,0-10.912c.082-.051.2-.131.207-.2a4.2,4.2,0,0,0-.044-1.019.563.563,0,0,0-.411-.332c-.634-.037-1.272-.016-1.9-.016-.2.989-.676,1.457-1.517,1.46q-4.03.015-8.058,0a1.437,1.437,0,0,1-1.4-1.014C25.762,229.618,25.742,229.471,25.708,229.306Zm16.531,1.682a5.352,5.352,0,1,0,5.356,5.352A5.345,5.345,0,0,0,42.239,230.988ZM19.885,244.84a5.351,5.351,0,1,0,5.345,5.4A5.345,5.345,0,0,0,19.885,244.84ZM41.15,230.026a2.3,2.3,0,0,0-2.386-2.762c-5.018.043-10.035.016-15.053.019a3.069,3.069,0,0,0-.714.056,2.241,2.241,0,0,0-1.659,2.688l.941.235c.008-.126.018-.227.02-.326a1.572,1.572,0,0,1,1.715-1.668c.526,0,1.052-.005,1.578,0a1.064,1.064,0,0,1,1.169,1c.047.32.195.467.513.467H35.2a.471.471,0,0,0,.533-.488,1.03,1.03,0,0,1,1.012-.974c.661-.023,1.327-.034,1.988,0a1.528,1.528,0,0,1,1.449,1.573c0,.13,0,.26,0,.417Zm-19.842,26.4c0,.424,0,.845,0,1.266a2.172,2.172,0,0,0,2.281,2.279c1.052.005,2.1,0,3.155,0q6.069,0,12.139,0a2.147,2.147,0,0,0,2.074-1.247,5.39,5.39,0,0,0,.225-2.228l-1.006-.248c0,.373,0,.715,0,1.057a1.56,1.56,0,0,1-1.666,1.676q-7.269,0-14.539,0A1.566,1.566,0,0,1,22.3,257.3c0-.387,0-.774,0-1.192Zm.971-12.17V242.4l-.961.245v1.3Zm18.9-.381c0-.358.009-.709-.007-1.061a.283.283,0,0,0-.156-.208c-.266-.082-.541-.135-.824-.2v1.715Z" transform="translate(-13.491 -226.237)" fill="#333" stroke="#333" stroke-width="0.3"/>
    <path id="Path_408" data-name="Path 408" d="M23.8,236.314c0,.629,0,1.257,0,1.887a1.551,1.551,0,0,1-1.684,1.687q-1.886.006-3.772,0a1.57,1.57,0,0,1-1.687-1.694q0-1.886,0-3.772a1.543,1.543,0,0,1,1.66-1.675q1.921-.011,3.84,0a1.519,1.519,0,0,1,1.642,1.648C23.8,235.033,23.8,235.673,23.8,236.314Zm-3.54-2.533c-.662,0-1.325,0-1.987,0-.39,0-.576.169-.579.559q-.014,1.97,0,3.94a.515.515,0,0,0,.58.572q1.952.012,3.9,0c.411,0,.584-.185.585-.59q.006-1.952,0-3.9c0-.412-.17-.574-.586-.576C21.534,233.777,20.895,233.78,20.256,233.781Z" transform="translate(-13.479 -226.214)" fill="#333" stroke="#333" stroke-width="0.3"/>
    <path id="Path_409" data-name="Path 409" d="M31.224,238.947a4.626,4.626,0,0,1,.569,9.213,4.483,4.483,0,0,1-3.189-.772.5.5,0,0,0-.558-.064,7.364,7.364,0,0,1-.742.26.789.789,0,0,1-1.018-1.018c.027-.075.045-.154.078-.226a3.814,3.814,0,0,0,.273-2.267,4.548,4.548,0,0,1,3.637-5.013C30.586,239,30.906,238.984,31.224,238.947Zm-3.78,7.466a.723.723,0,0,0,.174-.027,1.5,1.5,0,0,1,1.649.193,3.332,3.332,0,0,0,3.863,0,3.393,3.393,0,0,0,1.6-3.524,3.563,3.563,0,0,0-3.972-3.037,3.523,3.523,0,0,0-3.1,3.879A4.233,4.233,0,0,1,27.443,246.413Z" transform="translate(-13.446 -226.192)" fill="#333" stroke="#333" stroke-width="0.3"/>
    <path id="Path_410" data-name="Path 410" d="M40.184,250.137c0-.629-.006-1.257,0-1.886.01-.738.549-1.053,1.18-.69q1.678.962,3.349,1.936a.729.729,0,0,1-.006,1.368q-1.657.963-3.32,1.916c-.655.376-1.191.067-1.205-.689v-1.954Zm1.057,1.539,2.6-1.5-2.6-1.5Z" transform="translate(-13.397 -226.163)" fill="#333" stroke="#333" stroke-width="0.3"/>
    <path id="Path_411" data-name="Path 411" d="M41.188,236.669c-.272,0-.5,0-.725,0-.37-.008-.6-.206-.6-.512s.215-.506.591-.513c.217-.005.434-.006.65-.009a.7.7,0,0,0,.086-.022v-1.3a1.533,1.533,0,0,1,1.674-1.681c.342,0,.684-.005,1.028,0a.5.5,0,0,1,.546.489.51.51,0,0,1-.543.531c-.354.01-.708,0-1.062,0-.426,0-.612.182-.617.6-.005.454,0,.906,0,1.394.285,0,.533-.006.782,0a.488.488,0,0,1,.535.494.5.5,0,0,1-.512.526c-.25.013-.5,0-.8,0v.376q0,1.353,0,2.707c0,.423-.194.659-.526.652s-.5-.23-.5-.642C41.187,238.745,41.188,237.731,41.188,236.669Z" transform="translate(-13.398 -226.215)" fill="#333" stroke="#333" stroke-width="0.3"/>
    <path id="Path_412" data-name="Path 412" d="M17.181,251.415c-.141-.149-.284-.279-.4-.428a3.223,3.223,0,0,1-.494-3.168.671.671,0,0,1,1.168-.183,2.57,2.57,0,0,0,1.485.819c.037-.109.071-.214.106-.317a1.792,1.792,0,0,1,2.712-.926.638.638,0,0,0,.694.071.832.832,0,0,1,1.149,1.034,3.63,3.63,0,0,1-.351.883,5.075,5.075,0,0,0-.543,1.2,4.271,4.271,0,0,1-4.468,2.906,4.109,4.109,0,0,1-1.2-.239,1.207,1.207,0,0,1-.583-.531c-.265-.5-.061-.884.48-1.043C17.011,251.473,17.086,251.446,17.181,251.415Zm5.349-3.063a1.521,1.521,0,0,1-1.372-.287.744.744,0,0,0-1.168.6c-.065.825-.156.9-.985.847a.923.923,0,0,1-.237-.034c-.548-.2-1.094-.405-1.643-.609a1.889,1.889,0,0,0,.7,1.7,4.22,4.22,0,0,0,.635.4.526.526,0,0,1,.026.987c-.139.089-.284.17-.446.266a3.257,3.257,0,0,0,3.687-2.163,3.157,3.157,0,0,1,.615-1.346A1.649,1.649,0,0,0,22.53,248.352Z" transform="translate(-13.482 -226.164)" fill="#333" stroke="#333" stroke-width="0.3"/>
    <path id="Path_413" data-name="Path 413" d="M31.171,227.985a.508.508,0,0,1,.513.488.5.5,0,0,1-.5.533.516.516,0,0,1-.523-.483A.524.524,0,0,1,31.171,227.985Z" transform="translate(-13.43 -226.231)" fill="#333" stroke="#333" stroke-width="0.3"/>
    <path id="Path_414" data-name="Path 414" d="M20.227,237.831a1.524,1.524,0,0,1-1.532-1.516,1.542,1.542,0,0,1,1.541-1.55,1.568,1.568,0,0,1,1.526,1.542A1.546,1.546,0,0,1,20.227,237.831Zm-.01-2.025a.5.5,0,0,0-.5.5.515.515,0,0,0,.5.5.5.5,0,1,0-.008-1Z" transform="translate(-13.472 -226.207)" fill="#333" stroke="#333" stroke-width="0.3"/>
    <path id="Path_415" data-name="Path 415" d="M31.641,245.069a2.792,2.792,0,0,1-.564-.17,7.8,7.8,0,0,1-.994-.6,1.685,1.685,0,0,1-.223-2.355.51.51,0,0,1,.853.52c-.252.875-.256.874.525,1.347.523.316.689.284,1.089-.213.24-.3.513-.358.766-.168a.529.529,0,0,1,.054.787A1.858,1.858,0,0,1,31.641,245.069Z" transform="translate(-13.434 -226.182)" fill="#333" stroke="#333" stroke-width="0.3"/>
  </g>
</svg>
