<svg xmlns="http://www.w3.org/2000/svg" width="33.586" height="33.586" viewBox="0 0 33.586 33.586">
  <g id="Group_150" data-name="Group 150" transform="translate(0.075 0.075)">
    <path id="Path_255" data-name="Path 255" d="M27.126,124.024H42a1.67,1.67,0,0,1,1.832,1.834v29.777a1.67,1.67,0,0,1-1.81,1.824H12.208a1.671,1.671,0,0,1-1.815-1.819V125.865a1.669,1.669,0,0,1,1.827-1.841ZM11.505,129.6v25.972c0,.594.188.774.8.774q14.8,0,29.606,0c.625,0,.8-.178.8-.811q0-12.783,0-25.566v-.37Zm31.211-1.125c0-.84,0-1.651,0-2.46,0-.728-.151-.88-.872-.88H12.378c-.07,0-.14,0-.21,0a.593.593,0,0,0-.662.67c-.006.824,0,1.649,0,2.474a1.137,1.137,0,0,0,.035.2Z" transform="translate(-10.393 -124.024)" fill="#333" stroke="#333" stroke-width="0.15"/>
    <path id="Path_256" data-name="Path 256" d="M32.79,140.716c1.288,0,2.577,0,3.865,0a2.763,2.763,0,0,1,2.82,2.819q.007,3.309,0,6.617a2.764,2.764,0,0,1-2.819,2.821q-3.865.005-7.732,0a2.764,2.764,0,0,1-2.82-2.82q-.005-3.309,0-6.617a2.764,2.764,0,0,1,2.819-2.82C30.211,140.714,31.5,140.716,32.79,140.716Zm.026,1.113c-1.266,0-2.531,0-3.8,0a1.692,1.692,0,0,0-1.8,1.813q-.005,3.2,0,6.408a1.692,1.692,0,0,0,1.8,1.812q3.761.005,7.522,0a1.7,1.7,0,0,0,1.821-1.83q0-3.188,0-6.374a1.7,1.7,0,0,0-1.822-1.829C35.3,141.826,34.058,141.829,32.816,141.829Z" transform="translate(-8.269 -121.767)" fill="#333" stroke="#333" stroke-width="0.15"/>
    <path id="Path_257" data-name="Path 257" d="M32.79,129.916c1.288,0,2.577,0,3.865,0a2.765,2.765,0,0,1,2.82,2.819q.007,2.752,0,5.5a2.764,2.764,0,0,1-2.819,2.82q-3.867.005-7.732,0a2.764,2.764,0,0,1-2.82-2.82q-.005-2.752,0-5.5a2.765,2.765,0,0,1,2.819-2.82C30.213,129.913,31.5,129.916,32.79,129.916Zm0,10.031c1.253,0,2.508,0,3.761,0a1.693,1.693,0,0,0,1.814-1.8q.005-2.646,0-5.293a1.7,1.7,0,0,0-1.829-1.822q-3.743,0-7.488,0a1.7,1.7,0,0,0-1.831,1.819q0,2.629,0,5.259a1.7,1.7,0,0,0,1.846,1.84C30.3,139.949,31.546,139.947,32.788,139.947Z" transform="translate(-8.269 -123.228)" fill="#333" stroke="#333" stroke-width="0.15"/>
    <path id="Path_258" data-name="Path 258" d="M11.866,132.1a2.228,2.228,0,1,1,2.183,2.272A2.211,2.211,0,0,1,11.866,132.1Zm2.236,1.158a1.114,1.114,0,1,0-1.122-1.106A1.142,1.142,0,0,0,14.1,133.257Z" transform="translate(-10.194 -123.227)" fill="#333" stroke="#333" stroke-width="0.15"/>
    <path id="Path_259" data-name="Path 259" d="M16.322,138.051a2.228,2.228,0,1,1-2.211-2.244A2.212,2.212,0,0,1,16.322,138.051Zm-2.219-1.13a1.113,1.113,0,1,0,1.1,1.122A1.141,1.141,0,0,0,14.1,136.922Z" transform="translate(-10.194 -122.431)" fill="#333" stroke="#333" stroke-width="0.15"/>
    <path id="Path_260" data-name="Path 260" d="M14.069,146.154a2.228,2.228,0,1,1,2.252-2.2A2.212,2.212,0,0,1,14.069,146.154Zm.042-1.115a1.113,1.113,0,1,0-1.131-1.1A1.141,1.141,0,0,0,14.111,145.039Z" transform="translate(-10.194 -121.634)" fill="#333" stroke="#333" stroke-width="0.15"/>
    <path id="Path_261" data-name="Path 261" d="M16.322,149.834a2.228,2.228,0,1,1-2.211-2.245A2.211,2.211,0,0,1,16.322,149.834Zm-2.225,1.1a1.114,1.114,0,1,0-1.116-1.111A1.142,1.142,0,0,0,14.1,150.931Z" transform="translate(-10.194 -120.838)" fill="#333" stroke="#333" stroke-width="0.15"/>
    <path id="Path_262" data-name="Path 262" d="M25.677,130.426v1.061H16.8v-1.061Z" transform="translate(-9.527 -123.158)" fill="#333" stroke="#333" stroke-width="0.15"/>
    <path id="Path_263" data-name="Path 263" d="M25.669,133.466H16.8v-1.078h8.872Z" transform="translate(-9.527 -122.893)" fill="#333" stroke="#333" stroke-width="0.15"/>
    <path id="Path_264" data-name="Path 264" d="M16.788,135.418v-1.067H25.67v1.067Z" transform="translate(-9.528 -122.628)" fill="#333" stroke="#333" stroke-width="0.15"/>
    <path id="Path_265" data-name="Path 265" d="M16.783,137.383v-1.06h8.878v1.06Z" transform="translate(-9.529 -122.361)" fill="#333" stroke="#333" stroke-width="0.15"/>
    <path id="Path_266" data-name="Path 266" d="M25.673,138.283v1.068H16.791v-1.068Z" transform="translate(-9.528 -122.096)" fill="#333" stroke="#333" stroke-width="0.15"/>
    <path id="Path_267" data-name="Path 267" d="M25.66,141.32H16.794v-1.07H25.66Z" transform="translate(-9.528 -121.83)" fill="#333" stroke="#333" stroke-width="0.15"/>
    <path id="Path_268" data-name="Path 268" d="M16.783,143.275v-1.061h8.878v1.061Z" transform="translate(-9.529 -121.565)" fill="#333" stroke="#333" stroke-width="0.15"/>
    <path id="Path_269" data-name="Path 269" d="M16.783,145.238v-1.06h8.878v1.06Z" transform="translate(-9.529 -121.299)" fill="#333" stroke="#333" stroke-width="0.15"/>
    <path id="Path_270" data-name="Path 270" d="M16.8,146.13h8.87v1.07H16.8Z" transform="translate(-9.527 -121.035)" fill="#333" stroke="#333" stroke-width="0.15"/>
    <path id="Path_271" data-name="Path 271" d="M25.665,149.173H16.8V148.1h8.865Z" transform="translate(-9.527 -120.769)" fill="#333" stroke="#333" stroke-width="0.15"/>
    <path id="Path_272" data-name="Path 272" d="M25.673,150.066v1.068H16.791v-1.068Z" transform="translate(-9.528 -120.503)" fill="#333" stroke="#333" stroke-width="0.15"/>
    <path id="Path_273" data-name="Path 273" d="M34.955,126h1.072v1.076H34.955Z" transform="translate(-7.072 -123.757)" fill="#333" stroke="#333" stroke-width="0.15"/>
    <path id="Path_274" data-name="Path 274" d="M36.91,127.068v-1.057h1.082v1.057Z" transform="translate(-6.808 -123.755)" fill="#333" stroke="#333" stroke-width="0.15"/>
  </g>
</svg>
