<svg xmlns="http://www.w3.org/2000/svg" width="29.631" height="27.5" viewBox="0 0 29.631 27.5">
  <g id="Group_93" data-name="Group 93" transform="translate(0.25 0.25)">
    <path id="Path_76" data-name="Path 76" d="M14.068,208.494c.034-.086.073-.171.1-.257a1.961,1.961,0,0,1,1.794-1.341c.095,0,.19-.005.284-.005q12.387,0,24.773,0a2.114,2.114,0,0,1,1.52.509,1.908,1.908,0,0,1,.657,1.457q0,11.534,0,23.067a1.955,1.955,0,0,1-1.891,1.957c-.095,0-.19.005-.284.005q-12.387,0-24.773.005a2.033,2.033,0,0,1-1.784-.806,5.2,5.2,0,0,1-.4-.8Zm28.678,3.367H14.522v.215q0,9.87,0,19.74a1.524,1.524,0,0,0,1.609,1.6h25a1.8,1.8,0,0,0,.367-.026,1.537,1.537,0,0,0,1.245-1.631q0-9.812,0-19.626Zm-28.218-.517H42.746c0-.113,0-.206,0-.3,0-.768.032-1.537-.017-2.3a1.474,1.474,0,0,0-1.521-1.389q-12.57,0-25.139,0a1.481,1.481,0,0,0-1.532,1.41C14.5,209.613,14.528,210.466,14.528,211.343Z" transform="translate(-14.068 -206.886)" fill="#333" stroke="#333" stroke-width="0.5"/>
    <path id="Path_77" data-name="Path 77" d="M30.194,218.376H41.681c.825,0,1.168.315,1.169,1.071,0,.773,0,1.545,0,2.318a.945.945,0,0,1-1.075.983q-11.588,0-23.177,0a.94.94,0,0,1-1.066-.989q0-1.2,0-2.4c0-.645.377-.986,1.087-.986Q24.407,218.375,30.194,218.376Zm-7.559,3.962H41.721c.481,0,.644-.144.646-.577q0-1.184,0-2.369c0-.455-.151-.587-.658-.587H22.635Zm-.513-3.535h-3.5c-.451,0-.61.138-.612.547q-.005,1.2,0,2.393c0,.427.151.561.623.563q1.609,0,3.219,0c.084,0,.167-.01.265-.016Z" transform="translate(-15.624 -211.438)" fill="#333" stroke="#333" stroke-width="0.5"/>
    <path id="Path_78" data-name="Path 78" d="M24.713,229.019h6.77c.37,0,.4.028.4.408q0,5.057,0,10.115c0,.384-.04.425-.418.425H17.976c-.386,0-.444-.057-.444-.438q0-5.058,0-10.115c0-.365.03-.395.385-.395Zm-6.719.433v10.033H31.426V229.452Z" transform="translate(-15.625 -214.835)" fill="#333" stroke="#333" stroke-width="0.5"/>
    <path id="Path_79" data-name="Path 79" d="M49.974,229.019h3.239c.364,0,.379.014.379.363q0,2,0,4c0,.326-.038.364-.366.364q-3.278,0-6.556,0c-.328,0-.367-.039-.367-.362q0-2.014,0-4.028c0-.313.03-.339.353-.339Zm3.172,4.274v-3.836h-6.4v3.836Z" transform="translate(-26.399 -215.633)" fill="#333" stroke="#333" stroke-width="0.5"/>
    <path id="Path_80" data-name="Path 80" d="M49.952,240.312h3.291c.326,0,.349.022.349.341q0,2.015,0,4.029c0,.32-.041.359-.369.359q-3.279,0-6.557,0c-.324,0-.362-.04-.363-.366q0-2,0-4c0-.336.026-.361.358-.361Zm3.194,4.274V240.75h-6.4v3.836Z" transform="translate(-26.399 -219.911)" fill="#333" stroke="#333" stroke-width="0.5"/>
    <path id="Path_81" data-name="Path 81" d="M41.374,211.237q-2.95,0-5.9,0a1.758,1.758,0,0,1-.543-.071.912.912,0,0,1-.606-1,.947.947,0,0,1,.873-.842,2.119,2.119,0,0,1,.237-.006q5.939,0,11.878,0a1.672,1.672,0,0,1,.416.046.921.921,0,0,1,.682.971.912.912,0,0,1-.772.87,2.463,2.463,0,0,1-.393.026Q44.31,211.238,41.374,211.237Zm-.014-.441h5.766c.132,0,.264.006.395-.006a.511.511,0,0,0,.029-1.015,2.2,2.2,0,0,0-.289-.013H35.466a2.314,2.314,0,0,0-.263.01.485.485,0,0,0-.449.493c-.007.336.208.529.6.53Q38.358,210.8,41.36,210.8Z" transform="translate(-21.013 -207.98)" fill="#333" stroke="#333" stroke-width="0.5"/>
    <path id="Path_82" data-name="Path 82" d="M17.213,210.27a.947.947,0,0,1,.955-.946.981.981,0,0,1,.944.97.96.96,0,0,1-.966.941A.939.939,0,0,1,17.213,210.27Zm.942.525a.525.525,0,0,0,.525-.514.521.521,0,1,0-.525.514Z" transform="translate(-15.482 -207.982)" fill="#333" stroke="#333" stroke-width="0.5"/>
    <path id="Path_83" data-name="Path 83" d="M22.893,211.234a.965.965,0,0,1-.956-.955.976.976,0,0,1,.959-.956.964.964,0,0,1,.951.959A.954.954,0,0,1,22.893,211.234Zm0-1.466a.513.513,0,1,0,.52.506A.493.493,0,0,0,22.888,209.768Z" transform="translate(-17.232 -207.981)" fill="#333" stroke="#333" stroke-width="0.5"/>
    <path id="Path_84" data-name="Path 84" d="M28.632,210.273a.953.953,0,0,1-.944.962.967.967,0,0,1-.966-.946.977.977,0,0,1,.949-.966A.963.963,0,0,1,28.632,210.273Zm-.942-.5a.513.513,0,1,0,.5.523A.493.493,0,0,0,27.689,209.768Z" transform="translate(-19.156 -207.981)" fill="#333" stroke="#333" stroke-width="0.5"/>
    <path id="Path_85" data-name="Path 85" d="M21.228,222.077a1.017,1.017,0,0,1-.972.053.982.982,0,0,1,.783-1.8.956.956,0,0,1,.571,1.223.319.319,0,0,0,.111.424.741.741,0,0,1,.216.227.885.885,0,0,1,.023.3c-.109,0-.246.032-.321-.02A3.192,3.192,0,0,1,21.228,222.077Zm-.538-.3a.534.534,0,1,0-.557-.536A.532.532,0,0,0,20.69,221.772Z" transform="translate(-16.602 -212.253)" fill="#333" stroke="#333" stroke-width="0.5"/>
    <path id="Path_86" data-name="Path 86" d="M34.526,238.854c.532.505,1.033.982,1.535,1.458.386.366.386.365.026.74-.165.171-.328.342-.491.513-.253.265-.29.268-.549.02L33.4,240.02c-.187.4-.356.782-.547,1.153a1.3,1.3,0,0,1-.274.277c-.081-.1-.2-.191-.236-.307q-.644-2.052-1.262-4.113c-.032-.106-.048-.285.009-.332a.465.465,0,0,1,.355-.037q2.086.525,4.165,1.074c.116.031.205.156.307.238a1.212,1.212,0,0,1-.247.271C35.308,238.454,34.932,238.641,34.526,238.854Zm-2.952-1.725,1.067,3.518c.168-.362.308-.67.454-.976.13-.274.255-.3.477-.084.508.486,1.011.975,1.517,1.462.067.064.138.124.165.149l.585-.509c-.6-.57-1.173-1.12-1.748-1.675-.226-.218-.209-.326.068-.47.3-.157.6-.313.95-.492Z" transform="translate(-20.773 -218.263)" fill="#333" stroke="#333" stroke-width="0.5"/>
  </g>
</svg>
