<svg xmlns="http://www.w3.org/2000/svg" width="25.313" height="25.3" viewBox="0 0 25.313 25.3">
  <g id="Group_96" data-name="Group 96" transform="translate(0.15 0.15)">
    <path id="Path_60" data-name="Path 60" d="M12.852,161.683H24.143v-.733q0-.995,0-1.99c0-.353.135-.489.483-.49q1.222,0,2.444,0h.3v-.291q0-2.6,0-5.19a1.265,1.265,0,0,1,0-.226.379.379,0,0,1,.377-.339.392.392,0,0,1,.416.324,1.179,1.179,0,0,1,.006.2c0,1.923,0,3.847,0,5.77a.721.721,0,0,1-.228.557q-1.512,1.5-3.011,3.011a.691.691,0,0,1-.535.217q-5.908-.007-11.817,0c-.419,0-.539-.119-.539-.536q0-6.425,0-12.85v-.323H10.193c-.455,0-.566-.11-.566-.56q0-4.51,0-9.02a1.6,1.6,0,0,1,1.7-1.707H26.491a1.6,1.6,0,0,1,1.681,1.671q0,2.356,0,4.712c0,.315-.184.5-.454.467-.223-.027-.349-.193-.349-.472q0-2.217,0-4.434c0-.076,0-.151,0-.227a.831.831,0,0,0-.9-.912c-.588,0-1.176,0-1.764,0H12.646a3.023,3.023,0,0,1,.2,1.566q0,10.733,0,21.467Zm-.8-13.707v-8.764a1.443,1.443,0,0,0,0-.151.8.8,0,0,0-1.167-.657.847.847,0,0,0-.445.837q0,4.243,0,8.486c0,.081.007.162.011.248Zm12.912,13.047,1.735-1.732H24.959Z" transform="translate(-9.628 -137.503)" fill="#333" stroke="#333" stroke-width="0.3"/>
    <path id="Path_61" data-name="Path 61" d="M54.008,151.239a2.124,2.124,0,0,1,1.488,3.519c-.074.091-.161.171-.244.254q-5.639,5.64-11.283,11.273a1.337,1.337,0,0,1-.575.321c-.962.258-1.93.491-2.9.73-.428.106-.67-.136-.564-.564.245-.991.485-1.985.744-2.972a1.076,1.076,0,0,1,.271-.465q5.676-5.691,11.361-11.373A2.285,2.285,0,0,1,54.008,151.239Zm-.45,4.255-1.772-1.776L41.758,163.746l1.774,1.775Zm.679-.617c.219-.221.446-.433.653-.664a1.29,1.29,0,0,0,.067-1.646,1.238,1.238,0,0,0-1.594-.379,7.708,7.708,0,0,0-.993.826ZM40.865,166.4l1.773-.441L41.3,164.633Z" transform="translate(-31.028 -147.211)" fill="#333" stroke="#333" stroke-width="0.3"/>
    <path id="Path_62" data-name="Path 62" d="M31.748,146.553H26.683a1.385,1.385,0,0,1-.226-.006.391.391,0,0,1-.326-.415.38.38,0,0,1,.338-.378,1.069,1.069,0,0,1,.2,0H36.876a1.094,1.094,0,0,1,.2,0,.381.381,0,0,1,.338.378.392.392,0,0,1-.325.415,1.386,1.386,0,0,1-.226.006Z" transform="translate(-21.291 -143.329)" fill="#333" stroke="#333" stroke-width="0.3"/>
    <path id="Path_63" data-name="Path 63" d="M31.761,154.8h-5.04c-.059,0-.118,0-.177,0a.4.4,0,1,1-.012-.8c.042,0,.084,0,.126,0H36.889a1.412,1.412,0,0,1,.176,0,.4.4,0,0,1,.012.8,1.62,1.62,0,0,1-.227,0Z" transform="translate(-21.292 -149.162)" fill="#333" stroke="#333" stroke-width="0.3"/>
    <path id="Path_64" data-name="Path 64" d="M31.761,163.055h-5.04c-.059,0-.118,0-.177,0a.4.4,0,1,1-.012-.8c.042,0,.084,0,.126,0H36.889a1.41,1.41,0,0,1,.176,0,.4.4,0,0,1,.012.8,1.62,1.62,0,0,1-.227,0Z" transform="translate(-21.292 -154.993)" fill="#333" stroke="#333" stroke-width="0.3"/>
    <path id="Path_65" data-name="Path 65" d="M31.181,170.5c1.52,0,3.041-.006,4.561.009a.569.569,0,0,1,.405.216.43.43,0,0,1-.03.407.592.592,0,0,1-.413.166c-2.184.01-4.368.007-6.552.007H26.709c-.4,0-.574-.121-.578-.4s.174-.408.59-.408Z" transform="translate(-21.292 -160.824)" fill="#333" stroke="#333" stroke-width="0.3"/>
    <path id="Path_66" data-name="Path 66" d="M30.527,212.557q-1.978,0-3.956,0c-.362,0-.587-.3-.415-.571a.533.533,0,0,1,.378-.223c2.671-.013,5.342-.01,8.013-.008a.4.4,0,1,1-.013.8Q32.531,212.56,30.527,212.557Z" transform="translate(-21.268 -189.98)" fill="#333" stroke="#333" stroke-width="0.3"/>
    <path id="Path_67" data-name="Path 67" d="M29.934,179.537H26.658c-.352,0-.524-.13-.528-.4s.171-.408.514-.408c2.218,0,4.435.008,6.653-.009.361,0,.627.329.43.6a.592.592,0,0,1-.417.2C32.186,179.544,31.06,179.537,29.934,179.537Z" transform="translate(-21.292 -166.636)" fill="#333" stroke="#333" stroke-width="0.3"/>
    <path id="Path_68" data-name="Path 68" d="M28.747,187.807c-.714,0-1.428,0-2.142,0-.3,0-.473-.146-.475-.4S26.3,187,26.6,187q2.154,0,4.309,0c.3,0,.467.156.462.41s-.172.392-.454.393C30.192,187.808,29.47,187.807,28.747,187.807Z" transform="translate(-21.292 -172.487)" fill="#333" stroke="#333" stroke-width="0.3"/>
    <path id="Path_69" data-name="Path 69" d="M27.93,196.056c-.445,0-.89,0-1.335,0-.3,0-.468-.154-.464-.408s.171-.394.452-.394q1.36,0,2.721,0a.4.4,0,0,1,.452.4c0,.253-.168.406-.465.408C28.837,196.058,28.384,196.056,27.93,196.056Z" transform="translate(-21.292 -178.317)" fill="#333" stroke="#333" stroke-width="0.3"/>
    <path id="Path_70" data-name="Path 70" d="M27.959,203.5c.445,0,.89,0,1.336,0,.3,0,.467.157.462.411s-.173.392-.455.392q-1.361,0-2.721,0a.4.4,0,1,1-.006-.8C27.035,203.5,27.5,203.5,27.959,203.5Z" transform="translate(-21.292 -184.148)" fill="#333" stroke="#333" stroke-width="0.3"/>
  </g>
</svg>
