<svg xmlns="http://www.w3.org/2000/svg" width="33.836" height="33.836" viewBox="0 0 33.836 33.836">
  <g id="Group_124" data-name="Group 124" transform="translate(0.199 0.2)">
    <path id="Path_165" data-name="Path 165" d="M93.34,22.924c0,1.115,0,2.23,0,3.343,0,.586-.264.857-.84.857q-3.342.006-6.686,0a.746.746,0,0,1-.851-.852q-.007-3.342,0-6.685c0-.571.282-.84.865-.841q3.324-.006,6.646,0c.606,0,.865.266.866.875C93.343,20.723,93.34,21.823,93.34,22.924Zm-6.925-2.729v5.5a2.141,2.141,0,0,0,.224.026c1.656,0,3.312-.005,4.968.006.285,0,.334-.116.332-.364-.007-1.628,0-3.257,0-4.885a2.244,2.244,0,0,0-.037-.284Z" transform="translate(-80.788 -14.575)" fill="#333" stroke="#333" stroke-width="0.4"/>
    <path id="Path_166" data-name="Path 166" d="M102.516,27.127q-1.631,0-3.261,0c-.672,0-.921-.242-.922-.9q0-3.3,0-6.6c0-.609.26-.874.866-.875q3.324-.006,6.646,0c.6,0,.865.275.866.881q.006,3.3,0,6.6c0,.631-.264.891-.892.892Q104.168,27.13,102.516,27.127Zm2.746-1.4V20.206H99.784a.478.478,0,0,0-.038.11c0,1.71,0,3.419-.014,5.129,0,.3.177.279.374.279q1.893,0,3.787,0Z" transform="translate(-77.448 -14.575)" fill="#333" stroke="#333" stroke-width="0.4"/>
    <path id="Path_167" data-name="Path 167" d="M84.959,36.273q0-1.61,0-3.221c0-.69.246-.932.932-.932q3.262,0,6.524,0c.689,0,.924.237.925.934q0,3.262,0,6.524c0,.659-.254.921-.9.921q-3.282.006-6.564,0c-.649,0-.909-.267-.91-.924C84.957,38.475,84.959,37.374,84.959,36.273Zm6.959,2.779c.008-.126.016-.2.016-.285,0-1.628,0-3.257.007-4.885,0-.292-.1-.365-.376-.364-1.615.01-3.231.005-4.845.007a2.658,2.658,0,0,0-.309.036v5.49Z" transform="translate(-80.788 -11.235)" fill="#333" stroke="#333" stroke-width="0.4"/>
    <path id="Path_168" data-name="Path 168" d="M86.51,15.41c1.359,0,2.717,0,4.077,0,.612,0,.986.5.712.99a.9.9,0,0,1-.6.387,11.251,11.251,0,0,1-1.423.025c-1.943,0-3.887.009-5.829-.008-.344,0-.432.1-.43.436.012,2.27.006,4.538.006,6.807,0,.135,0,.271-.005.407a.678.678,0,0,1-.68.712.687.687,0,0,1-.715-.724q-.009-4.137,0-8.275a.711.711,0,0,1,.809-.76C83.793,15.407,85.151,15.41,86.51,15.41Z" transform="translate(-81.621 -15.408)" fill="#333" stroke="#333" stroke-width="0.4"/>
    <path id="Path_169" data-name="Path 169" d="M105.438,15.41q2,0,4,0c.64,0,.891.247.891.885q0,4.014,0,8.03a.725.725,0,0,1-.446.786.671.671,0,0,1-.947-.574,4.471,4.471,0,0,1-.011-.449c0-2.282-.007-4.564.006-6.847,0-.336-.09-.437-.431-.435-2.27.015-4.538.007-6.807.007-.122,0-.245,0-.366,0-.486-.025-.775-.3-.761-.717a.708.708,0,0,1,.8-.682C102.721,15.407,104.08,15.41,105.438,15.41Z" transform="translate(-76.891 -15.408)" fill="#333" stroke="#333" stroke-width="0.4"/>
    <path id="Path_170" data-name="Path 170" d="M81.623,39.181c0-1.345,0-2.689,0-4.035a.7.7,0,0,1,.965-.737.623.623,0,0,1,.43.626c.006.38.007.76.007,1.141,0,2.025.011,4.048-.009,6.073,0,.389.121.47.482.467,2.27-.015,4.539-.007,6.807-.006a4.1,4.1,0,0,1,.447.014.667.667,0,0,1,.63.674.7.7,0,0,1-.606.707,2.558,2.558,0,0,1-.325.009H82.587c-.742,0-.964-.225-.964-.977Q81.622,41.157,81.623,39.181Z" transform="translate(-81.621 -10.677)" fill="#333" stroke="#333" stroke-width="0.4"/>
    <path id="Path_171" data-name="Path 171" d="M110.326,39.233c0,1.345,0,2.689,0,4.035,0,.582-.265.842-.851.844q-4.036,0-8.071,0c-.635,0-.98-.432-.784-.962a.621.621,0,0,1,.624-.432c.489-.007.977-.007,1.467-.009,1.93,0,3.858-.007,5.788.007.342,0,.434-.1.431-.436-.014-2.337-.006-4.674-.007-7.01,0-.32,0-.634.334-.817a.705.705,0,0,1,1.067.664c.01,1.3,0,2.608,0,3.913Z" transform="translate(-76.89 -10.678)" fill="#333" stroke="#333" stroke-width="0.4"/>
    <path id="Path_172" data-name="Path 172" d="M102.809,27.951c0,1.071,0,2.088,0,3.1,0,.894-.176,1.07-1.072,1.07h-1.723c0,.381-.005.73,0,1.079.03,1.742.007,1.737-1.731,1.71-.081,0-.162,0-.245,0-.53-.016-.815-.262-.814-.7s.3-.695.816-.7c.174,0,.347,0,.569,0,0-.654,0-1.274,0-1.893,0-.642.244-.882.886-.884.61,0,1.22,0,1.892,0v-.447c0-.965,0-1.928,0-2.892,0-.567.26-.824.816-.831.435-.005.87-.009,1.3,0a.646.646,0,0,1,.674.662.665.665,0,0,1-.664.72C103.305,27.961,103.089,27.951,102.809,27.951Z" transform="translate(-77.724 -12.624)" fill="#333" stroke="#333" stroke-width="0.4"/>
    <path id="Path_173" data-name="Path 173" d="M98.054,38.517c0-.649,0-1.231,0-1.813,0-.745.221-.966.97-.971.121,0,.241,0,.419,0,0-.236-.008-.449,0-.66a.7.7,0,0,1,.716-.724.667.667,0,0,1,.677.711c.016.421.014.842,0,1.262-.01.566-.256.811-.822.835-.174.006-.347,0-.57,0,0,.637,0,1.232,0,1.826,0,.721-.232.959-.941.96q-1.893,0-3.787,0c-.479,0-.76-.2-.826-.565a.7.7,0,0,1,.774-.855c.965-.013,1.928-.005,2.892-.005Z" transform="translate(-78.559 -10.678)" fill="#333" stroke="#333" stroke-width="0.4"/>
    <path id="Path_174" data-name="Path 174" d="M95.569,25.732v2.779c.249,0,.489-.011.727,0a.69.69,0,0,1-.005,1.377q-1.425.019-2.851,0a.69.69,0,0,1,0-1.378c.227-.01.455,0,.722,0,0-.709,0-1.37,0-2.032,0-.489-.009-.977.005-1.466a.617.617,0,0,1,.622-.667q1.466-.03,2.932,0a.619.619,0,0,1,.6.719.657.657,0,0,1-.681.664c-.339.015-.679,0-1.017.005Z" transform="translate(-78.835 -13.18)" fill="#333" stroke="#333" stroke-width="0.4"/>
    <path id="Path_175" data-name="Path 175" d="M92.5,30.452c.691,0,1.327,0,1.962,0,.525,0,.812.252.812.7s-.28.691-.814.692q-2.668.008-5.334,0c-.529,0-.807-.251-.806-.7s.286-.69.814-.692c.636,0,1.272,0,1.965,0,0-.7-.009-1.378,0-2.053a.649.649,0,0,1,.616-.719.673.673,0,0,1,.78.726C92.508,29.068,92.5,29.732,92.5,30.452Z" transform="translate(-79.948 -12.345)" fill="#333" stroke="#333" stroke-width="0.4"/>
    <path id="Path_176" data-name="Path 176" d="M95.557,33.785c0-.69,0-1.327,0-1.963,0-.524.255-.815.7-.811s.686.286.687.821q0,1.978,0,3.955c0,.507-.242.777-.679.785-.454.007-.7-.271-.709-.795,0-.175,0-.351,0-.552H94.164c0,.246.011.474,0,.7a.651.651,0,0,1-.694.646.638.638,0,0,1-.686-.647c-.016-.461-.014-.925,0-1.386a.7.7,0,0,1,.77-.751C94.2,33.779,94.848,33.785,95.557,33.785Z" transform="translate(-78.837 -11.512)" fill="#333" stroke="#333" stroke-width="0.4"/>
    <path id="Path_177" data-name="Path 177" d="M103.371,38.242c.7,0,1.341,0,1.978,0a.712.712,0,1,1,.032,1.418c-.72.019-1.441.005-2.161.005-.611,0-1.224.007-1.835,0-.514-.007-.821-.281-.824-.709s.3-.7.817-.714c.174,0,.347,0,.565,0,0-.677-.032-1.315.016-1.946a1.07,1.07,0,0,1,.349-.715.679.679,0,0,1,1.052.614c.027.515.007,1.032.009,1.548Z" transform="translate(-76.891 -10.402)" fill="#333" stroke="#333" stroke-width="0.4"/>
    <path id="Path_178" data-name="Path 178" d="M104.736,33.524c-.494,0-.911,0-1.33,0-.72,0-1.44.007-2.158-.011a.664.664,0,0,1-.685-.7.675.675,0,0,1,.67-.684q2.116-.019,4.234,0a.681.681,0,0,1,.682.721c.016.922.018,1.846,0,2.768a.7.7,0,0,1-1.4,0C104.718,34.938,104.736,34.26,104.736,33.524Z" transform="translate(-76.891 -11.235)" fill="#333" stroke="#333" stroke-width="0.4"/>
    <path id="Path_179" data-name="Path 179" d="M86.384,29.338c0,.687,0,1.335,0,1.982a.707.707,0,0,1-.524.776.683.683,0,0,1-.892-.68c-.018-1.385-.015-2.769,0-4.154a.7.7,0,0,1,1.408-.03c.021.225,0,.452,0,.719.692,0,1.327,0,1.962,0,.52,0,.821.262.82.694s-.307.691-.824.694C87.7,29.34,87.067,29.338,86.384,29.338Z" transform="translate(-80.789 -12.622)" fill="#333" stroke="#333" stroke-width="0.4"/>
    <path id="Path_180" data-name="Path 180" d="M96.943,21.286c0,.706,0,1.342,0,1.978a.717.717,0,0,1-.8.8q-1.282.013-2.566,0c-.517-.005-.8-.27-.791-.721s.262-.684.774-.694c.65-.012,1.3,0,2,0,0-.666,0-1.3,0-1.933,0-.589.25-.845.836-.855.392-.007.787-.011,1.18,0a.711.711,0,1,1,.026,1.42C97.4,21.3,97.193,21.286,96.943,21.286Z" transform="translate(-78.835 -14.298)" fill="#333" stroke="#333" stroke-width="0.4"/>
    <path id="Path_181" data-name="Path 181" d="M104.174,30.452c0-.7-.009-1.34,0-1.977.01-.527.269-.8.719-.8a.659.659,0,0,1,.7.692c.018.924.019,1.847,0,2.771a.681.681,0,0,1-.741.7c-.461.011-.924.011-1.385,0a.66.66,0,0,1-.67-.675.68.68,0,0,1,.684-.707C103.693,30.445,103.906,30.452,104.174,30.452Z" transform="translate(-76.334 -12.344)" fill="#333" stroke="#333" stroke-width="0.4"/>
    <path id="Path_182" data-name="Path 182" d="M98.612,27.975c0,.244.015.489,0,.731a.641.641,0,0,1-.662.63.65.65,0,0,1-.71-.584,14.377,14.377,0,0,1,0-1.625.695.695,0,0,1,1.37.034.61.61,0,0,1,.006.081c0,.245,0,.489,0,.732Z" transform="translate(-77.727 -12.622)" fill="#333" stroke="#333" stroke-width="0.4"/>
    <path id="Path_183" data-name="Path 183" d="M94.162,20.183c0,.244.015.489,0,.731a.67.67,0,0,1-.714.63.642.642,0,0,1-.662-.631c-.016-.515-.018-1.031,0-1.545a.657.657,0,0,1,.682-.616.679.679,0,0,1,.689.617C94.178,19.639,94.162,19.912,94.162,20.183Z" transform="translate(-78.837 -14.573)" fill="#333" stroke="#333" stroke-width="0.4"/>
    <path id="Path_184" data-name="Path 184" d="M88.558,23.792c-1.275,0-1.371-.095-1.37-1.356,0-.231-.01-.462,0-.692a.727.727,0,0,1,.774-.764c.42-.016.841-.016,1.261,0a.728.728,0,0,1,.775.8c.01.38.006.76,0,1.14-.007.6-.274.861-.876.871C88.938,23.795,88.748,23.792,88.558,23.792Z" transform="translate(-80.232 -14.02)" fill="#333" stroke="#333" stroke-width="0.4"/>
    <path id="Path_185" data-name="Path 185" d="M100.556,22.354c0-1.3.082-1.38,1.385-1.38,1.368,0,1.432.064,1.432,1.416,0,1.32-.081,1.4-1.407,1.4S100.556,23.716,100.556,22.354Z" transform="translate(-76.892 -14.018)" fill="#333" stroke="#333" stroke-width="0.4"/>
    <path id="Path_186" data-name="Path 186" d="M88.595,34.343c1.335,0,1.41.075,1.41,1.393,0,1.352-.071,1.423-1.425,1.423-1.307,0-1.392-.084-1.392-1.378,0-.2,0-.407,0-.61a.749.749,0,0,1,.836-.827C88.215,34.341,88.4,34.343,88.595,34.343Z" transform="translate(-80.232 -10.68)" fill="#333" stroke="#333" stroke-width="0.4"/>
  </g>
</svg>
