<svg xmlns="http://www.w3.org/2000/svg" width="22.743" height="28.5" viewBox="0 0 22.743 28.5">
  <g id="Group_92" data-name="Group 92" transform="translate(0.25 0.25)">
    <path id="Path_91" data-name="Path 91" d="M24.524,32.169V19.506c0-.932.382-1.316,1.312-1.316q6.541,0,13.083-.006a1.026,1.026,0,0,1,.8.334q3.352,3.376,6.727,6.73a.991.991,0,0,1,.326.765q-.013,9.427-.007,18.855c0,.917-.4,1.316-1.323,1.316H25.847c-.923,0-1.323-.4-1.323-1.316Zm14.34-13.214H25.843c-.541,0-.576.035-.576.579q0,12.664,0,25.329c0,.541.036.578.577.578H45.437c.544,0,.58-.036.58-.575q0-9.183,0-18.367v-.391H39.394c-.449,0-.529-.08-.529-.528q0-2.957,0-5.913Zm.752,6.416h5.761L39.616,19.61Z" transform="translate(-24.524 -18.184)" fill="#333" stroke="#333" stroke-width="0.5"/>
    <path id="Path_92" data-name="Path 92" d="M34.074,48.1c0-.7,0-1.356,0-2.01,0-.468.094-.55.636-.551,1.027,0,2.055,0,3.143,0V45q0-.718,0-1.436c0-.524.061-.577.664-.577h3.1v-.351q0-1.343,0-2.686c0-.4.092-.481.55-.482q1.709,0,3.418,0c.45,0,.558.092.558.484q0,5.449,0,10.9c0,.385-.113.474-.571.474q-7.352,0-14.7,0c-.447,0-.563-.1-.564-.481q0-1.124,0-2.248c0-.4.112-.49.591-.491.907,0,1.813,0,2.72,0ZM42.4,40.143V50.637h2.952V40.143Zm-3.763,3.5v6.991h2.957V43.647Zm-3.754,2.565V50.63h2.946V46.212ZM31.11,50.638h2.932v-1.86H31.11Z" transform="translate(-27.432 -25.881)" fill="#333" stroke="#333" stroke-width="0.5"/>
    <path id="Path_93" data-name="Path 93" d="M33.336,31.764c-1.289,0-2.579,0-3.868-.007a.571.571,0,0,1-.392-.171.288.288,0,0,1,.2-.448,1.652,1.652,0,0,1,.31-.014h7.518c.052,0,.1,0,.156,0,.224-.005.4.059.4.321s-.169.323-.4.322c-1.019,0-2.038,0-3.057,0Z" transform="translate(-26.784 -23.896)" fill="#333" stroke="#333" stroke-width="0.5"/>
    <path id="Path_94" data-name="Path 94" d="M32.226,36.26c-.9,0-1.809,0-2.713,0-.239,0-.459-.032-.461-.329s.227-.334.46-.334c1.83,0,3.659,0,5.489.006a.584.584,0,0,1,.383.147.339.339,0,0,1,.014.335.534.534,0,0,1-.365.166C34.1,36.266,33.162,36.26,32.226,36.26Z" transform="translate(-26.8 -25.871)" fill="#333" stroke="#333" stroke-width="0.5"/>
    <path id="Path_95" data-name="Path 95" d="M30.945,40.769H29.48c-.232,0-.429-.062-.429-.335s.2-.333.431-.332c.988,0,1.975,0,2.962,0,.232,0,.438.054.445.32.008.285-.2.351-.447.349C31.943,40.766,31.444,40.769,30.945,40.769Z" transform="translate(-26.8 -27.858)" fill="#333" stroke="#333" stroke-width="0.5"/>
  </g>
</svg>
