<svg xmlns="http://www.w3.org/2000/svg" width="35.128" height="33.733" viewBox="0 0 35.128 33.733">
  <g id="Group_128" data-name="Group 128" transform="translate(0.149 0.15)">
    <path id="Path_197" data-name="Path 197" d="M92.283,185.175h-.524q-4.55,0-9.1,0a3.463,3.463,0,0,1-3.612-3.613q0-9.623,0-19.244a3.46,3.46,0,0,1,3.615-3.61q13.8,0,27.6,0a3.459,3.459,0,0,1,3.61,3.615q0,9.623,0,19.244a3.462,3.462,0,0,1-3.618,3.608q-4.55,0-9.1,0h-.507c0,.539-.04,1.046.009,1.544a1.383,1.383,0,0,0,1.438,1.243c.667.012,1.335,0,2,0a2.087,2.087,0,1,1,.021,4.174q-7.663.006-15.325,0a2.087,2.087,0,0,1-.012-4.174c.653-.006,1.307,0,1.959,0a1.429,1.429,0,0,0,1.539-1.554C92.286,186.019,92.283,185.629,92.283,185.175Zm-11.846-5.6h32.048V162.527a2.157,2.157,0,0,0-2.44-2.43H82.878a2.156,2.156,0,0,0-2.442,2.428v17.05Zm.026,1.437c-.137,1.754.7,2.772,2.243,2.772q13.757,0,27.513,0a2.173,2.173,0,0,0,2.207-2.772Zm16.049,8.343H89.118a2.1,2.1,0,0,0-.39.012.689.689,0,0,0-.014,1.368,1.881,1.881,0,0,0,.39.016h14.7a2.868,2.868,0,0,0,.348-.007.691.691,0,0,0,.014-1.381,3.027,3.027,0,0,0-.391-.008Zm-2.757-4.163-.279,2.749h6.141c-.538-.878-.3-1.829-.39-2.749Z" transform="translate(-79.046 -158.706)" fill="#333" stroke="#333" stroke-width="0.3"/>
    <path id="Path_198" data-name="Path 198" d="M106.312,166.307c-.992,0-1.9,0-2.818,0-.55,0-.85-.258-.842-.71.008-.433.3-.677.828-.679q1.611,0,3.221,0a.705.705,0,0,1,.832.64c.186.7.36,1.4.551,2.145h13.13c.859,0,1.134.415.789,1.195-.855,1.933-1.72,3.861-2.563,5.8a.983.983,0,0,1-1.029.674c-3.047-.019-6.094-.009-9.141-.008a3.135,3.135,0,0,0-.391.008.691.691,0,0,0,.015,1.381,3.365,3.365,0,0,0,.391.007q4.636,0,9.272,0c.544,0,.864.318.807.784-.047.385-.333.6-.815.6q-2.982,0-5.963,0c-1.2,0-2.408,0-3.613,0a2.085,2.085,0,0,1-2.047-1.453,2.118,2.118,0,0,1,.859-2.4.552.552,0,0,0,.228-.422C107.461,171.357,106.888,168.849,106.312,166.307Zm14.042,2.814H108.408l1.072,4.815a.884.884,0,0,0,.136.033c2.782,0,5.565.007,8.348-.009a.555.555,0,0,0,.375-.3c.551-1.194,1.081-2.4,1.616-3.6C120.087,169.757,120.212,169.454,120.355,169.122Z" transform="translate(-89.415 -161.434)" fill="#333" stroke="#333" stroke-width="0.3"/>
    <path id="Path_199" data-name="Path 199" d="M84.017,169.782a4.874,4.874,0,1,1,4.888,4.885A4.855,4.855,0,0,1,84.017,169.782Zm8.356.027a3.482,3.482,0,1,0-3.509,3.467A3.513,3.513,0,0,0,92.373,169.809Z" transform="translate(-81.23 -161.435)" fill="#333" stroke="#333" stroke-width="0.3"/>
    <path id="Path_200" data-name="Path 200" d="M89.958,184.793c1.713,0,3.425-.013,5.137.017a.937.937,0,0,1,.659.371.744.744,0,0,1-.028.673.835.835,0,0,1-.608.316c-3.454.019-6.909.016-10.362.011a.695.695,0,1,1,.021-1.385C86.5,184.79,88.231,184.793,89.958,184.793Z" transform="translate(-81.231 -170.163)" fill="#333" stroke="#333" stroke-width="0.3"/>
    <path id="Path_201" data-name="Path 201" d="M86.817,189.763c.667,0,1.335,0,2,0a.7.7,0,1,1-.008,1.387q-2,.007-4.005,0c-.489,0-.778-.257-.787-.676-.01-.444.279-.708.8-.712C85.482,189.76,86.149,189.763,86.817,189.763Z" transform="translate(-81.23 -172.347)" fill="#333" stroke="#333" stroke-width="0.3"/>
    <path id="Path_202" data-name="Path 202" d="M115.372,191.163a1.391,1.391,0,1,1-1.363-1.4A1.379,1.379,0,0,1,115.372,191.163Z" transform="translate(-93.78 -172.349)" fill="#333" stroke="#333" stroke-width="0.3"/>
    <path id="Path_203" data-name="Path 203" d="M128.9,189.765a1.391,1.391,0,1,1-1.4,1.362A1.377,1.377,0,0,1,128.9,189.765Z" transform="translate(-100.328 -172.349)" fill="#333" stroke="#333" stroke-width="0.3"/>
    <path id="Path_204" data-name="Path 204" d="M132.631,201.085c-.247,0-.494.012-.74,0a.673.673,0,0,1-.665-.709.661.661,0,0,1,.657-.671c.493-.017.988-.018,1.48,0a.661.661,0,0,1,.644.684.67.67,0,0,1-.636.694C133.126,201.1,132.878,201.085,132.631,201.085Z" transform="translate(-101.966 -176.708)" fill="#333" stroke="#333" stroke-width="0.3"/>
    <path id="Path_205" data-name="Path 205" d="M89.8,172.4l2.019-2.018c.1-.1.2-.211.311-.3a.692.692,0,0,1,.977.031.663.663,0,0,1,.014.943q-1.394,1.432-2.825,2.827a.636.636,0,0,1-.94,0c-.487-.454-.958-.927-1.416-1.41a.675.675,0,0,1,0-.976.688.688,0,0,1,1.008.01C89.237,171.774,89.493,172.07,89.8,172.4Z" transform="translate(-82.863 -163.619)" fill="#333" stroke="#333" stroke-width="0.3"/>
  </g>
</svg>
