<svg xmlns="http://www.w3.org/2000/svg" width="33.844" height="33.836" viewBox="0 0 33.844 33.836">
  <g id="Group_176" data-name="Group 176" transform="translate(0.2 0.2)">
    <path id="Path_344" data-name="Path 344" d="M12.446,29.087a16.543,16.543,0,0,1,.511-1.741,5.932,5.932,0,0,1,2.442-2.81c.074-.045.147-.092.219-.14a.379.379,0,0,0,.036-.054,4.209,4.209,0,0,1-.887-3.706,4.112,4.112,0,0,1,1.675-2.488,4.322,4.322,0,0,1,5.582.463,4.236,4.236,0,0,1,.229,5.742c.057.042.111.088.17.124a6.112,6.112,0,0,1,3.06,5.354c.02,1,0,2,0,3,0,.548-.2.747-.751.747q-5.762,0-11.525.006a.8.8,0,0,1-.763-.387Zm11.939,3.345a30.079,30.079,0,0,0-.153-3.634A4.705,4.705,0,0,0,21.5,25.275a.635.635,0,0,0-.826.507c0,.925.007,1.85-.008,2.775a.877.877,0,0,1-.164.466c-.32.441-.664.862-1,1.29-.36.459-.706.471-1.064.026s-.721-.9-1.061-1.365a.813.813,0,0,1-.142-.444c-.013-.914-.006-1.828-.007-2.743a.607.607,0,0,0-.817-.507,5,5,0,0,0-2.659,3.141,8.495,8.495,0,0,0-.195,2.493c0,.5,0,1,0,1.513h1.756V32.06c0-.729,0-1.458,0-2.187,0-.456.188-.688.55-.69s.563.237.564.681q0,1.126,0,2.253v.3h5.05c0-.886-.006-1.745,0-2.6,0-.4.211-.624.554-.633s.579.226.584.636c.008.642,0,1.284,0,1.927v.686Zm-5.439-7.7a3.133,3.133,0,1,0,.009-6.265,3.133,3.133,0,1,0-.009,6.265Zm-.573,1.119c0,.649.044,1.3-.013,1.944a1.637,1.637,0,0,0,.629,1.379c.2-.288.52-.55.546-.837.074-.826.026-1.664.026-2.486Z" transform="translate(-12.446 -9.235)" fill="#333" stroke="#333" stroke-width="0.4"/>
    <path id="Path_345" data-name="Path 345" d="M35.483,42.845a.949.949,0,0,1-.329-.859c.034-.978-.042-1.966.08-2.931a5.343,5.343,0,0,1,3.334-4.371c.069-.031.14-.06.208-.09.009,0,.015-.015.051-.054a3.581,3.581,0,0,1-1.809-3.266,3.462,3.462,0,0,1,1.3-2.6,3.769,3.769,0,0,1,5.244.455,3.59,3.59,0,0,1-.944,5.413,13.441,13.441,0,0,1,1.228.7,5.4,5.4,0,0,1,2.406,4.533c.013.75-.014,1.5.01,2.252a.913.913,0,0,1-.332.823Zm.707-1.14h8.987a25.711,25.711,0,0,0-.115-2.663,4.434,4.434,0,0,0-3.925-3.656,4.343,4.343,0,0,0-4.653,3.18A22.744,22.744,0,0,0,36.191,41.705Zm7.083-10.3A2.565,2.565,0,1,0,40.746,33.9,2.529,2.529,0,0,0,43.273,31.408Z" transform="translate(-12.822 -9.409)" fill="#333" stroke="#333" stroke-width="0.4"/>
    <path id="Path_346" data-name="Path 346" d="M38.813,15.815a3.592,3.592,0,0,1-1.619-4.236,3.73,3.73,0,0,1,7.04.03,3.61,3.61,0,0,1-1.649,4.22c.1.048.174.091.256.126A5.535,5.535,0,0,1,46.257,21.1q0,1.19,0,2.382c0,.439-.2.64-.635.64q-4.911,0-9.823,0c-.394,0-.636-.192-.634-.542a28.046,28.046,0,0,1,.073-3.256,5.324,5.324,0,0,1,3.343-4.365c.069-.031.14-.06.208-.091C38.8,15.861,38.8,15.848,38.813,15.815ZM45.1,23a20.3,20.3,0,0,0-.017-2.462,4.21,4.21,0,0,0-3.1-3.693A4.426,4.426,0,0,0,37.34,18.2c-1.229,1.416-1.094,3.1-1.047,4.8ZM43.273,12.7A2.565,2.565,0,1,0,40.7,15.177,2.526,2.526,0,0,0,43.273,12.7Z" transform="translate(-12.822 -9.099)" fill="#333" stroke="#333" stroke-width="0.4"/>
    <path id="Path_347" data-name="Path 347" d="M30.631,25.784,33.5,28.134c.076.062.153.122.225.189a.564.564,0,0,1,.125.782.608.608,0,0,1-.85.069c-.813-.655-1.66-1.277-2.413-2a2.787,2.787,0,0,0-2.333-.837c-.809.074-1.631.016-2.447.015-.472,0-.729-.193-.737-.548s.25-.565.747-.566c1.154,0,2.307.006,3.461-.008a.778.778,0,0,0,.459-.172c1.063-.9,2.113-1.813,3.172-2.718a.977.977,0,0,1,.387-.22.5.5,0,0,1,.594.291.537.537,0,0,1-.138.68c-.315.284-.638.559-.96.835C32.083,24.538,31.375,25.146,30.631,25.784Z" transform="translate(-12.655 -9.314)" fill="#333" stroke="#333" stroke-width="0.4"/>
  </g>
</svg>
