<svg xmlns="http://www.w3.org/2000/svg" width="33.626" height="33.646" viewBox="0 0 33.626 33.646">
  <g id="Group_152" data-name="Group 152" transform="translate(0.099 0.1)">
    <path id="Path_294" data-name="Path 294" d="M106.334,157.75c.271,0,.543-.008.814,0a.993.993,0,0,1,1.011.942.97.97,0,0,1-.95,1.029,15.019,15.019,0,0,1-1.692,0,.969.969,0,0,1-.946-1.034.993.993,0,0,1,1.015-.937C105.835,157.743,106.084,157.75,106.334,157.75Z" transform="translate(-100.391 -136.053)" fill="#333" stroke="#fff" stroke-width="0.2"/>
    <path id="Path_295" data-name="Path 295" d="M106.363,153.207c-.282,0-.565.007-.846,0a.976.976,0,0,1,0-1.951q.846-.014,1.692,0a.976.976,0,0,1,0,1.951C106.928,153.214,106.646,153.207,106.363,153.207Z" transform="translate(-100.391 -133.949)" fill="#333" stroke="#fff" stroke-width="0.2"/>
    <g id="Group_145" data-name="Group 145">
      <path id="Path_296" data-name="Path 296" d="M121.046,125.674h.523c.947.376.667,1.236.728,1.96.638,0,1.236,0,1.834,0a3.325,3.325,0,0,1,.52.024,3.58,3.58,0,0,1,3.119,3.669q0,6.118,0,12.237a.507.507,0,0,0,.267.494,7.95,7.95,0,0,1,3.4,4.428c.169.545.26,1.113.387,1.671v1.567a1.905,1.905,0,0,0-.065.248,8.157,8.157,0,0,1-15.647,2.064.4.4,0,0,0-.447-.294q-7.131.01-14.26,0a2.917,2.917,0,0,1-3.007-3q0-9.725,0-19.449a3.272,3.272,0,0,1,.027-.553,3.58,3.58,0,0,1,3.677-3.108h1.772c.045-.748-.21-1.584.724-1.96h.522c.947.376.666,1.237.726,1.942h3.513c.044-.73-.212-1.567.723-1.942h.523c.947.376.666,1.237.726,1.942h3.525c0-.385-.028-.755.007-1.119a1.049,1.049,0,0,1,.7-.823h.523c.947.376.666,1.237.726,1.942h3.513C120.367,126.886,120.112,126.049,121.046,125.674Zm-20.7,10.451v.283q0,7.133,0,14.265a1.017,1.017,0,0,0,1.143,1.116H115.52a8.221,8.221,0,0,1,10.267-8.749v-6.917Zm23.3,8.612a6.2,6.2,0,1,0,6.207,6.207A6.233,6.233,0,0,0,123.654,144.737ZM111.317,129.6c0,.339,0,.643,0,.946a.977.977,0,1,1-1.954,0c0-.311,0-.622,0-.931h-3.528c0,.327,0,.632,0,.935a.977.977,0,1,1-1.954,0c0-.311,0-.623,0-.955-.639,0-1.236-.005-1.832,0a1.646,1.646,0,0,0-1.694,1.689c-.008.751,0,1.5,0,2.252v.607H125.81c0-1.013.02-2-.007-2.99a1.5,1.5,0,0,0-1.174-1.471c-.764-.109-1.548-.085-2.344-.118,0,.379,0,.683,0,.986a.977.977,0,1,1-1.954,0c0-.312,0-.624,0-.935H116.8c0,.327,0,.63,0,.933a.977.977,0,1,1-1.954,0c0-.311,0-.623,0-.945Z" transform="translate(-98.392 -125.674)" fill="#333" stroke="#fff" stroke-width="0.2"/>
      <path id="Path_297" data-name="Path 297" d="M114.93,146.7c-.239,0-.478.007-.716,0a.994.994,0,1,1,.016-1.983c.488-.005.977-.007,1.464,0a.992.992,0,1,1,.016,1.982C115.452,146.713,115.191,146.7,114.93,146.7Z" transform="translate(-103.171 -131.836)" fill="#333" stroke="#fff" stroke-width="0.2"/>
      <path id="Path_298" data-name="Path 298" d="M123.545,144.72c.26,0,.521-.007.781,0a.994.994,0,0,1,1.013.94.969.969,0,0,1-.948,1.032,15.011,15.011,0,0,1-1.692,0,.969.969,0,0,1-.948-1.031.993.993,0,0,1,1.013-.94C123.024,144.712,123.285,144.72,123.545,144.72Z" transform="translate(-105.951 -131.836)" fill="#333" stroke="#fff" stroke-width="0.2"/>
      <path id="Path_299" data-name="Path 299" d="M132.159,144.719c.26,0,.521-.009.781,0a.99.99,0,0,1,.989.929.956.956,0,0,1-.906,1.034,13.459,13.459,0,0,1-1.756,0,.961.961,0,0,1-.926-1.018.991.991,0,0,1,1-.949C131.616,144.711,131.888,144.719,132.159,144.719Z" transform="translate(-108.731 -131.836)" fill="#333" stroke="#fff" stroke-width="0.2"/>
      <path id="Path_300" data-name="Path 300" d="M114.927,157.75c.271,0,.542-.008.814,0a.992.992,0,0,1,1.007.944.97.97,0,0,1-.952,1.027,15.011,15.011,0,0,1-1.692,0,.969.969,0,0,1-.944-1.036.994.994,0,0,1,1.018-.935C114.427,157.744,114.678,157.75,114.927,157.75Z" transform="translate(-103.171 -136.053)" fill="#333" stroke="#fff" stroke-width="0.2"/>
      <path id="Path_301" data-name="Path 301" d="M114.923,153.207c-.271,0-.543.007-.814,0a.976.976,0,0,1,0-1.951q.846-.015,1.692,0a.976.976,0,0,1,0,1.951C115.509,153.215,115.216,153.207,114.923,153.207Z" transform="translate(-103.171 -133.949)" fill="#333" stroke="#fff" stroke-width="0.2"/>
      <path id="Path_302" data-name="Path 302" d="M123.542,151.254c.282,0,.565-.007.846,0a.976.976,0,0,1,.007,1.951q-.846.016-1.692,0a.976.976,0,0,1-.007-1.951C122.978,151.247,123.26,151.254,123.542,151.254Z" transform="translate(-105.951 -133.951)" fill="#333" stroke="#fff" stroke-width="0.2"/>
      <path id="Path_303" data-name="Path 303" d="M136.255,160.02h2.185a.983.983,0,1,1,0,1.956q-1.548,0-3.1,0a.967.967,0,0,1-1.042-1.032q-.005-1.581,0-3.162a.979.979,0,1,1,1.954.009C136.257,158.519,136.255,159.246,136.255,160.02Z" transform="translate(-110.011 -135.732)" fill="#333" stroke="#fff" stroke-width="0.2"/>
    </g>
  </g>
</svg>
