<svg xmlns="http://www.w3.org/2000/svg" width="34.033" height="34.038" viewBox="0 0 34.033 34.038">
  <g id="Group_110" data-name="Group 110" transform="translate(0.3 0.3)">
    <path id="Path_1" data-name="Path 1" d="M31.618,18.056c.471.064.944.12,1.414.194a16.454,16.454,0,0,1,10.041,5.515,16.067,16.067,0,0,1,3.993,8.728,16.264,16.264,0,0,1-3.471,12.649A16.148,16.148,0,0,1,32.78,51.325a16.166,16.166,0,0,1-12.622-3.45,16.439,16.439,0,0,1-6.213-10.8c-.06-.4-.1-.794-.152-1.191v-2.22c.05-.4.093-.794.151-1.19A16.776,16.776,0,0,1,27.986,18.249c.469-.074.941-.129,1.412-.193ZM30.5,50.084A15.313,15.313,0,1,0,15.2,34.761,15.329,15.329,0,0,0,30.5,50.084Z" transform="translate(-13.793 -18.056)" fill="#333" stroke="#333" stroke-width="0.6"/>
    <path id="Path_2" data-name="Path 2" d="M61.938,62.464c0-2.034,0-4.068,0-6.1a.782.782,0,0,1,.365-.777.769.769,0,0,1,.852.107q4.728,3.043,9.457,6.082c.64.412.64.967,0,1.378q-4.728,3.043-9.458,6.082a.768.768,0,0,1-.852.109.783.783,0,0,1-.366-.777C61.941,66.532,61.938,64.5,61.938,62.464Zm1.414,4.972,7.733-4.972-7.733-4.972Z" transform="translate(-49.4 -45.748)" fill="#333" stroke="#333" stroke-width="0.6"/>
  </g>
</svg>
