<svg xmlns="http://www.w3.org/2000/svg" width="34.769" height="33.83" viewBox="0 0 34.769 33.83">
  <g id="Group_127" data-name="Group 127" transform="translate(0.208 0.194)">
    <path id="Path_194" data-name="Path 194" d="M35.329,181.891c-2.449,0-4.9-.028-7.345.009a3.758,3.758,0,0,1-3.821-3.163,3.857,3.857,0,0,1,.39-2.4,1.2,1.2,0,0,0,.05-1.014q-2.432-7.278-4.837-14.564A2.074,2.074,0,0,0,17.61,159.2c-.782,0-1.565,0-2.348,0a.854.854,0,0,1-.835-.45.673.673,0,0,1,.057-.787.922.922,0,0,1,.539-.338,22.751,22.751,0,0,1,3.282.028,3.466,3.466,0,0,1,2.938,2.469c.221.619.42,1.246.612,1.875a.313.313,0,0,0,.355.254q6.371.087,12.742.185c4.192.058,8.383.106,12.575.175a2.212,2.212,0,0,1,.85.228.563.563,0,0,1,.283.69c-.678,2.817-1.3,5.65-2.074,8.44a4.056,4.056,0,0,1-3.728,3c-2.694.317-5.394.581-8.093.863-2.243.235-4.487.46-6.73.692q-.833.085-1.663.19a.351.351,0,0,0-.24.121,2.275,2.275,0,0,0,.135,2.77,1.938,1.938,0,0,0,1.541.682c.86.005,1.722,0,2.582,0q6.254,0,12.51,0a2.393,2.393,0,0,1,.529.057.762.762,0,0,1,.577.8.781.781,0,0,1-.662.735,3.15,3.15,0,0,1-.435.018Zm11.544-17.682-24.379-.357c.038.146.061.265.1.378q1.66,5.03,3.324,10.059c.255.77.256.774,1.037.7q3.731-.375,7.461-.758c2.764-.284,5.527-.577,8.291-.861a2.7,2.7,0,0,0,2.417-2c.213-.761.383-1.535.57-2.3C46.082,167.464,46.47,165.864,46.873,164.209Z" transform="translate(-14.328 -157.574)" fill="#333" stroke="#333" stroke-width="0.4"/>
    <path id="Path_195" data-name="Path 195" d="M26.75,196.183a3.588,3.588,0,0,1-.013-7.175,3.588,3.588,0,1,1,.013,7.175Zm-1.982-3.576a1.968,1.968,0,0,0,1.981,1.969,1.993,1.993,0,0,0,1.984-1.982,2.024,2.024,0,0,0-2-1.983A1.991,1.991,0,0,0,24.768,192.608Z" transform="translate(-15.782 -162.747)" fill="#333" stroke="#333" stroke-width="0.4"/>
    <path id="Path_196" data-name="Path 196" d="M44.853,196.183a3.588,3.588,0,1,1,.016-7.175,3.588,3.588,0,1,1-.016,7.175Zm.006-1.607a1.975,1.975,0,0,0,1.982-1.974,1.98,1.98,0,1,0-3.959,0A1.971,1.971,0,0,0,44.858,194.577Z" transform="translate(-18.762 -162.747)" fill="#333" stroke="#333" stroke-width="0.4"/>
  </g>
</svg>
