<svg xmlns="http://www.w3.org/2000/svg" width="31.777" height="31.854" viewBox="0 0 31.777 31.854">
  <g id="Group_111" data-name="Group 111" transform="translate(0.35 0.393)">
    <path id="Path_96" data-name="Path 96" d="M104.667,48.7c-.1-.176-.177-.3-.253-.432a30.449,30.449,0,0,1-3.358-7.507,12.594,12.594,0,0,1-.505-4.9,8.172,8.172,0,0,1,4.87-6.751,8.462,8.462,0,0,1,11.9,6.082,11.57,11.57,0,0,1-.272,5.014,29.5,29.5,0,0,1-3.54,8.131c-.051.084-.1.169-.147.254a.558.558,0,0,0-.023.1c.117,0,.229.015.341.015,2.158,0,4.315.007,6.472,0a.631.631,0,0,1,.684.463q1.8,4.74,3.612,9.473c.193.507.007.78-.535.78H94.071c-.563,0-.747-.269-.547-.795q1.793-4.705,3.587-9.409c.175-.458.248-.507.747-.507h6.809Zm4.307,4.539c.124-.153.226-.264.311-.387,1.065-1.538,2.173-3.048,3.179-4.625a29.03,29.03,0,0,0,3.426-7.3,12.313,12.313,0,0,0,.6-5.084,7.575,7.575,0,0,0-15.059,1.632,18.168,18.168,0,0,0,1.192,5.057,40.3,40.3,0,0,0,5.14,9.092C108.147,52.159,108.555,52.68,108.974,53.235ZM94.565,58.486h.412c.947,0,1.9-.046,2.841.01a8.473,8.473,0,0,0,4.156-.717c.059-.027.123-.044.184-.066l3.2-1.14a.74.74,0,0,0-.06-.137q-2.568-3.339-5.143-6.674a.4.4,0,0,0-.266-.14c-.642-.012-1.284-.007-1.937-.007Zm6.681-8.872c.058.1.081.145.111.186,1.6,2.08,3.205,4.157,4.8,6.243.16.21.3.144.474.082l13.021-4.632c.311-.111.619-.229.948-.35-.17-.446-.335-.847-.474-1.258a.347.347,0,0,0-.393-.278q-3.367.015-6.733,0a.48.48,0,0,0-.446.243q-1.512,2.111-3.049,4.2c-.382.518-.659.517-1.041,0-1.032-1.4-2.047-2.817-3.075-4.222a.467.467,0,0,0-.289-.206C103.834,49.61,102.572,49.614,101.247,49.614Zm1.7,8.8.007.043h15.142c-.095-.133-.161-.23-.232-.324-.942-1.225-1.891-2.444-2.822-3.678a.4.4,0,0,0-.536-.158q-4.474,1.606-8.956,3.191Zm12.824-4.561a1,1,0,0,0,.059.117c1.114,1.449,2.224,2.9,3.348,4.341a.543.543,0,0,0,.383.166c1.164.013,2.329.008,3.494.007.1,0,.2-.013.337-.021l-2.46-6.446Z" transform="translate(-93.446 -28.297)" fill="#333" stroke="#333" stroke-width="0.7"/>
    <path id="Path_97" data-name="Path 97" d="M109.275,40.78a3.862,3.862,0,1,1,3.866-3.817A3.841,3.841,0,0,1,109.275,40.78Zm.013-.921a2.945,2.945,0,1,0-2.952-2.944A2.947,2.947,0,0,0,109.288,39.858Z" transform="translate(-93.744 -28.416)" fill="#333" stroke="#333" stroke-width="0.7"/>
  </g>
</svg>
