<svg xmlns="http://www.w3.org/2000/svg" width="38.285" height="38.293" viewBox="0 0 38.285 38.293">
  <g id="Group_188" data-name="Group 188" transform="translate(0.2 0.2)">
    <path id="Path_376" data-name="Path 376" d="M50.467,142.366c.038-.166.069-.333.112-.5a2.382,2.382,0,0,1,2.449-1.794H74.045q2.664,0,5.329,0a2.287,2.287,0,0,1,2.492,2.2,30.727,30.727,0,0,1-.013,4.248,2.289,2.289,0,0,1-2.407,2.131c-.963.012-1.925,0-2.887,0q-8.234,0-16.466-.01a.836.836,0,0,0-.826.45c-.379.619-.8,1.213-1.213,1.812-.365.532-.77.537-1.133.008-.461-.67-.9-1.354-1.375-2.016a.639.639,0,0,0-.435-.233c-.689-.025-1.38-.008-2.071-.012a2.382,2.382,0,0,1-2.515-2.156.485.485,0,0,0-.059-.131Zm7.017,7.376c.379-.561.754-1.051,1.058-1.582a1.208,1.208,0,0,1,1.209-.636q9.732.025,19.461.01c1.1,0,1.571-.469,1.572-1.579s.01-2.245,0-3.367a1.291,1.291,0,0,0-1.439-1.407q-13.134,0-26.269,0a1.291,1.291,0,0,0-1.445,1.432q-.008,1.721,0,3.441a1.3,1.3,0,0,0,1.474,1.479c.789.005,1.58.017,2.368-.005a.871.871,0,0,1,.825.446C56.67,148.552,57.063,149.119,57.484,149.743Z" transform="translate(-50.467 -140.073)" fill="#333" stroke="#333" stroke-width="0.4"/>
    <path id="Path_377" data-name="Path 377" d="M50.467,162.757c.041-.165.074-.331.12-.493a2.4,2.4,0,0,1,2.346-1.792c.456-.012.913,0,1.369,0q12.484,0,24.967,0a2.391,2.391,0,0,1,2.377,1.372,2.932,2.932,0,0,1,.254,1.139c.033,1.183.021,2.366.01,3.55a2.4,2.4,0,0,1-2.542,2.518q-9.691.006-19.381,0a.641.641,0,0,0-.63.323c-.391.626-.811,1.235-1.236,1.84a4.671,4.671,0,0,1-.476.5h-.37c-.169-.205-.353-.4-.506-.619-.393-.565-.789-1.128-1.15-1.712a.645.645,0,0,0-.656-.337c-.7.022-1.4.014-2.1,0a2.363,2.363,0,0,1-2.285-1.8c-.043-.163-.074-.332-.111-.5Zm7.018,7.395c.405-.6.788-1.126,1.13-1.68a1.047,1.047,0,0,1,1-.54q9.785.02,19.571.009c.135,0,.272.005.406-.005a1.181,1.181,0,0,0,1.153-1.1q.053-2.068,0-4.14a1.133,1.133,0,0,0-1.047-1.069,4.117,4.117,0,0,0-.553-.031q-12.948,0-25.9,0c-.123,0-.247,0-.368.007a1.24,1.24,0,0,0-1.249,1.322q-.018,1.831,0,3.661A1.26,1.26,0,0,0,53,167.939c.826,0,1.653.012,2.479,0a.846.846,0,0,1,.8.426C56.657,168.949,57.058,169.523,57.485,170.151Z" transform="translate(-50.467 -133.818)" fill="#333" stroke="#333" stroke-width="0.4"/>
    <path id="Path_378" data-name="Path 378" d="M79.833,160.257c.421-.622.823-1.2,1.2-1.784a.9.9,0,0,1,.831-.443c.827.01,1.653.009,2.48,0a1.23,1.23,0,0,0,1.339-1.333q.016-1.833,0-3.664a1.23,1.23,0,0,0-1.354-1.32q-13.211,0-26.42,0a1.233,1.233,0,0,0-1.369,1.309q-.037,1.848,0,3.7a1.24,1.24,0,0,0,1.407,1.309q5.882,0,11.767,0a2.094,2.094,0,0,1,.511.052.456.456,0,0,1,.384.544,1.11,1.11,0,0,1-.417.491c-.08.065-.238.047-.359.047q-5.921,0-11.841,0a2.379,2.379,0,0,1-2.478-1.756,3.032,3.032,0,0,1-.106-.766q-.016-1.776,0-3.553a2.385,2.385,0,0,1,1.828-2.427,3.42,3.42,0,0,1,.842-.084q13.044-.006,26.087,0a2.413,2.413,0,0,1,2.565,1.793,2.153,2.153,0,0,1,.085.545c.007,1.308.069,2.619-.014,3.92a2.358,2.358,0,0,1-2.57,2.332c-.653.008-1.308.012-1.961,0a.552.552,0,0,0-.542.282c-.433.673-.887,1.333-1.339,1.994-.349.511-.757.51-1.109,0-.433-.63-.875-1.254-1.278-1.9a.72.72,0,0,0-.72-.371c-1.1.018-2.2.008-3.293,0a.886.886,0,0,1-.468-.056.811.811,0,0,1-.361-.483.832.832,0,0,1,.314-.517c.09-.082.281-.073.426-.074,1.295-.005,2.59,0,3.885-.007a.915.915,0,0,1,.857.46C79.014,159.079,79.42,159.649,79.833,160.257Z" transform="translate(-48.954 -136.851)" fill="#333" stroke="#333" stroke-width="0.4"/>
    <path id="Path_379" data-name="Path 379" d="M64.795,153.522q-3.181,0-6.361,0c-.58,0-.874-.191-.876-.567s.293-.571.873-.571H71.263c.507.009.793.225.78.587s-.284.55-.777.551Q68.029,153.524,64.795,153.522Z" transform="translate(-48.292 -136.297)" fill="#333" stroke="#333" stroke-width="0.4"/>
    <path id="Path_380" data-name="Path 380" d="M69.543,154.419q2.57,0,5.141,0c.58,0,.874.192.875.568s-.294.57-.873.57H64.294c-.037,0-.073,0-.111,0-.481-.013-.751-.227-.74-.587s.269-.549.737-.55C65.968,154.417,67.755,154.419,69.543,154.419Z" transform="translate(-46.487 -135.673)" fill="#333" stroke="#333" stroke-width="0.4"/>
    <path id="Path_381" data-name="Path 381" d="M76.327,152.177a2.177,2.177,0,1,1-2.072,2.343A2.145,2.145,0,0,1,76.327,152.177Zm1.138,2.172a1.052,1.052,0,1,0-1.052,1.049A1.024,1.024,0,0,0,77.465,154.349Z" transform="translate(-43.173 -136.362)" fill="#333" stroke="#333" stroke-width="0.4"/>
    <path id="Path_382" data-name="Path 382" d="M60.37,154.42c.665,0,1.329-.005,1.994,0a.789.789,0,0,1,.461.074.826.826,0,0,1,.319.512.713.713,0,0,1-.319.473.936.936,0,0,1-.5.073c-1.305.005-2.61,0-3.915,0-.048,0-.1,0-.148,0-.434-.02-.693-.221-.706-.551s.264-.579.707-.584C58.967,154.413,59.668,154.42,60.37,154.42Z" transform="translate(-48.292 -135.673)" fill="#333" stroke="#333" stroke-width="0.4"/>
    <path id="Path_383" data-name="Path 383" d="M71.774,153.523c-.368,0-.738.009-1.107,0-.434-.013-.669-.229-.661-.58.008-.333.234-.542.652-.55q1.107-.02,2.215,0c.416.007.683.255.673.579s-.273.542-.7.553C72.487,153.53,72.131,153.523,71.774,153.523Z" transform="translate(-44.474 -136.298)" fill="#333" stroke="#333" stroke-width="0.4"/>
    <path id="Path_384" data-name="Path 384" d="M63.7,141.77q3.162,0,6.323,0c.123,0,.247-.007.37.005a.515.515,0,0,1,.51.531.526.526,0,0,1-.478.563,1.586,1.586,0,0,1-.3.01H57.224a1.636,1.636,0,0,1-.331-.014.529.529,0,0,1-.461-.545.523.523,0,0,1,.5-.544,3.482,3.482,0,0,1,.37-.007Q60.5,141.768,63.7,141.77Z" transform="translate(-48.637 -139.553)" fill="#333" stroke="#333" stroke-width="0.4"/>
    <path id="Path_385" data-name="Path 385" d="M63.7,143.805h6.322c.124,0,.248,0,.37.008a.516.516,0,0,1,.512.528.522.522,0,0,1-.444.557,1.557,1.557,0,0,1-.367.02H57.264c-.061,0-.123,0-.184,0-.395-.014-.655-.238-.653-.562s.257-.548.657-.548q3.067-.006,6.138,0Z" transform="translate(-48.639 -138.928)" fill="#333" stroke="#333" stroke-width="0.4"/>
    <path id="Path_386" data-name="Path 386" d="M56.715,143.884a2.188,2.188,0,0,1-2.233,2.133,2.221,2.221,0,0,1-2.127-2.217,2.181,2.181,0,1,1,4.36.085Zm-1.119-.059A1.053,1.053,0,1,0,54.56,144.9,1.064,1.064,0,0,0,55.6,143.825Z" transform="translate(-49.889 -139.586)" fill="#333" stroke="#333" stroke-width="0.4"/>
    <path id="Path_387" data-name="Path 387" d="M70.582,141.77c.517,0,1.034-.005,1.551,0,.395.005.649.233.644.558s-.263.546-.659.548q-1.533.008-3.064,0c-.4,0-.636-.222-.632-.562s.233-.54.647-.544C69.573,141.767,70.078,141.77,70.582,141.77Z" transform="translate(-44.96 -139.553)" fill="#333" stroke="#333" stroke-width="0.4"/>
    <path id="Path_388" data-name="Path 388" d="M70.59,143.807c.517,0,1.034-.007,1.551,0a.571.571,0,0,1,.636.564.577.577,0,0,1-.63.542q-1.55.012-3.1,0a.553.553,0,0,1-.625-.574c.008-.328.227-.528.617-.534C69.556,143.8,70.072,143.807,70.59,143.807Z" transform="translate(-44.96 -138.928)" fill="#333" stroke="#333" stroke-width="0.4"/>
    <path id="Path_389" data-name="Path 389" d="M64.023,163.453q-3.05,0-6.1,0c-.456,0-.676-.152-.715-.472a.544.544,0,0,1,.48-.631,2.173,2.173,0,0,1,.37-.013H70.036c.05,0,.1,0,.148,0,.451.008.717.225.711.575-.007.335-.261.54-.7.54Q67.109,163.458,64.023,163.453Z" transform="translate(-48.401 -133.244)" fill="#333" stroke="#333" stroke-width="0.4"/>
    <path id="Path_390" data-name="Path 390" d="M56.716,164.255a2.161,2.161,0,0,1-2.2,2.161,2.19,2.19,0,0,1-2.167-2.167,2.224,2.224,0,0,1,2.19-2.193A2.191,2.191,0,0,1,56.716,164.255Zm-1.12.007a1.052,1.052,0,1,0-1.06,1.044A1.053,1.053,0,0,0,55.6,164.261Z" transform="translate(-49.888 -133.33)" fill="#333" stroke="#333" stroke-width="0.4"/>
    <path id="Path_391" data-name="Path 391" d="M62.3,165.487H58.051a2.666,2.666,0,0,1-.368-.012.5.5,0,0,1-.474-.48.511.511,0,0,1,.392-.588,1.372,1.372,0,0,1,.4-.033H66.73c.433.008.685.212.689.554s-.243.555-.676.557C65.264,165.49,63.784,165.487,62.3,165.487Z" transform="translate(-48.401 -132.619)" fill="#333" stroke="#333" stroke-width="0.4"/>
    <path id="Path_392" data-name="Path 392" d="M69.722,165.487c-1.058,0-2.117,0-3.175,0-.434,0-.677-.212-.67-.559s.251-.55.687-.551q3.158,0,6.314,0c.335,0,.621.119.648.461a.89.89,0,0,1-.282.574c-.086.09-.3.074-.456.076C71.765,165.49,70.744,165.487,69.722,165.487Z" transform="translate(-45.741 -132.619)" fill="#333" stroke="#333" stroke-width="0.4"/>
    <path id="Path_393" data-name="Path 393" d="M70.582,163.454c-.517,0-1.034.007-1.551,0-.388-.007-.605-.212-.609-.541a.55.55,0,0,1,.6-.567q1.568-.016,3.137,0a.58.58,0,0,1,.622.553c.007.32-.251.551-.644.557C71.616,163.46,71.1,163.454,70.582,163.454Z" transform="translate(-44.96 -133.245)" fill="#333" stroke="#333" stroke-width="0.4"/>
  </g>
</svg>
