<svg xmlns="http://www.w3.org/2000/svg" width="34.269" height="34.236" viewBox="0 0 34.269 34.236">
  <g id="Group_205" data-name="Group 205" transform="translate(0.4 0.4)">
    <path id="Path_398" data-name="Path 398" d="M83.085,195.039c.412.122.838.211,1.236.371a5,5,0,0,1,3.129,4.636c.009,2.666,0,5.33,0,8.026.165.059.336.117.5.181a6.089,6.089,0,0,1-1.258,11.73c-.514.072-1.041.027-1.561.055a.7.7,0,0,0-.389.14c-.254.22-.481.471-.721.709a1.224,1.224,0,0,1-1.144.317.428.428,0,0,0-.337.067c-1.166,1.283-1.238.9-2.5.855-.086,0-.17-.011-.309-.02a2.846,2.846,0,0,1-.6,2.621,2.693,2.693,0,0,1-2.633.587c.031.412.042.777.089,1.139a1.268,1.268,0,0,1-.4,1.152c-.158.15-.311.3-.462.462a1.275,1.275,0,0,1-.99.409c-.762-.014-1.523,0-2.285,0a1.136,1.136,0,0,1-1.186-1.161c-.009-.782,0-1.566,0-2.349a1.3,1.3,0,0,1,.432-.951q2.072-2.06,4.133-4.13c.081-.08.156-.165.273-.29-.159-.008-.264-.019-.367-.019-1.143,0-2.285-.008-3.428.008a.96.96,0,0,0-.528.183c-1.665,1.277-3.317,2.572-4.981,3.852a1.669,1.669,0,0,1-2.681-.746,2.473,2.473,0,0,1-.1-.7c-.011-.848,0-1.7,0-2.568-.353-.023-.685-.037-1.016-.066a4.99,4.99,0,0,1-4.54-4.909q-.009-7.312,0-14.623a5.005,5.005,0,0,1,4.194-4.895.95.95,0,0,0,.179-.064ZM86.3,207.853c.009-.115.02-.19.02-.265,0-2.491.022-4.982-.014-7.473a4.228,4.228,0,0,0-.345-1.637,3.747,3.747,0,0,0-3.651-2.321c-4.166-.016-8.333,0-12.5,0-2.1,0-4.2-.009-6.3,0a3.887,3.887,0,0,0-3.922,3.851q-.035,7.293,0,14.589a3.88,3.88,0,0,0,2.68,3.645,6.362,6.362,0,0,0,2.065.189c.662,0,.832.17.832.83q0,1.421,0,2.841c0,.29,0,.579.306.73s.535-.011.768-.192c1.69-1.317,3.378-2.636,5.084-3.933a1.372,1.372,0,0,1,.768-.264c1.642-.023,3.286-.008,4.928-.02a.74.74,0,0,0,.45-.181c.356-.32.69-.663,1.016-1.015a.416.416,0,0,0,.086-.328,1.149,1.149,0,0,1,.312-1.168c.242-.25.5-.484.73-.745a.53.53,0,0,0,.122-.367,6.122,6.122,0,0,1,3.947-6.387A6.625,6.625,0,0,1,86.3,207.853Zm-3.1,12.292,1.06-1.088a.789.789,0,0,1,.679-.212,7.141,7.141,0,0,0,1.779-.009,4.918,4.918,0,0,0,4.022-5.469,4.97,4.97,0,1,0-9.825,1.475.684.684,0,0,1-.206.649c-.289.281-.559.581-.858.848-.2.181-.17.292.008.467.7.682,1.389,1.38,2.081,2.073C82.34,219.283,82.746,219.692,83.2,220.145Zm-3.829-2.179a.254.254,0,0,0-.056.033q-3.381,3.376-6.76,6.758a.377.377,0,0,0-.123.217c-.009.769,0,1.539,0,2.31a.408.408,0,0,0,.1.036c.673.012,1.347.036,2.021.027a1.037,1.037,0,0,0,.481-.183.956.956,0,0,0,.393-1.13,3.848,3.848,0,0,1-.047-.617,1.1,1.1,0,0,1,1.219-1.2c.357.019.715.059,1.072.083.083,0,.2.012.247-.034.365-.4.988-.663.748-1.4a2.844,2.844,0,0,1-.058-.582,1.143,1.143,0,0,1,1.216-1.313c.368.012.737.064,1.105.087a.419.419,0,0,0,.264-.064c.225-.184.434-.389.629-.567Z" transform="translate(-58.466 -195.039)" fill="#333" stroke="#333" stroke-width="0.8"/>
    <path id="Path_399" data-name="Path 399" d="M71.556,198.6h9.691c.1,0,.2,0,.295,0a.568.568,0,0,1,.593.563.558.558,0,0,1-.585.568c-.1.008-.2,0-.293,0q-9.709,0-19.418,0a2.229,2.229,0,0,1-.421-.027.505.505,0,0,1-.446-.521.515.515,0,0,1,.407-.554,1.452,1.452,0,0,1,.387-.033Q66.66,198.6,71.556,198.6Z" transform="translate(-57.062 -193.042)" fill="#333" stroke="#333" stroke-width="0.8"/>
    <path id="Path_400" data-name="Path 400" d="M69.861,202.222H61.67c-.45,0-.676-.169-.7-.51a.543.543,0,0,1,.507-.6c.1-.009.2,0,.293,0H77.993c.055,0,.109,0,.162,0a.58.58,0,0,1,.645.545c.011.336-.245.568-.648.568q-3.444,0-6.888,0Z" transform="translate(-57.063 -191.637)" fill="#333" stroke="#333" stroke-width="0.8"/>
    <path id="Path_401" data-name="Path 401" d="M67.646,203.608q2.92,0,5.841,0c.108,0,.217,0,.326.006a.561.561,0,0,1,.532.554.577.577,0,0,1-.538.556c-.064.006-.13,0-.2,0q-5.956,0-11.911,0a1.144,1.144,0,0,1-.412-.061.55.55,0,0,1,.158-1.044,2.724,2.724,0,0,1,.357-.011Q64.726,203.606,67.646,203.608Z" transform="translate(-57.062 -190.234)" fill="#333" stroke="#333" stroke-width="0.8"/>
    <path id="Path_402" data-name="Path 402" d="M64.854,207.239c-1.064,0-2.129,0-3.2,0-.41,0-.651-.181-.685-.5a.533.533,0,0,1,.417-.609,1.021,1.021,0,0,1,.258-.031q3.21,0,6.421,0c.42,0,.652.178.685.5.041.39-.212.638-.674.64C67,207.242,65.929,207.239,64.854,207.239Z" transform="translate(-57.062 -188.837)" fill="#333" stroke="#333" stroke-width="0.8"/>
  </g>
</svg>
