<svg xmlns="http://www.w3.org/2000/svg" width="36.243" height="36.298" viewBox="0 0 36.243 36.298">
  <g id="Group_177" data-name="Group 177" transform="translate(0.099 0.093)">
    <path id="Path_337" data-name="Path 337" d="M143.038,262.327h9.645a6.421,6.421,0,0,1-2.662-5.183,6.167,6.167,0,0,1,2.593-5.185,6.4,6.4,0,1,1,7.52,10.365h2.653V272.8h-.422q-9.684,0-19.366.007a1.7,1.7,0,0,0-.722.17q-2.1,1.026-4.185,2.088a.544.544,0,0,1-.564,0q-2.328-1.182-4.672-2.334a.434.434,0,0,1-.285-.471c.019-.578.005-1.157.005-1.778H134.3v-1.157h-1.7V264.68h1.7v-1.17h-1.719v-.372c0-.9-.009-1.792.007-2.688a.688.688,0,0,0-.307-.628,13.722,13.722,0,0,1-5.422-9.422,10.973,10.973,0,0,1-.087-1.448c-.008-2.3,0-4.6,0-6.964.149,0,.288,0,.426,0a18.692,18.692,0,0,0,10.373-2.87.39.39,0,0,1,.488,0,18.2,18.2,0,0,0,7.471,2.7c.862.111,1.737.121,2.607.171.227.012.456,0,.706,0,.007.147.016.265.016.381,0,2.156.033,4.312-.005,6.468a13.622,13.622,0,0,1-5.447,10.937.8.8,0,0,0-.369.745C143.06,261.109,143.038,261.7,143.038,262.327Zm18.589,1.2h-18.56v8.1h18.56Zm-5.2-11.653a5.233,5.233,0,1,0,5.216,5.242A5.264,5.264,0,0,0,156.428,251.87Zm-28.5-8.711v.282c0,1.78-.014,3.561.008,5.339a11.279,11.279,0,0,0,.161,1.951,12.511,12.511,0,0,0,9.118,10.255,1.8,1.8,0,0,0,.946.058,12.66,12.66,0,0,0,9.532-12.338c.014-1.744,0-3.489,0-5.232,0-.1-.014-.208-.02-.3-.612-.041-1.194-.057-1.769-.121a19.613,19.613,0,0,1-7.831-2.556.45.45,0,0,0-.526,0,19.41,19.41,0,0,1-3.832,1.707A19.963,19.963,0,0,1,127.923,243.159Zm9.293,19.132-3.457-1.395v1.456h1.7v3.478h-1.7v2.33h1.716v3.487h-1.735a13.953,13.953,0,0,0,3.472,1.881Zm1.185,11.268a1.35,1.35,0,0,0,.185-.06c1.027-.513,2.049-1.033,3.08-1.535a.364.364,0,0,0,.214-.4c0-1.282,0-2.565,0-3.847,0-.092-.016-.185-.024-.273-.7-.178-1.377-.362-2.058-.516-.2-.045-.244-.133-.244-.316q.01-1.942,0-3.885c0-.206.054-.288.267-.337.688-.156,1.37-.343,2.035-.514V260.9l-3.449,1.384Zm3.463-7.337V263.1l-1.137.278v2.569Z" transform="translate(-126.762 -239.031)" fill="#333" stroke="#333" stroke-width="0.2"/>
    <path id="Path_338" data-name="Path 338" d="M143.95,263.714H142.8v-1.5l-.7.8-.82-.913.647-.678h-1.434v-1.163h1.463l-.726-.76.866-.768.684.654v-1.442h1.164v1.37l.075.048.605-.764.936.981-.74.574.057.088h1.377v1.152h-1.376l-.046.09.738.594-.9.927-.6-.744-.119.057Z" transform="translate(-121.862 -232.283)" fill="#333" stroke="#333" stroke-width="0.2"/>
    <path id="Path_339" data-name="Path 339" d="M146.491,260.241h1.451l-.714-.746.866-.769.685.655v-1.442h1.163v1.37l.076.048.6-.764.936.981-.738.574.056.088h1.379v1.152h-1.376l-.048.09.738.594-.9.924-.609-.734-.1.05v1.395h-1.167v-1.5l-.681.778-.826-.9.638-.669h-1.434Z" transform="translate(-119.721 -232.283)" fill="#333" stroke="#333" stroke-width="0.2"/>
    <path id="Path_340" data-name="Path 340" d="M147.943,256.925l-2.155-2.153.757-.8,1.277,1.326,4.835-5.371.874.783Z" transform="translate(-119.972 -235.141)" fill="#333" stroke="#333" stroke-width="0.2"/>
    <path id="Path_341" data-name="Path 341" d="M128.479,243.607c.718-.094,1.4-.172,2.08-.274a19.179,19.179,0,0,0,6.311-2.038.61.61,0,0,1,.661,0,19.982,19.982,0,0,0,7.387,2.183q.452.049.9.1c.023,0,.042.022.083.045,0,.095.014.2.014.307,0,1.441.008,2.882,0,4.323a11.684,11.684,0,0,1-8.489,10.941.92.92,0,0,1-.493-.016,11.416,11.416,0,0,1-8.3-9.453,16.753,16.753,0,0,1-.148-2.639C128.461,245.938,128.479,244.788,128.479,243.607Zm13.431,11.513A10.256,10.256,0,0,0,144.68,249c.065-1.388.053-2.782.073-4.172a1.011,1.011,0,0,0-.027-.175c-.218-.033-.419-.068-.621-.095a20.888,20.888,0,0,1-6.6-1.957.6.6,0,0,0-.6,0,18.377,18.377,0,0,1-4.289,1.524c-.974.212-1.959.383-2.969.579,0,1.1-.015,2.227,0,3.35a10.5,10.5,0,0,0,1.38,5.088,9.682,9.682,0,0,0,1.455,1.982c.828-.167,1.554-.342,2.288-.445.318-.045.323-.26.366-.446a.557.557,0,0,0-.132-.379,12.157,12.157,0,0,1-.955-1.259c-.411-.749-.735-1.544-1.1-2.32a4.327,4.327,0,0,1,1.664-5.52,5.11,5.11,0,0,1,2.963-.638,4.334,4.334,0,0,1,3.812,6.282c-.281.574-.609,1.13-.836,1.726a4.176,4.176,0,0,1-1.152,1.729.46.46,0,0,0-.14.373c.045.183.042.406.362.45C140.356,254.783,141.082,254.956,141.909,255.12Zm-1.455-5.608a3.1,3.1,0,0,0-.891-3.474,3.74,3.74,0,0,0-2.976-.731,3.11,3.11,0,0,0-2.768,2.356,2.817,2.817,0,0,0,.122,1.882,2.884,2.884,0,0,1,1.851-1.383l-.311-.916,1.065-.356a.393.393,0,0,1,.06.062.5.5,0,0,1,.042.1,1.89,1.89,0,0,0,1.768,1.464A2.323,2.323,0,0,1,140.455,249.512Zm-.931,1.342v-.145c0-.712-.085-.8-.8-.947a5.005,5.005,0,0,1-1.463-.36,1.371,1.371,0,0,0-1.469.019c-.062.034-.134.053-.2.083a1.162,1.162,0,0,0-.719,1.045,5.3,5.3,0,0,0,0,.688,2.329,2.329,0,0,0,3.01,2.113A2.393,2.393,0,0,0,139.524,250.854Zm1.324,5.312-.041-.125c-.4-.062-.809-.114-1.209-.194a.433.433,0,0,0-.488.179,2.406,2.406,0,0,1-3.664.166.793.793,0,0,0-.886-.308c-.324.084-.661.119-1.081.191A10.133,10.133,0,0,0,137.066,258a.62.62,0,0,0,.385-.037c.71-.3,1.426-.593,2.111-.944A13.386,13.386,0,0,0,140.848,256.166Zm-2.749-1.583h-1.814c-.244.59-.233.662.164.951a1.293,1.293,0,0,0,1.573-.062C138.349,255.189,138.354,255.09,138.1,254.582Z" transform="translate(-126.152 -238.258)" fill="#333" stroke="#333" stroke-width="0.2"/>
    <path id="Path_342" data-name="Path 342" d="M137.336,260.508v1.109h-1.129v-1.109Z" transform="translate(-123.391 -231.366)" fill="#333" stroke="#333" stroke-width="0.2"/>
    <path id="Path_343" data-name="Path 343" d="M137.317,263.35h-1.106v-1.126h1.106Z" transform="translate(-123.39 -230.754)" fill="#333" stroke="#333" stroke-width="0.2"/>
  </g>
</svg>
