<svg xmlns="http://www.w3.org/2000/svg" width="28.5" height="28.496" viewBox="0 0 28.5 28.496">
  <g id="Group_94" data-name="Group 94" transform="translate(0.25 0.25)">
    <path id="Path_87" data-name="Path 87" d="M110.426,219.819c-.272.718-.917.733-1.528.814-.694.092-1.388.186-2.081.287a.262.262,0,0,0-.184.124,4.375,4.375,0,0,0-.185.683c-.011.06.068.158.13.208.679.537,1.362,1.068,2.045,1.6a1.017,1.017,0,0,1,.3,1.5c-.258.45-.515.9-.78,1.347a.975.975,0,0,1-1.328.447c-.819-.328-1.637-.655-2.451-.994-.171-.071-.261-.02-.4.084A.739.739,0,0,0,103.74,227c.328.667.571,1.376.847,2.068a.976.976,0,0,1-.455,1.325q-.705.417-1.418.819a.975.975,0,0,1-1.357-.265q-.823-1.039-1.631-2.089a.3.3,0,0,0-.381-.135c-.657.193-.651.185-.739.859-.1.758-.21,1.514-.324,2.269a.957.957,0,0,1-.948.818q-.9.008-1.8,0a.95.95,0,0,1-.958-.837q-.2-1.35-.38-2.7c-.022-.17-.094-.23-.25-.3a.765.765,0,0,0-1.086.358c-.4.6-.873,1.143-1.318,1.709a1,1,0,0,1-1.461.276c-.457-.263-.916-.526-1.37-.794a.969.969,0,0,1-.442-1.306c.327-.819.654-1.637.994-2.451.075-.18.021-.275-.088-.425-.309-.427-.634-.422-1.082-.209-.671.32-1.376.571-2.068.846a.969.969,0,0,1-1.306-.446q-.424-.717-.833-1.442a.97.97,0,0,1,.258-1.336c.7-.554,1.4-1.106,2.112-1.647a.3.3,0,0,0,.123-.386c-.193-.638-.186-.636-.868-.73q-1.122-.154-2.242-.32a.954.954,0,0,1-.834-.962q-.007-.9,0-1.8a.946.946,0,0,1,.82-.945c.891-.133,1.782-.261,2.676-.376.2-.025.269-.1.351-.291.211-.482.062-.757-.355-1.039-.6-.407-1.156-.887-1.729-1.337a1,1,0,0,1-.278-1.439c.263-.458.525-.916.793-1.37a.973.973,0,0,1,1.326-.453c.81.324,1.62.648,2.426.983a.389.389,0,0,0,.449-.085.726.726,0,0,0,.207-1.059c-.324-.669-.57-1.377-.846-2.069a.971.971,0,0,1,.448-1.326c.471-.277.944-.549,1.418-.821a.973.973,0,0,1,1.358.256q.833,1.049,1.648,2.111a.281.281,0,0,0,.363.121c.658-.2.656-.192.746-.883.087-.668.2-1.332.275-2a1.2,1.2,0,0,1,.755-1.069h2.3a1.084,1.084,0,0,1,.708.826c.109.747.221,1.494.321,2.242.094.7.09.69.746.881a.282.282,0,0,0,.363-.118q.813-1.063,1.647-2.111a.973.973,0,0,1,1.357-.258q.712.4,1.418.819a.974.974,0,0,1,.451,1.326c-.276.692-.519,1.4-.847,2.068a.739.739,0,0,0,.225,1.079.352.352,0,0,0,.4.081c.814-.338,1.633-.666,2.451-.994a.973.973,0,0,1,1.326.449c.265.446.522.9.78,1.347a1.017,1.017,0,0,1-.3,1.5c-.675.527-1.351,1.052-2.022,1.584-.07.055-.161.158-.151.224a4.007,4.007,0,0,0,.184.682.264.264,0,0,0,.184.124c.693.1,1.387.195,2.081.287.611.082,1.257.1,1.528.814Zm-21.675,5.067a3.764,3.764,0,0,1,.555.3,5.4,5.4,0,0,1,.508.5.9.9,0,0,1,.247,1.156c-.329.818-.653,1.638-1,2.45-.088.21-.066.322.141.432.433.231.859.478,1.277.735a.257.257,0,0,0,.408-.072c.553-.724,1.123-1.435,1.679-2.156a.893.893,0,0,1,1.039-.336c.21.059.421.114.631.171a.916.916,0,0,1,.761.876c.119.883.254,1.765.37,2.649.025.192.091.271.29.268q.765-.014,1.531,0c.2,0,.266-.073.291-.267.115-.884.251-1.765.37-2.648a.914.914,0,0,1,.759-.877c.2-.054.4-.106.606-.162a.878.878,0,0,1,1.081.349c.558.708,1.117,1.416,1.664,2.133a.258.258,0,0,0,.409.074c.42-.255.845-.5,1.278-.735.206-.111.228-.224.14-.434-.348-.829-.675-1.668-1.016-2.5a.885.885,0,0,1,.229-1.066c.145-.138.287-.28.427-.424a.9.9,0,0,1,1.176-.253c.809.326,1.623.641,2.424.985.245.1.352.047.467-.171.217-.41.451-.811.7-1.2.126-.2.118-.32-.084-.473-.719-.543-1.421-1.11-2.134-1.662a.887.887,0,0,1-.332-1.017c.057-.211.115-.421.172-.631a.922.922,0,0,1,.894-.775c.884-.118,1.764-.255,2.648-.37.2-.026.257-.116.254-.3q-.011-.751,0-1.5c0-.185-.046-.277-.252-.3-.893-.115-1.783-.251-2.676-.373a.907.907,0,0,1-.86-.745c-.057-.211-.109-.422-.171-.631a.9.9,0,0,1,.342-1.061c.715-.55,1.417-1.116,2.135-1.662a.27.27,0,0,0,.078-.43c-.258-.418-.5-.845-.735-1.277-.105-.194-.215-.218-.415-.135-.829.348-1.667.677-2.5,1.018a.9.9,0,0,1-1.09-.234c-.136-.147-.28-.287-.424-.426a.892.892,0,0,1-.25-1.155c.33-.818.65-1.639,1-2.449.1-.235.042-.337-.164-.448-.417-.223-.827-.461-1.229-.71a.283.283,0,0,0-.451.08c-.545.719-1.11,1.422-1.662,2.135a.9.9,0,0,1-1.04.336c-.21-.059-.421-.115-.631-.171a.914.914,0,0,1-.76-.877c-.119-.884-.255-1.765-.37-2.648-.025-.193-.092-.271-.29-.267q-.765.014-1.531,0c-.2,0-.265.073-.291.266-.115.884-.251,1.765-.37,2.649a.915.915,0,0,1-.76.877c-.2.054-.4.106-.606.162a.88.88,0,0,1-1.081-.35c-.558-.709-1.116-1.418-1.665-2.132-.115-.149-.21-.193-.384-.087q-.653.4-1.324.764c-.183.1-.207.205-.128.394.347.83.676,1.668,1.019,2.5a.912.912,0,0,1-.239,1.114c-.14.13-.274.268-.407.4a.9.9,0,0,1-1.178.251c-.818-.33-1.638-.654-2.451-1-.2-.084-.309-.06-.414.135-.234.432-.478.859-.736,1.277a.269.269,0,0,0,.078.429c.724.552,1.435,1.122,2.155,1.68a.89.89,0,0,1,.33,1.018c-.056.211-.115.421-.171.631a.92.92,0,0,1-.9.773c-.884.118-1.765.256-2.648.37-.205.026-.256.117-.253.3q.011.752,0,1.5c0,.186.048.276.253.3.893.115,1.783.251,2.676.373a.9.9,0,0,1,.859.745c.057.211.109.422.171.631a.9.9,0,0,1-.342,1.062c-.714.55-1.417,1.115-2.135,1.662a.268.268,0,0,0-.077.429q.387.627.736,1.277c.105.2.215.218.414.135.813-.341,1.633-.667,2.451-.994C88.393,224.987,88.543,224.95,88.751,224.885Z" transform="translate(-82.426 -204.671)" fill="#333" stroke="#333" stroke-width="0.5"/>
    <path id="Path_88" data-name="Path 88" d="M100.537,228.853a5.4,5.4,0,0,1,2.374-1.692,2.353,2.353,0,0,1-.833-2.131,2.272,2.272,0,0,1,.893-1.542,2.348,2.348,0,0,1,3.143.258,2.373,2.373,0,0,1-.231,3.428,5.031,5.031,0,0,1,2.362,1.691,3.432,3.432,0,0,0,.539-1.465,10.683,10.683,0,0,0,.016-1.456c-.009-.28.082-.466.307-.5s.381.09.43.384a5.2,5.2,0,1,1-5.833-4.368,5.25,5.25,0,0,1,5.163,2.5.38.38,0,0,1-.093.556c-.195.123-.4.059-.549-.187a4.46,4.46,0,0,0-7.836,4.246C100.434,228.667,100.485,228.756,100.537,228.853Zm7.243.675a.607.607,0,0,0-.03-.076,4.082,4.082,0,0,0-6.642-.1c-.1.147-.057.223.043.326A4.4,4.4,0,0,0,105.238,231,4.277,4.277,0,0,0,107.78,229.529Zm-3.376-2.592a1.6,1.6,0,1,0-1.611-1.586A1.608,1.608,0,0,0,104.4,226.936Z" transform="translate(-90.397 -212.624)" fill="#333" stroke="#333" stroke-width="0.5"/>
    <path id="Path_89" data-name="Path 89" d="M112.4,224.409a6.935,6.935,0,0,1-1.314,4.174.788.788,0,0,1-.161.182.363.363,0,0,1-.535-.47c.07-.128.166-.24.247-.362a6.051,6.051,0,0,0-3.984-9.3,5.926,5.926,0,0,0-4.6,1.068c-.033.024-.066.047-.1.069a.373.373,0,0,1-.539-.075.35.35,0,0,1,.1-.512,11.58,11.58,0,0,1,1.7-.936,6.766,6.766,0,0,1,9.058,5.115C112.359,223.768,112.377,224.185,112.4,224.409Z" transform="translate(-91.34 -210.856)" fill="#333" stroke="#333" stroke-width="0.5"/>
    <path id="Path_90" data-name="Path 90" d="M102.336,234.64a6.784,6.784,0,0,1-6.719-5.882,6.644,6.644,0,0,1,1.241-4.886,1.378,1.378,0,0,1,.1-.135.366.366,0,0,1,.581.446c-.038.062-.084.119-.127.179a6.048,6.048,0,0,0,4.014,9.467,5.943,5.943,0,0,0,4.493-1.106c.155-.112.327-.2.487-.07a.557.557,0,0,1,.166.367.41.41,0,0,1-.176.269,6.566,6.566,0,0,1-3.309,1.312c-.129.014-.259.032-.388.039S102.459,234.64,102.336,234.64Z" transform="translate(-88.613 -213.592)" fill="#333" stroke="#333" stroke-width="0.5"/>
  </g>
</svg>
