<svg xmlns="http://www.w3.org/2000/svg" width="34.236" height="34.235" viewBox="0 0 34.236 34.235">
  <g id="Group_215" data-name="Group 215" transform="translate(0.4 0.399)">
    <path id="Path_441" data-name="Path 441" d="M124.187,125.367h13.792a2.771,2.771,0,0,1,2.925,2.924q0,7.105,0,14.21a2.773,2.773,0,0,1-2.925,2.926H110.4a2.774,2.774,0,0,1-2.926-2.925V128.292a2.773,2.773,0,0,1,2.925-2.924Zm0,1.112q-6.879,0-13.758,0a1.807,1.807,0,0,0-1.408.559,2.1,2.1,0,0,0-.447,1.561.459.459,0,0,0,.292.476q7.507,3.867,15,7.76a.605.605,0,0,0,.635.007c2.311-1.207,4.629-2.4,6.945-3.6q4.029-2.085,8.056-4.174c.11-.057.265-.164.276-.26.172-1.51-.6-2.336-1.905-2.332C133.312,126.49,128.75,126.479,124.187,126.479Zm-3.878,9.774-11.7-6.05a1.18,1.18,0,0,0-.027.134c0,4.107-.008,8.214,0,12.321a1.657,1.657,0,0,0,1.673,1.654c.557.014,1.114-.008,1.671.009a.679.679,0,0,0,.543-.231q3-3.01,6-6.008Zm19.484-6.063-11.707,6.056c.046.058.066.088.09.112q3.9,3.9,7.806,7.8a.631.631,0,0,0,.391.153c.5.018,1,.007,1.5.007a1.721,1.721,0,0,0,1.924-1.936V130.191Zm-5.346,14.118-7.478-7.482c-.77.4-1.576.8-2.372,1.227a.793.793,0,0,1-.819,0c-.8-.426-1.6-.831-2.311-1.2l-7.45,7.452Z" transform="translate(-107.469 -111.992)" fill="#333" stroke="#333" stroke-width="0.8"/>
    <path id="Path_442" data-name="Path 442" d="M124.17,122.935H108.252c-.63,0-.783-.152-.783-.772v-9.614c0-.6.16-.757.764-.757h31.906c.6,0,.766.159.766.755q0,4.824,0,9.648c0,.575-.167.74-.746.74Zm-15.565-10.016v8.876h23.367v-8.876Zm31.163,8.888v-8.876h-6.647v8.876Z" transform="translate(-107.469 -111.791)" fill="#333" stroke="#333" stroke-width="0.8"/>
    <path id="Path_443" data-name="Path 443" d="M112.513,118.86v.764h-1.1v-.833l-.568.632-.8-.905.576-.4-.09-.139h-.782v-1.118h.836l-.625-.561.9-.8.387.577.145-.1v-.78h1.119v.771l.078.034.441-.574.884.861-.577.446.053.1h.781v1.12h-.833l.642.579-.922.769-.4-.555Z" transform="translate(-107.503 -111.842)" fill="#333" stroke="#fff" stroke-width="0.2"/>
    <path id="Path_444" data-name="Path 444" d="M118.281,116.033l.475-.573.789.808-.547.581h.825v1.117h-.836l.568.6-.771.791-.6-.567v.828h-1.115v-.836l-.6.566-.779-.783.555-.59h-.83v-1.114h.838l-.566-.6.77-.794.6.565v-.827h1.116v.761Z" transform="translate(-107.586 -111.842)" fill="#333" stroke="#fff" stroke-width="0.2"/>
    <path id="Path_445" data-name="Path 445" d="M124.429,119.382l-.474-.6-.106.058v.777H122.73v-.846l-.629.59-.806-.806.6-.469-.055-.1h-.779V116.87h.847l-.588-.626.8-.8.47.6.108-.06v-.775h1.119v.848l.609-.574.782.781-.558.593h.83v1.1h-.845l.591.629Z" transform="translate(-107.67 -111.842)" fill="#333" stroke="#fff" stroke-width="0.2"/>
    <path id="Path_446" data-name="Path 446" d="M127.555,117.966h-.83v-1.1h.757l.044-.07-.61-.45.861-.867.585.551v-.821h1.115v.756l.07.045.453-.617.862.869-.549.582h.82v1.116h-.753l-.043.068.6.454-.856.868-.587-.555v.822h-1.116v-.753l-.064-.039-.466.592-.859-.843Z" transform="translate(-107.754 -111.842)" fill="#333" stroke="#fff" stroke-width="0.2"/>
    <path id="Path_447" data-name="Path 447" d="M137.029,118.587c0,.18,0,.322,0,.464a.474.474,0,0,1-.305.49.487.487,0,0,1-.566-.123l-1.27-1.27c-.219-.219-.442-.434-.655-.659a.489.489,0,0,1-.017-.763c.643-.655,1.3-1.3,1.947-1.95a.482.482,0,0,1,.567-.117.476.476,0,0,1,.3.494c0,.141,0,.283,0,.458.488,0,.949,0,1.411,0,.392,0,.571.175.573.561q.007.929,0,1.857a.488.488,0,0,1-.547.555C138,118.591,137.538,118.587,137.029,118.587Z" transform="translate(-107.556 -111.527)" fill="#333" stroke="#fff" stroke-width="0.9"/>
  </g>
</svg>
