<svg xmlns="http://www.w3.org/2000/svg" width="45.152" height="32.556" viewBox="0 0 45.152 32.556">
  <g id="Group_79" data-name="Group 79" transform="translate(0.097 0.1)">
    <path id="Path_3" data-name="Path 3" d="M61.211,190.582H75.739c.881,0,1.064.18,1.064,1.048q0,9.459,0,18.918c0,.871-.182,1.05-1.062,1.05H46.64c-.851,0-1.042-.188-1.042-1.026q0-9.481,0-18.963c0-.839.192-1.028,1.04-1.028Zm-.686,1.383H46.989v18.252H60.525V203c0-.132-.007-.264.005-.395a.673.673,0,1,1,1.345.022c.009.116,0,.234,0,.351q0,3.358,0,6.716v.512H75.42V191.972H61.879v.559q0,3.446,0,6.891c0,.523-.283.854-.688.845s-.647-.324-.663-.827c0-.1,0-.2,0-.307v-7.17Z" transform="translate(-38.721 -187.462)" fill="#333" stroke="#333" stroke-width="0.2"/>
    <path id="Path_4" data-name="Path 4" d="M73.729,217.244c1.012,0,1.961,0,2.911,0,.627,0,.858.22.847.838a19.484,19.484,0,0,1-.1,2.842,3.341,3.341,0,0,1-3.217,2.727q-.263.012-.527.012-18.636,0-37.273.008a3.678,3.678,0,0,1-3.093-1.341,3.257,3.257,0,0,1-.741-2.065q0-1.119,0-2.239c0-.537.239-.778.773-.782.977-.006,1.955,0,2.987,0v-2.133c0-.161,0-.322,0-.483.011-.5.275-.812.675-.8a.7.7,0,0,1,.647.789c.006.717,0,1.434,0,2.151v.473H49.854c.719,0,.846.106.985.819a1.192,1.192,0,0,0,1.241,1.076q2.941.036,5.883,0A1.2,1.2,0,0,0,59.2,218c.112-.622.273-.761.9-.761H72.4v-.534q0-8.495,0-16.99a2.165,2.165,0,0,1,.012-.438.627.627,0,0,1,.672-.563.6.6,0,0,1,.63.6,4.758,4.758,0,0,1,.009.483q0,8.429,0,16.859Zm2.478,1.366a2.634,2.634,0,0,0-.279-.037q-7.593,0-15.186.011a.557.557,0,0,0-.385.293,2.54,2.54,0,0,1-2.373,1.593q-2.984.04-5.969,0a2.412,2.412,0,0,1-2.281-1.506.563.563,0,0,0-.609-.4q-7.4.018-14.791.008h-.486c0,.449.024.831,0,1.208a2.331,2.331,0,0,0,2.549,2.576c12.407-.033,24.814-.018,37.22-.018.146,0,.293,0,.439,0a2.066,2.066,0,0,0,2.034-1.67A17.91,17.91,0,0,0,76.207,218.61Z" transform="translate(-32.533 -191.316)" fill="#333" stroke="#333" stroke-width="0.2"/>
    <path id="Path_5" data-name="Path 5" d="M58.391,184.655q7.331,0,14.662,0a3.7,3.7,0,0,1,3.88,2.714,10.211,10.211,0,0,1,.151,2.479c0,.365-.3.553-.678.527a.61.61,0,0,1-.609-.626c-.026-.423,0-.848-.009-1.273a2.455,2.455,0,0,0-2.467-2.491q-14.925-.008-29.85,0A2.454,2.454,0,0,0,41,188.523q0,7.9,0,15.8c0,.117,0,.234,0,.351-.006.538-.255.845-.679.836s-.643-.288-.644-.818q0-4.412,0-8.823c0-2.444-.011-4.888,0-7.331a3.76,3.76,0,0,1,3.086-3.819,5.6,5.6,0,0,1,1.092-.064Q51.126,184.651,58.391,184.655Z" transform="translate(-35.916 -184.654)" fill="#333" stroke="#333" stroke-width="0.2"/>
    <path id="Path_6" data-name="Path 6" d="M84.4,206.844q2.347,0,4.694,0c.663,0,.873.2.877.858q.011,1.469,0,2.939c-.006.611-.246.847-.861.848q-4.716.006-9.432,0c-.612,0-.85-.239-.855-.854q-.013-1.469,0-2.94c0-.651.216-.852.883-.853Q82.058,206.841,84.4,206.844Zm4.211,1.355H80.2v1.9h8.417Z" transform="translate(-54.459 -195.165)" fill="#333" stroke="#333" stroke-width="0.2"/>
    <path id="Path_7" data-name="Path 7" d="M81.275,195.461c.541,0,1.082-.011,1.623,0,.516.014.754.242.762.76q.022,1.557,0,3.114a.677.677,0,0,1-.761.767q-1.667.024-3.333,0a.657.657,0,0,1-.734-.743q-.023-1.578,0-3.157c.008-.515.244-.728.776-.74C80.163,195.451,80.719,195.461,81.275,195.461Zm-1.081,3.267h2.088v-1.9H80.194Z" transform="translate(-54.458 -189.771)" fill="#333" stroke="#333" stroke-width="0.2"/>
    <path id="Path_8" data-name="Path 8" d="M93.251,195.461c.541,0,1.082-.01,1.623,0s.773.233.779.783q.019,1.535,0,3.07c-.006.545-.237.783-.779.789q-1.645.021-3.29,0a.677.677,0,0,1-.761-.766q-.021-1.557,0-3.114c.007-.519.243-.746.76-.76C92.14,195.449,92.7,195.461,93.251,195.461Zm-1.05,1.358v1.918h2.073v-1.918Z" transform="translate(-60.139 -189.771)" fill="#333" stroke="#333" stroke-width="0.2"/>
    <path id="Path_9" data-name="Path 9" d="M84.417,224.592q-2.281,0-4.562,0a3.028,3.028,0,0,1-.437-.02.651.651,0,0,1-.114-1.26,1.545,1.545,0,0,1,.473-.058q4.649,0,9.3,0a1.454,1.454,0,0,1,.512.077.65.65,0,0,1-.128,1.233,2.922,2.922,0,0,1-.481.027Q86.7,224.593,84.417,224.592Z" transform="translate(-54.478 -202.936)" fill="#333" stroke="#333" stroke-width="0.2"/>
    <path id="Path_10" data-name="Path 10" d="M84.464,218.215q2.346,0,4.693,0c.529,0,.811.224.822.637.011.428-.289.678-.828.678q-4.736,0-9.472,0c-.518,0-.811-.233-.823-.641-.013-.429.282-.674.828-.675Q82.075,218.212,84.464,218.215Z" transform="translate(-54.474 -200.551)" fill="#333" stroke="#333" stroke-width="0.2"/>
    <path id="Path_11" data-name="Path 11" d="M61.25,203.813c-.027.091-.061.233-.114.367q-1.226,3.092-2.458,6.181c-.178.447-.475.646-.816.563a.652.652,0,0,1-.474-.889q1.293-3.3,2.627-6.585a.583.583,0,0,1,.721-.36A.651.651,0,0,1,61.25,203.813Z" transform="translate(-44.282 -193.376)" fill="#333" stroke="#333" stroke-width="0.2"/>
    <path id="Path_12" data-name="Path 12" d="M53.437,210.242c-.159.175-.3.463-.5.513a.828.828,0,0,1-.726-.188,27.369,27.369,0,0,1-1.381-2.381.761.761,0,0,1,.066-.609c.382-.688.8-1.359,1.212-2.027a.664.664,0,1,1,1.134.683c-.282.494-.6.966-.867,1.469a.678.678,0,0,0-.006.539c.248.494.549.962.821,1.444C53.276,209.834,53.332,210,53.437,210.242Z" transform="translate(-41.182 -194.375)" fill="#333" stroke="#333" stroke-width="0.2"/>
    <path id="Path_13" data-name="Path 13" d="M67.245,205.2a1.527,1.527,0,0,1,.447.356c.432.658.849,1.328,1.214,2.025a.964.964,0,0,1,.01.767c-.367.728-.794,1.426-1.216,2.126a.661.661,0,1,1-1.147-.654,5.991,5.991,0,0,1,.553-.942,1.227,1.227,0,0,0,0-1.769,4.554,4.554,0,0,1-.582-.974C66.3,205.687,66.606,205.213,67.245,205.2Z" transform="translate(-48.599 -194.385)" fill="#333" stroke="#333" stroke-width="0.2"/>
  </g>
</svg>
