<svg xmlns="http://www.w3.org/2000/svg" width="29.91" height="34.036" viewBox="0 0 29.91 34.036">
  <g id="Group_185" data-name="Group 185" transform="translate(0.299 0.3)">
    <path id="Path_366" data-name="Path 366" d="M58.041,126.519a2.23,2.23,0,0,1-2.026.986c-2.317-.023-4.636-.008-6.953-.008-.586,0-.806-.215-.806-.809q0-7.866,0-15.734c0-.607.221-.821.828-.821,2.308,0,4.615.011,6.921-.007a2.241,2.241,0,0,1,1.894.8,12.775,12.775,0,0,0,2.584-2.087,13.443,13.443,0,0,0,2.94-4.875c.138-.388.282-.776.443-1.155a3.061,3.061,0,0,1,3.9-1.683,3.019,3.019,0,0,1,1.859,3.756c-.538,1.649-1.153,3.274-1.735,4.911-.035.1-.064.2-.109.345h.378c2.187,0,4.374,0,6.561,0a2.588,2.588,0,0,1,2.6,1.614,2.556,2.556,0,0,1-.591,2.969c-.021.023-.037.053-.071.1a2.7,2.7,0,0,1-.006,4,2.736,2.736,0,0,1,.891,2,2.706,2.706,0,0,1-.89,2c.082.092.157.171.226.254a2.553,2.553,0,0,1,.434,2.831,2.5,2.5,0,0,1-2.417,1.583c-4.211.012-8.422,0-12.633,0a9.556,9.556,0,0,1-3.644-.756C58.434,126.667,58.252,126.6,58.041,126.519Zm-8.454-.325h6.492c.675,0,.944-.273.944-.952,0-1.284,0-2.568,0-3.852a1.187,1.187,0,0,1,.037-.353.648.648,0,0,1,1.263.237c0,1.219,0,2.437.009,3.655,0,.116.063.3.149.337a9.121,9.121,0,0,0,3.638.918q6.364.021,12.73,0a1.635,1.635,0,0,0,.841-.288,1.276,1.276,0,0,0,.466-1.479A1.3,1.3,0,0,0,74.9,123.5c-1.61-.007-3.22,0-4.831-.006a1.664,1.664,0,0,1-.45-.051.621.621,0,0,1-.448-.643.607.607,0,0,1,.473-.592,1.611,1.611,0,0,1,.419-.042c1.534,0,3.068,0,4.6,0a2.276,2.276,0,0,0,.612-.062,1.329,1.329,0,0,0,.939-1.46,1.365,1.365,0,0,0-1.359-1.169c-.827-.012-1.654,0-2.481,0-.848,0-1.7,0-2.547,0a.64.64,0,0,1-.657-.559.653.653,0,0,1,.45-.71,1.272,1.272,0,0,1,.354-.032q2.4,0,4.8,0A1.366,1.366,0,0,0,76,117.548a1.27,1.27,0,0,0,.069-1.362,1.227,1.227,0,0,0-1.126-.711c-1.632-.011-3.264-.006-4.9-.009a1.471,1.471,0,0,1-.419-.048.644.644,0,0,1,.037-1.242,1.953,1.953,0,0,1,.453-.04c1.578,0,3.155,0,4.733,0a1.33,1.33,0,0,0,1.365-1.509,1.385,1.385,0,0,0-1.481-1.184c-2.568,0-5.136-.02-7.7.012a.741.741,0,0,1-.764-1.083c.722-1.908,1.392-3.834,2.067-5.759a1.755,1.755,0,1,0-3.3-1.2c-.125.311-.25.625-.361.942a14.394,14.394,0,0,1-6.165,7.753.5.5,0,0,0-.177.366c-.014,1.1-.007,2.2-.009,3.3,0,.483-.244.764-.652.763s-.652-.284-.652-.765c0-1.121,0-2.241,0-3.362,0-.7-.261-.96-.97-.96q-3.067,0-6.136,0c-.105,0-.211.009-.33.015Z" transform="translate(-48.255 -94.069)" fill="#333" stroke="#333" stroke-width="0.6"/>
    <path id="Path_367" data-name="Path 367" d="M64.834,97.3c0,.489.007.978,0,1.467-.008.464-.25.732-.646.736a.664.664,0,0,1-.67-.751q-.005-1.467,0-2.934a.67.67,0,0,1,.67-.754c.394,0,.638.273.646.737C64.841,96.3,64.834,96.8,64.834,97.3Z" transform="translate(-45.665 -95.064)" fill="#333" stroke="#333" stroke-width="0.6"/>
    <path id="Path_368" data-name="Path 368" d="M59.151,98.489a2.385,2.385,0,0,1,.413-.509.538.538,0,0,1,.7.056q.714.67,1.386,1.383a.648.648,0,0,1-.915.911c-.476-.444-.932-.914-1.381-1.386A1.7,1.7,0,0,1,59.151,98.489Z" transform="translate(-46.406 -94.586)" fill="#333" stroke="#333" stroke-width="0.6"/>
    <path id="Path_369" data-name="Path 369" d="M69.435,98.491a2.853,2.853,0,0,1-.306.535c-.4.426-.819.838-1.24,1.245a.656.656,0,0,1-.933.03.643.643,0,0,1,.011-.954c.415-.428.841-.847,1.266-1.266a.574.574,0,0,1,.716-.122A2.571,2.571,0,0,1,69.435,98.491Z" transform="translate(-45.116 -94.586)" fill="#333" stroke="#333" stroke-width="0.6"/>
    <path id="Path_370" data-name="Path 370" d="M51.9,120.163a.627.627,0,0,1,.654-.655.637.637,0,0,1,.649.632.652.652,0,0,1-.643.676A.637.637,0,0,1,51.9,120.163Z" transform="translate(-47.637 -90.915)" fill="#333" stroke="#333" stroke-width="0.6"/>
    <path id="Path_371" data-name="Path 371" d="M57.054,116.18a.651.651,0,0,1-1.3-.014.673.673,0,0,1,.66-.662A.663.663,0,0,1,57.054,116.18Z" transform="translate(-46.983 -91.594)" fill="#333" stroke="#333" stroke-width="0.6"/>
  </g>
</svg>
