<svg xmlns="http://www.w3.org/2000/svg" width="33.822" height="33.836" viewBox="0 0 33.822 33.836">
  <g id="Group_115" data-name="Group 115" transform="translate(0.2 0.2)">
    <path id="Path_133" data-name="Path 133" d="M105.963,210.456h31.2V194.578c0-.66-.161-.821-.82-.822-.256,0-.51,0-.766,0-.434,0-.644-.182-.649-.547s.205-.56.632-.564c.359,0,.72,0,1.079,0a1.66,1.66,0,0,1,1.636,1.646c0,.058,0,.116,0,.174q0,9.87,0,19.739a1.673,1.673,0,0,1-1.833,1.835H106.675a1.672,1.672,0,0,1-1.823-1.81V194.455a1.669,1.669,0,0,1,1.822-1.81c.325,0,.65-.007.975,0a.554.554,0,0,1-.009,1.108c-.325.008-.65,0-.975,0-.5.005-.693.2-.7.7,0,.047,0,.093,0,.14v15.862Zm0,1.134v2.459c0,.732.142.875.872.875h29.454c.07,0,.14,0,.209,0,.453-.012.658-.21.662-.665.005-.824,0-1.648,0-2.472a1.12,1.12,0,0,0-.035-.2Z" transform="translate(-104.852 -189.288)" fill="#333" stroke="#333" stroke-width="0.4"/>
    <path id="Path_134" data-name="Path 134" d="M134.17,193.778H111.887v.42q0,6.684,0,13.369c0,.455-.186.678-.556.678a.525.525,0,0,1-.553-.5c-.008-.092,0-.186,0-.278,0-5.814.014-11.629-.014-17.443a1.814,1.814,0,0,1,1.854-1.839c6.951.027,13.9.014,20.854.014a1.669,1.669,0,0,1,1.814,1.818q0,8.774,0,17.547,0,.736-.609.689a.491.491,0,0,1-.5-.48,3.826,3.826,0,0,1,0-.383q0-6.581,0-13.16Zm0-1.139c0-.849,0-1.659,0-2.47,0-.711-.148-.862-.848-.862H121.909q-4.645,0-9.29,0c-.541,0-.729.192-.732.734,0,.5,0,1,0,1.5v1.1Z" transform="translate(-106.318 -188.181)" fill="#333" stroke="#333" stroke-width="0.4"/>
    <path id="Path_135" data-name="Path 135" d="M120.959,227.436h7.129c-.126-.168-.246-.312-.348-.468-.184-.28-.371-.56-.532-.854-.211-.386-.138-.7.174-.869s.57-.017.823.341a20.636,20.636,0,0,0,1.309,1.653.934.934,0,0,0,.546.211c.331.047.679-.005,1,.071a1.621,1.621,0,0,1,1.244,1.6c0,.347,0,.7,0,1.044-.005.422-.2.629-.611.629q-7.186,0-14.373,0c-.408,0-.6-.211-.61-.631q-.007-.522,0-1.044a1.6,1.6,0,0,1,1.687-1.641,1.742,1.742,0,0,0,1.673-.8c.263-.35.514-.714.742-1.088s.507-.51.819-.342.39.488.171.869C121.541,226.562,121.246,226.988,120.959,227.436Zm10.211,2.237c.074-.956-.06-1.1-.965-1.1H119.283c-.29,0-.58,0-.87,0a.541.541,0,0,0-.58.489,4.273,4.273,0,0,0-.005.613Z" transform="translate(-107.793 -197.361)" fill="#333" stroke="#333" stroke-width="0.4"/>
    <path id="Path_136" data-name="Path 136" d="M124.668,209.709c-.432-.01-.65-.353-.5-.814.374-1.144.756-2.284,1.138-3.425q1.065-3.194,2.13-6.387c.081-.244.185-.455.462-.509a.56.56,0,0,1,.626.791c-.3.936-.619,1.867-.93,2.8q-1.156,3.475-2.313,6.949C125.18,209.418,125.079,209.723,124.668,209.709Z" transform="translate(-109.634 -190.757)" fill="#333" stroke="#333" stroke-width="0.4"/>
    <path id="Path_137" data-name="Path 137" d="M117.412,204.882c.927.771,1.826,1.5,2.7,2.262a.9.9,0,0,1,.323.6c-.015.486-.556.656-.957.326-.983-.812-1.945-1.65-2.945-2.44-.736-.581-.759-.9-.005-1.5,1-.789,1.963-1.627,2.942-2.444a.558.558,0,0,1,.7-.068.507.507,0,0,1,.22.637,1.068,1.068,0,0,1-.324.392c-.823.7-1.652,1.385-2.479,2.076C117.54,204.765,117.491,204.811,117.412,204.882Z" transform="translate(-107.611 -191.491)" fill="#333" stroke="#333" stroke-width="0.4"/>
    <path id="Path_138" data-name="Path 138" d="M135.269,204.869c-.924-.771-1.817-1.51-2.7-2.26a.94.94,0,0,1-.3-.406.491.491,0,0,1,.25-.593.572.572,0,0,1,.7.087q1.227,1.026,2.456,2.05c.25.208.5.413.747.624a.577.577,0,0,1,.014,1q-1.61,1.353-3.233,2.692a.566.566,0,1,1-.714-.868c.843-.708,1.692-1.41,2.537-2.116C135.1,205.017,135.171,204.957,135.269,204.869Z" transform="translate(-111.646 -191.492)" fill="#333" stroke="#333" stroke-width="0.4"/>
    <path id="Path_139" data-name="Path 139" d="M126.54,220.429c-.359,0-.717.005-1.076,0a.545.545,0,0,1-.6-.538.555.555,0,0,1,.606-.568q1.093-.009,2.186,0a.552.552,0,0,1,.595.545.541.541,0,0,1-.6.562C127.281,220.432,126.911,220.429,126.54,220.429Z" transform="translate(-109.819 -195.907)" fill="#333" stroke="#333" stroke-width="0.4"/>
    <path id="Path_140" data-name="Path 140" d="M133.948,191.164q1.6,0,3.2,0c.447,0,.684.2.683.557s-.238.553-.686.553q-3.22,0-6.438,0c-.462,0-.677-.178-.676-.553s.226-.556.679-.557Q132.329,191.162,133.948,191.164Z" transform="translate(-111.1 -188.921)" fill="#333" stroke="#333" stroke-width="0.4"/>
    <path id="Path_141" data-name="Path 141" d="M114.854,191.724a.555.555,0,1,1-.541-.559A.546.546,0,0,1,114.854,191.724Z" transform="translate(-107.058 -188.921)" fill="#333" stroke="#333" stroke-width="0.4"/>
    <path id="Path_142" data-name="Path 142" d="M117.236,192.274a.555.555,0,1,1,.581-.52A.546.546,0,0,1,117.236,192.274Z" transform="translate(-107.794 -188.921)" fill="#333" stroke="#333" stroke-width="0.4"/>
    <path id="Path_143" data-name="Path 143" d="M120.219,192.274a.555.555,0,1,1,.562-.539A.545.545,0,0,1,120.219,192.274Z" transform="translate(-108.53 -188.921)" fill="#333" stroke="#333" stroke-width="0.4"/>
  </g>
</svg>
