<svg xmlns="http://www.w3.org/2000/svg" width="31.857" height="29.052" viewBox="0 0 31.857 29.052">
  <g id="Group_210" data-name="Group 210" transform="translate(0.15 0.148)">
    <path id="Path_426" data-name="Path 426" d="M137.62,235.638c-.67.524-1.27.99-1.867,1.46q-3.975,3.124-7.95,6.249a2.572,2.572,0,0,1-3.567,0q-3.456-2.714-6.915-5.428a8.489,8.489,0,0,0-.732-.45,7.708,7.708,0,0,0-1.255.782,1.946,1.946,0,0,0-.383,2.13,2,2,0,0,0,.233.5c1.065,1.843,2.138,3.681,3.2,5.526a2.585,2.585,0,0,0,1.162,1.057,1.535,1.535,0,0,0,1.614-.063c.3-.2.621-.359.931-.539a2.99,2.99,0,0,1,3.976.481,7.7,7.7,0,0,1,1.026,1.221,12.614,12.614,0,0,1,2.022,3.812,4.485,4.485,0,0,1,.12,1.3,1.621,1.621,0,0,1-.851,1.312,9.327,9.327,0,0,1-6.1,1.432,10.372,10.372,0,0,1-5.365-2.257,13.618,13.618,0,0,1-3.368-3.712c-1.482-2.457-2.934-4.932-4.319-7.445a13.209,13.209,0,0,1-1.655-5.965,9.5,9.5,0,0,1,3.975-8.386,7.387,7.387,0,0,1,1.351-.778,1.874,1.874,0,0,1,2.058.418,7.518,7.518,0,0,1,1.808,2.312c.36.659.68,1.341,1.034,2a.575.575,0,0,0,.3.2.957.957,0,0,0,.31.007q9.09,0,18.18.005a4,4,0,0,1,1.03.112,1.916,1.916,0,0,1,1.5,1.96c.007,1.507,0,3.012,0,4.519q0,4.45,0,8.9a2.059,2.059,0,0,1-2.18,2.2q-3.39.008-6.779,0c-.531,0-.858-.284-.863-.738,0-.472.32-.769.874-.77q3.251-.006,6.5,0c.139,0,.279,0,.416-.01a.508.508,0,0,0,.521-.568c.006-.232,0-.463,0-.695v-12.1Zm-14.31,19.35a7.977,7.977,0,0,0,3.952-1.09c.568-.343.576-.335.443-.984-.011-.056-.033-.111-.049-.166a11.9,11.9,0,0,0-1.878-3.42,6.82,6.82,0,0,0-1.111-1.184,1.232,1.232,0,0,0-1.6-.108,13.462,13.462,0,0,1-1.3.739,3.029,3.029,0,0,1-1.006.343,3.623,3.623,0,0,1-3.635-1.88c-1.1-1.823-2.133-3.684-3.218-5.515a3.994,3.994,0,0,1-.592-2.452,3,3,0,0,1,1.529-2.532c.363-.2.721-.415,1.082-.624.878-.506,1.082-.914.807-1.889a12.069,12.069,0,0,0-2.376-4.43,2.522,2.522,0,0,0-.587-.48.4.4,0,0,0-.343-.013,8.123,8.123,0,0,0-1.073.635,7.808,7.808,0,0,0-3.276,6.366,12.437,12.437,0,0,0,1.709,6.429c1.225,2.191,2.5,4.353,3.778,6.515a13.333,13.333,0,0,0,2.6,3.151A9.188,9.188,0,0,0,123.31,254.988Zm-5.48-18.557c.135.094.253.168.361.254q3.456,2.712,6.908,5.429a1.188,1.188,0,0,0,1.819.008q4.3-3.376,8.6-6.755c.414-.324.825-.653,1.294-1.024h-18.51A2.945,2.945,0,0,1,117.83,236.431Z" transform="translate(-107.574 -227.718)" fill="#333" stroke="#333" stroke-width="0.3"/>
  </g>
</svg>
