<svg xmlns="http://www.w3.org/2000/svg" width="33.742" height="33.736" viewBox="0 0 33.742 33.736">
  <g id="Group_214" data-name="Group 214" transform="translate(0.15 0.149)">
    <path id="Path_438" data-name="Path 438" d="M13.063,95.475a.815.815,0,0,1-.463-.852c.023-.75.006-1.5.007-2.252a4.008,4.008,0,0,1,3.35-4.022.635.635,0,0,0,.115-.053,4.012,4.012,0,0,1-.53-2.943,3.1,3.1,0,0,1,6.071-.337,4.89,4.89,0,0,1-.449,3.3A4.141,4.141,0,0,1,23.951,90.1a4.125,4.125,0,0,1,2.742-1.758,8.634,8.634,0,0,1-.45-1.447,3.528,3.528,0,0,1,1.073-3.475,3.093,3.093,0,0,1,5.079,2.2,3.812,3.812,0,0,1-.572,2.693,4.163,4.163,0,0,1,2.818,1.77,4.365,4.365,0,0,1,2.8-1.76.953.953,0,0,0-.061-.17,4.119,4.119,0,0,1-.26-3.465,3.042,3.042,0,0,1,3.312-1.976A3.089,3.089,0,0,1,43.1,85.735a7.027,7.027,0,0,1-.065,1.331,8.641,8.641,0,0,1-.421,1.234,8.629,8.629,0,0,1,1.067.375,3.994,3.994,0,0,1,2.336,3.771c.012.706-.01,1.414.007,2.122a.945.945,0,0,1-.439.908H32.067a2.151,2.151,0,0,1-.211-.149.651.651,0,0,1,.372-1.154c.13-.008.261,0,.392,0h1.36c0-.7.028-1.357-.006-2.008A2.668,2.668,0,0,0,31.347,89.6c-1.359-.028-2.72-.025-4.079,0a2.6,2.6,0,0,0-2.581,2.236,17.21,17.21,0,0,0-.019,2.331c.57,0,1.154-.01,1.739,0a.635.635,0,0,1,.559.953,2.049,2.049,0,0,1-.319.348Zm10.21-1.313c0-.739.054-1.447-.012-2.146a2.648,2.648,0,0,0-2.63-2.412c-1.349-.024-2.7-.021-4.047,0a2.679,2.679,0,0,0-2.5,1.813,9.8,9.8,0,0,0-.168,2.746Zm21.413,0c0-.638.009-1.246,0-1.853A2.7,2.7,0,0,0,41.961,89.6q-1.958-.021-3.916,0a2.67,2.67,0,0,0-2.683,2.291,15.949,15.949,0,0,0-.038,2.053,1.481,1.481,0,0,0,.03.216ZM41.8,86.2c0-.175,0-.306,0-.436A1.807,1.807,0,0,0,40.089,84,1.767,1.767,0,0,0,38.253,85.5a4.864,4.864,0,0,0-.031,1.105,1.786,1.786,0,0,0,3.164,1.02A1.958,1.958,0,0,0,41.8,86.2ZM31.12,86.147l-.029,0c0-.141,0-.283,0-.424a1.8,1.8,0,0,0-1.716-1.726,1.758,1.758,0,0,0-1.82,1.526,5.641,5.641,0,0,0,0,1.235,1.752,1.752,0,0,0,1.652,1.532,1.786,1.786,0,0,0,1.813-1.3A6.257,6.257,0,0,0,31.12,86.147ZM20.387,86.2c0-.2,0-.344,0-.485a1.777,1.777,0,0,0-3.549-.059,8.393,8.393,0,0,0,0,.945A1.776,1.776,0,0,0,19.7,87.905,1.8,1.8,0,0,0,20.387,86.2Z" transform="translate(-12.6 -62.039)" fill="#333" stroke="#333" stroke-width="0.3"/>
    <path id="Path_439" data-name="Path 439" d="M32.967,98.222c-.061-.043-.126-.082-.185-.128a.646.646,0,0,1-.089-.972.656.656,0,1,1,.892.957l-.161.143Z" transform="translate(-16.438 -64.786)" fill="#333" stroke="#333" stroke-width="0.3"/>
    <path id="Path_440" data-name="Path 440" d="M34.811,68.682c-.889,0-1.726,0-2.562.006a.287.287,0,0,0-.206.143c-.146.315-.281.635-.4.962a.335.335,0,0,0,.052.278c.152.184.338.339.5.516a.626.626,0,0,1,0,.933q-1.223,1.247-2.469,2.471a.625.625,0,0,1-.957,0c-.207-.193-.392-.408-.589-.614-.405.161-.788.3-1.161.469a.307.307,0,0,0-.117.23c-.016.227,0,.457-.008.685a.66.66,0,0,1-.674.692q-1.746.018-3.493,0a.6.6,0,0,1-.651-.69.959.959,0,0,0-.8-1.205c-.375-.119-.609-.156-.841.177a1.572,1.572,0,0,1-.276.277.62.62,0,0,1-.91.006q-1.273-1.242-2.515-2.516a.585.585,0,0,1,.021-.9,1,1,0,0,0,.284-1.494c-.165-.305-.295-.464-.639-.407a1.77,1.77,0,0,1-.358,0,.681.681,0,0,1-.746-.755q-.011-1.665,0-3.33c0-.5.278-.8.777-.748a.858.858,0,0,0,1.083-.719c.161-.562.218-.545-.2-.966-.544-.545-.543-.8.007-1.357q1.084-1.086,2.17-2.171c.4-.4.762-.434,1.114,0a.846.846,0,0,0,1.249.25c.538-.3.567-.245.568-.877,0-.728.179-.907.9-.907,1.055,0,2.111,0,3.167,0,.513,0,.811.252.755.753a.869.869,0,0,0,.743,1.1c.544.147.528.208.939-.2.555-.556.806-.559,1.358-.009Q31,59.829,32.073,60.9c.446.448.446.752,0,1.2-.489.493-.489.493-.22,1.153.252.617.252.617.933.617h3.974c-.08-.129-.136-.213-.184-.3a4.606,4.606,0,0,1-.016-4.664A3.53,3.53,0,0,1,43.1,60.571a9.55,9.55,0,0,1-.135,2.037,5.927,5.927,0,0,1-.552,1.272c.265.064.58.12.882.215a4.633,4.633,0,0,1,3.269,4.434q0,1.828,0,3.657c0,.547-.244.79-.8.79q-5.077,0-10.154,0c-.548,0-.8-.252-.8-.8q0-1.55,0-3.1Zm-6.557-.109A4.407,4.407,0,1,1,28.267,64l2.408-.18c-.157-.312-.3-.611-.455-.9a.683.683,0,0,1,.131-.94c.15-.15.321-.279.436-.379l-1.614-1.616c-.121.136-.257.308-.412.459a.7.7,0,0,1-.863.136q-.892-.389-1.8-.746a.675.675,0,0,1-.513-.7c-.006-.225,0-.45,0-.685H23.375c0,.221,0,.425,0,.629a.72.72,0,0,1-.558.775c-.585.224-1.164.466-1.738.719a.69.69,0,0,1-.888-.133,5.272,5.272,0,0,1-.389-.506l-1.637,1.646c.125.114.275.241.413.379a.716.716,0,0,1,.151.992c-.253.55-.482,1.112-.7,1.678a.71.71,0,0,1-.735.566c-.213.009-.426,0-.65,0v2.194c.23,0,.445,0,.66,0a.707.707,0,0,1,.718.543c.225.586.463,1.167.72,1.74a.7.7,0,0,1-.149.939c-.149.15-.313.285-.432.391L19.776,72.6c.131-.149.273-.329.434-.49a.673.673,0,0,1,.832-.13c.6.27,1.217.513,1.829.756a.693.693,0,0,1,.5.683c0,.226,0,.452,0,.689h2.212c0-.258,0-.486,0-.714a.665.665,0,0,1,.488-.656c.613-.243,1.228-.485,1.829-.756a.676.676,0,0,1,.834.122c.168.165.321.344.455.488l1.624-1.62a2.787,2.787,0,0,1-.32-.241c-.5-.494-.517-.636-.191-1.246.134-.249.246-.511.367-.764Zm17,3.067c0-.99.008-1.956,0-2.922a4.276,4.276,0,0,0-.1-.936A3.294,3.294,0,0,0,41.827,65.2q-5.075-.01-10.15,0c-.794,0-1.589-.007-2.382,0a1.05,1.05,0,0,0-1.045,1.068,1.082,1.082,0,0,0,1.159,1.1q2.922,0,5.842,0c.668,0,.867.2.868.878,0,1.012,0,2.024,0,3.035,0,.115.01.23.015.35h5.982v-.377c0-.75,0-1.5,0-2.251a.629.629,0,0,1,.638-.675.643.643,0,0,1,.666.685c.007.316,0,.631,0,.947V71.64ZM21.394,66.273a3.087,3.087,0,0,0,5.755,1.566.459.459,0,0,0,.031-.5,2.214,2.214,0,0,1,0-2.1.479.479,0,0,0-.038-.532,3.088,3.088,0,0,0-5.744,1.568ZM41.8,61.31c0-.239,0-.392,0-.543a2.249,2.249,0,0,0-1.962-2.21,2.2,2.2,0,0,0-2.424,1.67,6.163,6.163,0,0,0-.072,1.555,2.167,2.167,0,0,0,1.627,2.007,2.241,2.241,0,0,0,2.421-.86A2.385,2.385,0,0,0,41.8,61.31Z" transform="translate(-13.119 -57.115)" fill="#333" stroke="#333" stroke-width="0.3"/>
  </g>
</svg>
