<svg xmlns="http://www.w3.org/2000/svg" width="33.946" height="33.932" viewBox="0 0 33.946 33.932">
  <g id="Group_181" data-name="Group 181" transform="translate(0.25 0.25)">
    <path id="Path_358" data-name="Path 358" d="M78.32,49.037l.251.131a1.413,1.413,0,0,1,.855,1.319q.008,4.962,0,9.925a1.436,1.436,0,0,1-1.3,1.431,4.437,4.437,0,0,1-.488.019H64.494V64.6a1.8,1.8,0,0,1,2.338.94,1.89,1.89,0,0,1,1.408-.122,1.776,1.776,0,0,1,1.055.946,5.8,5.8,0,0,1,.852-.165,1.675,1.675,0,0,1,1.77,1.655c0,1.556.023,3.116-.082,4.665a10.094,10.094,0,0,1-1.613,4.9c-.189.29-.091.769-.109,1.162,0,.034.118.077.184.111a1.086,1.086,0,0,1,.653,1.01c.005.566.015,1.133,0,1.7a1.075,1.075,0,0,1-1.094,1.065q-3.886.008-7.771,0a1.1,1.1,0,0,1-1.115-1.093c-.02-.554-.02-1.111,0-1.664a1.163,1.163,0,0,1,.9-1.11c0-.3.017-.6-.009-.9a.59.59,0,0,0-.193-.313c-.871-.867-1.779-1.7-2.61-2.6a9.048,9.048,0,0,1-1.123-1.634c-.644-1.121-1.24-2.269-1.866-3.4a1.177,1.177,0,0,1,0-1.348,1.245,1.245,0,0,1,1.276-.466,3.91,3.91,0,0,1,2.606,1.4c.308.361.633.707,1,1.114V61.864H56.282c-.1,0-.2,0-.293-.005A.494.494,0,1,1,56,60.871c.511-.013,1.023,0,1.534-.005h3.432a1.86,1.86,0,0,1,.735-1.632,1.727,1.727,0,0,1,1.167-.33c.928.065,1.516.76,1.624,1.962h.343q6.449,0,12.9,0c.585,0,.721-.138.721-.734v-9.37c0-.6-.149-.746-.755-.746q-3.036,0-6.072,0c-.278,0-.528-.024-.641-.326s.067-.49.286-.655ZM69.114,78.593c0-.409-.012-.778.005-1.145a.8.8,0,0,1,.127-.42,8.763,8.763,0,0,0,1.618-4.778c.1-1.4.061-2.8.078-4.207a.754.754,0,0,0-.7-.855c-.444-.024-.724.24-.8.76a.49.49,0,1,1-.978-.055c-.006-.272.009-.545-.007-.816a.749.749,0,0,0-1.5-.035c-.044.334-.238.536-.507.529-.286-.006-.471-.228-.48-.582-.006-.261.012-.523-.011-.783a.727.727,0,0,0-.827-.723c-.366.031-.6.281-.662.721a.53.53,0,0,1-.531.51.518.518,0,0,1-.465-.536c-.006-.1,0-.2,0-.294q0-2.481,0-4.962a2.7,2.7,0,0,0-.025-.423.719.719,0,0,0-.9-.579c-.39.1-.566.363-.566.868q0,5.4,0,10.8c0,.28-.045.519-.343.635s-.489-.052-.671-.256q-.941-1.063-1.89-2.119a2.729,2.729,0,0,0-1.53-.873,5.894,5.894,0,0,0-.759-.047c.086.19.124.288.174.38q.932,1.718,1.869,3.434a8.862,8.862,0,0,0,1.717,2.2c.689.65,1.381,1.3,2.048,1.966a.994.994,0,0,1,.24.565,10.7,10.7,0,0,1,.011,1.111c.45,0,.872,0,1.294,0,.6,0,1.2-.012,1.8.006.432.013.685.438.43.741a.823.823,0,0,1-.559.238c-1.175.022-2.35.017-3.525.006-.242,0-.329.073-.321.315.014.424.012.849,0,1.273-.005.235.074.326.321.325q3.688-.011,7.377,0c.251,0,.319-.1.311-.331-.014-.424-.017-.849,0-1.273.011-.254-.094-.314-.326-.308-.522.013-1.045.005-1.567,0-.4,0-.64-.186-.65-.488s.237-.5.657-.508C68.42,78.59,68.755,78.593,69.114,78.593Z" transform="translate(-45.981 -49.037)" fill="#333" stroke="#333" stroke-width="0.5"/>
    <path id="Path_359" data-name="Path 359" d="M70.194,49.037c.056.063.141.117.161.19a.865.865,0,0,1,.058.486c-.055.131-.242.223-.388.292a.82.82,0,0,1-.323.009H48.283c-.691,0-.815.123-.815.814q0,4.653,0,9.306c0,.593.136.73.725.73q3.053,0,6.106,0c.138,0,.323-.015.405.062a.74.74,0,0,1,.272.488c-.017.153-.219.307-.372.416-.082.058-.232.027-.351.027-2.025,0-4.049-.023-6.073.011a1.59,1.59,0,0,1-1.7-1.69q.055-4.62,0-9.24A1.765,1.765,0,0,1,47.6,49.037Z" transform="translate(-46.475 -49.037)" fill="#333" stroke="#333" stroke-width="0.5"/>
    <path id="Path_360" data-name="Path 360" d="M54.776,58.238a3.45,3.45,0,0,1-.732-.314,1.232,1.232,0,0,0-1.612.005,1.47,1.47,0,0,1-.755.243.98.98,0,0,1-1-1.192,1.628,1.628,0,0,0-.634-2.016.909.909,0,0,1-.286-1.093,1,1,0,0,1,.914-.718,1.144,1.144,0,0,1,.191-.036A1.234,1.234,0,0,0,52.214,52.1a1.076,1.076,0,0,1,2.067.017,1.274,1.274,0,0,0,1.366,1,1.076,1.076,0,0,1,1.04.612,1.035,1.035,0,0,1-.2,1.2c-.224.237-.478.446-.691.692a.593.593,0,0,0-.127.4c.026.3.1.6.154.9A1.128,1.128,0,0,1,54.776,58.238Zm1.049-3.994-.058-.1a4.537,4.537,0,0,0-.542-.079,1.605,1.605,0,0,1-1.657-1.152,5.269,5.269,0,0,0-.326-.654c-.2.4-.369.712-.515,1.036a1.17,1.17,0,0,1-1.015.7c-.339.039-.675.1-1.057.158.294.3.544.566.8.822a1.126,1.126,0,0,1,.355,1.12c-.078.351-.115.712-.18,1.134.379-.2.691-.343.989-.515a1.171,1.171,0,0,1,1.236,0c.307.17.622.325,1,.522-.065-.384-.107-.693-.172-1a1.257,1.257,0,0,1,.424-1.347C55.363,54.692,55.589,54.462,55.826,54.244Z" transform="translate(-46.299 -48.911)" fill="#333" stroke="#333" stroke-width="0.5"/>
    <path id="Path_361" data-name="Path 361" d="M70.27,58.22a1.1,1.1,0,0,1-1.056-1.286,5.5,5.5,0,0,1,.138-.768.54.54,0,0,0-.207-.651,6.321,6.321,0,0,1-.585-.567,1.012,1.012,0,0,1-.243-1.112.925.925,0,0,1,.876-.672,1.527,1.527,0,0,0,1.64-1.178.941.941,0,0,1,.961-.651,1.039,1.039,0,0,1,.979.638,2.251,2.251,0,0,1,.2.41.918.918,0,0,0,1.006.71,2.909,2.909,0,0,1,.483.068,1.054,1.054,0,0,1,.6,1.756,9.089,9.089,0,0,1-.678.659.467.467,0,0,0-.16.49c.059.3.107.6.155.9a1,1,0,0,1-.373.985.987.987,0,0,1-1.072.153c-.317-.138-.611-.332-.929-.469a.585.585,0,0,0-.408,0c-.269.111-.517.275-.782.4A5.362,5.362,0,0,1,70.27,58.22Zm-.082-.983c.336-.174.623-.3.884-.461a1.289,1.289,0,0,1,1.469,0c.259.158.538.284.878.461-.077-.462-.135-.835-.2-1.207a1.037,1.037,0,0,1,.283-.958c.218-.228.45-.442.674-.664.069-.069.129-.148.221-.256a6.051,6.051,0,0,0-.614-.088,1.593,1.593,0,0,1-1.654-1.152,4.529,4.529,0,0,0-.333-.646c-.192.388-.358.7-.508,1.026A1.179,1.179,0,0,1,70.268,54c-.338.038-.671.1-1.06.16.3.308.554.575.817.829a1.1,1.1,0,0,1,.353,1.029C70.314,56.4,70.259,56.784,70.188,57.237Z" transform="translate(-45.283 -48.911)" fill="#333" stroke="#333" stroke-width="0.5"/>
    <path id="Path_362" data-name="Path 362" d="M60.977,58.22a1.1,1.1,0,0,1-1.041-1.265,1.126,1.126,0,0,1,.047-.255,1.234,1.234,0,0,0-.546-1.6,1.058,1.058,0,0,1-.46-.828,1.046,1.046,0,0,1,.892-1.106,4.591,4.591,0,0,1,.74-.108.624.624,0,0,0,.646-.47,5.054,5.054,0,0,1,.346-.7,1.039,1.039,0,0,1,1.836-.007,8.751,8.751,0,0,1,.438.872.419.419,0,0,0,.389.282c.3.027.6.08.9.129a1,1,0,0,1,.837.685,1.011,1.011,0,0,1-.228,1.087,8.278,8.278,0,0,1-.655.636.477.477,0,0,0-.173.516c.061.286.111.575.157.864a1.018,1.018,0,0,1-.388,1.013.99.99,0,0,1-1.074.138c-.316-.139-.611-.331-.927-.471a.524.524,0,0,0-.38,0c-.28.119-.537.286-.812.412A4.753,4.753,0,0,1,60.977,58.22Zm-.066-.981c.377-.2.681-.336.969-.505a1.2,1.2,0,0,1,1.294,0c.289.166.591.31.957.5-.064-.417-.1-.769-.177-1.112a1.151,1.151,0,0,1,.409-1.194c.255-.226.5-.46.755-.69l-.062-.091a4.971,4.971,0,0,0-.567-.083,1.58,1.58,0,0,1-1.634-1.135,5.644,5.644,0,0,0-.332-.672c-.2.4-.367.708-.514,1.028A1.171,1.171,0,0,1,61,54c-.34.04-.676.1-1.077.16l.86.867a1.064,1.064,0,0,1,.321,1.007C61.03,56.407,60.982,56.782,60.91,57.239Z" transform="translate(-45.79 -48.912)" fill="#333" stroke="#333" stroke-width="0.5"/>
  </g>
</svg>
