<svg xmlns="http://www.w3.org/2000/svg" width="38.418" height="33.865" viewBox="0 0 38.418 33.865">
  <g id="Group_212" data-name="Group 212" transform="translate(0.197 0.224)">
    <path id="Path_431" data-name="Path 431" d="M89.59,28.316a7.717,7.717,0,0,1-.373,1,3.225,3.225,0,0,1-2.93,1.819c-.667.017-1.336.016-2,0a.426.426,0,0,0-.467.3,14.327,14.327,0,0,1-7.452,7.406,17.7,17.7,0,0,1-2.13.74.366.366,0,0,0-.32.429,10.529,10.529,0,0,1-.071,1.811A3.3,3.3,0,0,1,70.276,44.5a3.386,3.386,0,0,1-3.031-3.019A3.322,3.322,0,0,1,69.913,37.9a16.236,16.236,0,0,1,1.66-.141A12.247,12.247,0,0,0,82.81,25.229a12.243,12.243,0,0,0-24.282-1.876,13.547,13.547,0,0,0,.715,7.068c.077.218.142.441.229.715h-.436c-1.373,0-2.747,0-4.121,0a3.323,3.323,0,0,1-3.345-3.345q-.007-2.21,0-4.418A3.321,3.321,0,0,1,54.926,20c.657,0,1.312-.012,1.968.006a.406.406,0,0,0,.441-.283,14.274,14.274,0,0,1,9.784-8.216,14.461,14.461,0,0,1,16.6,8,.709.709,0,0,0,.786.508,11.824,11.824,0,0,1,2.331.058,3.182,3.182,0,0,1,2.682,2.584,1.225,1.225,0,0,0,.07.167Zm-4.914.591c.577,0,1.109.025,1.638-.007a1.1,1.1,0,0,0,1.043-1.1q.022-2.228,0-4.455a1.033,1.033,0,0,0-.9-1.07,15.8,15.8,0,0,0-1.766-.015A14.868,14.868,0,0,1,84.676,28.907ZM56.48,22.23c-.576,0-1.108-.025-1.637.006a1.1,1.1,0,0,0-1.042,1.1q-.021,2.228,0,4.454a1.033,1.033,0,0,0,.9,1.069,15.8,15.8,0,0,0,1.766.015A14.874,14.874,0,0,1,56.48,22.23ZM71.692,40.051c-.415,0-.786-.021-1.152,0a1.141,1.141,0,0,0-1.073,1.152,1.153,1.153,0,0,0,1.085,1.068,1.136,1.136,0,0,0,1.136-1.089C71.709,40.819,71.692,40.449,71.692,40.051Z" transform="translate(-51.568 -11.07)" fill="#333" stroke="#fff" stroke-width="0.4"/>
    <path id="Path_432" data-name="Path 432" d="M59.385,35V32.8c.157-.031.311-.061.465-.093a2.107,2.107,0,0,0,1.24-.757c.455-.561.457-.687.052-1.277A10.036,10.036,0,1,1,69.45,35c-3.242.014-6.485.007-9.727.007Zm3.988-2.225c1.9,0,3.85.009,5.8-.006a10.282,10.282,0,0,0,1.584-.137,7.753,7.753,0,1,0-7.139-2.4.768.768,0,0,1,.187.548C63.695,31.443,63.527,32.094,63.372,32.779Z" transform="translate(-50.382 -10.482)" fill="#333" stroke="#fff" stroke-width="0.4"/>
    <path id="Path_433" data-name="Path 433" d="M63.248,24.881V22.709h2.191v2.172Z" transform="translate(-49.791 -9.3)" fill="#333" stroke="#fff" stroke-width="0.4"/>
    <path id="Path_434" data-name="Path 434" d="M69.3,24.894H67.121v-2.18H69.3Z" transform="translate(-49.202 -9.299)" fill="#333" stroke="#fff" stroke-width="0.4"/>
    <path id="Path_435" data-name="Path 435" d="M73.176,22.712V24.89H71V22.712Z" transform="translate(-48.612 -9.299)" fill="#333" stroke="#fff" stroke-width="0.4"/>
  </g>
</svg>
