<svg xmlns="http://www.w3.org/2000/svg" width="33.876" height="33.845" viewBox="0 0 33.876 33.845">
  <g id="Group_154" data-name="Group 154" transform="translate(0.202 0.208)">
    <path id="Path_306" data-name="Path 306" d="M74.112,216.533a16.715,16.715,0,0,1-15.642-22.549.837.837,0,0,0-.023-.65,15.738,15.738,0,0,1-.921-2.608,6.021,6.021,0,0,1,1.286-4.93,6.755,6.755,0,0,1,8.957-1.69.586.586,0,0,0,.57.037,16.719,16.719,0,1,1,10.865,31.613A16.619,16.619,0,0,1,74.112,216.533Zm-14.9-12.713c.039.173.058.272.085.37A15.56,15.56,0,0,0,74.4,215.3a.545.545,0,0,0,.61-.455,5.419,5.419,0,0,1,5.2-3.892,1.042,1.042,0,0,0,.579-.3,3.019,3.019,0,0,0,.428-.594,5.43,5.43,0,0,1,2.748-2.156,12.72,12.72,0,0,1,3.441-.647.553.553,0,0,0,.4-.208,14.86,14.86,0,0,0,1.741-5.918c.051-.679.035-.692-.63-.814a11.969,11.969,0,0,1-3.919-1.674c-.719-.427-1.441-.852-2.182-1.236a2.766,2.766,0,0,0-3.27.371,6.863,6.863,0,0,1-1.282.854,3.746,3.746,0,0,1-4-.1,2.64,2.64,0,0,1-.636-4.017A6.647,6.647,0,0,0,75,192.169a14.636,14.636,0,0,1,.95-2.229,7.741,7.741,0,0,1,3.229-2.8c.66-.367,1.347-.684,2.027-1.027-2.6-1.855-9.538-2.368-12.008-.895a.1.1,0,0,0,.013.036c.072.09.147.178.219.269a6.29,6.29,0,0,1,1.1,6.65,26.527,26.527,0,0,1-2.339,4.389.508.508,0,0,0-.023.592,2.546,2.546,0,0,0,2.379,1.435,2.435,2.435,0,0,1,2.424,1.895,3.419,3.419,0,0,1-.54,3.051,6.534,6.534,0,0,0-1.026,2.3c-.387,1.345-.776,2.691-1.222,4.016a3.893,3.893,0,0,1-1.244,1.789,2.357,2.357,0,0,1-3.54-.511,3.474,3.474,0,0,1-.468-.925c-.282-.975-.512-1.964-.776-2.943-.173-.644-.348-1.289-.561-1.92a.71.71,0,0,0-.663-.564A7.747,7.747,0,0,1,59.211,203.82Zm30.393-4.6c-.059-.619-.087-1.081-.149-1.539-.055-.408-.131-.813-.224-1.214A15.3,15.3,0,0,0,82.9,187.1a.578.578,0,0,0-.483-.075c-1.192.572-2.4,1.121-3.546,1.776a5.336,5.336,0,0,0-2.517,3.246,7.6,7.6,0,0,1-1.865,3.377,1.078,1.078,0,0,0-.215,1.156,2.086,2.086,0,0,0,2.439,1.285,4.652,4.652,0,0,0,2.067-1.073,3.937,3.937,0,0,1,4.4-.584c.562.251,1.093.571,1.635.866.983.534,1.944,1.111,2.95,1.594A12.774,12.774,0,0,0,89.6,199.224Zm-22.358-1.16c-.816,1.1-1.6,2.164-2.4,3.223-.408.54-.825.55-1.215.009q-1.651-2.288-3.27-4.6c-.338-.482-.631-1-.96-1.522-.045.118-.082.2-.1.279a16.882,16.882,0,0,0-.6,5.424,2.164,2.164,0,0,0,1.266,1.911,5.642,5.642,0,0,0,2.813.724,1.926,1.926,0,0,1,1.98,1.361c.3.8.478,1.651.711,2.479a25.429,25.429,0,0,0,.806,2.769,1.152,1.152,0,0,0,2.112.282,4.391,4.391,0,0,0,.794-1.4c.41-1.244.734-2.515,1.095-3.775a5.011,5.011,0,0,1,.892-2.072,2.6,2.6,0,0,0,.67-1.913,1.344,1.344,0,0,0-1.428-1.435,5.4,5.4,0,0,1-1.027-.142A3.693,3.693,0,0,1,67.246,198.064Zm-3.061,1.931c.07-.031.1-.034.113-.051.295-.39.594-.778.879-1.176a38.169,38.169,0,0,0,3.958-6.483,5.354,5.354,0,0,0,.562-3.438,5.551,5.551,0,0,0-6.215-4.436,5.423,5.423,0,0,0-4.415,7.273,35.4,35.4,0,0,0,3.635,6.267C63.184,198.643,63.694,199.319,64.185,199.995Zm12.066,15.153A15.616,15.616,0,0,0,86.9,208.555c-2.026.182-3.781.658-4.847,2.484a2.223,2.223,0,0,1-2.01,1.19A3.98,3.98,0,0,0,76.251,215.148Z" transform="translate(-57.417 -183.097)" fill="#333" stroke="#333" stroke-width="0.4"/>
    <path id="Path_307" data-name="Path 307" d="M64.132,192.91a3.094,3.094,0,1,1,3.1-3.092A3.084,3.084,0,0,1,64.132,192.91Zm1.858-3.093a1.856,1.856,0,1,0-1.848,1.856A1.887,1.887,0,0,0,65.99,189.817Z" transform="translate(-57.319 -182.999)" fill="#333" stroke="#333" stroke-width="0.4"/>
  </g>
</svg>
