<svg xmlns="http://www.w3.org/2000/svg" width="23.656" height="34.137" viewBox="0 0 23.656 34.137">
  <g id="Group_204" data-name="Group 204" transform="translate(0.35 0.351)">
    <path id="Path_396" data-name="Path 396" d="M45.159,229.495c-.677-.412-.677-.412-.8-1.663l-1.659-.669c-.115.108-.248.234-.384.358a1.112,1.112,0,0,1-1.68.008c-.3-.272-.586-.551-.873-.834a1.031,1.031,0,0,1,.006-1.557c.443-.438.436-.435.186-.987-.142-.315-.258-.642-.371-.925a6.392,6.392,0,0,1-1.244-.231,1.078,1.078,0,0,1-.576-1.049H35.569c-.7,0-.846-.145-.841-.842.011-1.252-.029-2.507.054-3.753a10.6,10.6,0,0,1,3.886-7.657,22.177,22.177,0,0,1,2.422-1.578c.053-.033.108-.06.167-.094a7,7,0,1,1,9.875,0c.1.051.193.1.282.142a10.98,10.98,0,0,1,6.131,8.327,12.382,12.382,0,0,1,.129,1.852c.021.946.006,1.893,0,2.841,0,.589-.174.764-.752.768-.643,0-1.285,0-1.927,0h-.366a1.04,1.04,0,0,1-.54,1.1,6.833,6.833,0,0,1-1.279.263c-.072.188-.164.452-.275.707s-.24.486-.419.841a3.643,3.643,0,0,1,.476.371,1.019,1.019,0,0,1-.025,1.511c-.3.3-.61.591-.922.877a1.055,1.055,0,0,1-1.572-.01c-.344-.376-.635-.491-1.083-.188a2.479,2.479,0,0,1-.79.293.313.313,0,0,0-.28.384,1.174,1.174,0,0,1-.239.983,4.488,4.488,0,0,1-.569.416Zm-7.414-8.649c.186-.8.556-1.124,1.285-1.132a2.273,2.273,0,0,0,.39-.008.313.313,0,0,0,.2-.145c.2-.454.39-.912.607-1.425-.135-.123-.307-.256-.455-.414a1.018,1.018,0,0,1,0-1.467c.333-.342.682-.674,1.041-.987a1.041,1.041,0,0,1,1.377-.024c.17.134.312.3.483.44a.3.3,0,0,0,.247.056c.5-.2,1-.409,1.516-.627,0-.158,0-.341,0-.526a1.069,1.069,0,0,1,1.113-1.169c.446-.011.892-.01,1.338,0a1.052,1.052,0,0,1,1.088,1.094c0,.131.01.261,0,.392-.014.169.049.247.218.3a3.2,3.2,0,0,1,.879.331c.428.282.705.18,1.041-.166a1.063,1.063,0,0,1,1.575,0q.48.442.944.9a1.028,1.028,0,0,1-.008,1.535c-.153.153-.315.3-.462.433a8.459,8.459,0,0,1,.486,1.121c.1.355.264.446.612.438.879-.024,1.162.2,1.4,1.035h1.983a39.117,39.117,0,0,0-.194-4.126,9.723,9.723,0,0,0-5.973-7.784.576.576,0,0,0-.6.043,6.8,6.8,0,0,1-7.349,0,.583.583,0,0,0-.6-.041,9.96,9.96,0,0,0-5.66,6.257,17.575,17.575,0,0,0-.44,5.6c0,.018.021.035.041.065Zm8.448-23.7a5.892,5.892,0,1,0,5.9,5.873A5.871,5.871,0,0,0,46.192,197.147Zm-7.3,24.914c.361,0,.688,0,1.014,0a.579.579,0,0,1,.651.511,5.284,5.284,0,0,0,.8,1.841.552.552,0,0,1-.1.834c-.234.225-.476.441-.731.675l.936.881.389-.35c.121-.11.242-.218.365-.326.3-.266.457-.252.823-.084.61.276,1.231.532,1.863.75.43.15.565.271.569.736,0,.29,0,.578,0,.854H46.8c.021-.048.035-.067.035-.088,0-.282,0-.565.008-.847.008-.4.134-.51.508-.642.661-.234,1.317-.489,1.956-.779a.612.612,0,0,1,.795.1c.236.253.459.519.7.795l1.034-.984c-.247-.225-.463-.406-.664-.607-.334-.333-.315-.508-.1-.92a13.84,13.84,0,0,0,.745-1.686c.159-.443.275-.581.763-.586.309,0,.618,0,.928,0v-1.255c-.373,0-.728,0-1.084,0a.544.544,0,0,1-.6-.478,5.327,5.327,0,0,0-.811-1.871.557.557,0,0,1,.1-.812c.236-.225.478-.441.742-.685l-.96-.906c-.279.25-.532.473-.78.7a.627.627,0,0,1-.774.078c-.618-.282-1.25-.538-1.89-.763-.422-.148-.554-.261-.562-.712,0-.311,0-.621,0-.919H45.542v.943c0,.436-.154.581-.556.715a20,20,0,0,0-1.87.728c-.4.18-.583.2-.9-.123-.226-.228-.44-.468-.667-.71l-.967.914c.242.244.459.459.672.675a.566.566,0,0,1,.086.865,5.086,5.086,0,0,0-.777,1.777.557.557,0,0,1-.645.508c-.342,0-.685,0-1.024,0Z" transform="translate(-34.728 -196.058)" fill="#333" stroke="#333" stroke-width="0.7"/>
    <path id="Path_397" data-name="Path 397" d="M43.178,209.779a3.68,3.68,0,0,1,3.854,3.688,3.633,3.633,0,0,1-2.962,3.355,3.756,3.756,0,0,1-4.215-2.2,3.531,3.531,0,0,1,2.6-4.744A6.47,6.47,0,0,1,43.178,209.779Zm2.766,3.567a4.133,4.133,0,0,0-.045-.42,2.628,2.628,0,0,0-3.446-1.919,2.42,2.42,0,0,0-1.674,2.946,2.468,2.468,0,0,0,2.257,1.836A2.565,2.565,0,0,0,45.944,213.346Z" transform="translate(-31.839 -187.93)" fill="#333" stroke="#333" stroke-width="0.7"/>
  </g>
</svg>
