<svg xmlns="http://www.w3.org/2000/svg" width="42.586" height="42.611" viewBox="0 0 42.586 42.611">
  <g id="Group_161" data-name="Group 161" transform="translate(0.25 0.25)">
    <path id="Path_308" data-name="Path 308" d="M140.525,202.412H126.973v-1.337h12.186c0-.736.021-1.426-.009-2.114a.638.638,0,0,0-.611-.6,2.78,2.78,0,0,0-.423-.01q-8.193,0-16.386-.01a.645.645,0,0,0-.7.441c-.365.8-.78,1.568-1.165,2.355a2.133,2.133,0,0,1-2.1,1.3c-3.1-.016-6.2-.006-9.3-.006h-.536v17.626h-1.37v-5.4h-3.43a1.952,1.952,0,0,1-1.551-.746,2.107,2.107,0,0,1-.468-1.416q.007-7.938,0-15.877,0-4.839,0-9.679a2.021,2.021,0,0,1,2.174-2.167h30.947a2.021,2.021,0,0,1,2.2,2.219q.006,4.733,0,9.466v.542h1.943a2.01,2.01,0,0,1,2.132,2.121C140.531,200.2,140.525,201.286,140.525,202.412Zm-10.5-8.106c-1.554,0-3.109.01-4.663-.008-.345,0-.442.11-.43.44.021.62.013,1.243,0,1.865,0,.244.063.359.334.358q4.728-.009,9.454,0c.266,0,.342-.1.337-.35-.012-.636-.02-1.273,0-1.907.012-.327-.11-.406-.417-.4C133.1,194.314,131.561,194.306,130.02,194.306Zm-22.4,0c-1.568,0-3.137.006-4.706,0-.285,0-.41.072-.4.379.019.636.015,1.273,0,1.908-.006.27.079.373.363.373q4.706-.012,9.412,0c.294,0,.358-.117.352-.379-.014-.593-.025-1.188,0-1.78.019-.38-.083-.513-.489-.506C110.644,194.321,109.131,194.306,107.619,194.306Zm22.38-5.5c1.554,0,3.11-.006,4.664.006.288,0,.409-.073.395-.38-.021-.494,0-.99-.007-1.484a.693.693,0,0,0-.776-.789c-3,0-5.993,0-8.989-.008-.291,0-.362.117-.356.38.012.608.02,1.216,0,1.823-.014.346.09.465.451.46C126.918,188.8,128.458,188.805,130,188.805Zm-5.816,4.076c1.456,0,2.911-.007,4.367,0,.288,0,.4-.074.395-.38-.019-.635-.016-1.272,0-1.907.006-.27-.074-.374-.359-.372q-4.366.012-8.734,0c-.291,0-.361.118-.356.38.012.607.02,1.215,0,1.823-.014.346.091.465.451.46C121.357,192.87,122.77,192.881,124.183,192.881Zm-5.386,4.075c1.441,0,2.883-.007,4.324.006.295,0,.4-.087.389-.386-.019-.635-.016-1.272,0-1.907.007-.276-.085-.368-.364-.368q-4.346.012-8.691,0c-.292,0-.4.086-.395.386.018.621.02,1.243,0,1.864-.01.317.1.414.413.412C115.913,196.949,117.355,196.957,118.8,196.957Zm-5.4-6.726c-1.456,0-2.912.006-4.367,0-.286,0-.41.073-.4.379.019.636.015,1.273,0,1.907-.006.271.08.374.363.374q4.368-.012,8.734,0c.294,0,.357-.119.351-.38-.013-.607-.021-1.215,0-1.823.014-.343-.082-.466-.446-.46C116.219,190.243,114.806,190.231,113.393,190.231Zm.9-4.11h-7.052c-1.3,0-2.6,0-3.9,0-.413,0-.785.133-.821.561-.059.709-.016,1.427-.016,2.16,3.358,0,6.667.006,9.975-.014a.8.8,0,0,0,.595-.319C113.495,187.75,113.866,186.96,114.29,186.12Zm5.436,12.227h-8.37c-.876,0-1.752,0-2.629,0-.473,0-.772.226-.791.648-.03.674-.008,1.349-.008,2.007.059.029.083.052.107.052,3.293,0,6.586.012,9.878,0a.759.759,0,0,0,.569-.29C118.915,199.994,119.3,199.2,119.725,198.347Zm-5.164-9.609a.738.738,0,0,0,.169.062q4.242,0,8.485.009c.267,0,.294-.141.293-.351-.006-.65-.01-1.3,0-1.951,0-.245-.06-.357-.332-.356-2.348.008-4.7,0-7.043.01-.112,0-.285.045-.326.124C115.382,187.091,114.978,187.909,114.561,188.738Zm18.211,1.493c-.691,0-1.384.006-2.075,0-.232,0-.335.073-.333.315q.013,1.017,0,2.033c0,.249.115.309.339.308,1.342-.006,2.683-.009,4.024,0,.274,0,.331-.118.328-.359-.011-.649-.016-1.3,0-1.948.008-.293-.117-.357-.379-.352C134.043,190.24,133.408,190.231,132.772,190.231Zm-27.895,2.651c.649,0,1.3-.009,1.948,0,.259,0,.389-.054.381-.349-.017-.663-.012-1.327,0-1.99,0-.242-.09-.32-.325-.318q-2.011.01-4.024,0c-.262,0-.347.1-.343.349.011.649.014,1.3,0,1.948-.006.281.1.368.374.362C103.55,192.872,104.214,192.881,104.877,192.881Zm1.645,5.537c.006,0-.018-.023-.042-.023-1.228-.006-2.455-.016-3.683,0-.095,0-.263.2-.267.306-.025.662,0,1.326-.017,1.99,0,.256.092.346.348.344,1.1-.01,2.2-.012,3.3,0,.281,0,.369-.095.363-.369C106.514,199.925,106.522,199.18,106.522,198.418Zm-1.984,6.69c.551,0,1.1-.007,1.652,0,.223,0,.34-.055.336-.306q-.016-1.017,0-2.033c0-.241-.092-.319-.326-.317q-1.672.012-3.345,0c-.223,0-.344.057-.341.306q.013,1.017,0,2.032c0,.241.1.323.33.318C103.409,205.1,103.973,205.108,104.538,205.108Zm.022,1.425c-.565,0-1.129.009-1.694,0-.251,0-.357.077-.353.339.012.663.009,1.326,0,1.989,0,.231.076.331.319.33q1.694-.012,3.388,0c.254,0,.307-.117.3-.338-.008-.663-.013-1.327,0-1.99.006-.273-.115-.334-.358-.329C105.633,206.541,105.1,206.533,104.56,206.533Zm-.056,4.076c-.552,0-1.1-.015-1.655.012-.114.006-.312.162-.317.257a16.69,16.69,0,0,0,0,1.7.674.674,0,0,0,.723.68c.991.013,1.982,0,2.971.007.216,0,.305-.076.3-.3-.008-.679-.01-1.358,0-2.037,0-.239-.085-.326-.324-.322C105.637,210.617,105.071,210.609,104.5,210.609Z" transform="translate(-101.122 -184.765)" fill="#333" stroke="#333" stroke-width="0.5"/>
    <path id="Path_309" data-name="Path 309" d="M139.3,223.282H127.776v-1.335h11.5V216.5h-1.3v-1.35h1.292v-4.084h-1.3v-1.35h1.327v-5.431h1.351v5.4h2.7v1.365h-2.661v4.068h2.669v1.351h-2.691v.494q0,4.1,0,8.193a2.023,2.023,0,0,1-2.18,2.2q-14.794,0-29.588,0a2.024,2.024,0,0,1-2.19-2.193q0-1.549,0-3.1a.57.57,0,0,1,.027-.109h12.848v1.311H108.058c0,.734-.022,1.424.01,2.11a.649.649,0,0,0,.647.617,3.624,3.624,0,0,0,.424.007h29.078c.906,0,1.082-.179,1.082-1.1C139.3,224.387,139.3,223.866,139.3,223.282Z" transform="translate(-101.26 -185.25)" fill="#333" stroke="#333" stroke-width="0.5"/>
    <path id="Path_310" data-name="Path 310" d="M131.615,209.689h5.063v1.348H131.7l-.787,4.09h5.773v1.349h-.456c-1.825,0-3.651.011-5.477-.008a.65.65,0,0,0-.7.423,14.762,14.762,0,0,1-5.666,6.159,1,1,0,0,1-1.17-.008,14.758,14.758,0,0,1-5.7-6.233.51.51,0,0,0-.543-.34c-1.628.016-3.255.007-4.882.007H111.6v-1.338h5.092l-.778-4.075h-4.309V209.7h4.382c0-.618.026-1.207-.008-1.792a.947.947,0,0,1,.646-1.013q3.3-1.545,6.578-3.132a1.252,1.252,0,0,1,1.2,0q3.278,1.587,6.576,3.132a.947.947,0,0,1,.642,1.015C131.589,208.484,131.615,209.062,131.615,209.689Zm-1.361,0c0-.439.02-.879-.012-1.315a.567.567,0,0,0-.246-.406q-2.969-1.444-5.957-2.846a.564.564,0,0,0-.425-.014q-3.006,1.414-6,2.861a.5.5,0,0,0-.255.357,33.644,33.644,0,0,0,.154,3.807,13.19,13.19,0,0,0,5.95,9.444.516.516,0,0,0,.677.008,13.785,13.785,0,0,0,2.934-2.615A13.57,13.57,0,0,0,130.254,209.692Z" transform="translate(-101.382 -185.233)" fill="#333" stroke="#333" stroke-width="0.5"/>
    <path id="Path_311" data-name="Path 311" d="M140.768,195.156h-1.309v-1.3h1.309Z" transform="translate(-102.074 -184.991)" fill="#333" stroke="#333" stroke-width="0.5"/>
    <path id="Path_312" data-name="Path 312" d="M139.453,192.356v-1.3h1.32v1.3Z" transform="translate(-102.074 -184.921)" fill="#333" stroke="#333" stroke-width="0.5"/>
    <path id="Path_313" data-name="Path 313" d="M140.764,189.587h-1.3v-1.318h1.3Z" transform="translate(-102.074 -184.852)" fill="#333" stroke="#333" stroke-width="0.5"/>
    <path id="Path_314" data-name="Path 314" d="M102.538,218.838v-1.3h1.315v1.3Z" transform="translate(-101.157 -185.579)" fill="#333" stroke="#333" stroke-width="0.5"/>
    <path id="Path_315" data-name="Path 315" d="M102.54,221.622v-1.3h1.311v1.3Z" transform="translate(-101.157 -185.648)" fill="#333" stroke="#333" stroke-width="0.5"/>
    <path id="Path_316" data-name="Path 316" d="M102.544,223.1h1.3V224.4h-1.3Z" transform="translate(-101.157 -185.717)" fill="#333" stroke="#333" stroke-width="0.5"/>
    <path id="Path_317" data-name="Path 317" d="M104.644,186.864h1.291v1.317h-1.291Z" transform="translate(-101.209 -184.817)" fill="#333" stroke="#333" stroke-width="0.5"/>
    <path id="Path_318" data-name="Path 318" d="M107.415,188.182v-1.3h1.307v1.3Z" transform="translate(-101.278 -184.817)" fill="#333" stroke="#333" stroke-width="0.5"/>
    <path id="Path_319" data-name="Path 319" d="M111.525,186.891v1.292h-1.319v-1.292Z" transform="translate(-101.348 -184.818)" fill="#333" stroke="#333" stroke-width="0.5"/>
    <path id="Path_320" data-name="Path 320" d="M111.516,200.727h-1.3v-1.3h1.3Z" transform="translate(-101.348 -185.129)" fill="#333" stroke="#333" stroke-width="0.5"/>
    <path id="Path_321" data-name="Path 321" d="M114.308,199.417v1.3H113v-1.3Z" transform="translate(-101.417 -185.129)" fill="#333" stroke="#333" stroke-width="0.5"/>
    <path id="Path_322" data-name="Path 322" d="M117.1,199.417c.008.084.018.151.019.217,0,.351,0,.7,0,1.083h-1.332v-1.3Z" transform="translate(-101.486 -185.129)" fill="#333" stroke="#333" stroke-width="0.5"/>
    <path id="Path_323" data-name="Path 323" d="M122.221,210.238c.354-1.061.688-2.062,1.022-3.064.036-.106.064-.216.105-.321a.678.678,0,0,1,.666-.493.66.66,0,0,1,.661.5c.335.987.663,1.977.995,2.965.044.132.095.26.149.411.427-.138.827-.272,1.229-.4.657-.209,1.033.05,1.037.725,0,1.131.015,2.262-.008,3.393a4.064,4.064,0,0,1-3.665,3.944,4.154,4.154,0,0,1-4.388-3.314,5.638,5.638,0,0,1-.087-.967c-.012-.975-.006-1.95,0-2.926,0-.832.365-1.088,1.164-.823ZM121.3,211.4c0,.822,0,1.584,0,2.345a3.454,3.454,0,0,0,.066.546,2.807,2.807,0,0,0,2.573,2.256,2.626,2.626,0,0,0,2.673-2.039,26.821,26.821,0,0,0,.152-3.064,1.007,1.007,0,0,0-.174,0c-.283.088-.565.178-.846.266-.592.186-.867.051-1.069-.535-.209-.6-.412-1.212-.66-1.944-.246.726-.448,1.335-.657,1.941-.2.586-.484.725-1.069.541Z" transform="translate(-101.589 -185.301)" fill="#333" stroke="#333" stroke-width="0.5"/>
  </g>
</svg>
