<svg id="Group_129" data-name="Group 129" xmlns="http://www.w3.org/2000/svg" width="33.436" height="26.77" viewBox="0 0 33.436 26.77">
  <path id="Path_206" data-name="Path 206" d="M26.2,234.294q0-3.671,0-7.342c0-.692.3-1,.986-1,.49,0,.979,0,1.469,0a.822.822,0,0,1,.885.87c0,.076,0,.152,0,.228v14.522c0,.087,0,.174,0,.261a.815.815,0,0,1-.855.832c-.533.006-1.066,0-1.6,0a.823.823,0,0,1-.883-.9Q26.2,238.031,26.2,234.294Z" transform="translate(-17.84 -220.928)" fill="#333"/>
  <path id="Path_207" data-name="Path 207" d="M38.059,234.294q0-3.671,0-7.342c0-.692.3-1,.987-1,.489,0,.979,0,1.468,0a.822.822,0,0,1,.885.87c0,.076,0,.152,0,.228v14.522c0,.087,0,.174,0,.261a.815.815,0,0,1-.855.832c-.533.006-1.066,0-1.6,0a.823.823,0,0,1-.883-.9Q38.056,238.031,38.059,234.294Z" transform="translate(-21.339 -220.928)" fill="#333"/>
  <path id="Path_208" data-name="Path 208" d="M53.259,234.312q0,3.639,0,7.278c0,.815-.265,1.081-1.067,1.082-.468,0-.936,0-1.4,0a.819.819,0,0,1-.87-.883q0-7.474,0-14.946a.822.822,0,0,1,.9-.885c.479,0,.957,0,1.436,0,.711,0,1,.291,1,1.014Q53.261,230.64,53.259,234.312Z" transform="translate(-24.838 -220.928)" fill="#333"/>
  <path id="Path_209" data-name="Path 209" d="M45.172,234.323q0-3.641,0-7.28a1.858,1.858,0,0,1,.055-.547.829.829,0,0,1,1.59.121,2.5,2.5,0,0,1,.035.454q0,7.248,0,14.5a2.333,2.333,0,0,1-.036.455.829.829,0,0,1-1.633-.092c-.013-.13-.011-.261-.011-.391Q45.172,237.931,45.172,234.323Z" transform="translate(-23.438 -220.929)" fill="#333"/>
  <path id="Path_210" data-name="Path 210" d="M21.457,234.3q0-3.689,0-7.379c0-.622.348-.993.885-.967a.807.807,0,0,1,.758.647,2.394,2.394,0,0,1,.036.455q0,7.247,0,14.5a2.439,2.439,0,0,1-.034.454.828.828,0,0,1-1.637-.1c-.011-.13-.009-.261-.009-.392Q21.456,237.912,21.457,234.3Z" transform="translate(-16.44 -220.929)" fill="#333"/>
  <path id="Path_211" data-name="Path 211" d="M33.314,234.281q0-3.673,0-7.346c0-.614.325-.983.843-.978a.807.807,0,0,1,.8.671,2.57,2.57,0,0,1,.032.454q0,7.232,0,14.464a2.578,2.578,0,0,1-.032.455.827.827,0,0,1-1.636-.08c-.019-.293-.012-.587-.012-.881Q33.313,237.659,33.314,234.281Z" transform="translate(-19.939 -220.929)" fill="#333"/>
  <path id="Path_212" data-name="Path 212" d="M57.288,252.3v-.461c0-1.208,0-2.416,0-3.624a.874.874,0,0,1,.845-.932.849.849,0,0,1,.836.929q0,2.432,0,4.865a.839.839,0,0,1-.916.91q-2.433.005-4.865,0a.845.845,0,1,1,0-1.685c1.23,0,2.459,0,3.69,0Z" transform="translate(-25.537 -227.223)" fill="#333"/>
  <path id="Path_213" data-name="Path 213" d="M57.288,220.515H53.522c-.12,0-.24,0-.359,0a.843.843,0,1,1-.008-1.685c.73-.008,1.458,0,2.188,0,.892,0,1.784,0,2.677,0a.85.85,0,0,1,.952.941q0,2.416,0,4.832a.85.85,0,0,1-.834.931.874.874,0,0,1-.847-.931c-.008-1.229,0-2.459,0-3.69Z" transform="translate(-25.537 -218.825)" fill="#333"/>
  <path id="Path_214" data-name="Path 214" d="M16.026,252.3h1.118c1.012,0,2.025-.006,3.037,0a.831.831,0,0,1,.846.817.819.819,0,0,1-.8.859q-2.546.02-5.093,0a.8.8,0,0,1-.788-.834q-.008-2.513,0-5.027a.831.831,0,0,1,.765-.832.843.843,0,0,1,.882.667,1.831,1.831,0,0,1,.034.388q0,1.778,0,3.558Z" transform="translate(-14.34 -227.223)" fill="#333"/>
  <path id="Path_215" data-name="Path 215" d="M16.027,220.515v.625c0,1.153,0,2.307,0,3.46a.871.871,0,0,1-.847.931.855.855,0,0,1-.835-.93q0-2.432,0-4.865a.833.833,0,0,1,.885-.907q2.449-.008,4.9,0a.845.845,0,1,1-.006,1.685c-1.23,0-2.459,0-3.69,0Z" transform="translate(-14.34 -218.825)" fill="#333"/>
</svg>
