<svg id="Group_102" data-name="Group 102" xmlns="http://www.w3.org/2000/svg" width="33.436" height="23.88" viewBox="0 0 33.436 23.88">
  <path id="Path_35" data-name="Path 35" d="M11.069,123.88a15.986,15.986,0,0,1,4.9-11.526,1.227,1.227,0,0,1,1.764-.075,1.208,1.208,0,0,1-.042,1.787,13.174,13.174,0,0,0-3.719,6.376,13.418,13.418,0,0,0,3.4,12.934c.118.128.248.244.364.373a1.215,1.215,0,1,1-1.744,1.692,16.065,16.065,0,0,1-4.918-11.562Z" transform="translate(-11.069 -111.94)" fill="#333"/>
  <path id="Path_36" data-name="Path 36" d="M61.691,123.572A16.255,16.255,0,0,1,56.8,135.426a1.2,1.2,0,1,1-1.672-1.7,13.266,13.266,0,0,0,3.975-7.7,13.412,13.412,0,0,0-3.636-11.537c-.135-.145-.286-.277-.417-.426a1.192,1.192,0,0,1,1.707-1.663,15.747,15.747,0,0,1,4.673,8.82C61.583,122.109,61.631,123.016,61.691,123.572Z" transform="translate(-28.254 -111.987)" fill="#333"/>
  <path id="Path_37" data-name="Path 37" d="M50.861,125.852a11.392,11.392,0,0,1-3.356,8.285,1.206,1.206,0,1,1-1.688-1.7A8.665,8.665,0,0,0,45.9,120.1a1.42,1.42,0,0,1-.531-1.062,1.138,1.138,0,0,1,.727-1.077,1.162,1.162,0,0,1,1.336.27,10.789,10.789,0,0,1,3.09,5.415C50.72,124.492,50.788,125.361,50.861,125.852Z" transform="translate(-24.591 -114.274)" fill="#333"/>
  <path id="Path_38" data-name="Path 38" d="M27.042,117.835a1.393,1.393,0,0,1,1.146.785A1.289,1.289,0,0,1,27.92,120a15.485,15.485,0,0,0-1.605,2.177,8.649,8.649,0,0,0,1.475,10.148,2.057,2.057,0,0,1,.531.9,1.1,1.1,0,0,1-.644,1.222,1.174,1.174,0,0,1-1.371-.244,11.056,11.056,0,0,1-.092-15.872A4.012,4.012,0,0,1,27.042,117.835Z" transform="translate(-15.731 -114.264)" fill="#333"/>
  <path id="Path_39" data-name="Path 39" d="M37.123,127.725a2.384,2.384,0,1,1-2.4,2.365A2.367,2.367,0,0,1,37.123,127.725Z" transform="translate(-20.392 -118.162)" fill="#333"/>
</svg>
