<svg xmlns="http://www.w3.org/2000/svg" width="33.636" height="27.462" viewBox="0 0 33.636 27.462">
  <g id="Group_101" data-name="Group 101" transform="translate(0.1 0.1)">
    <path id="Path_40" data-name="Path 40" d="M82.365,146.893V131.26c.044-.119.1-.236.13-.358a4.77,4.77,0,0,1,4.417-3.427q9.988-.02,19.977,0a3.044,3.044,0,0,1,3,2.505.326.326,0,0,0,.314.3,2.847,2.847,0,0,1,1.429.669,3.165,3.165,0,0,1,1.09,1.988,1.321,1.321,0,0,0,.174.017,2.863,2.863,0,0,1,2.9,3.013c-.037,5.263-.013,10.528-.014,15.792a2.79,2.79,0,0,1-2.911,2.961q-10.921.016-21.842,0a2.84,2.84,0,0,1-2-.74,2.925,2.925,0,0,1-.925-1.991,6.487,6.487,0,0,1-.658-.112,3.024,3.024,0,0,1-2.3-2.408.339.339,0,0,0-.328-.313,3.011,3.011,0,0,1-1.523-.765A3.815,3.815,0,0,1,82.365,146.893Zm23.983.951c.454.469.887.915,1.317,1.362a1.8,1.8,0,0,1,.227.276.62.62,0,0,1-.085.805.61.61,0,0,1-.805.076,2.253,2.253,0,0,1-.341-.3q-4.463-4.6-8.924-9.2a.938.938,0,0,0-1.482-.045l-.809.713q-2.895,2.552-5.784,5.109a.632.632,0,0,0-.22.4q-.022,2.419-.007,4.84a1.44,1.44,0,0,0,1.081,1.46,2.735,2.735,0,0,0,.68.056q10.76,0,21.52,0c.087,0,.174,0,.261,0a1.459,1.459,0,0,0,1.5-1.513c.016-1.2.007-2.4,0-3.6a.421.421,0,0,0-.145-.291q-1.7-1.3-3.415-2.584a.878.878,0,0,0-1.173-.023C108.619,146.184,107.5,147,106.348,147.844Zm-16.917-2.792c.1-.073.133-.1.165-.124q2.843-2.509,5.685-5.02a2.247,2.247,0,0,1,3.475.115q3.188,3.284,6.372,6.573a2.5,2.5,0,0,1,.235.337c1.24-.9,2.389-1.749,3.546-2.584a2.188,2.188,0,0,1,2.831.023c.8.6,1.6,1.207,2.4,1.81.1.075.2.144.342.246V136a1.529,1.529,0,0,0-1.723-1.733H91.18a1.535,1.535,0,0,0-1.749,1.741v9.045Zm-1.309,5.568v-.384q0-7.161,0-14.323a2.9,2.9,0,0,1,.582-1.862,2.875,2.875,0,0,1,2.429-1.1q9.909.012,19.817.005h.43a2.558,2.558,0,0,0-.109-.362,1.822,1.822,0,0,0-1.794-1.071h-7.651c-.12,0-.24,0-.36-.007a.636.636,0,0,1-.584-.6.645.645,0,0,1,.53-.683,1.988,1.988,0,0,1,.359-.017l6.475,0c.113,0,.226-.009.343-.015a1.778,1.778,0,0,0-1.908-1.425q-9.712,0-19.424,0a3.506,3.506,0,0,0-3.647,3.645q0,6.752,0,13.505a2.947,2.947,0,0,0,.064.615,1.631,1.631,0,0,0,1.392,1.287V147.4q0-6.9,0-13.8a3.248,3.248,0,0,1,3.395-3.388q3.793,0,7.587,0a2.247,2.247,0,0,1,.326.01.658.658,0,0,1,.572.652.648.648,0,0,1-.617.64c-.108.009-.217.006-.327.006q-3.728,0-7.456,0a3.074,3.074,0,0,0-.775.09A1.878,1.878,0,0,0,86.4,133.6q0,7.537,0,15.075c0,.142,0,.284.015.425A1.719,1.719,0,0,0,88.122,150.62Z" transform="translate(-82.365 -127.465)" fill="#333" stroke="#333" stroke-width="0.2"/>
    <path id="Path_41" data-name="Path 41" d="M115.151,141.661a2.795,2.795,0,1,1-2.816-2.785A2.8,2.8,0,0,1,115.151,141.661Zm-1.319.022a1.478,1.478,0,1,0-2.955,0,1.478,1.478,0,0,0,2.955,0Z" transform="translate(-87.009 -129.413)" fill="#333" stroke="#333" stroke-width="0.2"/>
    <path id="Path_42" data-name="Path 42" d="M102.188,132.088a.65.65,0,1,1,.007-1.3.65.65,0,0,1-.007,1.3Z" transform="translate(-85.638 -128.032)" fill="#333" stroke="#333" stroke-width="0.2"/>
  </g>
</svg>
