<svg xmlns="http://www.w3.org/2000/svg" width="33.938" height="33.942" viewBox="0 0 33.938 33.942">
  <g id="Group_151" data-name="Group 151" transform="translate(0.25 0.25)">
    <path id="Path_275" data-name="Path 275" d="M77.888,147.876c-.086.4-.157.8-.26,1.2A8.078,8.078,0,1,1,62.212,144.3c.026-.07.046-.142.087-.268a3.093,3.093,0,0,0-1.825.717,2.274,2.274,0,0,0-.814,1.714c-.017.451-.192.62-.649.621q-1.845,0-3.689,0c-.426,0-.588-.165-.619-.578a2.653,2.653,0,0,0-4.321-1.809c-.372.324-.561.32-.918-.036Q48.18,143.384,46.9,142.1c-.33-.332-.336-.555-.04-.9a2.433,2.433,0,0,0,.356-2.764,2.364,2.364,0,0,0-2.182-1.54c-.42-.022-.584-.188-.585-.611q0-1.877,0-3.754c0-.408.159-.561.565-.591a2.653,2.653,0,0,0,1.814-4.318c-.323-.373-.323-.566.03-.92q1.268-1.271,2.539-2.54c.364-.363.557-.37.945-.043a2.457,2.457,0,0,0,2.8.311,2.367,2.367,0,0,0,1.487-2.188.668.668,0,0,1,.331-.557h4.311a.786.786,0,0,1,.331.664,2.708,2.708,0,0,0,.172.755,2.673,2.673,0,0,0,4.13.964c.365-.337.557-.324.917.031.125.122.251.243.368.37a.5.5,0,0,1,.032.729.5.5,0,0,1-.727-.026c-.057-.049-.111-.1-.17-.154a3.7,3.7,0,0,1-5.709-2.345h-3.01a3.7,3.7,0,0,1-5.654,2.414L47.8,127.235a3.231,3.231,0,0,1,.626,2.394,3.591,3.591,0,0,1-2.759,3.219c-.162.035-.245.078-.243.266.008.924,0,1.849,0,2.8a3.489,3.489,0,0,1,2.737,2.206,3.44,3.44,0,0,1-.3,3.436l2.153,2.152a3.767,3.767,0,0,1,1.648-.622,3.7,3.7,0,0,1,3.938,2.726c.053.241.148.29.368.287q1.224-.016,2.448,0c.2,0,.29-.057.329-.255a3.647,3.647,0,0,1,3.661-2.789.579.579,0,0,0,.59-.323,7.707,7.707,0,0,1,2.627-2.584.367.367,0,0,0,.228-.4,3.675,3.675,0,0,1,2.742-3.826c.083-.018.164-.051.265-.083,0-.941,0-1.876-.007-2.811a.288.288,0,0,0-.167-.218,3.679,3.679,0,0,1-2.241-5.624.67.67,0,0,0,.019-.116,2.127,2.127,0,0,1-.317-.255.466.466,0,0,1,0-.674.473.473,0,0,1,.675-.026,8.094,8.094,0,0,1,.692.692.467.467,0,0,1-.021.677,2.464,2.464,0,0,0-.387,2.928,2.389,2.389,0,0,0,2.14,1.465c.439.032.6.186.6.628q0,1.828,0,3.657c0,.491-.162.651-.666.673a2.547,2.547,0,0,0-2.309,2.68,8.364,8.364,0,0,1,2.7-.539,7.842,7.842,0,0,1,4.871,1.47.727.727,0,0,1,.272.531.555.555,0,0,1-.36.386.781.781,0,0,1-.528-.16,7.18,7.18,0,0,0-3.108-1.179,7.086,7.086,0,1,0,6.109,8.028,7,7,0,0,0-1.232-5.105,1.087,1.087,0,0,1-.19-.4.433.433,0,0,1,.32-.5.482.482,0,0,1,.59.222,7.311,7.311,0,0,1,1.169,2.28c.163.559.268,1.136.4,1.7Z" transform="translate(-44.45 -121.687)" fill="#333" stroke="#333" stroke-width="0.5"/>
    <path id="Path_276" data-name="Path 276" d="M58.084,126.658a8.672,8.672,0,1,1-8.552,10.079,8.486,8.486,0,0,1,1.423-6.326,1.1,1.1,0,0,1,.234-.268.443.443,0,0,1,.62.049.5.5,0,0,1,.049.655,14.523,14.523,0,0,0-.908,1.688,7.68,7.68,0,1,0,8.343-4.792,7.506,7.506,0,0,0-5.737,1.394c-.053.038-.105.078-.16.112a.485.485,0,0,1-.7-.079.459.459,0,0,1,.121-.709,21.126,21.126,0,0,1,2.211-1.232A7.4,7.4,0,0,1,58.084,126.658Z" transform="translate(-45.399 -122.637)" fill="#333" stroke="#333" stroke-width="0.5"/>
    <path id="Path_277" data-name="Path 277" d="M74.352,145.427a6.168,6.168,0,1,1-6.163,6.151A6.172,6.172,0,0,1,74.352,145.427Zm5.176,6.165a5.18,5.18,0,1,0-5.2,5.172A5.2,5.2,0,0,0,79.528,151.592Z" transform="translate(-48.988 -126.226)" fill="#333"/>
    <path id="Path_278" data-name="Path 278" d="M60.451,133.7V135a1.138,1.138,0,0,0,.208.884.409.409,0,0,1,.089.335.9.9,0,0,0,.206.751q.6,1.042,1.2,2.088c.2.356.165.636-.1.8s-.542.06-.745-.29c-.447-.769-.885-1.544-1.339-2.309a.8.8,0,0,0-.322-.284.8.8,0,0,1-.317-1.233.776.776,0,0,0,.133-.408c.011-1.109,0-2.217.007-3.326,0-.4.194-.632.5-.621s.477.237.479.616C60.453,132.568,60.451,133.133,60.451,133.7Z" transform="translate(-47.262 -123.541)" fill="#333" stroke="#333" stroke-width="0.5"/>
    <path id="Path_279" data-name="Path 279" d="M67.371,141.35a1.461,1.461,0,0,1-.406.328.938.938,0,0,1-.9-.506.455.455,0,0,1,.2-.565c.236-.169.45-.053.666.069A.7.7,0,0,1,67.371,141.35Z" transform="translate(-48.575 -125.288)" fill="#333" stroke="#333" stroke-width="0.5"/>
    <path id="Path_280" data-name="Path 280" d="M56.038,144.606a.525.525,0,0,1-.506-.466,1.233,1.233,0,0,1,.512-.827.49.49,0,0,1,.615.219A.877.877,0,0,1,56.038,144.606Z" transform="translate(-46.568 -125.815)" fill="#333" stroke="#333" stroke-width="0.5"/>
    <path id="Path_281" data-name="Path 281" d="M64.581,144.126c-.171.177-.282.382-.441.43a.648.648,0,0,1-.513-.135.824.824,0,0,1-.284-.5.673.673,0,0,1,.173-.527.534.534,0,0,1,.52-.026A4.051,4.051,0,0,1,64.581,144.126Z" transform="translate(-48.061 -125.822)" fill="#333" stroke="#333" stroke-width="0.5"/>
    <path id="Path_282" data-name="Path 282" d="M67.372,133.157c-.019.527-.738.933-1.085.739a.306.306,0,0,1-.053-.038.464.464,0,0,1-.158-.579c.112-.253.671-.586.889-.48A1.737,1.737,0,0,1,67.372,133.157Z" transform="translate(-48.575 -123.808)" fill="#333" stroke="#333" stroke-width="0.5"/>
    <path id="Path_283" data-name="Path 283" d="M60.523,129.5c0,.438-.167.663-.492.665-.36,0-.51-.25-.49-.825.012-.368.212-.57.535-.544S60.525,129.032,60.523,129.5Z" transform="translate(-47.335 -123.045)" fill="#333" stroke="#333" stroke-width="0.5"/>
    <path id="Path_284" data-name="Path 284" d="M56.148,129.832a5.4,5.4,0,0,1,.407.434.577.577,0,0,1,.1.667.2.2,0,0,1-.019.027.482.482,0,0,1-.609.167,1.092,1.092,0,0,1-.479-.871C55.6,130.006,55.769,129.868,56.148,129.832Z" transform="translate(-46.57 -123.244)" fill="#333" stroke="#333" stroke-width="0.5"/>
    <path id="Path_285" data-name="Path 285" d="M63.96,129.849c.159.11.368.188.466.337.128.2-.128.751-.374.9a.465.465,0,0,1-.6-.045.471.471,0,0,1-.075-.649C63.52,130.16,63.613,129.869,63.96,129.849Z" transform="translate(-48.05 -123.248)" fill="#333" stroke="#333" stroke-width="0.5"/>
    <path id="Path_286" data-name="Path 286" d="M53.936,133.48a.486.486,0,0,1-.515.474c-.357-.019-.81-.4-.81-.687a.514.514,0,0,1,.5-.5C53.469,132.775,53.945,133.186,53.936,133.48Z" transform="translate(-46.01 -123.806)" fill="#333" stroke="#333" stroke-width="0.5"/>
    <path id="Path_287" data-name="Path 287" d="M67.717,136.773a1.725,1.725,0,0,1,.324.02.457.457,0,0,1,.378.5.462.462,0,0,1-.425.46,2.147,2.147,0,0,1-.456.006.478.478,0,0,1-.487-.5.472.472,0,0,1,.5-.48c.054,0,.109,0,.163,0Z" transform="translate(-48.771 -124.571)" fill="#333" stroke="#333" stroke-width="0.5"/>
    <path id="Path_288" data-name="Path 288" d="M53.318,140.514c.5.014.779.467.544.729a1.5,1.5,0,0,1-.789.438.437.437,0,0,1-.391-.681A2.872,2.872,0,0,1,53.318,140.514Z" transform="translate(-46.008 -125.287)" fill="#333" stroke="#333" stroke-width="0.5"/>
    <path id="Path_289" data-name="Path 289" d="M59.541,144.98c0-.489.167-.709.522-.689.336.019.467.235.461.755,0,.382-.177.6-.478.615C59.72,145.674,59.542,145.433,59.541,144.98Z" transform="translate(-47.335 -126.008)" fill="#333" stroke="#333" stroke-width="0.5"/>
    <path id="Path_290" data-name="Path 290" d="M73.116,151.515l2.055-2.409c.29-.34.437-.357.771-.076s.67.566,1,.854c.266.232.286.424.064.685-.94,1.107-1.879,2.216-2.828,3.316a1.166,1.166,0,0,1-1.773.083q-.828-.794-1.648-1.6c-.285-.278-.284-.449,0-.74.311-.321.621-.643.935-.961.24-.243.428-.257.663-.016C72.61,150.917,72.843,151.2,73.116,151.515Z" transform="translate(-48.561 -126.147)" fill="#333" stroke="#fff" stroke-width="1"/>
  </g>
</svg>
