<svg xmlns="http://www.w3.org/2000/svg" width="25.5" height="16.258" viewBox="0 0 25.5 16.258">
  <g id="Group_98" data-name="Group 98" transform="translate(0.25 0.25)">
    <path id="Path_56" data-name="Path 56" d="M13.047,81.752a6.576,6.576,0,0,1,.5-1.145,2.581,2.581,0,0,1,2.273-1.141q6.465,0,12.93,0c.057,0,.114,0,.171,0a2.656,2.656,0,0,1,2.539,2.1,3.656,3.656,0,0,1,.067.726c.009.544,0,1.088,0,1.677.116-.056.2-.094.281-.137q2.651-1.447,5.3-2.9A.62.62,0,0,1,37.8,80.9a.566.566,0,0,1,.241.526c0,1.415,0,2.83,0,4.245,0,2.53-.012,5.059.011,7.588a.583.583,0,0,1-.931.545c-1.758-.981-3.53-1.936-5.3-2.9-.082-.045-.166-.086-.288-.149,0,.49,0,.935,0,1.379a3.763,3.763,0,0,1-.182,1.393,2.656,2.656,0,0,1-2.427,1.7q-6.636.006-13.272,0A2.644,2.644,0,0,1,13.1,93.106a.833.833,0,0,0-.051-.129Zm9.224,12.4q3.222,0,6.442,0a2.241,2.241,0,0,0,.485-.036,1.6,1.6,0,0,0,1.261-1.7q0-5.063,0-10.127a2.2,2.2,0,0,0-.061-.555,1.6,1.6,0,0,0-1.683-1.2q-6.431,0-12.86,0a2.275,2.275,0,0,0-.578.072,1.556,1.556,0,0,0-1.16,1.6q0,5.1,0,10.2a1.589,1.589,0,0,0,1.739,1.741ZM36.959,82.264a1.549,1.549,0,0,0-.144.06q-2.567,1.4-5.135,2.8a.278.278,0,0,0-.151.295c0,1.3,0,2.6,0,3.9a.312.312,0,0,0,.2.315Q34.24,91,36.75,92.375c.062.034.128.059.209.1Z" transform="translate(-13.047 -79.465)" fill="#333" stroke="#333" stroke-width="0.5"/>
  </g>
</svg>
