<svg id="Group_180" data-name="Group 180" xmlns="http://www.w3.org/2000/svg" width="38.06" height="33.436" viewBox="0 0 38.06 33.436">
  <path id="Path_354" data-name="Path 354" d="M48.527,71.559c-.117.629-.213,1.263-.355,1.886a12.021,12.021,0,0,1-1.815,4.113.66.66,0,0,0-.092.646Q47.3,81.394,48.3,84.593a1.107,1.107,0,0,1-1.153,1.524,1.638,1.638,0,0,1-.554-.19c-2.031-1.026-4.061-2.052-6.084-3.094a.806.806,0,0,0-.729-.037A15.245,15.245,0,0,1,25.619,81.4a26.309,26.309,0,0,1-2.278-1.839,1.128,1.128,0,0,0-.506-.262,14.717,14.717,0,0,1-3.642-.971.742.742,0,0,0-.693.035c-2.034,1.046-4.076,2.075-6.113,3.116a1.189,1.189,0,0,1-1.266.006,1.147,1.147,0,0,1-.414-1.412q1.009-3.178,2.027-6.353a.594.594,0,0,0-.068-.581A12.586,12.586,0,0,1,14.394,56.9a14.6,14.6,0,0,1,9.176-4.15,14.869,14.869,0,0,1,11.6,3.821,3.205,3.205,0,0,0,1.659.826,14.277,14.277,0,0,1,9.362,5.831,12.24,12.24,0,0,1,2.268,5.964,2.11,2.11,0,0,0,.069.286Zm-3.18,11.217c-.044-.179-.066-.3-.1-.409-.431-1.353-.849-2.711-1.307-4.054a1.563,1.563,0,0,1,.255-1.584,10.046,10.046,0,0,0,2.016-7.435A10.416,10.416,0,0,0,42.5,62.483a12.619,12.619,0,0,0-9.485-3.054A12.374,12.374,0,0,0,25,63.008a10.269,10.269,0,0,0-1.17,13.651,12.23,12.23,0,0,0,9.8,4.993,12.716,12.716,0,0,0,5.943-1.194,1.34,1.34,0,0,1,1.274.028c.8.421,1.605.823,2.41,1.232ZM21.106,76.667c-.035-.111-.037-.124-.042-.135-.051-.1-.1-.2-.151-.3a12.1,12.1,0,0,1-.5-10.27C22.27,61.36,25.834,58.7,30.578,57.52c.565-.14,1.147-.214,1.779-.33-.161-.114-.265-.2-.378-.268a13.206,13.206,0,0,0-14.339.216,10.636,10.636,0,0,0-4.915,8.4,9.961,9.961,0,0,0,2.1,6.763,1.472,1.472,0,0,1,.255,1.484c-.358,1.039-.677,2.092-1.009,3.138-.141.443-.278.885-.438,1.4.2-.1.335-.155.464-.22,1.343-.684,2.692-1.359,4.028-2.057a1.417,1.417,0,0,1,1.345-.032C19.976,76.246,20.51,76.432,21.106,76.667Z" transform="translate(-10.467 -52.687)" fill="#333"/>
  <path id="Path_355" data-name="Path 355" d="M24.527,64.548a1.337,1.337,0,1,1-1.348,1.3A1.328,1.328,0,0,1,24.527,64.548Z" transform="translate(-5.262 -47.83)" fill="#333"/>
  <path id="Path_356" data-name="Path 356" d="M29.018,65.887A1.337,1.337,0,1,1,27.7,64.548,1.33,1.33,0,0,1,29.018,65.887Z" transform="translate(-3.966 -47.83)" fill="#333"/>
  <path id="Path_357" data-name="Path 357" d="M30.828,67.223a1.337,1.337,0,1,1,1.354-1.344A1.326,1.326,0,0,1,30.828,67.223Z" transform="translate(-2.67 -47.83)" fill="#333"/>
</svg>
