<svg xmlns="http://www.w3.org/2000/svg" width="18.51" height="27.2" viewBox="0 0 18.51 27.2">
  <g id="Group_99" data-name="Group 99" transform="translate(0.1 0.1)">
    <path id="Path_50" data-name="Path 50" d="M122.9,215.365c0,.951.018,1.9,0,2.854a3.266,3.266,0,0,1-6.452.509,3.306,3.306,0,0,1-.08-.748q-.01-2.586,0-5.173a3.271,3.271,0,0,1,6.535-.272C122.922,213.477,122.9,214.421,122.9,215.365Zm-1.021.017h0c0-.936.028-1.872-.006-2.807a2.235,2.235,0,0,0-2.837-1.991,2.258,2.258,0,0,0-1.652,2.241q-.007,2.563,0,5.126a2.451,2.451,0,0,0,.057.557,2.242,2.242,0,0,0,2.517,1.737,2.207,2.207,0,0,0,1.918-2.106C121.9,217.221,121.882,216.3,121.882,215.381Z" transform="translate(-110.48 -199.666)" fill="#333" stroke="#333" stroke-width="0.2"/>
    <path id="Path_51" data-name="Path 51" d="M112.352,225.113a16.516,16.516,0,0,0,.287,2.216,4.585,4.585,0,0,0,3.938,3.06,4.755,4.755,0,0,0,5.44-3.532,6.423,6.423,0,0,0,.078-1.167c.012-.708,0-1.416,0-2.123a.573.573,0,0,1,1.144-.02c-.006,1.081.038,2.167-.061,3.243-.214,2.318-2.479,4.341-5.08,4.611-.2.02-.265.072-.261.251.012.577.006,1.155,0,1.733a1.31,1.31,0,0,1-.037.313.543.543,0,0,1-.577.394.516.516,0,0,1-.528-.471c-.016-.61-.01-1.22-.013-1.83,0-.34,0-.34-.381-.4a5.724,5.724,0,0,1-4.921-4.244,6.034,6.034,0,0,1-.109-1.164c-.016-.756-.006-1.513,0-2.27a1.393,1.393,0,0,1,.03-.29.543.543,0,0,1,.561-.412.506.506,0,0,1,.536.432c.021.552.007,1.106.007,1.658Z" transform="translate(-108.101 -207.093)" fill="#333" stroke="#333" stroke-width="0.2"/>
    <path id="Path_52" data-name="Path 52" d="M112.182,188.174a13.857,13.857,0,0,1,8.078,2.382.5.5,0,0,1,.2.741.593.593,0,0,1-.841.087,12.963,12.963,0,0,0-2.492-1.323,12.7,12.7,0,0,0-8.167-.331,11.8,11.8,0,0,0-4.073,2.112c-.193.154-.375.321-.569.475a.6.6,0,0,1-.827.018.493.493,0,0,1,.068-.758,12.836,12.836,0,0,1,2.814-1.933,13.48,13.48,0,0,1,4.307-1.34C111.268,188.22,111.869,188.2,112.182,188.174Z" transform="translate(-103.34 -188.174)" fill="#333" stroke="#333" stroke-width="0.2"/>
    <path id="Path_53" data-name="Path 53" d="M115.489,194.754a10.522,10.522,0,0,1,6.858,2.606c.287.247.323.549.094.776a.646.646,0,0,1-.863-.022,18.374,18.374,0,0,0-1.938-1.3,9.335,9.335,0,0,0-5.646-.947,9.191,9.191,0,0,0-4.837,2.1,3.111,3.111,0,0,1-.265.206.6.6,0,0,1-.773-.049.465.465,0,0,1,.033-.7,8.95,8.95,0,0,1,.779-.637A10.92,10.92,0,0,1,115.489,194.754Z" transform="translate(-106.122 -192.125)" fill="#333" stroke="#333" stroke-width="0.2"/>
    <path id="Path_54" data-name="Path 54" d="M118.749,201.366a7.629,7.629,0,0,1,4.535,1.839c.29.241.326.525.1.756a.634.634,0,0,1-.885-.01,6.41,6.41,0,0,0-2.459-1.3,6.884,6.884,0,0,0-6.138,1.123c-.1.074-.19.156-.294.224a.633.633,0,0,1-.821-.047.458.458,0,0,1,.071-.719,10.119,10.119,0,0,1,1.147-.81A8.869,8.869,0,0,1,118.749,201.366Z" transform="translate(-108.925 -195.62)" fill="#333" stroke="#333" stroke-width="0.2"/>
    <path id="Path_55" data-name="Path 55" d="M143.8,196.466a.485.485,0,0,1,.5.492.492.492,0,0,1-.5.513.484.484,0,0,1-.48-.507A.478.478,0,0,1,143.8,196.466Z" transform="translate(-125.982 -193.153)" fill="#333" stroke="#333" stroke-width="0.2"/>
  </g>
</svg>
