<svg xmlns="http://www.w3.org/2000/svg" width="34.042" height="34.035" viewBox="0 0 34.042 34.035">
  <g id="Group_186" data-name="Group 186" transform="translate(0.3 0.299)">
    <path id="Path_372" data-name="Path 372" d="M90.442,112.23c.13-.159.25-.328.393-.474.959-.966,1.917-1.931,2.888-2.884a.782.782,0,0,0,.252-.626c-.01-2.122,0-4.244,0-6.366,0-.594.216-.816.8-.816q4.668,0,9.337,0c.58,0,.927.48.682.946a.709.709,0,0,1-.711.361q-3.72-.009-7.443,0H95.274v.321q0,6.382.007,12.764a.7.7,0,0,0,.177.449q5.761,5.782,11.537,11.549c.038.038.079.074.133.124.08-.074.159-.143.234-.219q5.725-5.723,11.453-11.446a.723.723,0,0,0,.238-.566q-.011-6.3,0-12.6v-.376h-.388q-4.243,0-8.488,0a.648.648,0,0,1-.737-.574.637.637,0,0,1,.681-.727c.794-.006,1.588,0,2.382,0q3.527,0,7.053,0c.583,0,.8.22.8.811,0,2.144,0,4.287,0,6.431a.688.688,0,0,0,.227.539c.991.978,1.969,1.97,2.962,2.948a1.08,1.08,0,0,1,.35.835q-.013,9.223-.006,18.445a3.248,3.248,0,0,1-2.667,3.372c-.029.006-.05.036-.075.054H93.185c-.068-.025-.135-.056-.2-.074a3.284,3.284,0,0,1-2.385-2.183c-.057-.16-.1-.324-.154-.485Zm22.04,11.889c-.063.06-.15.137-.234.22q-2.252,2.252-4.5,4.5c-.451.45-.775.451-1.222,0q-1.87-1.868-3.739-3.74c-.331-.331-.652-.669-.945-.97l-8.935,8.934a8.9,8.9,0,0,0,1.029.119q13.223.011,26.446,0a2,2,0,0,0,.359-.01c.222-.042.441-.1.652-.154Zm1.088-1.008L122.458,132a8.393,8.393,0,0,0,.111-.978q.011-8.308,0-16.615v-.3Zm-21.691,8.934,8.871-8.871-9-9.006v2.846q0,7.018,0,14.038A7.956,7.956,0,0,0,91.879,132.045Zm2.062-17.71v-3.716l-1.858,1.859Zm28.248-1.847-1.809-1.807v3.626Z" transform="translate(-90.442 -101.062)" fill="#333" stroke="#333" stroke-width="0.6"/>
    <path id="Path_373" data-name="Path 373" d="M107.358,114.659a2.924,2.924,0,0,1-1.862.929,2.965,2.965,0,0,1-2.578-1.142,4.5,4.5,0,0,1-.318-5.1,3.151,3.151,0,0,1,4.541-.922c.008-.06.018-.106.023-.154a.651.651,0,0,1,.675-.647.633.633,0,0,1,.629.687c.006,1.6,0,3.2,0,4.8,0,.1,0,.2,0,.294-.013.466.037.929.519,1.137a1.169,1.169,0,0,0,1.289-.313,2.553,2.553,0,0,0,.592-.841,5.122,5.122,0,0,0-2.1-6.551,5.794,5.794,0,1,0-4.023,10.593c.226.033.453.047.679.069a.667.667,0,1,1-.1,1.324,7.116,7.116,0,1,1,7.128-9.11,6.131,6.131,0,0,1-.6,4.637,2.835,2.835,0,0,1-2.47,1.57,2.008,2.008,0,0,1-1.882-1.01C107.462,114.84,107.421,114.765,107.358,114.659Zm-4.08-3.019a3.081,3.081,0,0,0,.613,1.919,1.582,1.582,0,0,0,2.673-.012,3.465,3.465,0,0,0,.187-3.554,1.648,1.648,0,0,0-2.473-.514A2.522,2.522,0,0,0,103.277,111.64Z" transform="translate(-88.876 -100.375)" fill="#333" stroke="#333" stroke-width="0.6"/>
    <path id="Path_374" data-name="Path 374" d="M104.52,102.367a.651.651,0,0,1,.006-1.3.652.652,0,1,1-.006,1.3Z" transform="translate(-87.833 -101.062)" fill="#333" stroke="#333" stroke-width="0.6"/>
  </g>
</svg>
