<svg xmlns="http://www.w3.org/2000/svg" width="25.489" height="33.836" viewBox="0 0 25.489 33.836">
  <g id="Group_164" data-name="Group 164" transform="translate(0.198 0.2)">
    <path id="Path_333" data-name="Path 333" d="M93.728,230.237c.317.127.631.267.952.38q5.309,1.876,10.621,3.745c.6.21.705.366.7,1.006,0,3.123,0,6.247-.005,9.369a39.5,39.5,0,0,1-.4,5.657,13.6,13.6,0,0,1-5.044,9.015,35.316,35.316,0,0,1-5.046,3.291c-.542.3-1.1.573-1.644.865a.809.809,0,0,1-.806,0,40.3,40.3,0,0,1-6.179-3.75,13.44,13.44,0,0,1-4.823-6.42,16.351,16.351,0,0,1-.861-4.1c-.131-1.962-.231-3.928-.264-5.895-.044-2.666-.01-5.333-.01-8,0-.685.1-.821.736-1.047l11.263-3.98a2.751,2.751,0,0,0,.28-.138Zm-11.4,11.485-.083,0c.1,2.422.183,4.846.323,7.266a15.263,15.263,0,0,0,.729,3.732,12.106,12.106,0,0,0,4.449,6.006,36.926,36.926,0,0,0,5.539,3.36.488.488,0,0,0,.38-.007c.488-.238.968-.493,1.443-.757a24.153,24.153,0,0,0,6.033-4.352,11.131,11.131,0,0,0,2.586-4.545,23.57,23.57,0,0,0,.838-6.412c.047-3.362.029-6.725.05-10.088a.383.383,0,0,0-.315-.431c-3.532-1.238-7.06-2.491-10.593-3.73a.8.8,0,0,0-.491.006c-3.512,1.23-7.019,2.473-10.533,3.7a.463.463,0,0,0-.363.534C82.334,237.913,82.326,239.818,82.326,241.722Z" transform="translate(-80.915 -230.237)" fill="#333" stroke="#333" stroke-width="0.4"/>
    <path id="Path_334" data-name="Path 334" d="M93.574,242.171c.24,0,.479,0,.719,0a.7.7,0,0,1,.752.657.693.693,0,0,1-.708.73c-.446.024-.893,0-1.338.019a.661.661,0,0,0-.708.619.644.644,0,0,0,.55.724c.2.04.412.045.61.1a2.087,2.087,0,0,1,1.587,2.274,2.12,2.12,0,0,1-2.075,1.852c-.434.02-.87.014-1.305,0a.71.71,0,1,1-.012-1.413c.392-.015.784,0,1.176,0,.507,0,.795-.238.81-.651.017-.431-.256-.69-.775-.735a2.088,2.088,0,0,1-.066-4.166c.26-.016.522,0,.783,0Z" transform="translate(-80.408 -229.629)" fill="#333"/>
    <path id="Path_335" data-name="Path 335" d="M88.272,242.172c.261,0,.522-.009.783,0a.709.709,0,0,1,.7.684.687.687,0,0,1-.649.687c-.477.033-.957.005-1.434.036a.651.651,0,0,0-.633.919,1.026,1.026,0,0,0,.493.41,4.34,4.34,0,0,0,.635.116,2.091,2.091,0,0,1-.516,4.12c-.435.019-.87.015-1.305,0a.709.709,0,1,1,.009-1.412c.391-.013.783,0,1.174,0,.5,0,.795-.249.809-.658s-.271-.689-.757-.724a2.053,2.053,0,0,1-1.777-1.138,2.085,2.085,0,0,1,1.753-3.035c.239-.009.478,0,.718,0Z" transform="translate(-80.678 -229.629)" fill="#333"/>
    <path id="Path_336" data-name="Path 336" d="M97.579,247.731c.682,0,1.312-.005,1.941,0,.5.005.815.272.825.687a.675.675,0,0,1-.687.718c-.923.025-1.848.024-2.77,0a.7.7,0,0,1-.721-.765q-.016-2.723,0-5.446a.709.709,0,0,1,.724-.757c.413.013.685.329.686.83.005,1.445,0,2.891,0,4.336Z" transform="translate(-80.139 -229.629)" fill="#333"/>
  </g>
</svg>
