<svg xmlns="http://www.w3.org/2000/svg" width="28.535" height="34.036" viewBox="0 0 28.535 34.036">
  <g id="Group_189" data-name="Group 189" transform="translate(0.32 0.3)">
    <path id="Path_348" data-name="Path 348" d="M80.592,16.037a6.533,6.533,0,0,1,.842.325A2.744,2.744,0,0,1,82.927,18.8c.022.511.019,1.024,0,1.535-.01.231.08.312.285.384a9.677,9.677,0,0,1,6.207,6.274,9.878,9.878,0,0,1,.473,3.209c0,1.535-.038,3.071.038,4.6a9.355,9.355,0,0,0,3.058,6.5c.166.158.344.3.5.468a2.058,2.058,0,0,1,.4,2.268,1.993,1.993,0,0,1-1.9,1.253c-2.208.011-4.417,0-6.625,0h-.387A4.936,4.936,0,0,1,82.755,48.7a4.743,4.743,0,0,1-3.012.753,4.936,4.936,0,0,1-4.459-4.171h-.349q-3.264,0-6.528,0a2.088,2.088,0,0,1-2.055-1.316,2.052,2.052,0,0,1,.616-2.388,9.826,9.826,0,0,0,3.082-4.889,10.381,10.381,0,0,0,.328-2.711c.006-1.49-.04-2.983.03-4.47a9.5,9.5,0,0,1,4.047-7.469,8.521,8.521,0,0,1,2.571-1.312.381.381,0,0,0,.318-.435,13.577,13.577,0,0,1,.049-1.888,2.707,2.707,0,0,1,2.106-2.3,1.283,1.283,0,0,0,.178-.068ZM80.135,43.89h4.7q3.41,0,6.823,0c.129,0,.261,0,.39-.016a.68.68,0,0,0,.419-1.149,4.434,4.434,0,0,0-.334-.31A10.934,10.934,0,0,1,88.5,34.325c-.024-1.4.01-2.806-.011-4.211a9.62,9.62,0,0,0-.148-1.686,8.352,8.352,0,0,0-16.559,1.523c-.014,1.457.014,2.916-.008,4.373a10.887,10.887,0,0,1-3.211,7.681c-.236.242-.5.457-.735.7a.638.638,0,0,0-.178.713.655.655,0,0,0,.606.465c.131.01.261.01.392.01Q74.39,43.891,80.135,43.89Zm3.376,1.415H76.754a3.448,3.448,0,0,0,6.758,0Zm-2-25.053c0-.482.006-.968,0-1.453A1.349,1.349,0,0,0,80.3,17.455,1.307,1.307,0,0,0,78.8,18.5a12.123,12.123,0,0,0-.018,1.749Z" transform="translate(-66.195 -16.037)" fill="#333" stroke="#333" stroke-width="0.6"/>
  </g>
</svg>
