<svg xmlns="http://www.w3.org/2000/svg" width="33.643" height="33.635" viewBox="0 0 33.643 33.635">
  <g id="Group_100" data-name="Group 100" transform="translate(0.1 0.099)">
    <path id="Path_43" data-name="Path 43" d="M8.744,228.684a.811.811,0,0,1-.462-.852c.033-.836-.036-1.682.066-2.508a3.7,3.7,0,0,1,2.018-2.838c.038-.021.074-.044.111-.067.009-.005.013-.017.038-.05a3.6,3.6,0,0,1-.272-3,3.46,3.46,0,0,1,1.421-1.814,3.586,3.586,0,0,1,5.062,4.8l1.213.885a5.4,5.4,0,0,1,3.071-3.157,4.865,4.865,0,0,1-.633-4.211,4.708,4.708,0,0,1,1.826-2.512,4.849,4.849,0,0,1,5.8.145,4.739,4.739,0,0,1,1.793,3.08,4.828,4.828,0,0,1-.8,3.492,5.409,5.409,0,0,1,3.074,3.163l1.215-.888a3.561,3.561,0,0,1-.3-2.91,3.515,3.515,0,0,1,1.356-1.827,3.576,3.576,0,0,1,4.283.139c1.357,1.063,1.654,2.618.883,4.616.292.207.6.391.871.622a3.765,3.765,0,0,1,1.281,2.212.657.657,0,0,0,.064.142v3.331H27.683c-.018-.024-.03-.057-.053-.071a.658.658,0,0,1,.393-1.234c.3,0,.609,0,.914,0H31.03c0-.911.036-1.791-.008-2.667a3.874,3.874,0,0,0-2.8-3.479.6.6,0,0,0-.439.065,4.868,4.868,0,0,1-5.574-.006.546.546,0,0,0-.41-.065,3.8,3.8,0,0,0-2.733,2.917,8.456,8.456,0,0,0-.114,1.62c-.017.53,0,1.06,0,1.615h.4c.892,0,1.784,0,2.677,0,.462,0,.784.326.674.745-.056.21-.286.374-.437.559Zm19.792-11.361a3.531,3.531,0,1,0-3.527,3.528A3.533,3.533,0,0,0,28.536,217.322ZM40.4,227.364a16.346,16.346,0,0,0-.01-1.679,2.47,2.47,0,0,0-1.653-2.154.537.537,0,0,0-.41.043,3.6,3.6,0,0,1-3.891-.006.505.505,0,0,0-.38-.043,2.33,2.33,0,0,0-1.6,1.789,15.417,15.417,0,0,0-.118,2.049Zm-30.76-.006h7.988c0-.509.005-1,0-1.485a2.529,2.529,0,0,0-1.638-2.333.59.59,0,0,0-.439.041,3.6,3.6,0,0,1-3.864,0,.572.572,0,0,0-.439-.043,2.364,2.364,0,0,0-1.59,1.943A14.707,14.707,0,0,0,9.644,227.358Zm24.489-6.811a2.238,2.238,0,0,0,2.238,2.268,2.26,2.26,0,1,0-2.238-2.268Zm-18.258-.006a2.261,2.261,0,1,0-2.233,2.274A2.246,2.246,0,0,0,15.875,220.541Z" transform="translate(-8.281 -195.248)" fill="#333" stroke="#333" stroke-width="0.2"/>
    <path id="Path_44" data-name="Path 44" d="M41.731,182.983a.912.912,0,0,0-.074.132,1.909,1.909,0,0,1-1.878,1.347c-.432.009-.864,0-1.361,0,0,.819,0,1.6,0,2.38,0,.362.031.74-.376.93-.381.178-.66-.047-.946-.257q-1.97-1.451-3.951-2.888a.869.869,0,0,0-.474-.157c-1.567-.012-3.134,0-4.7-.013a.5.5,0,0,0-.474.258c-.608.9-1.226,1.8-1.843,2.692-.406.59-.882.588-1.29-.005-.623-.9-1.247-1.808-1.862-2.718a.451.451,0,0,0-.424-.225c-1.578.008-3.156,0-4.734.012a.934.934,0,0,0-.5.181q-2.037,1.469-4.058,2.963a.753.753,0,0,1-.815.153.7.7,0,0,1-.372-.736c.006-.837,0-1.674,0-2.55-.159-.008-.273-.015-.388-.019-.434-.012-.873.011-1.3-.041a1.827,1.827,0,0,1-1.618-1.83q-.006-4.261,0-8.521a1.849,1.849,0,0,1,1.866-1.862q14.839,0,29.677,0a1.87,1.87,0,0,1,1.807,1.295c.024.07.056.137.084.2Zm-4.61,2.911c0-.708-.008-1.336,0-1.964.009-.554.256-.794.8-.8.566,0,1.132,0,1.7,0,.635,0,.8-.17.8-.818q0-3.95,0-7.9c0-.748-.15-.9-.895-.9H10.478c-.065,0-.13,0-.2,0a.6.6,0,0,0-.682.686q0,4.129,0,8.259c0,.465.213.669.683.672.61,0,1.219,0,1.828,0a.7.7,0,0,1,.79.781c.014.544.01,1.088.016,1.632,0,.092.012.184.02.315.131-.09.228-.154.323-.222,1.044-.764,2.083-1.536,3.137-2.286a1.17,1.17,0,0,1,.628-.212c1.839-.016,3.678-.008,5.517-.011a.851.851,0,0,1,.766.405c.5.74,1.006,1.472,1.511,2.206.058.084.125.163.2.263.565-.823,1.117-1.6,1.641-2.4a.969.969,0,0,1,.9-.474c1.785.009,3.569-.006,5.353.016a1.458,1.458,0,0,1,.775.258C34.816,184.194,35.923,185.019,37.121,185.894Z" transform="translate(-8.288 -172.208)" fill="#333" stroke="#333" stroke-width="0.2"/>
    <path id="Path_45" data-name="Path 45" d="M46.3,248.618a2.1,2.1,0,0,1-.435-.53.61.61,0,0,1,.422-.746.663.663,0,0,1,.784.308.652.652,0,0,1-.189.844c-.06.045-.127.083-.19.124Z" transform="translate(-29.767 -215.182)" fill="#333" stroke="#333" stroke-width="0.2"/>
    <path id="Path_46" data-name="Path 46" d="M25.417,190.549q-4.147,0-8.293,0a1.3,1.3,0,0,1-.478-.068.645.645,0,0,1,.1-1.223,1.927,1.927,0,0,1,.421-.035q8.244,0,16.489,0c.589,0,.907.23.915.654s-.324.675-.926.676Z" transform="translate(-12.839 -181.942)" fill="#333" stroke="#333" stroke-width="0.2"/>
    <path id="Path_47" data-name="Path 47" d="M44.841,180.726H53c.12,0,.24,0,.359.007a.644.644,0,0,1,.63.624.67.67,0,0,1-.617.679,2.523,2.523,0,0,1-.261,0H36.561a2.483,2.483,0,0,1-.293-.006.677.677,0,0,1-.6-.663.66.66,0,0,1,.622-.637c.119-.01.239-.008.359-.008Z" transform="translate(-23.951 -177.082)" fill="#333" stroke="#333" stroke-width="0.2"/>
    <path id="Path_48" data-name="Path 48" d="M67.158,190.546c-.783,0-1.566,0-2.349,0a.679.679,0,0,1-.652-.352.543.543,0,0,1,.041-.668.953.953,0,0,1,.577-.293c1.587-.024,3.175-.02,4.762-.009a.653.653,0,0,1,.7.657.68.68,0,0,1-.735.664C68.724,190.551,67.941,190.546,67.158,190.546Z" transform="translate(-40.201 -181.939)" fill="#333" stroke="#333" stroke-width="0.2"/>
    <path id="Path_49" data-name="Path 49" d="M19.36,180.721c.75,0,1.5,0,2.251,0,.495,0,.8.266.789.667s-.314.644-.785.645q-2.332,0-4.665,0a.673.673,0,0,1-.659-.392.547.547,0,0,1,.109-.689,1.01,1.01,0,0,1,.578-.223C17.772,180.707,18.566,180.721,19.36,180.721Z" transform="translate(-12.823 -177.077)" fill="#333" stroke="#333" stroke-width="0.2"/>
  </g>
</svg>
