<svg xmlns="http://www.w3.org/2000/svg" width="38.361" height="32.206" viewBox="0 0 38.361 32.206">
  <g id="Group_109" data-name="Group 109" transform="translate(0.1 0.1)">
    <path id="Path_14" data-name="Path 14" d="M34.54,18.874H51.314A2.147,2.147,0,0,1,53.631,21.2V48.552a2.15,2.15,0,0,1-2.317,2.327H17.768a2.143,2.143,0,0,1-2.3-2.307q0-13.7,0-27.391a2.143,2.143,0,0,1,2.3-2.307ZM16.7,23.808V48.416c0,.908.322,1.235,1.217,1.235H51.183c.9,0,1.219-.328,1.219-1.232V23.808Zm35.7-1.253V21.407c0-1.009-.295-1.305-1.3-1.305H18a4.022,4.022,0,0,0-.423.008.874.874,0,0,0-.842.764c-.047.554-.011,1.115-.011,1.682Z" transform="translate(-15.47 -18.874)" fill="#333" stroke="#333" stroke-width="0.2"/>
    <path id="Path_15" data-name="Path 15" d="M29.228,42.853q-3.174,0-6.348,0a2.135,2.135,0,0,1-2.249-2.24q0-3.308,0-6.617a2.132,2.132,0,0,1,2.229-2.22q6.386,0,12.772,0A2.131,2.131,0,0,1,37.862,34q0,3.327,0,6.655a2.132,2.132,0,0,1-2.21,2.2Q32.44,42.857,29.228,42.853ZM29.237,33q-3.133,0-6.267,0a.975.975,0,0,0-1.11,1.108q0,3.191,0,6.382a.984.984,0,0,0,1.13,1.128q6.248,0,12.5,0c.8,0,1.148-.353,1.149-1.148q0-3.153,0-6.306c0-.821-.346-1.166-1.169-1.166Z" transform="translate(-18.168 -25.621)" fill="#333" stroke="#333" stroke-width="0.2"/>
    <path id="Path_16" data-name="Path 16" d="M62.756,68.66q-3.174,0-6.348,0a2.134,2.134,0,0,1-2.229-2.22q0-3.328,0-6.655a2.129,2.129,0,0,1,2.209-2.2q6.405,0,12.811,0a2.129,2.129,0,0,1,2.211,2.2q.005,3.347,0,6.694a2.13,2.13,0,0,1-2.19,2.182Q65.988,68.664,62.756,68.66Zm.048-1.228q3.134,0,6.267,0a.976.976,0,0,0,1.11-1.109q0-3.191,0-6.383a.984.984,0,0,0-1.13-1.127q-6.248,0-12.5,0c-.8,0-1.148.351-1.148,1.147q0,3.153,0,6.306c0,.821.346,1.166,1.169,1.166Q59.69,67.433,62.8,67.431Z" transform="translate(-35.712 -39.116)" fill="#333" stroke="#333" stroke-width="0.2"/>
    <path id="Path_17" data-name="Path 17" d="M66.758,35.586q-3.327,0-6.655,0c-.3,0-.574-.078-.64-.372a.848.848,0,0,1,.121-.656.9.9,0,0,1,.62-.2q6.232-.016,12.464-.008h.693c.533,0,.8.2.8.606s-.263.621-.789.622Z" transform="translate(-38.466 -26.971)" fill="#333" stroke="#333" stroke-width="0.2"/>
    <path id="Path_18" data-name="Path 18" d="M66.707,45.907q-3.347,0-6.694,0a.615.615,0,1,1-.019-1.226c.1,0,.205,0,.308,0H73.19c.647,0,.915.176.921.6s-.269.624-.9.624Z" transform="translate(-38.413 -32.368)" fill="#333" stroke="#333" stroke-width="0.2"/>
    <path id="Path_19" data-name="Path 19" d="M28,61.391q-3.347,0-6.694,0a.615.615,0,1,1-.019-1.226c.1,0,.205,0,.308,0H34.481c.647,0,.915.176.921.6s-.269.623-.9.623Z" transform="translate(-18.171 -40.465)" fill="#333" stroke="#333" stroke-width="0.2"/>
    <path id="Path_20" data-name="Path 20" d="M28,71.711q-3.327,0-6.655,0c-.405,0-.655-.183-.708-.5a.6.6,0,0,1,.6-.721c.32-.012.641,0,.962,0H34.51a3.1,3.1,0,0,1,.346,0,.6.6,0,0,1,.541.595.591.591,0,0,1-.551.623c-.281.02-.564.006-.846.006Z" transform="translate(-18.166 -45.861)" fill="#333" stroke="#333" stroke-width="0.2"/>
    <path id="Path_21" data-name="Path 21" d="M63.649,40.745h-3.5c-.538,0-.8-.2-.806-.6s.261-.623.786-.624c2.372,0,4.745-.009,7.117.014a.9.9,0,0,1,.621.33.615.615,0,0,1-.025.59.9.9,0,0,1-.614.282C66.035,40.759,64.842,40.745,63.649,40.745Z" transform="translate(-38.413 -29.668)" fill="#333" stroke="#333" stroke-width="0.2"/>
    <path id="Path_22" data-name="Path 22" d="M63.634,51.069q-1.77,0-3.539,0c-.49,0-.755-.223-.751-.62s.265-.607.763-.607h7.078c.5,0,.763.206.771.6.008.41-.261.627-.783.627Z" transform="translate(-38.414 -35.068)" fill="#333" stroke="#333" stroke-width="0.2"/>
    <path id="Path_23" data-name="Path 23" d="M24.943,65.324q1.77,0,3.539,0c.491,0,.756.22.754.617s-.266.61-.761.611q-3.578,0-7.155,0a.619.619,0,0,1-.676-.45.551.551,0,0,1,.247-.669.99.99,0,0,1,.474-.106C22.558,65.32,23.751,65.324,24.943,65.324Z" transform="translate(-18.161 -43.164)" fill="#333" stroke="#333" stroke-width="0.2"/>
    <path id="Path_24" data-name="Path 24" d="M24.959,75.648h3.5c.525,0,.792.214.787.623s-.267.6-.767.6H21.4c-.5,0-.761-.209-.767-.6s.261-.623.786-.623Z" transform="translate(-18.171 -48.563)" fill="#333" stroke="#333" stroke-width="0.2"/>
    <path id="Path_25" data-name="Path 25" d="M79.595,40.738c-.115,0-.232.01-.346,0a.6.6,0,0,1-.551-.624.591.591,0,0,1,.579-.6,6.1,6.1,0,0,1,.654,0,.612.612,0,0,1,.011,1.224c-.115.008-.231,0-.346,0Z" transform="translate(-48.535 -29.664)" fill="#333" stroke="#333" stroke-width="0.2"/>
    <path id="Path_26" data-name="Path 26" d="M79.619,51.068c-.647,0-.915-.176-.921-.6s.267-.624.939-.624c.09,0,.179,0,.269,0a.614.614,0,1,1-.018,1.226C79.8,51.071,79.709,51.068,79.619,51.068Z" transform="translate(-48.535 -35.067)" fill="#333" stroke="#333" stroke-width="0.2"/>
    <path id="Path_27" data-name="Path 27" d="M40.886,66.545a3.344,3.344,0,0,1-.346,0,.6.6,0,0,1-.551-.624.591.591,0,0,1,.579-.6,6.223,6.223,0,0,1,.654,0,.612.612,0,0,1,.011,1.224c-.115.008-.231,0-.346,0Z" transform="translate(-28.292 -43.159)" fill="#333" stroke="#333" stroke-width="0.2"/>
    <path id="Path_28" data-name="Path 28" d="M40.881,76.864a3.213,3.213,0,0,1-.346,0,.593.593,0,0,1-.544-.63.567.567,0,0,1,.545-.587,4.407,4.407,0,0,1,.692,0,.612.612,0,0,1,0,1.224c-.115.007-.23,0-.346,0Z" transform="translate(-28.293 -48.554)" fill="#333" stroke="#333" stroke-width="0.2"/>
    <path id="Path_29" data-name="Path 29" d="M20.253,23.965c-.115,0-.231.009-.346,0a.6.6,0,0,1-.563-.613.59.59,0,0,1,.567-.608,6.093,6.093,0,0,1,.654,0,.613.613,0,1,1,0,1.225c-.1.005-.205,0-.308,0Z" transform="translate(-17.496 -20.892)" fill="#333" stroke="#333" stroke-width="0.2"/>
    <path id="Path_30" data-name="Path 30" d="M25.438,22.745c.115,0,.231-.009.346,0a.612.612,0,0,1-.006,1.22,5.981,5.981,0,0,1-.654,0,.613.613,0,1,1,.006-1.225c.1,0,.205,0,.308,0Z" transform="translate(-20.195 -20.896)" fill="#333" stroke="#333" stroke-width="0.2"/>
    <path id="Path_31" data-name="Path 31" d="M30.567,23.967c-.1,0-.206.006-.308,0a.612.612,0,0,1,.021-1.224c.205-.009.411-.009.615,0a.612.612,0,0,1,.018,1.224C30.8,23.973,30.682,23.967,30.567,23.967Z" transform="translate(-22.894 -20.893)" fill="#333" stroke="#333" stroke-width="0.2"/>
    <path id="Path_32" data-name="Path 32" d="M33.533,40.015c0-.794,0-1.588,0-2.381a.617.617,0,0,1,.993-.58q2.089,1.174,4.163,2.377a.621.621,0,0,1,.006,1.156q-2.088,1.214-4.2,2.4a.613.613,0,0,1-.966-.586C33.528,41.6,33.533,40.809,33.533,40.015ZM34.772,41.4,37.2,40.01l-2.428-1.388Z" transform="translate(-24.915 -28.317)" fill="#333" stroke="#333" stroke-width="0.2"/>
    <path id="Path_33" data-name="Path 33" d="M67.082,65.8c0-.768,0-1.537,0-2.3,0-.664.444-.941,1.014-.621q2.072,1.166,4.13,2.357a.627.627,0,0,1,0,1.175Q70.169,67.6,68.1,68.764c-.569.321-1.011.042-1.013-.621C67.08,67.362,67.082,66.58,67.082,65.8Zm1.243,1.407,2.425-1.39-2.425-1.382Z" transform="translate(-42.46 -41.814)" fill="#333" stroke="#333" stroke-width="0.2"/>
  </g>
</svg>
