<svg xmlns="http://www.w3.org/2000/svg" width="34.191" height="34.024" viewBox="0 0 34.191 34.024">
  <g id="Group_153" data-name="Group 153" transform="translate(0.3 0.288)">
    <path id="Path_304" data-name="Path 304" d="M27.541,212.246c-3.493,0-6.987.022-10.48-.01a3.773,3.773,0,0,1-3.6-3.653q-.019-10.428,0-20.857a3.8,3.8,0,0,1,3.722-3.68q7.224-.018,14.45,0a.771.771,0,1,1,0,1.535q-4.388.006-8.776,0-2.664,0-5.328,0a2.349,2.349,0,0,0-2.535,2.542q0,10.027,0,20.056a2.349,2.349,0,0,0,2.538,2.538q10.029,0,20.057,0a2.347,2.347,0,0,0,2.543-2.531q0-7.033,0-14.067c0-.541.3-.879.764-.883a.752.752,0,0,1,.767.7c0,.047.006.093.006.139,0,4.852.01,9.7-.016,14.556a3.75,3.75,0,0,1-3.6,3.609C34.551,212.268,31.046,212.246,27.541,212.246Z" transform="translate(-13.455 -178.818)" fill="#333" stroke="#333" stroke-width="0.6"/>
    <path id="Path_305" data-name="Path 305" d="M46.145,183.835a4.888,4.888,0,0,1-.474.679q-3.164,3.185-6.346,6.354-2.2,2.2-4.41,4.4a1.656,1.656,0,0,1-.6.388c-1.871.639-3.75,1.258-5.624,1.887a.8.8,0,0,1-1.057-1.084c.629-1.875,1.242-3.756,1.874-5.63a1.469,1.469,0,0,1,.344-.549q5.382-5.4,10.777-10.785c.51-.511.893-.515,1.4-.014,1.225,1.22,2.453,2.436,3.668,3.666A4.429,4.429,0,0,1,46.145,183.835Zm-4.773-2.78-9.887,9.887,2.738,2.733,9.9-9.878ZM29.557,195.61l3.16-1.05-2.11-2.112Z" transform="translate(-12.615 -179.111)" fill="#333" stroke="#333" stroke-width="0.6"/>
  </g>
</svg>
