<svg xmlns="http://www.w3.org/2000/svg" width="34.652" height="33.74" viewBox="0 0 34.652 33.74">
  <g id="Group_140" data-name="Group 140" transform="translate(0.15 0.154)">
    <path id="Path_229" data-name="Path 229" d="M40.8,94.856V95.93c-.014.016-.039.03-.042.05A2.763,2.763,0,0,1,38,98.079q-14.355-.018-28.71-.01a3.165,3.165,0,0,1-.828-.1,2.673,2.673,0,0,1-2.019-2.705q0-6.306,0-12.611,0-6.155,0-12.31a2.676,2.676,0,0,1,2.672-2.8c.658-.029,1.318-.007,1.978-.01.117,0,.236-.011.37-.018,0-.219,0-.4,0-.575a7.978,7.978,0,0,1,.045-1.269,1.377,1.377,0,0,1,1.665-1,1.314,1.314,0,0,1,1.178,1.289c.012.51,0,1.022,0,1.547H19.8c0-.536-.009-1.049,0-1.561a1.3,1.3,0,0,1,1.122-1.269,1.4,1.4,0,0,1,1.767,1.5c-.032.44,0,.884,0,1.331h5.436c0-.464,0-.909,0-1.353a1.421,1.421,0,0,1,1.86-1.462,1.316,1.316,0,0,1,1.037,1.342c.014.487,0,.975,0,1.494h.415c1.007,0,2.013-.011,3.018.021a2.6,2.6,0,0,1,2.441,2.075c.224,1.194.387,2.4.57,3.6q.493,3.209.978,6.419.524,3.441,1.05,6.881.483,3.16.967,6.319C40.564,93.52,40.685,94.187,40.8,94.856ZM37.029,77.234l-.052,0v8.779a3.552,3.552,0,0,1-.008.369.469.469,0,0,1-.5.448.474.474,0,0,1-.492-.417,1.8,1.8,0,0,1-.012-.335q0-3.707,0-7.413v-.389H22.726a2.262,2.262,0,0,1-.368-.009.476.476,0,0,1-.438-.507.46.46,0,0,1,.455-.486c.122-.011.245-.008.368-.008H35.951v-.849H7.479v.849H19.716c.123,0,.247,0,.369.006a.5.5,0,0,1,.494.494.523.523,0,0,1-.489.5,3.355,3.355,0,0,1-.336,0H7.451V95.107A1.752,1.752,0,0,0,9.394,97.06q12.31,0,24.62,0a1.747,1.747,0,0,0,1.953-1.941q0-3.17,0-6.339c0-.367.195-.589.5-.594s.508.214.508.578c0,2.236.02,4.473-.022,6.708a5,5,0,0,1-.393,1.325,1.651,1.651,0,0,1-.129.244c.638,0,1.242.047,1.837-.01a1.593,1.593,0,0,0,1.489-1.943q-.141-1.01-.3-2.02-.488-3.194-.98-6.385-.484-3.16-.967-6.319Q37.273,78.8,37.029,77.234ZM22.686,68.569c0,.205.01.393,0,.579a1.31,1.31,0,0,0,.3.976,1.944,1.944,0,0,1,.314,1.838,2.144,2.144,0,1,1-3.677-2.011.612.612,0,0,0,.168-.309c.021-.353.008-.709.008-1.071H14.359c0,.254.013.487,0,.719a1.051,1.051,0,0,0,.264.786,1.971,1.971,0,0,1,.351,1.862A2.147,2.147,0,1,1,11.3,69.921a.554.554,0,0,0,.157-.278c.018-.353.007-.708.007-1.093H9.354a1.728,1.728,0,0,0-1.9,1.917q0,2.282,0,4.562c0,.109.01.217.015.34H35.94a.651.651,0,0,0,.026-.116c0-1.677.018-3.355,0-5.031a1.673,1.673,0,0,0-1.736-1.67c-.828-.006-1.655,0-2.482,0h-.727c.077.556-.125,1.061.288,1.561A2.072,2.072,0,0,1,30.956,73a2.144,2.144,0,0,1-3.014-3.03c.07-.081.165-.18.169-.275.019-.374.008-.749.008-1.122ZM20.8,68.184c0,.7,0,1.405,0,2.108,0,.364.115.474.447.475.316,0,.427-.16.426-.463-.006-1.383,0-2.767,0-4.15,0-.362-.114-.48-.443-.475-.312,0-.425.12-.427.463C20.8,66.822,20.8,67.5,20.8,68.184Zm-8.325.036c0,.7.006,1.406,0,2.108,0,.293.117.436.412.439.325,0,.455-.1.457-.432q.007-2.108,0-4.217c0-.33-.13-.443-.449-.44s-.427.162-.421.467C12.488,66.836,12.479,67.528,12.479,68.22ZM30,68.22c0-.692-.009-1.384,0-2.075.006-.3-.1-.466-.415-.468s-.446.1-.447.44q-.007,2.108,0,4.217c0,.335.125.435.453.433.3,0,.413-.145.408-.439C29.994,69.626,30,68.923,30,68.22ZM20.125,71.4a1.041,1.041,0,0,0,.584.952,1.081,1.081,0,0,0,1.222-.1.807.807,0,0,0,.374-.827A1.755,1.755,0,0,1,20.125,71.4Zm10.546-.033a1.269,1.269,0,0,1-1.1.4c-.378-.059-.745-.183-1.1-.272a1.1,1.1,0,0,0,2.2-.131ZM11.811,71.4a1.088,1.088,0,0,0,1.175,1.086,1.031,1.031,0,0,0,1-1.071A1.71,1.71,0,0,1,11.811,71.4Z" transform="translate(-6.444 -64.643)" fill="#333" stroke="#333" stroke-width="0.3"/>
    <path id="Path_230" data-name="Path 230" d="M36.8,84.925c.244,0,.49-.01.734,0a.53.53,0,0,1,.566.5.521.521,0,0,1-.564.528q-.767.025-1.535,0a.533.533,0,0,1-.57-.526c.011-.29.239-.48.6-.5H36.8Z" transform="translate(-12.273 -68.72)" fill="#333" stroke="#333" stroke-width="0.3"/>
    <path id="Path_231" data-name="Path 231" d="M31.021,95.09c.245,0,.492-.012.737,0,.352.02.551.207.558.5.008.309-.193.515-.563.527-.513.015-1.028.016-1.541,0a.528.528,0,0,1-.554-.513.541.541,0,0,1,.558-.511C30.483,95.078,30.753,95.09,31.021,95.09Z" transform="translate(-11.112 -70.764)" fill="#333" stroke="#333" stroke-width="0.3"/>
    <path id="Path_232" data-name="Path 232" d="M19.477,84.925c.246,0,.493-.01.738,0a.543.543,0,0,1,.57.5.527.527,0,0,1-.545.521c-.525.019-1.051.02-1.576,0a.5.5,0,0,1-.544-.513.515.515,0,0,1,.553-.51C18.94,84.913,19.209,84.925,19.477,84.925Z" transform="translate(-8.792 -68.72)" fill="#333" stroke="#333" stroke-width="0.3"/>
    <path id="Path_233" data-name="Path 233" d="M31.007,84.926c.257,0,.514-.014.771,0a.5.5,0,0,1,.539.518.48.48,0,0,1-.515.5c-.535.022-1.073.021-1.609,0a.519.519,0,0,1-.534-.5.544.544,0,0,1,.544-.527.61.61,0,0,1,.066,0h.738Z" transform="translate(-11.112 -68.72)" fill="#333" stroke="#333" stroke-width="0.3"/>
    <path id="Path_234" data-name="Path 234" d="M19.475,95.09c.245,0,.492-.011.737,0a.549.549,0,0,1,.573.5.538.538,0,0,1-.575.527c-.514.015-1.029.018-1.543,0a.5.5,0,0,1-.547-.512.517.517,0,0,1,.55-.512C18.937,95.076,19.207,95.09,19.475,95.09Z" transform="translate(-8.792 -70.764)" fill="#333" stroke="#333" stroke-width="0.3"/>
    <path id="Path_235" data-name="Path 235" d="M36.789,95.089c.246,0,.492-.01.737,0,.362.02.581.231.573.528a.522.522,0,0,1-.566.5c-.514.016-1.029.016-1.543,0a.533.533,0,0,1-.559-.508c0-.288.231-.495.586-.521.022,0,.045,0,.067,0h.7Z" transform="translate(-12.273 -70.764)" fill="#333" stroke="#333" stroke-width="0.3"/>
    <path id="Path_236" data-name="Path 236" d="M25.251,84.924c.235,0,.47-.007.7,0,.371.015.588.2.6.5s-.2.515-.568.526c-.513.016-1.027.018-1.54,0a.5.5,0,0,1-.542-.512c0-.294.2-.481.548-.513a.623.623,0,0,1,.067,0Z" transform="translate(-9.954 -68.721)" fill="#333" stroke="#333" stroke-width="0.3"/>
    <path id="Path_237" data-name="Path 237" d="M13.674,96.122c-.256,0-.512.012-.767,0a.516.516,0,1,1,0-1.026c.511-.015,1.024-.016,1.536,0A.52.52,0,0,1,15,95.62a.527.527,0,0,1-.562.5C14.187,96.134,13.93,96.122,13.674,96.122Z" transform="translate(-7.629 -70.764)" fill="#333" stroke="#333" stroke-width="0.3"/>
    <path id="Path_238" data-name="Path 238" d="M25.2,96.123c-.245,0-.491.011-.737,0-.371-.022-.574-.216-.568-.524a.507.507,0,0,1,.555-.5q.771-.023,1.541,0a.51.51,0,0,1,.554.507c0,.291-.195.483-.541.521a.633.633,0,0,1-.067,0Z" transform="translate(-9.954 -70.764)" fill="#333" stroke="#333" stroke-width="0.3"/>
    <path id="Path_239" data-name="Path 239" d="M13.668,90.031c.278,0,.556-.009.834,0a.5.5,0,0,1,.009,1q-.833.02-1.668,0a.5.5,0,0,1-.507-.511.517.517,0,0,1,.531-.488h.8Z" transform="translate(-7.629 -69.747)" fill="#333" stroke="#333" stroke-width="0.3"/>
    <path id="Path_240" data-name="Path 240" d="M36.784,90.03c.268,0,.537-.008.8,0a.5.5,0,0,1,.511.506.493.493,0,0,1-.5.491c-.558.013-1.118.013-1.677,0a.5.5,0,1,1,.018-1C36.225,90.022,36.5,90.03,36.784,90.03Z" transform="translate(-12.273 -69.747)" fill="#333" stroke="#333" stroke-width="0.3"/>
    <path id="Path_241" data-name="Path 241" d="M13.644,101.2c-.268,0-.534.01-.8,0a.509.509,0,0,1-.509-.51.5.5,0,0,1,.5-.485q.834-.017,1.669,0a.5.5,0,1,1,.011,1C14.223,101.206,13.933,101.2,13.644,101.2Z" transform="translate(-7.629 -71.791)" fill="#333" stroke="#333" stroke-width="0.3"/>
    <path id="Path_242" data-name="Path 242" d="M19.453,90.031c.28,0,.559-.01.838,0a.5.5,0,0,1,.007.993c-.57.014-1.14.016-1.71,0a.481.481,0,0,1-.469-.511.494.494,0,0,1,.5-.485l.066,0h.772Z" transform="translate(-8.792 -69.747)" fill="#333" stroke="#333" stroke-width="0.3"/>
    <path id="Path_243" data-name="Path 243" d="M19.429,101.2c-.268,0-.537.009-.8,0a.49.49,0,0,1-.5-.511.482.482,0,0,1,.492-.486q.838-.017,1.677,0a.5.5,0,0,1,.5.49.512.512,0,0,1-.518.507C19.989,101.2,19.709,101.2,19.429,101.2Z" transform="translate(-8.792 -71.791)" fill="#333" stroke="#333" stroke-width="0.3"/>
    <path id="Path_244" data-name="Path 244" d="M25.225,91.034c-.268,0-.536.007-.8,0a.5.5,0,0,1-.524-.493.49.49,0,0,1,.536-.508q.787-.011,1.575,0a.5.5,0,0,1,.545.5.51.51,0,0,1-.557.5C25.738,91.04,25.482,91.034,25.225,91.034Z" transform="translate(-9.954 -69.747)" fill="#333" stroke="#333" stroke-width="0.3"/>
    <path id="Path_245" data-name="Path 245" d="M30.99,91.034c-.268,0-.537.007-.8,0a.515.515,0,0,1-.53-.5.5.5,0,0,1,.518-.5q.821-.014,1.643,0a.477.477,0,0,1,.5.474.493.493,0,0,1-.488.526c-.022,0-.045,0-.067,0Z" transform="translate(-11.112 -69.747)" fill="#333" stroke="#333" stroke-width="0.3"/>
    <path id="Path_246" data-name="Path 246" d="M31.006,101.2c-.28,0-.559.01-.838,0a.508.508,0,0,1-.511-.512.493.493,0,0,1,.5-.484q.839-.017,1.677,0a.476.476,0,0,1,.483.492.483.483,0,0,1-.475.5C31.565,101.206,31.285,101.2,31.006,101.2Z" transform="translate(-11.112 -71.791)" fill="#333" stroke="#333" stroke-width="0.3"/>
    <path id="Path_247" data-name="Path 247" d="M25.2,101.2c-.268,0-.536.01-.8,0a.489.489,0,0,1-.5-.514.479.479,0,0,1,.494-.483c.558-.01,1.118-.011,1.675,0a.483.483,0,0,1,.487.494.493.493,0,0,1-.483.5C25.781,101.206,25.49,101.195,25.2,101.2Z" transform="translate(-9.954 -71.791)" fill="#333" stroke="#333" stroke-width="0.3"/>
  </g>
</svg>
