<svg xmlns="http://www.w3.org/2000/svg" width="37.961" height="22.98" viewBox="0 0 37.961 22.98">
  <g id="Group_207" data-name="Group 207" transform="translate(0.263 0.251)">
    <path id="Path_405" data-name="Path 405" d="M153.137,208.983h-3.726v3.7h-3.762v-3.71H141.91v-3.764h3.714v-3.734h3.761v3.7h3.752Z" transform="translate(-115.688 -195.834)" fill="#333" stroke="#fff" stroke-width="0.5"/>
    <path id="Path_406" data-name="Path 406" d="M140.393,210.307h-7.244v-3.76h11.157c.022.037.045.056.046.077a12.237,12.237,0,0,1-1.777,7.864,10.991,10.991,0,0,1-8.588,5.121,11.231,11.231,0,0,1-3.078-22.207,10.928,10.928,0,0,1,10.05,3.086l-2.616,2.614c-2.5-2.789-6.94-2.694-9.573-.765a7.489,7.489,0,0,0,5.091,13.535A7.328,7.328,0,0,0,140.393,210.307Z" transform="translate(-121.901 -197.171)" fill="#333" stroke="#fff" stroke-width="0.5"/>
  </g>
</svg>
