<svg id="Group_113" data-name="Group 113" xmlns="http://www.w3.org/2000/svg" width="35.575" height="30" viewBox="0 0 35.575 30">
  <path id="Path_114" data-name="Path 114" d="M148.591,109.779c-.111.623-.2,1.253-.338,1.87a12.607,12.607,0,0,1-3.4,6.1,1.041,1.041,0,0,1-1.518.068,1.056,1.056,0,0,1,.019-1.522,10.531,10.531,0,0,0,.283-14.666c-.1-.112-.208-.217-.309-.329a1.066,1.066,0,0,1,.008-1.5,1.034,1.034,0,0,1,1.494.045,12.313,12.313,0,0,1,3.112,5.024c.272.865.394,1.776.585,2.666.022.1.045.2.068.3Z" transform="translate(-113.016 -93.806)" fill="#333"/>
  <path id="Path_115" data-name="Path 115" d="M120.323,106.216q0,5.871,0,11.742a3.114,3.114,0,0,1-2.861,3.221,3.161,3.161,0,0,1-2.04-.537q-4.471-2.731-8.952-5.445a1.251,1.251,0,0,0-.612-.169c-1.795-.013-3.59-.007-5.384-.008a1.054,1.054,0,0,1-1.2-1.183q0-7.642,0-15.285a1.048,1.048,0,0,1,1.171-1.178c1.818,0,3.636,0,5.454-.008a1.113,1.113,0,0,0,.547-.153q4.526-2.739,9.043-5.5a3.062,3.062,0,0,1,3.631.154,2.982,2.982,0,0,1,1.2,2.463Q120.325,100.276,120.323,106.216Zm-2.082-.02q0-5.834,0-11.668a1.07,1.07,0,0,0-1.719-.991q-4.364,2.667-8.739,5.317a.44.44,0,0,0-.252.433q.01,6.911,0,13.821a.416.416,0,0,0,.222.414q4.4,2.669,8.8,5.349a1.357,1.357,0,0,0,.442.184,1.042,1.042,0,0,0,1.241-1.158Q118.242,112.048,118.241,106.2Zm-16.863-6.724v13.439h4.059V99.473Z" transform="translate(-99.271 -91.197)" fill="#333"/>
  <path id="Path_116" data-name="Path 116" d="M142.639,110.255A8.272,8.272,0,0,1,140.311,116a1.054,1.054,0,1,1-1.527-1.438,6.158,6.158,0,0,0,.008-8.613,1.054,1.054,0,1,1,1.511-1.455A8.258,8.258,0,0,1,142.639,110.255Z" transform="translate(-111.574 -95.247)" fill="#333"/>
  <path id="Path_117" data-name="Path 117" d="M136.747,111.69a3.811,3.811,0,0,1-1.058,2.638,1.065,1.065,0,0,1-1.494.115,1.04,1.04,0,0,1-.08-1.492,1.733,1.733,0,0,0,0-2.518,1.041,1.041,0,0,1,.075-1.492,1.065,1.065,0,0,1,1.494.112A3.8,3.8,0,0,1,136.747,111.69Z" transform="translate(-110.132 -96.692)" fill="#333"/>
</svg>
