<svg xmlns="http://www.w3.org/2000/svg" width="34.89" height="33.786" viewBox="0 0 34.89 33.786">
  <g id="Group_123" data-name="Group 123" transform="translate(0.175 0.175)">
    <path id="Path_144" data-name="Path 144" d="M11.3,8.286a3.316,3.316,0,0,1,.9-1.618,2.974,2.974,0,0,1,2.071-.743q7.589.007,15.178,0h8.9a2.812,2.812,0,0,1,3.032,3.024q0,6.088,0,12.176v.385H40.257V21.1q0-6.122,0-12.243a1.644,1.644,0,0,0-1.268-1.752,2.2,2.2,0,0,0-.534-.045q-12.109,0-24.218,0a1.647,1.647,0,0,0-1.805,1.8q0,12.109-.011,24.218A1.757,1.757,0,0,0,14.253,34.9c4.609-.024,9.219-.01,13.828-.01h.462v1.128H28.2c-4.632,0-9.265-.018-13.9.011a2.883,2.883,0,0,1-2.954-2.287.328.328,0,0,0-.048-.086Z" transform="translate(-11.301 -5.925)" fill="#333" stroke="#333" stroke-width="0.35"/>
    <path id="Path_145" data-name="Path 145" d="M48.135,32.624a8.357,8.357,0,1,1-8.385,8.334A8.342,8.342,0,0,1,48.135,32.624Zm-.008,1.124A7.235,7.235,0,1,0,55.343,41,7.242,7.242,0,0,0,48.127,33.748Z" transform="translate(-21.931 -15.901)" fill="#333" stroke="#333" stroke-width="0.35"/>
    <path id="Path_146" data-name="Path 146" d="M40.491,13.081v1.086H14.9V13.081Z" transform="translate(-12.645 -8.599)" fill="#333" stroke="#333" stroke-width="0.35"/>
    <path id="Path_147" data-name="Path 147" d="M20.547,27.566l.767.78-1.3,1.3A12.525,12.525,0,0,1,20.389,31a2.78,2.78,0,1,1-1.555-2.211.426.426,0,0,0,.621-.106C19.805,28.292,20.188,27.93,20.547,27.566Zm-2.193,2.271a1.626,1.626,0,0,0-2.09.515,1.682,1.682,0,0,0,.267,2.171,1.666,1.666,0,0,0,2.211,0,1.519,1.519,0,0,0,.332-1.934l-1.021,1.094-.826-.846.544-.483Z" transform="translate(-12.624 -14.011)" fill="#333" stroke="#333" stroke-width="0.35"/>
    <path id="Path_148" data-name="Path 148" d="M20.556,16.88l.759.777L20,18.953a11.208,11.208,0,0,1,.377,1.333,2.755,2.755,0,0,1-2.408,3.1,2.791,2.791,0,0,1-.846-5.515,2.517,2.517,0,0,1,1.792.281.311.311,0,0,0,.457-.071C19.758,17.673,20.159,17.281,20.556,16.88Zm-2.191,2.256a1.651,1.651,0,0,0-1.855,2.7,1.69,1.69,0,0,0,2.133.1,1.6,1.6,0,0,0,.435-2.041l-.988,1.082-.852-.824Z" transform="translate(-12.621 -10.018)" fill="#333" stroke="#333" stroke-width="0.35"/>
    <path id="Path_149" data-name="Path 149" d="M20.566,38.236l.8.784-1.409,1.391a2.949,2.949,0,0,1,.437,1.943,2.83,2.83,0,0,1-2.907,2.413,2.8,2.8,0,0,1-2.641-2.8,2.765,2.765,0,0,1,4.092-2.453.308.308,0,0,0,.431-.08C19.762,39.033,20.163,38.64,20.566,38.236Zm-2.235,2.27a1.594,1.594,0,0,0-2.045.49,1.663,1.663,0,0,0,2.436,2.227,1.55,1.55,0,0,0,.361-1.951L18.121,42.3l-.883-.764Z" transform="translate(-12.627 -17.998)" fill="#333" stroke="#333" stroke-width="0.35"/>
    <path id="Path_150" data-name="Path 150" d="M26.429,21.273V20.2h9.448v1.074Z" transform="translate(-16.954 -11.259)" fill="#333" stroke="#333" stroke-width="0.35"/>
    <path id="Path_151" data-name="Path 151" d="M35.891,30.854v1.092H26.433V30.854Z" transform="translate(-16.955 -15.24)" fill="#333" stroke="#333" stroke-width="0.35"/>
    <path id="Path_152" data-name="Path 152" d="M34.458,24.834v-1.1h7.763v1.1Z" transform="translate(-19.954 -12.581)" fill="#333" stroke="#333" stroke-width="0.35"/>
    <path id="Path_153" data-name="Path 153" d="M33.669,41.535v1.079H26.441V41.535Z" transform="translate(-16.958 -19.231)" fill="#333" stroke="#333" stroke-width="0.35"/>
    <path id="Path_154" data-name="Path 154" d="M43.329,21.271V20.186h5.547v1.085Z" transform="translate(-23.268 -11.254)" fill="#333" stroke="#333" stroke-width="0.35"/>
    <path id="Path_155" data-name="Path 155" d="M34.46,35.492V34.406h4.418v1.086Z" transform="translate(-19.954 -16.567)" fill="#333" stroke="#333" stroke-width="0.35"/>
    <path id="Path_156" data-name="Path 156" d="M26.428,24.836V23.755H30.3v1.081Z" transform="translate(-16.953 -12.587)" fill="#333" stroke="#333" stroke-width="0.35"/>
    <path id="Path_157" data-name="Path 157" d="M26.427,35.506V34.425H30.3v1.081Z" transform="translate(-16.953 -16.574)" fill="#333" stroke="#333" stroke-width="0.35"/>
    <path id="Path_158" data-name="Path 158" d="M30.311,45.084v1.084H26.433V45.084Z" transform="translate(-16.955 -20.557)" fill="#333" stroke="#333" stroke-width="0.35"/>
    <path id="Path_159" data-name="Path 159" d="M45.543,30.868v1.086H43.349V30.868Z" transform="translate(-23.276 -15.245)" fill="#333" stroke="#333" stroke-width="0.35"/>
    <path id="Path_160" data-name="Path 160" d="M36.668,45.087v1.084h-2.2V45.087Z" transform="translate(-19.956 -20.558)" fill="#333" stroke="#333" stroke-width="0.35"/>
    <path id="Path_161" data-name="Path 161" d="M19.535,10.611h-1.09v-1.1h1.09Z" transform="translate(-13.97 -7.266)" fill="#333" stroke="#333" stroke-width="0.35"/>
    <path id="Path_162" data-name="Path 162" d="M23.092,10.608H22v-1.1h1.094Z" transform="translate(-15.298 -7.266)" fill="#333" stroke="#333" stroke-width="0.35"/>
    <path id="Path_163" data-name="Path 163" d="M14.9,9.5h1.082V10.6H14.9Z" transform="translate(-12.644 -7.262)" fill="#333" stroke="#333" stroke-width="0.35"/>
    <path id="Path_164" data-name="Path 164" d="M46.08,44.195l1-.5.752,1.487,6.088-6.1.815.84c-.044.046-.118.127-.2.2Q51.4,43.26,48.269,46.4c-.506.507-.863.446-1.188-.2C46.75,45.536,46.421,44.876,46.08,44.195Z" transform="translate(-24.296 -18.314)" fill="#333" stroke="#333" stroke-width="0.35"/>
  </g>
</svg>
